<mxfile host="app.diagrams.net" agent="Mozilla/5.0 (Windows NT 10.0; Win64; x64) AppleWebKit/537.36 (KHTML, like Gecko) Chrome/134.0.0.0 Safari/537.36" version="26.0.14">
  <diagram name="第 1 页" id="NaY46IclkNxNZSoOzg2c">
    <mxGraphModel dx="1050" dy="522" grid="1" gridSize="10" guides="1" tooltips="1" connect="1" arrows="1" fold="1" page="1" pageScale="1" pageWidth="827" pageHeight="1169" math="0" shadow="0">
      <root>
        <mxCell id="0" />
        <mxCell id="1" parent="0" />
        <mxCell id="c27S3VRxaDKAYE-xusTy-1" value="" style="shape=image;verticalLabelPosition=bottom;labelBackgroundColor=default;verticalAlign=top;aspect=fixed;imageAspect=0;image=data:image/jpeg,/9j/4AAQSkZJRgABAQEA8ADwAAD/2wBDAAgGBgcGBQgHBwcJCQgKDBQNDAsLDBkSEw8UHRofHh0aHBwgJC4nICIsIxwcKDcpLDAxNDQ0Hyc5PTgyPC4zNDL/2wBDAQkJCQwLDBgNDRgyIRwhMjIyMjIyMjIyMjIyMjIyMjIyMjIyMjIyMjIyMjIyMjIyMjIyMjIyMjIyMjIyMjIyMjL/wAARCAAgAfUDASIAAhEBAxEB/8QAHwAAAQUBAQEBAQEAAAAAAAAAAAECAwQFBgcICQoL/8QAtRAAAgEDAwIEAwUFBAQAAAF9AQIDAAQRBRIhMUEGE1FhByJxFDKBkaEII0KxwRVS0fAkM2JyggkKFhcYGRolJicoKSo0NTY3ODk6Q0RFRkdISUpTVFVWV1hZWmNkZWZnaGlqc3R1dnd4eXqDhIWGh4iJipKTlJWWl5iZmqKjpKWmp6ipqrKztLW2t7i5usLDxMXGx8jJytLT1NXW19jZ2uHi4+Tl5ufo6erx8vP09fb3+Pn6/8QAHwEAAwEBAQEBAQEBAQAAAAAAAAECAwQFBgcICQoL/8QAtREAAgECBAQDBAcFBAQAAQJ3AAECAxEEBSExBhJBUQdhcRMiMoEIFEKRobHBCSMzUvAVYnLRChYkNOEl8RcYGRomJygpKjU2Nzg5OkNERUZHSElKU1RVVldYWVpjZGVmZ2hpanN0dXZ3eHl6goOEhYaHiImKkpOUlZaXmJmaoqOkpaanqKmqsrO0tba3uLm6wsPExcbHyMnK0tPU1dbX2Nna4uPk5ebn6Onq8vP09fb3+Pn6/9oADAMBAAIRAxEAPwD3+kLAUtcF4/8AH1x4NvtNtbbS471rxJXy85jC7Cvopznd+lKTSVy6dOVSahDVs7zIFAINeHyfHXUo5Y4h4Ztmd+Qq3x4Hqfkxip/+F26rj/kW7X/wOb/43Wbr01uztjlWMk2o027bntO4ClByK8OuPjtqduFB8NWzs3RFvmyf/HK9e8Par/bnh3TtVMPkG8t0mMe7ds3KDjPfGcZq4zjLWLOavhq1B2qxaNLIoyBWH4m1u40O0s3trNLue6vI7RI5JzEoL5+Yttbpj0rHm8b3NnHqcV/pKRXthNZpJHDd+bEy3MojBDlAcj5iQVHQevFGB2m4c89KWuf8X+IJfC+gtqUFg2oS+fFClusvll2dwgwSCB970pkHiq2u9R0KC0j8231e1muo5t2NgQRnG3HU+Z7YxQB0eaKxfD2t/wBveGbPWhbiEXMPm+V5m7b143YGenpU3h3Vzr/hzTdX8jyPttuk/lbt2zcoOM4GcZxnFAGpRmikoAMijI9aw/Feuy+HdDa+t7VLqczwwxwvJ5YLSSKgy2D0LZ6VyY8a+N/st/P/AMIVb/6I7J5f29t82P4ox5XzD0PeueriaNHSpJL1Gk3sekZFG4DvXnTeMfG6yach8HWhN4Mlhfti34ziX938p69M9KRfGPjZ5NQX/hD7QfYxkE6g2J+M4iPlfMceuOo96x/tLCdKkfvXoPkl2PRtwoyK5TwP4ovfFNheSahpI0y6tJxC1v5u/GY0cE/KMHD4xW/qV3/Z2lXl75e/7PC8uzdjdtUnGecdOuDXapKSuiS5uGcZo3D1ri9O8fJqPhex1f8As5ori4v4LCe0eb5rdpZFXO7b8w2urDgZBHSreh+INc1xzcR6NYxad9pmtzK2osZcRyNGW8vycclDxu/GmB1JIFLWP4e1g67pbXpg8j/SZ4Ngfd/qpWj3ZwOuzOO2a1x0FAC0ZoptAC7hRuFcN4j8Z6rpfiSbSdL0a3vTDapcu0t0YidzONqjY39z9axtN+JPiLVInaHw/pyNE/lyxS6g4eNvQjyquNOT2RyVcbQpNqpNKx6luFJvHv8AlXnX/Ca+KgM/8I9pmeuP7Rb/AONVkn4r68tpqFxJ4cskaw3NPA9+3mKByCB5eCCOQQcGqlRnHdEU8ywlXSFRM9czS5qKFxJCkmMblDdfWsy/1kWWvaVpf2ff/aPnfvN+NnloG6Y5znHUYrI7jYzSZBNc1q/ir+y7/Vrb7EJTp+kHUw3m48zBkGzocfc689elUIfGt7BPbwavo8Vq13Yy3lo1vemZZBGqsyMSiFWww5wRzQB2mRjPalrjNI8ZX11d6HDqejQ2a61A01lJBdmfkR+YVcFEKnbnoGHvXZjgYoAKKKSkAZFLmvHPF3xsuPDPjDUNDi0GO5W0ZQZmuihbKq3TacferEP7RV5tY/8ACLw4U4P+nH/4iuyngcRVgpwg2mTzJPU9+zSZFeB/8NE3oYD/AIReHn/p+P8A8RVvSPj7dalrVjYSeG4Y0ubqO3ZxeEld7Bc42c9ac8vxUFzSg0ClFnuVJkUDpXNeJfFSeH7qzg+yG480mW5ZZNv2e3DIryng5wXXjjIDHPGK4yjpcilzWRDrHneKLzRvIANtaQ3Pm7s7vMaRduMdvLznPes258Qaw3iS+0jStHsrj7DBDLLLc6g0GfM3YACwv02HnIoA6jIFGRnFc5qHiX+w7uwXWreGztLmImS8WfdFDcAbjGxKjgqGKseuCCBkZvaDqc2r6RHfzWL2aTZeGF2y5iz8jMMDaWXB284zigDWooooAKTIoP0rxjVvjhfafqF/Cnh+2eG1uZYBI96Qz7HK5wEPJx0pOSW5MpKO57RmkyK8TX446u8Yf/hGLZM84a+PH/jlRxfHbVJpXRPDVqQpwX+3Ntz6f6us/bQ7maxFJpvmPcNwpa808EfE678V+JjpFzpEVn/ozzrJHcmTlSowRtH96vSx0FaRkpK6NIyUldCZGcZ59KWuFvfHGpWtvrGo/wBiW7aVpV3JbzTDUMTMExuZYzHtPXgb66XVLnVreJH0uws7ogEyLcXbW+0dRjEb5PXrimUamR60tcLpfxCMlnpd5rdlbadFqtqbqyS3uJrqaUAKSNiwjkB14BPsMA43JfGWg292LWW+ZJNyI7GCTy4mcAqsj7dqMcjhiDzQBvUVial4u0PSb1rS9vTHLGFMpEMjpCD0MjqpWPPbcRW31oAKKKKACvF/jfZ6lNqmhz6fpl3ebYbhGNvA0gQkxkZ2jjvXtFNI/XrUyipKzNaFaVCoqsN0fJ1tpGqQAs2i6w8rfff7BLk/+O9KfNZawkRMegavI3ZfsEo/9lr6worleCpt3dz3Y8TYyEOSCS+T/wAz5Jh0fVkRpJNF1d55Bgn7BNgew+XpX0r4GgmtvAegwXETxTR2MKvHIpVlOwcEHofauhorenRjTd0eZjMwqYtRjNJW7fqcn490i41jSrCKDTDqUcOowzz2oaMeZEud332VT1HGa5O68K6wbTV5NH8ONpdjKbFodIWaENJLFcrJJKAr+WnyDGN3O0E89fWKK1OA4vVjrfiGwt4f+EcvLFrfUrK4xcXFud6JOruRskblQueevbJqpZeFtV0z4kW01vAreHoo7qaJ965glnMZeMLnO3chYYGBvI7Cu/ooA4XwY2vaV4d0zQr7wxfQNBCYnu/tFs0annBwsu7H4Vu+DdPutJ8FaJp97F5V1bWUUU0e4NtYKARkEg/hW7RQAUlLRQBxXxSt7y48DzrYLMbhbq2dWhhMrJiZDuCgEtjrgelc9L4okbUtNnjm1lbSBGF3B/YM/wDpLFRtIOz5cHJxXqpz/wDqoHSvOxuWUcY4up0v26+qfy7Fxm47Hkw8TXQi1hWu9ZL3Jb7Aw8Pzj7IMfLn9382DzzQ3ia6MWjqt3rKvbspv3/sCf/SgBzgbPlyfSvWqK4v9XcH5/wDkva38v9PXcv20jiPh+8lzP4jvvs91DDc6kHh+0wPEzKIIhnawB6gj8K6fW7aa88P6jbQJvmmtZI41yBlipAGTx1q8Qe3WnV7VKkqUI047JWMm7nmOo+DtaibwxPp1qrZk05dYh8xBs+zujCUZOCVCuhxkkFeuK3PB/g2z0uH7ffaNZx6z9supRcmNGlCvNIVO8ZPMbL3zzjtiuyorQRxHhZ9d0W3/ALKufDF+yG/uX+1rc2xjCSXDuGx5u/AVhkbc8dK7eiigAppz2p1FAHlXiyaTTviHdXMtjqEsE2n26pJb2cky5V5cjKg4PI/OuZ1W5LXK6ppen6xDqUQ2kNpdwEuE/uOAn5HqK952nn0NOrphipwjyo8jEZLh6+IeIk3d6PazX3HjFv4iWa3jeXR9bhkYfNG2mTEqfqFrD8WKms6VcNaabraaiIWjjZdMnHmKRyjZTBU+/Q89q+g6bg5qpYypKPK7HNR4bwlCqqtNyTXmv8iK1VktIUZSCEUEH6VzXii21RPEHh/VNP0qfUUsWuPOjhliRgHQKCPMZQfzrrBwKK5D6A891DTNc1u58Q3h0S4s/tfh5rGCKeeEs82ZSBlHIGd45yBzWnaeC7Sw0SWSKG5m1ZtNa1ElzeSTMuU5RS7EIN3pgcV19FAHJeFPBtnpGnaTc3UFw2qW9kkLG4vJJxAdgDrGGYqgyMfJj06V1tFFABSc0tFAHyz8TvD+uT/FDXLq30XUZ7eR0KSxWrujfuk6EDHY1yB8MeIvLkX/AIR7V8knH+gy/wDxNfaZHtTq9bD5xXoUVRilZX/Eh003c+LT4a8QGRT/AMI/q+ADn/QZf/ia0/DXhvX08WaOz6FqiIuo27Mz2cihVEi5JJGAK+v6aQecd/wrSpnuIqQcGlr/AJW7iVJLUWuHuvCWp6/rOu3d7qV3plvdL9gighWCUTWoXktvRsbmeTgYOMZ5ruR0orxTQ830SLxXomrfa77w9d6i7aZBYvLb3NuNzQyzDed8g+8rI3/AsdQRSX2hPeeLb3VtV8CS6tFdWdqsIZrR2tnXeXU75Rg/MvKkjj2r0migDidb8N3Pi2Cz0S5spdM0CO2WSZFkQO0uMRxDYxCiM/MeoJCAZANb/h86v/ZKRa1Cq30DmJ5UK7Zwp4lUA8Bhg4OCDkYxiteigAooooAQ18qaroWrDxVq8k+j6rIov7hodljKy4MjHcCFwc9jX1ZSVFSmpqzMqtJVY8rPkm40/XJ3EKaHrCREfPJ9glJ+gG2pDp2qwW+yDw9rB2jCp9gl/wDia+s6K5/qdO1jm+oUrJanz98HdI1S38fvd3mn38SmwlWSW4tpIkBLx4UbgPevoEdKaRzTq6YxUVZHZCCguVHkuo+ELud/ESDwb5+qXl9NNYawZrdBBuC+XJvD+aNrDdgL/hXoFjoP2IyXLXl9cXksO2US3kskRfjJWNmKLz6AYzW1RVFHA+H/AA3qlnJ4Ha6s9n9l6TPb3RLoxilZYABwTnOx+Vz+tZ0/g67S+1e1u9J1bU7S/vJbhJLbWWgg2SNuKSRmRcYyRlVbIA716fRQB5rqPhO8j1nW/N0vVtTs9Um85TZaw1sgDRqjJLH5iA/d+8A2VIBzivRbWFbe0hgRSixxqgUtuwAMYz3qWigAooooA//Z;" vertex="1" parent="1">
          <mxGeometry x="180" y="100" width="501" height="32" as="geometry" />
        </mxCell>
        <mxCell id="c27S3VRxaDKAYE-xusTy-2" value="" style="shape=image;verticalLabelPosition=bottom;labelBackgroundColor=default;verticalAlign=top;aspect=fixed;imageAspect=0;image=data:image/jpeg,/9j/4AAQSkZJRgABAQEAZABkAAD/2wBDAAgGBgcGBQgHBwcJCQgKDBQNDAsLDBkSEw8UHRofHh0aHBwgJC4nICIsIxwcKDcpLDAxNDQ0Hyc5PTgyPC4zNDL/2wBDAQkJCQwLDBgNDRgyIRwhMjIyMjIyMjIyMjIyMjIyMjIyMjIyMjIyMjIyMjIyMjIyMjIyMjIyMjIyMjIyMjIyMjL/wAARCAG2BlkDASIAAhEBAxEB/8QAHwAAAQUBAQEBAQEAAAAAAAAAAAECAwQFBgcICQoL/8QAtRAAAgEDAwIEAwUFBAQAAAF9AQIDAAQRBRIhMUEGE1FhByJxFDKBkaEII0KxwRVS0fAkM2JyggkKFhcYGRolJicoKSo0NTY3ODk6Q0RFRkdISUpTVFVWV1hZWmNkZWZnaGlqc3R1dnd4eXqDhIWGh4iJipKTlJWWl5iZmqKjpKWmp6ipqrKztLW2t7i5usLDxMXGx8jJytLT1NXW19jZ2uHi4+Tl5ufo6erx8vP09fb3+Pn6/8QAHwEAAwEBAQEBAQEBAQAAAAAAAAECAwQFBgcICQoL/8QAtREAAgECBAQDBAcFBAQAAQJ3AAECAxEEBSExBhJBUQdhcRMiMoEIFEKRobHBCSMzUvAVYnLRChYkNOEl8RcYGRomJygpKjU2Nzg5OkNERUZHSElKU1RVVldYWVpjZGVmZ2hpanN0dXZ3eHl6goOEhYaHiImKkpOUlZaXmJmaoqOkpaanqKmqsrO0tba3uLm6wsPExcbHyMnK0tPU1dbX2Nna4uPk5ebn6Onq8vP09fb3+Pn6/9oADAMBAAIRAxEAPwD3+iiigAooooAKKKKACiiigAorAuvGWk2moXViyalNPauI5vs2mXM6oxVXA3JGRnaynr3qP/hN9K/59dc/8Ed5/wDGqAOjornP+E30r/n11z/wR3n/AMao/wCE30r/AJ9dc/8ABHef/GqAOjornP8AhN9K/wCfXXP/AAR3n/xqmr460hxlbbW2GSMjQ7w8jg/8sqAOlornP+E30r/n11z/AMEd5/8AGqP+E30r/n11z/wR3n/xqgDo6K5z/hN9K/59dc/8Ed5/8ao/4TfSv+fXXP8AwR3n/wAaoA6Oiuc/4TfSv+fXXP8AwR3n/wAao/4TfSv+fXXP/BHef/GqAOjornP+E30r/n11z/wR3n/xqmjx1pDFgttrZKnBA0O84PX/AJ5UAdLRXOf8JvpX/Prrn/gjvP8A41R/wm+lf8+uuf8AgjvP/jVAHR0Vzn/Cb6V/z665/wCCO8/+NUf8JvpX/Prrn/gjvP8A41QB0dFc5/wm+lf8+uuf+CO8/wDjVH/Cb6V/z665/wCCO8/+NUAdHRXOf8JvpX/Prrn/AII7z/41TR460hiwW21slTggaHecHr/zyoA6Wiuc/wCE30r/AJ9dc/8ABHef/GqP+E30r/n11z/wR3n/AMaoA6Oiuc/4TfSv+fXXP/BHef8Axqj/AITfSv8An11z/wAEd5/8aoA6Oiuc/wCE30r/AJ9dc/8ABHef/GqP+E30r/n11z/wR3n/AMaoA6Oiuc/4TfSv+fXXP/BHef8Axqm/8J1pBcoLbW9wAJH9h3mQD/2y9jQB0tFc5/wm+lf8+uuf+CO8/wDjVH/Cb6V/z665/wCCO8/+NUAdHRXOf8JvpX/Prrn/AII7z/41R/wm+lf8+uuf+CO8/wDjVAHR0Vzn/Cb6V/z665/4I7z/AONUf8JvpX/Prrn/AII7z/41QB0dFc5/wm+lf8+uuf8AgjvP/jVN/wCE60guUFtre4AEj+w7zIB/7ZexoA6Wiuc/4TfSv+fXXP8AwR3n/wAao/4TfSv+fXXP/BHef/GqAOjornP+E30r/n11z/wR3n/xqj/hN9K/59dc/wDBHef/ABqgDo6KyNI8Sadrd1c2tp9rSe3RJJI7qzlt2CuWCkCRVJBKN09K16ACiiigAooooAKKKKACiqOr6vZ6Hp7X188iwK6R/u4mkYs7BFAVQSSWYDgd6yv+E30r/n11z/wR3n/xqgDo6K5z/hN9K/59dc/8Ed5/8ao/4TfSv+fXXP8AwR3n/wAaoA6Oiuc/4TfSv+fXXP8AwR3n/wAapreOtIQZa21tRkDJ0O8HJ4H/ACyoA6Wiuc/4TfSv+fXXP/BHef8Axqj/AITfSv8An11z/wAEd5/8aoA6Oiuc/wCE30r/AJ9dc/8ABHef/GqP+E30r/n11z/wR3n/AMaoA6Oiuc/4TfSv+fXXP/BHef8Axqj/AITfSv8An11z/wAEd5/8aoA6Oiuc/wCE30r/AJ9dc/8ABHef/Gqa3jrSEGWttbUZAydDvByeB/yyoA6Wiuc/4TfSv+fXXP8AwR3n/wAao/4TfSv+fXXP/BHef/GqAOjornP+E30r/n11z/wR3n/xqj/hN9K/59dc/wDBHef/ABqgDo6K5z/hN9K/59dc/wDBHef/ABqj/hN9K/59dc/8Ed5/8aoA6Oiuc/4TfSv+fXXP/BHef/Gqa3jrSEGWttbUZAydDvByeB/yyoA6Wiuc/wCE30r/AJ9dc/8ABHef/GqP+E30r/n11z/wR3n/AMaoA6Oiuc/4TfSv+fXXP/BHef8Axqj/AITfSv8An11z/wAEd5/8aoA6Oiuc/wCE30r/AJ9dc/8ABHef/GqP+E30r/n11z/wR3n/AMaoA6Oiuc/4TfSv+fXXP/BHef8Axqmt450hELvba2qqMknQ7wAD/v1QB0tFc5/wm+lf8+uuf+CO8/8AjVH/AAm+lf8APrrn/gjvP/jVAHR0Vzn/AAm+lf8APrrn/gjvP/jVH/Cb6V/z665/4I7z/wCNUAdHRXOf8JvpX/Prrn/gjvP/AI1R/wAJvpX/AD665/4I7z/41QB0dFc5/wAJvpX/AD665/4I7z/41TW8c6QiF3ttbVVGSTod4AB/36oA6Wiuc/4TfSv+fXXP/BHef/GqP+E30r/n11z/AMEd5/8AGqAOjornP+E30r/n11z/AMEd5/8AGqP+E30r/n11z/wR3n/xqgDo6K5e48f6Ja20txcRazFDEheSSTRbxVRQMkkmLAAHeunBDAEdDzQAtFFFABRRRQAUUUUAFFFYF14y0m01C6sWTUpp7VxHN9m0y5nVGKq4G5IyM7WU9e9AG/RXOf8ACb6V/wA+uuf+CO8/+NUf8JvpX/Prrn/gjvP/AI1QB0dFc5/wm+lf8+uuf+CO8/8AjVH/AAm+lf8APrrn/gjvP/jVAHR0VzQ8daQxYLba2SpwQNDvOD1/55U7/hN9K/59dc/8Ed5/8aoA6Oiuc/4TfSv+fXXP/BHef/GqP+E30r/n11z/AMEd5/8AGqAOjornP+E30r/n11z/AMEd5/8AGqP+E30r/n11z/wR3n/xqgDo6K5z/hN9K/59dc/8Ed5/8ao/4TfSv+fXXP8AwR3n/wAaoA6OiuaHjrSGLBbbWyVOCBod5wev/PKnf8JvpX/Prrn/AII7z/41QB0dFc5/wm+lf8+uuf8AgjvP/jVH/Cb6V/z665/4I7z/AONUAdHRXOf8JvpX/Prrn/gjvP8A41R/wm+lf8+uuf8AgjvP/jVAHR0Vzn/Cb6V/z665/wCCO8/+NUf8JvpX/Prrn/gjvP8A41QB0dFc1/wnWkFygttb3AAkf2HeZAP/AGy9jTv+E30r/n11z/wR3n/xqgDo6K5z/hN9K/59dc/8Ed5/8ao/4TfSv+fXXP8AwR3n/wAaoA6Oiuc/4TfSv+fXXP8AwR3n/wAao/4TfSv+fXXP/BHef/GqAOjornP+E30r/n11z/wR3n/xqj/hN9K/59dc/wDBHef/ABqgDo6K5r/hOtILlBba3uABI/sO8yAf+2Xsad/wm+lf8+uuf+CO8/8AjVAHR0Vzn/Cb6V/z665/4I7z/wCNUf8ACb6V/wA+uuf+CO8/+NUAdHRXOf8ACb6V/wA+uuf+CO8/+NUf8JvpX/Prrn/gjvP/AI1QB0dFc5/wm+lf8+uuf+CO8/8AjVH/AAm+lf8APrrn/gjvP/jVAHR0VzX/AAnWkBwhttb3EEgf2HeZIH/bL3FO/wCE30r/AJ9dc/8ABHef/GqAOjornP8AhN9K/wCfXXP/AAR3n/xqj/hN9K/59dc/8Ed5/wDGqAOjornP+E30r/n11z/wR3n/AMaq5pHiTTtburm1tPtaT26JJJHdWctuwVywUgSKpIJRunpQBr0UUUAFFYeuya/B5lxptzpFvZwwGSRr6ORiWGSeVZQi4A+b5u/HFZCeKtV1eLw9b6RbW1rfarYHUJTeq0iW8QCcbVKliWkUDkcAn2oA7OiuIj8Y6ne2WnWVrbWkWuXV/cWEvm7nghaDcZJAAQzAhRgZH3xk8UjeMdUhsLiyltrQ69FqselLt3CBmdVkWXGSwXy23Fck5UjPegDuKK5/w/q+oXOqapo+rram+sPKk861VkjlikDbSFYkqQUcEZPQHvUms+MfDfh8zJqut2NrNFH5jQPOvm7cZ4TO457ADmgDcorkv+Fk+HP72qf+Ci7/APjdH/CyPDn97VP/AAUXf/xugDraK5L/AIWR4c/vap/4KLv/AON0f8LI8Of3tU/8FF3/APG6AOtorkv+FkeHP72qf+Ci7/8AjdH/AAsjw5/e1T/wUXf/AMboA62iuS/4WR4c/vap/wCCi7/+N0f8LI8Of3tU/wDBRd//ABugDraK5L/hZHhz+9qn/gou/wD43R/wsjw5/e1T/wAFF3/8boA62iuS/wCFkeHP72qf+Ci7/wDjdH/CyPDn97VP/BRd/wDxugDraK5L/hZHhz+9qn/gou//AI3R/wALI8Of3tU/8FF3/wDG6AOtorkv+FkeHP72qf8Agou//jdH/CyPDn97VP8AwUXf/wAboA62iuS/4WR4c/vap/4KLv8A+N0f8LI8Of3tU/8ABRd//G6AOtorkv8AhZHhz+9qn/gou/8A43R/wsjw5/e1T/wUXf8A8boA62iuS/4WR4c/vap/4KLv/wCN0f8ACyPDn97VP/BRd/8AxugDraK5L/hZHhz+9qn/AIKLv/43R/wsjw5/e1T/AMFF3/8AG6AOtorkv+FkeHP72qf+Ci7/APjdH/CyPDn97VP/AAUXf/xugDraK5L/AIWR4c/vap/4KLv/AON0f8LI8Of3tU/8FF3/APG6AOtorkv+FkeHP72qf+Ci7/8AjdH/AAsjw5/e1T/wUXf/AMboA62iuS/4WR4c/vap/wCCi7/+N0f8LI8Of3tU/wDBRd//ABugDraK5L/hZHhz+9qn/gou/wD43R/wsjw5/e1T/wAFF3/8boA62iuS/wCFkeHP72qf+Ci7/wDjdH/CyPDn97VP/BRd/wDxugDraK5L/hZHhz+9qn/gou//AI3R/wALI8Of3tU/8FF3/wDG6AOtorkv+FkeHP72qf8Agou//jdH/CyPDn97VP8AwUXf/wAboA62iuS/4WR4c/vap/4KLv8A+N0f8LJ8Of3tU/8ABRd//G6AOtoqtp1/barptrqFnIZLW6iWaJypXcjDIODyOD3qzQAUUUUAFFFFABRRRQAUUUUAc54a/wCQ94u/7Cqf+kdtXR1znhr/AJD3i7/sKp/6R21dHQAUUUUAFVNO/wCPZ/8ArvL/AOjGq3VTTv8Aj2f/AK7y/wDoxqALdFFFABRRRQAUUUUAFVLP/j5vv+u4/wDRaVbqpZ/8fN9/13H/AKLSgC3RRRQAUUUUAFFFFABVSz/4+b7/AK7j/wBFpVuqln/x833/AF3H/otKALdFFFABRRRQAUUUUAFVI/8AkL3H/XCP/wBCerdVI/8AkL3H/XCP/wBCegC3RRWVJ4m0CKWSKTXNNSSNyjo13GCrA4IIzwQQQRSbS3E5JbmrRVay1Cy1KFprG7t7qJW2l4JA6hsA4yD15H51Zpp32BNPVBRRRQMKqR/8he4/64R/+hPVuqkf/IXuP+uEf/oT0AW6KKKACiiigDnLL/kpGtf9gqx/9G3VdHXOWX/JSNa/7BVj/wCjbqujoAKKKKAOH8Y69ead4gs7M6pdadYyWkk3mWFmLqd5FYDBTY5VAD97bjJxuHeCy13Xdct/DGnJqEVld6hYy313eWqRyHZGUUBA25AWMgJ64wQK3tU8P30+vLrWk6rHY3bWotJRPa+ejoGLKQNykMCzc5xzyOKpR+CHsLLSBpOqtb6hpomVbmeASrMJm3Sh0BXgsAwwRjAoAy4fEmt3sOn6Gt4kOpy6tc6fPqCQqf3cCs5dUOVDsoQcggEnit/wvqF/LdazpOpXIurjS7pYludgQyxvGkilguAGG4g4AHGcVVHgkw6XZrbam6ata3sl+NQeENvmk3CTdHkfIQ5XaCMADnitXw/ob6Ol7Lc3ZvL++uPtF1ceX5YZtqooVcnaoVVAGT0680Ac/wCNvENkbeDTRDqPnrq1hlzp04i4uoicS7Nh4HHPJ4HNdb/aMH9y5/8AAaT/AOJrH8b/APIBtv8AsK6d/wClkNdHQBU/tGD+5c/+A0n/AMTR/aMH9y5/8BpP/iat0UAVP7Rg/uXP/gNJ/wDE1Vv7+F7dQEuP9dGeYHHR1PpWrVTUf+PZP+u8X/oxaAD+0YP7lz/4DSf/ABNH9owf3Ln/AMBpP/iat0UAVP7Rg/uXP/gNJ/8AE0f2jB/cuf8AwGk/+Jq3RQBU/tGD+5c/+A0n/wATR/aMH9y5/wDAaT/4mrdFAFT+0YP7lz/4DSf/ABNVb+/he3UBLj/XRnmBx0dT6Vq1U1H/AI9k/wCu8X/oxaAD+0YP7lz/AOA0n/xNH9owf3Ln/wABpP8A4mrdFAFT+0YP7lz/AOA0n/xNH9owf3Ln/wABpP8A4mrdFAFT+0YP7lz/AOA0n/xNH9owf3Ln/wABpP8A4mrdFAFT+0YP7lz/AOA0n/xNVb+/he3UBLj/AF0Z5gcdHU+latVNR/49k/67xf8AoxaAD+0YP7lz/wCA0n/xNH9owf3Ln/wGk/8Aiat0UAVP7Rg/uXP/AIDSf/E0f2jB/cuf/AaT/wCJq3RQBU/tGD+5c/8AgNJ/8TR/aMH9y5/8BpP/AImrdFAFT+0YP7lz/wCA0n/xNVtRv4X026UJcZaJgM27gdPUitSqup/8gq7/AOuL/wAjQA0ajBgfJc/+A0n/AMTS/wBowf3Ln/wGk/8Aiaj1DW9J0fyRqeqWViZQfLFzcJFvxjONxGcZGfqKZp3iLRNXnaDTNZ0+9mVSzR210kjBQQCSFJOMkfnVqnNx5knYLk/9owf3Ln/wGk/+Jo/tGD+5c/8AgNJ/8TVuioAqf2jB/cuf/AaT/wCJo/tGD+5c/wDgNJ/8TVuigCp/aMH9y5/8BpP/AImq2o38L6bdKEuMtEwGbdwOnqRWpVXU/wDkFXf/AFxf+RoAaNRgwPkuf/AaT/4ml/tGD+5c/wDgNJ/8TVodBS0AVP7Rg/uXP/gNJ/8AE0f2jB/cuf8AwGk/+Jq3RQBynju/hf4feI1CXGW0y5AzbuB/q27kV1Kf6tfoK5/x9/yTvxL/ANgu5/8ARTV0Cf6tfoKAHUUUUAFFFFABRRRQAVznhr/kPeLv+wqn/pHbV0dc54a/5D3i7/sKp/6R21AHR0UUUAFFFFAFSz/4+b7/AK7j/wBFpVuqln/x833/AF3H/otKt0AFFFFABRRRQAUUUUAVLP8A4+b7/ruP/RaVbqpZ/wDHzff9dx/6LSrdABRRRQAUUUUAFFFFAFSP/kL3H/XCP/0J6t1Uj/5C9x/1wj/9Ces3/hNfCgIH/CT6Lk9B9vi/+Kq405z+FNhc3aKjgniuYI54JUlhlUPHJGwZXUjIII4II71JUNW0YBRRRQAUUUUAVI/+Qvcf9cI//Qnq3VSP/kL3H/XCP/0J6zf+E28J4J/4SjRcDqft8XH/AI9VRhKXwq4XN2ioLO9tNRtEurG6huraTOyaCQOjYODgjg8gj8KnpNNOzAKKKKQBRRRQBUk/5C9v/wBcJP8A0JKt1Uk/5C9v/wBcJP8A0JKt0AFFFFABXOWX/JSNa/7BVj/6Nuq6Oucsv+Ska1/2CrH/ANG3VAHR0UUUAcj4t0jxDrOo2kNrDptzoca+ZcWlzdyQNcSg8B9sT5jHB28ZPXgYM2o6Trcmo6XrtjHpyapbW8ttcWss7+S8chRiFkCbgVaNSDs5yeldRRQBxEfg7U7Ky069tbm0l1y2v7i/l83ckExn3CSMEAsoAYYOD9wZHNI3g7VJrC4vZbm0XXpdVj1Vdu4wKyKsaxZwGK+Wu0tgHLE47V3FFAHP+H9I1C31TVNY1drUX1/5Ufk2rM8cUUYbaAzAFiS7knA6gdqZ4+UH4eeJSQM/2Xc84/6ZNXR1zvj7/knfiX/sF3P/AKKagDoEA8teB0FLgegpE/1a/QU6gBMD0FGB6ClooAp6iB9mTj/lvF/6MWreB6Cquo/8eyf9d4v/AEYtW6AEwPQUYHoKWigBMD0FGB6ClooATA9BRgegpaKAKmpgf2Vd8f8ALF/5GrQAwOBVbU/+QVd/9cX/AJGrI6CgAwPQUYHoKWigBMD0FGB6ClooATA9BRgegpaKAKmpgf2Vd8f8sX/katADA4FVtT/5BV3/ANcX/kasjoKADA9BRgegpaKAEwPQUYHoKWigBMD0FGB6ClooAQgYPAqrpgH9lWnH/LFP5CrR6GspdV07SNBsrjU7+1soDGiCW5mWNS23OMsQM4B/Kmk27IDVwPQUYHoKyrPxR4e1C7jtLLXdMubmTOyGG7jd2wMnCg5OACfwrWpyhKDtJWYCYHoKMD0FLRUgJgegowPQUtFACEDB4FVdMA/sq04/5Yp/IVaPQ1W0z/kFWn/XFP5CgCzgegowPQUtFACYHoKRwPLbgdDTqa/+rb6GgDn/AAD/AMk78Nf9gu2/9FLXRVzvgH/knfhr/sF23/opa6KgAooooAKKKKACiiigAooooA5zw1/yHvF3/YVT/wBI7aujrnPDX/Ie8Xf9hVP/AEjtq6OgAooooAKqad/x7P8A9d5f/RjVbqpp3/Hs/wD13l/9GNQBbooooAKKKKACiiigAqpZ/wDHzff9dx/6LSrdVLP/AI+b7/ruP/RaUAW6KKKACiiigAooooAKqWf/AB833/Xcf+i0q3VSz/4+b7/ruP8A0WlAFuiiigAooooAKKKKACqkf/IXuP8ArhH/AOhPVuqkf/IXuP8ArhH/AOhPQBbr5X8aXRi8Y6zBAokuXv59q9lHmN8zegr6or5Y8UxwWPi3xDcO2N2oXDvIx5/1jYH0HQCuHHW5Y3PNzK3LG6vrseu/BC3Nv4LvA0jSSNqDs7nufLj/ACHFelV5r8EJZZ/Bd5JJF5YbUX2Keu3y48Z9+telV00L+zVzrw1/ZRvuFFFFam4VUj/5C9x/1wj/APQnq3VSP/kL3H/XCP8A9CegC3RRRQAUUUUAc5Zf8lI1r/sFWP8A6Nuq6Oucsv8AkpGtf9gqx/8ARt1XR0AFFFFABRRRQAUUUUAc543/AOQDbf8AYV07/wBLIa6Ouc8b/wDIBtv+wrp3/pZDXR0AFFFFABVTUf8Aj2T/AK7xf+jFq3VTUf8Aj2T/AK7xf+jFoAt0UUUAFFFFABRRRQAVU1H/AI9k/wCu8X/oxat1U1H/AI9k/wCu8X/oxaALdFFFABRRRQAUUUUAFVNR/wCPZP8ArvF/6MWrdVNR/wCPZP8ArvF/6MWgC3RRRQAUUUUAFFFFABVXU/8AkFXf/XF/5GrVVdT/AOQVd/8AXF/5GgDxT9on/XeF/wDcu/8A2hWF+z1/yPWpf9g+X/0bFW7+0T/rvC/+5d/+0Kwv2ev+R61L/sHy/wDo2KvrsN/yJX/2/wDoc8v4h9JUUUV8idAUUUUAFVdT/wCQVd/9cX/katVV1P8A5BV3/wBcX/kaALI6ClpB0FLQAUUUUAc74+/5J34l/wCwXc/+imroE/1a/QVz/j7/AJJ34l/7Bdz/AOimroE/1a/QUAOpsm/y28vb5mDt3dM9s06kbdtO0AtjgE4GaAOa8N61qdzea9aa41gsml3CR+baoyJtaFJcncx6b8Z46dKp6P4wu9Q8RX8dxbxQaQmnrf2j7W854y7rvbJwA2wsBjOCM88Cvp/hvXbvUPEEfiCz0r+zNcZWnW0v5jIgWFItozEuQdmScjr3qaz8AxWfi6bUvtl9LZPpwtRHPqM8zliz7twdiCm1hgEnBycA80AM0rxTrjvoF9qlvYJpmvNst44A4ltmaNpYw7EkPlVIOAuCR1qO38YazJBZa5JBY/2BeagLOOJVf7QiNKYklLZ2nLYJXbwG6nFSaV4W1xH0Cx1S4sH0zQW328kBcy3LLG0UZdSAEwrEnBbJA6VHb+D9ZjgstDknsToFnqAvElVn+0OiymVIiuNow2AW3chegzQB2Go6nYaRaG61K9t7O3BCmW4lWNAT0GScVzHhLW9Ku9U8VXNtqVnNby6ohjljmVlcC0twcEHB5BH4GuxIBGCM1znhpQNd8XcD/kKp/wCkdtQBtf2nYf8AP7b/APf0Uf2nYf8AP7b/APf0VZwPQUYHoKAK39p2H/P7b/8Af0Uf2nYf8/tv/wB/RVnA9BRgegoAzLXUbJbi8LXcADTAqTIORsUf0q1/adh/z+2//f0VDHNBanU7i4ljhgik3ySSMFVFEakkk8AAc5qj/wAJp4TyB/wk2i5PT/T4v/iquNOc/hTYXNT+07D/AJ/bf/v6KP7TsP8An9t/+/oqzgegowPQVAFb+07D/n9t/wDv6KP7TsP+f23/AO/oqzgegowPQUAVv7TsP+f23/7+ij+07D/n9t/+/oqzgegowPQUAZlrqNktxeFruABpgVJkHI2KP6Va/tOw/wCf23/7+im2gH2m+4/5bj/0WlW8D0FAFb+07D/n9t/+/oo/tOw/5/bf/v6Ks4HoKMD0FAFb+07D/n9t/wDv6KP7TsP+f23/AO/oqzgegowPQUAVv7TsP+f23/7+ij+07D/n9t/+/oqzgegowPQUAZkeo2Q1SdzdwbTDGAfMGCQXz/MV8gP4a10zxn+xtQwA2T9mf29q+x4wP7WuOP8AlhH/ADeviV2P2iLk9G/pX1fDSm6dXlaXvU+l/teqMK1rr5n2H4SvLW28GaFbz3EUU0Wn26SRu4VkYRqCCD0INbP9p2H/AD+2/wD39FZngsD/AIQTw9x/zDLb/wBFLW5gegr5vE/xp37v8zaOyK39p2H/AD+2/wD39FH9p2H/AD+2/wD39FWcD0FGB6CsBlb+07D/AJ/bf/v6KP7TsP8An9t/+/oqzgegowPQUAZkeo2Q1SdzdwbTDGAfMGCQXz/MV8eHwzr32ecf2LqOSWwPsz8/pX2XGB/a1xx/ywj/AJvXxAWP2a45PVu9fR8Pqdq3K/s/pLzRjV6H1f8ACqWPTfhtpFpfSLbXMfnb4ZjsdczORkHkcEH8a7L+07D/AJ/bf/v6K5D4Pc/CvRSef9f/AOj5K7jA9BXkZjf65Vv/ADS/NmkPhRW/tOw/5/bf/v6KP7TsP+f23/7+irOB6CjA9BXGUVv7TsP+f23/AO/oo/tOw/5/bf8A7+irOB6CjA9BQBmSajZHVIHF3BtEMgJ8wYBJTH8jVr+07D/n9t/+/opsgH9rW/H/ACwk/mlW8D0FAFb+07D/AJ/bf/v6KP7TsP8An9t/+/oqzgegowPQUAVv7TsP+f23/wC/orC0yeG4+IutvDKkijS7EZRgRnzbqumwPQVzll/yUjWv+wVY/wDo26oA6SiiigAooooAKKKKACud8ff8k78S/wDYLuf/AEU1dFXO+Pv+Sd+Jf+wXc/8AopqAOgT/AFa/QU6mp/q1+gp1ABRRRQBU1H/j2T/rvF/6MWrdVNR/49k/67xf+jFq3QAUUUUAFFFFABRRRQBV1P8A5BV3/wBcX/kasjoKran/AMgq7/64v/I1ZHQUALRRRQAUUUUAFFFFAFXU/wDkFXf/AFxf+RqyOgqtqf8AyCrv/ri/8jVkdBQAtFFFABRRRQAUUUUAIehrxz45/wDJJtK/6+4f/RMlexnoa8c+Of8AySbSv+vuH/0TJXZl/wDvEfn+TJnseafCH/krWgf9vH/oiSvq+vlD4Q/8la0D/t4/9ESV9X16fE3/ACMZei/Iij8AUUUV4BqFFFFACHoaraZ/yCrT/rin8hVk9DVbTP8AkFWn/XFP5CgC1RRRQAU1/wDVt9DTqa/+rb6GgDn/AAD/AMk78Nf9gu2/9FLXRVzvgH/knfhr/sF23/opa6KgAooooAKKKqanqVro+l3WpXsnl21rE0srYzhQMnigC3RXjEnjyW2v9c1OLxFaXN1LoT3VvYw3qTRW8wZtqKoJDOqAMxHJ+Y9MY6idrvwbrdlHFqV/qMN3pt3LNHeXDTZlhVGDrn7udzAquF5HFAHf0V5zpTX+lnwbqj6vf3kutsIr+KecvG5kt3lDIh4j2smBtA4POetd3qN5PY2hmt9Pub+QEDyLZow59/3jKv60AY/hr/kPeLv+wqn/AKR21dHXGeEtQuZ9U8UzSaReQO+qIWhkaIsn+iW4wdrkds8E8Ed+K6j7ZP8A9A+5/wC+o/8A4qgC3RVT7ZP/ANA+5/76j/8AiqPtk/8A0D7n/vqP/wCKoAt1U07/AI9n/wCu8v8A6Maj7ZP/ANA+5/76j/8Aiqq2F1MtuwFjcN++kOQU/vtx96gDVoqp9sn/AOgfc/8AfUf/AMVR9sn/AOgfc/8AfUf/AMVQBboqp9sn/wCgfc/99R//ABVH2yf/AKB9z/31H/8AFUAW6KqfbJ/+gfc/99R//FUfbJ/+gfc/99R//FUAW6qWf/Hzff8AXcf+i0o+2T/9A+5/76j/APiqq2t1MLi8Isbg5mBIBTj5F4PzUAatFVPtk/8A0D7n/vqP/wCKo+2T/wDQPuf++o//AIqgC3RVT7ZP/wBA+5/76j/+Ko+2T/8AQPuf++o//iqALdFVPtk//QPuf++o/wD4qj7ZP/0D7n/vqP8A+KoAt1Us/wDj5vv+u4/9FpR9sn/6B9z/AN9R/wDxVVbW6mFxeEWNwczAkApx8i8H5qANWiqn2yf/AKB9z/31H/8AFUfbJ/8AoH3P/fUf/wAVQBboqp9sn/6B9z/31H/8VR9sn/6B9z/31H/8VQBboqp9sn/6B9z/AN9R/wDxVH2yf/oH3P8A31H/APFUAW6qR/8AIXuP+uEf/oT0fbJ/+gfc/wDfUf8A8VVVLqb+052+w3GTDGNuUyOX5+9/nFAGrXyp4ptpLnxzrct0AI49RuPKi6jiRvmPv6elfUH2yf8A6B9z/wB9R/8AxVfNfiqCO+8VazHBq1rA/wBum84MspaLLklchCu7twTiuPGJuKsefj1JxXL9/Y9Z+C8qS+Eb4IwbZqLq2Ox8uPj9a9Grzb4RRJpfhG4trSI3UQvXO+DgA7E4O/ac9+neu++2T/8AQPuf++o//iq2oJKmkjpwqSoxSLdFVPtk/wD0D7n/AL6j/wDiqPtk/wD0D7n/AL6j/wDiq2Ny3VSP/kL3H/XCP/0J6Ptk/wD0D7n/AL6j/wDiqqpdTf2nO32G4yYYxtymRy/P3v8AOKANWiqn2yf/AKB9z/31H/8AFUfbJ/8AoH3P/fUf/wAVQBboqp9sn/6B9z/31H/8VR9sn/6B9z/31H/8VQBj2X/JSNa/7BVj/wCjbqujrmNMkaX4i62zwvEf7LsRtcjP+tuueCa6egAooooAKKx9Z1yfSGJXQtSvoFiMjz2zQBEAzkHzJUOQBnpjnrWWvj6zms7Ka10nVrmW6sxfm2hhQyQwN913BcDnBwASTg8UAdZRXPXXjCwjh017GC71STUYTcW0Nkil2iABLneyhQNyjkg5OOtamkata65pUGo2TMYJgcB1KspBIZWB6EEEEeooAyfG/wDyAbb/ALCunf8ApZDXR1znjf8A5ANt/wBhXTv/AEshro6ACiiigAqpqP8Ax7J/13i/9GLVuqmo/wDHsn/XeL/0YtAFuiiigAooooAKKKKACqmo/wDHsn/XeL/0YtW6qaj/AMeyf9d4v/Ri0AW6KKKACiiigAooooAKqaj/AMeyf9d4v/Ri1bqpqP8Ax7J/13i/9GLQBbooooAKKKKACiiigAqrqf8AyCrv/ri/8jVqqup/8gq7/wCuL/yNAHin7RP+u8L/AO5d/wDtCsL9nr/ketS/7B8v/o2Kt39on/XeF/8Acu//AGhWF+z1/wAj1qX/AGD5f/RsVfXYb/kSv/t/9Dnl/EPpKiiivkToCiiigAqrqf8AyCrv/ri/8jVqqup/8gq7/wCuL/yNAFkdBS0g6CloAKKKKAOd8ff8k78S/wDYLuf/AEU1dAn+rX6Cuf8AH3/JO/Ev/YLuf/RTV0Cf6tfoKAHUUUUAFFFFABRRRQAVznhr/kPeLv8AsKp/6R21dHXOeGv+Q94u/wCwqn/pHbUAdHRRRQAUUUUAcp4v/wCRG8af9eFz/wCk1fIT/wCuh/H+VfXvi/8A5Ebxp/14XP8A6TV8hP8A66H8f5V9dwx8FX/FT/8ASjnrbr5n3RRRRXyJ0BRRRQAUUUUAVLP/AI+b7/ruP/RaVbqpZ/8AHzff9dx/6LSrdABRRRQAUUUUAFFFFAFSP/kL3H/XCP8A9CeviN/+PmL6N/SvtyP/AJC9x/1wj/8AQnr4jf8A4+Yvo39K+v4X/h1v8VL/ANKOevuvmfZfgv8A5ETw9/2DLb/0UtblYfgv/kRPD3/YMtv/AEUtblfL4r+PP1f5m8dkFFFFYDCiiigCpH/yF7j/AK4R/wDoT18PH/j2uP8AeavuGP8A5C9x/wBcI/8A0J6+Hj/x7XH+81fTcO7V/wDC/wApGNbofWfwe/5JVov/AG3/APR8ldzXDfB7/klWi/8Abf8A9HyV3NeNmX++1v8AFL82aQ+FBRRRXEUFFFFAFST/AJC9v/1wk/8AQkq3VST/AJC9v/1wk/8AQkq3QAUUUUAFc5Zf8lI1r/sFWP8A6Nuq6Oucsv8AkpGtf9gqx/8ARt1QB0dFFFAFK91fTNNlhiv9RtLWSdgsSTzqhkJOAFBPJz6VBqXiXQdGuFt9U1vTbGdkDrHdXSRMVyRkBiDjIIz7GsL4kR2v/CMedIkP2hb2yCOwG4D7XDnB64qz45vXi8NNbWLKb/VJE0+0cc7XkOC3/AV3v/wGgDTufE/h+ztLa7utd0yC2ugTbzS3capMB1KMThuo6etWG1nS00sao+pWa6ewDC7M6iIg9DvzjH41z+p+FrMNoqWWstpL6RayQ24RYmJjIRTkSAjACDt36iuftdXfXH8D32rm3a2N7eRGULtgmmRZEhkAPA3BWZfc8dqAPSLa6t722jubSeKeCQZSWJwysPUEcGsLx9/yTvxL/wBgu5/9FNVPwN5Xn+Jvse3+z/7Yk+z7Puf6uPzNvbHmb+nfNQfEeDXW8H+IZLXUdPj08aZP5kElk7ysPLbdiQSgDPb5Tj3oA7NP9Wv0FOqkkeoeWv8ApNt0H/LBv/i6d5eof8/Nt/34b/4ugC3RVTy9Q/5+bb/vw3/xdHl6h/z823/fhv8A4ugA1H/j2T/rvF/6MWrdZV/HfC3XfcW5HnR9ISOd64/iq15eof8APzbf9+G/+LoAt0VU8vUP+fm2/wC/Df8AxdHl6h/z823/AH4b/wCLoAt0VU8vUP8An5tv+/Df/F0eXqH/AD823/fhv/i6ALdFVPL1D/n5tv8Avw3/AMXR5eof8/Nt/wB+G/8Ai6AF1P8A5BV3/wBcX/kasjoKzNRjvhpt0XuLcr5TZAhIJGPXdVgR6hgf6Tbf9+G/+LoAuUVU8vUP+fm2/wC/Df8AxdHl6h/z823/AH4b/wCLoAt0VU8vUP8An5tv+/Df/F0eXqH/AD823/fhv/i6ALdFVPL1D/n5tv8Avw3/AMXR5eof8/Nt/wB+G/8Ai6AF1P8A5BV3/wBcX/kasjoKzNRjvhpt0XuLcr5TZAhIJGPXdVgR6hgf6Tbf9+G/+LoAuUVU8vUP+fm2/wC/Df8AxdHl6h/z823/AH4b/wCLoAt0VU8vUP8An5tv+/Df/F0eXqH/AD823/fhv/i6ALdFVPL1D/n5tv8Avw3/AMXR5eof8/Nt/wB+G/8Ai6ALR6GvHPjn/wAkm0r/AK+4f/RMlesGPUMH/Sbb/vw3/wAXXlXxjMcfwz01tRVri1NzFtjt28pwfKkwSxDA8Z7CuvAO2Ij8/wAmTLY8x+EP/JWtA/7eP/RElfV9fLvwul0yT4m6ItjaXcN0fP8ALkmuVkRf3L5yoRSeM9x+PSvpfy9Q/wCfm2/78N/8XXpcRycswk2raL8vK5FH4C3RVTy9Q/5+bb/vw3/xdHl6h/z823/fhv8A4uvCNS3RVTy9Q/5+bb/vw3/xdHl6h/z823/fhv8A4ugC0ehqtpn/ACCrT/rin8hTTHqGD/pNt/34b/4uq+nR3x021KXFuF8pcAwkkDHruoA1KKqeXqH/AD823/fhv/i6PL1D/n5tv+/Df/F0AW6a/wDq2+hqt5eof8/Nt/34b/4umvHqHlt/pNt0P/LBv/i6AMrwD/yTvw1/2C7b/wBFLXRVzvgH/knfhr/sF23/AKKWuioAKKKKACkZQylWAIPUGlooAxbnwtpd5qlzfXEO83NibCWEgCNoiSTwBnJ3EZz0qHSfCNppd4LuW+v9Rmjtzawm+kV/JiJBKrhRnO1clsscDmugooA5rSvBVhpN7aTpeX9xFYKyWFtcShorQMMHZhQT8vyjcWwDgV0tFFAHOeGv+Q94u/7Cqf8ApHbV0dc54a/5D3i7/sKp/wCkdtXR0AFFFFABVTTv+PZ/+u8v/oxqt1U07/j2f/rvL/6MagC3RRRQAUUUUAFFFFABVSz/AOPm+/67j/0WlW6qWf8Ax833/Xcf+i0oAt0UUUAFFFFABRRRQAVUs/8Aj5vv+u4/9FpVuqln/wAfN9/13H/otKALdFFFABRRRQAUUUUAFVI/+Qvcf9cI/wD0J6t1Uj/5C9x/1wj/APQnoAt18seMZ4rHxVrW1Mu+o3GyNBy7GRj/AJNfU9fLHiW1EfjbX7qZ98hv7jDHgInmNgD+tcOOtyq55uZW5I83f7z134IJOvgu8Nw4aR9RdiB0X93HwK9KrzX4I3K3Xgy9kRWEf9ouFY/xDy4+R7f4V6VXTQv7NXOvDX9lG4UUUVqbhVSP/kL3H/XCP/0J6t1Uj/5C9x/1wj/9CegC3RRXiPjnxz4t0nx9qNjY6mLbTbcRiOIQROXLRIxJLKTjJPes6tWNKPNIyrVo0Y80tj26iuL+Gev6h4i8OXV1qd0LieO8aIMEVcKEQgYUAfxE/jXaU4TU4qS6lU6iqQU11Ocsv+Ska1/2CrH/ANG3VdHXOWX/ACUjWv8AsFWP/o26ro6ssKKKKAOa8bw3mo6LFotnFM39q3CWk8sakiGA5MrMRwMorKM92FZ9zJL4W8Y39+NKvruxvtPt4YPsNs0pSSEyfuyF+6CJFwTheDkiu1ooA800XTb/AMGv4dvb+wu7iNNHeyuVsoWna3lMiyAbUBJX7y5AIyo7Guo8EWN1ZeHS17A1vPd3dzeGB8ZiEszyKpx3AYZ9810dFAHD+NvD1kLeDUhNqPntq1hlDqM5i5uogcRb9g4PHHB5HNdb/Z0H9+5/8CZP/iqx/G//ACAbb/sK6d/6WQ10dAFT+zoP79z/AOBMn/xVH9nQf37n/wACZP8A4qrdFAFT+zoP79z/AOBMn/xVVb+whS3Uh7j/AF0Y5nc9XUetatVNR/49k/67xf8AoxaAD+zoP79z/wCBMn/xVH9nQf37n/wJk/8Aiqt0UAVP7Og/v3P/AIEyf/FUf2dB/fuf/AmT/wCKq3RQBU/s6D+/c/8AgTJ/8VR/Z0H9+5/8CZP/AIqrdFAFT+zoP79z/wCBMn/xVVb+whS3Uh7j/XRjmdz1dR61q1U1H/j2T/rvF/6MWgA/s6D+/c/+BMn/AMVR/Z0H9+5/8CZP/iqt0UAVP7Og/v3P/gTJ/wDFUf2dB/fuf/AmT/4qrdFAFT+zoP79z/4Eyf8AxVH9nQf37n/wJk/+Kq3RQBU/s6D+/c/+BMn/AMVVW/sIUt1Ie4/10Y5nc9XUetatVNR/49k/67xf+jFoAP7Og/v3P/gTJ/8AFUf2dB/fuf8AwJk/+Kq3RQBU/s6D+/c/+BMn/wAVR/Z0H9+5/wDAmT/4qrdFAFT+zoP79z/4Eyf/ABVH9nQf37n/AMCZP/iqt0UAVP7Og/v3P/gTJ/8AFVW1GwhTTbpg9xlYmIzcOR09Ca1Kq6n/AMgq7/64v/I0AeM/Ha4fSZfDotljfzVut32mNbjGPJxjzA23qc4xnjPQV594J+IEnh3Vrm7udOhut8TwxxWiJaOzFlI+eNMkcHg8d+1d5+0T/rvC/wDuXf8A7Qrx3QNou52bGAGOT25FfTwjGORyqW1XP+hxYmo6d5Loe96N8T49U1SwsZNDuIHup44Sw1WRwm5gM/dGcZ9q9R/s6D+/c/8AgTJ/8VXy74SeTUfGuhOhZLOPUbcgjgykSL/47/Ovq2vjsLUnNPneoYKrUqRftHd/kVP7Og/v3P8A4Eyf/FUf2dB/fuf/AAJk/wDiqt0V1HaVP7Og/v3P/gTJ/wDFVW1GwhTTbpg9xlYmIzcOR09Ca1Kq6n/yCrv/AK4v/I0ANGnQYHz3P/gTJ/8AFUv9nQf37n/wJk/+Kq0OgpaAKn9nQf37n/wJk/8AiqP7Og/v3P8A4Eyf/FVbooA5Tx3YQp8PvEbB7jK6ZckZuHI/1bdia6lP9Wv0Fc/4+/5J34l/7Bdz/wCimroE/wBWv0FADqKKKACiiigAooooAK5zw1/yHvF3/YVT/wBI7aujrnPDX/Ie8Xf9hVP/AEjtqAOjooooAKKKKAOU8X/8iN40/wCvC5/9Jq+Qn/10P4/yr698X/8AIjeNP+vC5/8ASavkJ/8AXQ/j/KvruGPgq/4qf/pRz1t18z7oooor5E6AooooAKKKKAKln/x833/Xcf8AotKt1Us/+Pm+/wCu4/8ARaVboAKKKKACiiigAooooAqR/wDIXuP+uEf/AKE9fEb/APHzF9G/pX25H/yF7j/rhH/6E9fEb/8AHzF9G/pX1/C/8Ot/ipf+lHPX3XzPsvwX/wAiJ4e/7Blt/wCilrcrD8F/8iJ4e/7Blt/6KWtyvl8V/Hn6v8zeOyCiiisBhRRRQBUj/wCQvcf9cI//AEJ6+Hj/AMe1x/vNX3DH/wAhe4/64R/+hPXw8f8Aj2uP95q+m4d2r/4X+UjGt0PrP4Pf8kq0X/tv/wCj5K7muG+D3/JKtF/7b/8Ao+Su5rxsy/32t/il+bNIfCgoooriKCiiigCpJ/yF7f8A64Sf+hJVuqkn/IXt/wDrhJ/6ElW6ACiiigArnLL/AJKRrX/YKsf/AEbdV0dc5Zf8lI1r/sFWP/o26oA6OiiigDO1PQNG1po21XSLC/aIERm6tklKA9cbgcdBUsOk6bbR2kcGn2kSWZJtlSFVEBIIOwAfLkEjj1NXKKAKGo6JpOsGM6npdlemL/Vm5t0k2fTcDipbnTbG9sTY3VlbT2ZAX7PLErR4HQbSMVaooAitbW3sraO2tIIoIIxhIokCqo9ABwKwvH3/ACTvxL/2C7n/ANFNXRVzvj7/AJJ34l/7Bdz/AOimoA6BP9Wv0FOpqf6tfoKdQAUUUUAVNR/49k/67xf+jFq3VTUf+PZP+u8X/oxat0AFFFFABRRRQAUUUUAVdT/5BV3/ANcX/kasjoKran/yCrv/AK4v/I1ZHQUALRRRQAUUUUAFFFFAFXU/+QVd/wDXF/5GrI6Cq2p/8gq7/wCuL/yNRahrek6P5I1TVLKxMwPli6uEi34xnG4jOMjOPUU4xcnZLUC/RWTZeKPD2pXaWljrumXVy+QsMF3G7tgZOFBz0BNa1OUJRdpKwBRRRUgFFFFACHoa8c+Of/JJtK/6+4f/AETJXsZ6GvHPjn/ySbSv+vuH/wBEyV2Zf/vEfn+TJnseafCH/krWgf8Abx/6Ikr6vr5Q+EP/ACVrQP8At4/9ESV9X16fE3/Ixl6L8iKPwBRRRXgGoUUUUAIehqtpn/IKtP8Arin8hVk9DVbTP+QVaf8AXFP5CgC1RRRQAU1/9W30NOpr/wCrb6GgDn/AP/JO/DX/AGC7b/0UtdFXO+Af+Sd+Gv8AsF23/opa6KgAooooAKKKKACiiigAooooA5zw1/yHvF3/AGFU/wDSO2ro65zw1/yHvF3/AGFU/wDSO2ro6ACiiigAqpp3/Hs//XeX/wBGNVuqmnf8ez/9d5f/AEY1AFuiiigAooooAKKKKACqln/x833/AF3H/otKt1Us/wDj5vv+u4/9FpQBbooooAKKKKACiiigAqpZ/wDHzff9dx/6LSrdVLP/AI+b7/ruP/RaUAW6KKKACiiigAooooAKqR/8he4/64R/+hPVuqkf/IXuP+uEf/oT0AW6+UvFqSaj4111HDJZx6jcAg8GUiRv/Hf519W18reNLp18Z6zbWwD3LX0556IPMb5j/h3rixt7K2/5HnZhfljy7/keyfBnaPB92q4wL9xgdv3cdei15r8EbZbXwXdoGZ2bUHZ3bqzeXHzXpVb4e3so2OnC29jGwUUUVsdAVUj/AOQvcf8AXCP/ANCerdVI/wDkL3H/AFwj/wDQnoAt182fFa5kb4kapaWuDORCWc8iIeUnJ9/QV9J184/FSWGz8favM4A3GHOBy58lAB7muPG/AtL6nBmH8NaX1/zPRfgjbJa+CruNMnOoOzMxyWPlx5Jr0mvNfggbhvBd49wArNqLkIP4B5ceAT3P+NelVvQv7NXOjDX9lG7uc5Zf8lI1r/sFWP8A6Nuq6Oucsv8AkpGtf9gqx/8ARt1XR1qbhRRRQAUUUUAFFFFAHOeN/wDkA23/AGFdO/8ASyGujrnPG/8AyAbb/sK6d/6WQ10dABRRRQAVU1H/AI9k/wCu8X/oxat1U1H/AI9k/wCu8X/oxaALdFFFABRRRQAUUUUAFVNR/wCPZP8ArvF/6MWrdVNR/wCPZP8ArvF/6MWgC3RRRQAUUUUAFFFFABVTUf8Aj2T/AK7xf+jFq3VTUf8Aj2T/AK7xf+jFoAt0UUUAFFFFABRRRQAVV1P/AJBV3/1xf+Rq1VXU/wDkFXf/AFxf+RoA8U/aJ/13hf8A3Lv/ANoV4xpFst1cSxuzCPLFlH8QyOD7f4V7P+0T/rvC/wDuXf8A7QrxfSXnWeUW6BpHLKCei8jk19TG/wDYMrdp/ocGLvaVjtvDV0I/G2gWsKb5Df2+VHARPMXJP9K+p6+WPB0EVj4q0Xc+XfUbffI55djIo/yK+p6+IwNuV2Iy23JLl7/eFFFFdx6QVV1P/kFXf/XF/wCRq1VXU/8AkFXf/XF/5GgCyOgpaQdBS0AFFFFAHO+Pv+Sd+Jf+wXc/+imroE/1a/QVz/j7/knfiX/sF3P/AKKaugT/AFa/QUAOpsgZo2VH2OQQrYzg+uKdSMGKkKQGxwSM4NAHJeHJtanu/FOlXWstcz2VxHDbXUltGvl77eN87VABAZzwfzqG01PUtK8UXmnXGrSaxaW2mtd3TyQRo9tIGGxMxqo+dd52kZG3OcGn6b4X8SWF/rF4fEti0up/OxTSivlyiJY0ZczEYG1SQevPIqx4Y8ManoVs9neanYX1pKHacrYPHNPI3WSSRpn3E8549MYAxQBkaXrGv26eFtW1HU1urbX3WOWzECKtsZImlj8tgNxxt2ncTnOeKhtvEGunTNO8VSaiGsL3Ukt203yECRwSTeSjB8by4yrHJweRgVsaV4LuLG40mO71lrzTdGJOn2xtwjKdhRTI+479qMQMBeuTmmweB5oZba0bVy2hWt79ugsPs4Dh95kVTLu5RXOQNueAMkCgDpdR1GDS7Q3Nwly8YIXFtbSTvz/sxqW/HFcv4S1i2utU8U3EcV4Ek1RCoks5UYYtLccqygjp3HTB6GuzrnPDX/Ie8Xf9hVP/AEjtqANj+0YP7lz/AOA0n/xNH9owf3Ln/wABpP8A4mrdFAFT+0YP7lz/AOA0n/xNH9owf3Ln/wABpP8A4mrdFAHH+KbhLjwd4tgRZA89lcKheNkUE2+PmYgBR7kgAc9K+XG8PXvnRHztO4z/AMxGD0/36+qPF/8AyI3jT/rwuf8A0mr5Cf8A10P4/wAq+q4aU3CrytLWn0v9r1RhWtdfM+3f7Rg/uXP/AIDSf/E0f2jB/cuf/AaT/wCJq3RXypuVP7Rg/uXP/gNJ/wDE0f2jB/cuf/AaT/4mrdFAFT+0YP7lz/4DSf8AxNH9owf3Ln/wGk/+Jq3RQBlWt/CtxeEpcfNMCMQOf4FHPHFWv7Rg/uXP/gNJ/wDE0Wf/AB833/Xcf+i0q3QBU/tGD+5c/wDgNJ/8TR/aMH9y5/8AAaT/AOJq3RQBU/tGD+5c/wDgNJ/8TR/aMH9y5/8AAaT/AOJq3RQBU/tGD+5c/wDgNJ/8TR/aMH9y5/8AAaT/AOJq3RQBlJfwjU532XGDDGP9Q+eC/bHvXyE/h+9M8Z87TuA3/MRg9v8Abr7Hj/5C9x/1wj/9CeviN/8Aj5i+jf0r6vhpTdOrytL3qfS/2vVGFa118z7E8JXcdv4M0KB1mLx6fboxjhZ1JEajhgCCPcHBrY/tGD+5c/8AgNJ/8TWd4L/5ETw9/wBgy2/9FLW5XzeJ/jTv3f5m0dkVP7Rg/uXP/gNJ/wDE0f2jB/cuf/AaT/4mrdFYDKn9owf3Ln/wGk/+Jo/tGD+5c/8AgNJ/8TVuigDKS/hGpzvsuMGGMf6h88F+2Pevj4+Hr37POPO07kt/zEbf/wCLr7Lj/wCQvcf9cI//AEJ6+Hj/AMe1x/vNX0fD6k1W5Xb3e3lLzRjV6H1h8K5V0/4baTazBmkTzsmBTKhzM54dMqevY+1dj/aMH9y5/wDAaT/4muR+D3/JKtF/7b/+j5K7mvIzG/1yrf8Aml+bNIfCip/aMH9y5/8AAaT/AOJo/tGD+5c/+A0n/wATVuiuMoqf2jB/cuf/AAGk/wDiaP7Rg/uXP/gNJ/8AE1booAynv4TqcD7LjAhkH+ofPJTtj2q1/aMH9y5/8BpP/iaJP+Qvb/8AXCT/ANCSrdAFT+0YP7lz/wCA0n/xNH9owf3Ln/wGk/8Aiat0UAVP7Rg/uXP/AIDSf/E1h6ZMs/xF1tkDgDS7EfOhU/6267EV09c5Zf8AJSNa/wCwVY/+jbqgDo6KKKACiiigAooooAK53x9/yTvxL/2C7n/0U1dFXO+Pv+Sd+Jf+wXc/+imoA6BP9Wv0FOpqf6tfoKdQAUUUUAVNR/49k/67xf8Aoxat1U1H/j2T/rvF/wCjFq3QAUUUUAFFFFABRRRQBV1P/kFXf/XF/wCRqyOgqtqf/IKu/wDri/8AI1ZHQUALRRRQAUUUUAFFFFAFXU/+QVd/9cX/AJGvEv2iv9f4V/3bv/2jXtup/wDIKu/+uL/yNeJftFf6/wAK/wC7d/8AtGvSyb/kYUf8SIqfAzh/gz/yVbS/9+f/ANJ3r6vr5Q+DP/JVtL/35/8A0nevq+u/iP8A3iH+F/8ApcyaOzCiiivnjUKKKKAEPQ1458c/+STaV/19w/8AomSvYz0NeOfHP/kk2lf9fcP/AKJkrsy//eI/P8mTPY80+EP/ACVrQP8At4/9ESV9X18ofCH/AJK1oH/bx/6Ikr6vr0+Jv+RjL0X5EUfgCiiivANQooooAQ9DVbTP+QVaf9cU/kKsnoaraZ/yCrT/AK4p/IUAWqKKKACmv/q2+hp1Nf8A1bfQ0Ac/4B/5J34a/wCwXbf+ilroq53wD/yTvw1/2C7b/wBFLXRUAFFFFABRRRQAUUUUAFFFFAHOeGv+Q94u/wCwqn/pHbV0dc54a/5D3i7/ALCqf+kdtXR0AFFFFABVTTv+PZ/+u8v/AKMardVNO/49n/67y/8AoxqALdFFFABRRRQAUUUUAFVLP/j5vv8AruP/AEWlW6qWf/Hzff8AXcf+i0oAt0UUUAFFFFABRRRQAVUs/wDj5vv+u4/9FpVuqln/AMfN9/13H/otKALdFFFABRRRQAUUUUAFVI/+Qvcf9cI//Qnq3VSP/kL3H/XCP/0J6ALdfLHisW+n+KvEEzHaG1G4d2PJJMjcf0Ar6nr5V8T2rzeOtbuLrBCajcCGMdF/eN8x9z+lcOOtyq70PNzK3IrvT8z2D4IPPL4LvJJ4xGW1Fyid1Xy48Z969Krzj4LTxzeEL7y2DbNRdGI9fLj/AMa9Hroofwo6WOvC/wAGOlgooorY3Cqkf/IXuP8ArhH/AOhPVuqkf/IXuP8ArhH/AOhPQBbr5v8AibaBvifqtzK28r5IiU9E/cpk/U+tfSFfNXxVE158SdWtk3RwL5PmydC37lDtX+prkxt/Z721OHML+yVnbX/M9N+ClxHceD74xHcq6i67uxIjj6etekV5z8F40i8GXMcahUW+cADoP3cdejVrh7eyjY2wtvYxsc5Zf8lI1r/sFWP/AKNuq6Oucsv+Ska1/wBgqx/9G3VdHWx0BRRRQAUV514qtNQ8QfESDRFh0+ayg0r7YI9RR5ITIZShJjUjcwAXBJwuTwSarWUll4ruvCWn3unxRaU1leSNp4O6B54ZI4gMfxKuXKg+oPagD06ivJ7RBeHSvDl0zy6IPEN7a+W7kiSKJJHjhY/xKGGMHr5YFdX4MiSx1PxNpNpkabY36Laxg5WLfBG7xr6AMxOO27FAFrxv/wAgG2/7Cunf+lkNdHXD+NrjXvs8EZ03Thpw1aw2zi+fzT/pUWMx+VgZOAfm4HPPSut8zUP+fa2/7/t/8RQBboqp5mof8+1t/wB/2/8AiKPM1D/n2tv+/wC3/wARQBbqpqP/AB7J/wBd4v8A0YtHmah/z7W3/f8Ab/4iqt/JfG3Xfb24HnR9Jied64/hoA1aKqeZqH/Ptbf9/wBv/iKPM1D/AJ9rb/v+3/xFAFuiqnmah/z7W3/f9v8A4ijzNQ/59rb/AL/t/wDEUAW6KqeZqH/Ptbf9/wBv/iKPM1D/AJ9rb/v+3/xFAFuqmo/8eyf9d4v/AEYtHmah/wA+1t/3/b/4iqt/JfG3Xfb24HnR9Jied64/hoA1aKqeZqH/AD7W3/f9v/iKPM1D/n2tv+/7f/EUAW6KqeZqH/Ptbf8Af9v/AIijzNQ/59rb/v8At/8AEUAW6KqeZqH/AD7W3/f9v/iKPM1D/n2tv+/7f/EUAW6qaj/x7J/13i/9GLR5mof8+1t/3/b/AOIqrfyXxt1329uB50fSYnneuP4aANWiqnmah/z7W3/f9v8A4ijzNQ/59rb/AL/t/wDEUAW6KqeZqH/Ptbf9/wBv/iKPM1D/AJ9rb/v+3/xFAFuiqnmah/z7W3/f9v8A4ijzNQ/59rb/AL/t/wDEUAW6q6n/AMgq7/64v/I0nmah/wA+1t/3/b/4iq2oyXx026D29uF8pskTEkDHptoA8e/aJ/13hf8A3Lv/ANoV41o08dtNcSyttRQ38xXtXx2W3ll8O/2rJJbELdeV9mjE27/U5zuKYxxjrnJ6Y58p0az0F7tyt7fSMhZgHskABz1/1p9a+mU4/wBhSi77T6Py67HDi0nGVza8HQSXXjXQ7u6Xbtv4DDCf4P3i8n/a/lX1ZXzF4bksLjxfpSWN5dGSG/gJLWqhHYSL8m7ece5AOK+kvM1D/n2tv+/7f/EV8bg01F3JwCkovm+7sW6KqeZqH/Ptbf8Af9v/AIijzNQ/59rb/v8At/8AEV2HoFuqup/8gq7/AOuL/wAjSeZqH/Ptbf8Af9v/AIiq2oyXx026D29uF8pskTEkDHptoA0x0FZ+u6zb+H9GuNUu0leCDbuWIAsdzBRjJA6kd6lEmoYH+jW3/f8Ab/4iuV+JUc138P8AVIL0Lb2z+UJJIJC7geanABC9enUcGpm7RbRFRuMG12MuD43+Grl5BFY6sUQ48zyo9pPcD95zXpVfJ8h0W0EVtHc3m9uI40tFOB6/6wcCvqXzNQ/59rb/AL/t/wDEVz4erOpdy26HNhK1SrzOe2ljI8ff8k78S/8AYLuf/RTV0Cf6tfoK5bx3JfH4feIw9vbhf7MuckTEkDy27ba6lP8AVr9BXUdg6iiigAooooAKKKKACuc8Nf8AIe8Xf9hVP/SO2ro65zw1/wAh7xd/2FU/9I7agDo6KKKACiiigDlPF/8AyI3jT/rwuf8A0mr5Cf8A10P4/wAq+vfF/wDyI3jT/rwuf/SavkJ/9dD+P8q+u4Y+Cr/ip/8ApRz1t18z7oooor5E6AooooAKKKKAKln/AMfN9/13H/otKt1Us/8Aj5vv+u4/9FpVugAooooAKKKKACiiigCpH/yF7j/rhH/6E9fEb/8AHzF9G/pX25H/AMhe4/64R/8AoT18Rv8A8fMX0b+lfX8L/wAOt/ipf+lHPX3XzPsvwX/yInh7/sGW3/opa3Kw/Bf/ACInh7/sGW3/AKKWtyvl8V/Hn6v8zeOyCiiisBhRRRQBUj/5C9x/1wj/APQnr4eP/Htcf7zV9wx/8he4/wCuEf8A6E9fDx/49rj/AHmr6bh3av8A4X+UjGt0PrP4Pf8AJKtF/wC2/wD6Pkrua4b4Pf8AJKtF/wC2/wD6Pkrua8bMv99rf4pfmzSHwoKKKK4igooooAqSf8he3/64Sf8AoSVbqpJ/yF7f/rhJ/wChJVugAooooAK5yy/5KRrX/YKsf/Rt1XR1zll/yUjWv+wVY/8Ao26oA6OiiigDmfGOrazodnBf6f8AYDarcQRTrcI7O3mTJH8uGAGA+cnPTpWf4r8Uano/iGKzhuLSysPsZnku7jTJ7tQ+/G0mJ1CDHOW9KveN9L13WtKj0/SIdOZGmhmkku7l4ypimSQABY2znZgkkYz3qe6k8YPDGtvZ6EHkhxJ5t1KRFJk9MR/OuNvB2nrQBXvtc1ObUNK0jRZtOku7qza9lvZY2eARLsUFEVwTuZxj5uAD1qjF4x1PULPS7KztrSHW7u8ubOfztzwQG3LCV8AgsCVG0ZH3xk8Utv4Q1LQItBm0Oe1ubrTLBtPlS9Zo0njJRtwZQxUhkyBg8Ej3pIvB2p6fZ6Xe2dzaTa3aXlzeT+duSCc3BYypkAlQCw2nB+4MjmgDb8M6xdapFf2+oRQx3+nXbWs/kZ8tztV1dQckAq6nBJwcjJrH+I3iLRLPwd4h0y51iwh1CTTJ1S1kuEWVi0bBQFJyc9vWtjwzo91pcV/cahJC9/qN211P5GfLQ7VRUUnBICooyQMnPAqDx8oPw88SkgZ/su55x/0yagDXTU7Dy1/0236D/lqKd/adh/z+2/8A39FWEA8teB0FLgegoArf2nYf8/tv/wB/RR/adh/z+2//AH9FWcD0FGB6CgDMv9Rsnt1C3cDHzojgSA8B1Jq1/adh/wA/tv8A9/RTdRA+zJx/y3i/9GLXhXxx8Q61pPjrTrfTdY1CygfT1do7a5eNWbzJBkhSBnAHPtXXgsJLF1lSi7Xt+LS/UmUuVXPd/wC07D/n9t/+/oo/tOw/5/bf/v6K8I+BniHWtX8cajb6lrGoXsKWDusdzcvIqtviGQGJGeT+Zr6AwPQUY3CSwlV0pO9v82v0CMuZXK39p2H/AD+2/wD39FH9p2H/AD+2/wD39FWcD0FGB6CuQorf2nYf8/tv/wB/RR/adh/z+2//AH9FWcD0FGB6CgDM1HUbKTTbpEu4GZomAAkBJOKsjU7DA/023/7+ijUwP7Ku+P8Ali/8jVoAYHAoArf2nYf8/tv/AN/RR/adh/z+2/8A39FWcD0FGB6CgCt/adh/z+2//f0Uf2nYf8/tv/39FWcD0FGB6CgCt/adh/z+2/8A39FH9p2H/P7b/wDf0VZwPQUYHoKAMzUdRspNNukS7gZmiYACQEk4ryH48W1xrM3hs6XBJeiEXXm/ZlMmzPlYztzjOD+Rr2fUwP7Ku+P+WL/yNeJ/tFcT+FsccXfT/tjXo5Rf69S5d+ZEVPhZynwm0jUtM+JenXd/p91a2yPMWmnhZEXMDgZJGOpAr6Y/tOw/5/bf/v6K+W/gySfirpYJJ+ef/wBJ3r6twPQV28QqSxEOZ/Zf/pcvNk0tit/adh/z+2//AH9FH9p2H/P7b/8Af0VZwPQUYHoK8E1K39p2H/P7b/8Af0Uf2nYf8/tv/wB/RVnA9BRgegoAqnU7DB/023/7+ivKfjJFJqvwy02z09Gu7lLmJmhgG91AhkBJA56kD8a9gIGDwK8c+OXHwn0ojg/a4f8A0TJXXgL/AFiNvP8AJky2OB+Fukalp3xO0S8vdPura2i8/wAyaaFkRcwuBkkYGSQPxr6Y/tOw/wCf23/7+ivlv4REn4s6ACc/8fH/AKIkr6twPQV6XEakswlzO7svLp8yKPwFb+07D/n9t/8Av6KP7TsP+f23/wC/oqzgegowPQV4RqVv7TsP+f23/wC/oo/tOw/5/bf/AL+irOB6CjA9BQBVOp2GD/ptv/39FVtO1Gyj021R7uBWWJQQZACDitMgYPAqrpgH9lWnH/LFP5CgBf7TsP8An9t/+/oo/tOw/wCf23/7+irOB6CjA9BQBW/tOw/5/bf/AL+imvqdh5bf6bb9D/y1FW8D0FI4HltwOhoA5/wD/wAk78Nf9gu2/wDRS10Vc74B/wCSd+Gv+wXbf+ilroqACiiigAooooAKKKKACiiigDnPDX/Ie8Xf9hVP/SO2ro65zw1/yHvF3/YVT/0jtq6OgAooooAKqad/x7P/ANd5f/RjVbqpp3/Hs/8A13l/9GNQBbrwa7+N/iC2VVWw0ySZziOMRSZY/wDffA9695r4/t7f7PvubmRWnYZdzwFHoPQCuLF1HDlaf/BPPx9WVPlaffTvsfWGg3s+peHdMvrpY1uLm0imlEQIQOyAnbnJxknGa0KxvCMiy+C9CkQ5V9Pt2B9QY1rZrsjdpXO6LbimwoooplBVSz/4+b7/AK7j/wBFpVuqln/x833/AF3H/otKALdFFFABRRRQAUUUUAFVLP8A4+b7/ruP/RaVbqpZ/wDHzff9dx/6LSgC3Xyp4ptpLnxzrct0AI49RuPKi6jiRvmPv6elfVdfKfjGeS68a65aWrbdt/OJph/B+8bgf7X8q4sbflVjzswvyq339j374YsG+HmllSCMzDj/AK7PXXVx3wshjt/htpEUS7UUTYH/AG2euxrpo29nG3ZHZQt7KNuy/IKKKK0NQqpH/wAhe4/64R/+hPVuqkf/ACF7j/rhH/6E9AFuvlLxhLJe+NddtbZika6hOJph2/eN8q+/qe1fVtfLHjO5S08WayqJvlk1C48uJerHzGJ/D1NcWN2jZannZj8MbK7uewfBWKODwXcxRKFRb5wAP+ucdej15r8EIpYvBd4Z5PMlfUXZsdB+7j4HtXpVb4f+GtTqwv8ABjrcKKKK2NwqpH/yF7j/AK4R/wDoT1bqpH/yF7j/AK4R/wDoT0AW6+b/AIsXfkfEPUo418y4k8rZH/2yTk+gr6Qr5x+J0cFv8RtaumwpYQl3Y9AIU4+lceNt7NX7nBmNvZK+uv8AmeifBCB4PBd55spklfUXZ27Z8uPoOw4r0qvNfghO1z4LvJTGUQ6i+zd1K+XHyR2716VW9C/s1c6MNf2Uebc5yy/5KRrX/YKsf/Rt1XR1zll/yUjWv+wVY/8Ao26ro61NwooooAy9X8O6XrjwyX9u7SwhhHLFM8LqGxuXcjA4OBkZwcVHd+FtFvNOtLCSxCW9nj7MIJGhaHjHyOhDLxwcHnvWxRQBkSeFtFk0SHRjYItjAweKNGZGjYHO5XBDBskncDnk881a0rSLHRLP7Jp8HkxFzI2WLs7HkszMSWJ9SSau0UAc543/AOQDbf8AYV07/wBLIa6Ouc8b/wDIBtv+wrp3/pZDXR0AFFFFABVTUf8Aj2T/AK7xf+jFq3VTUf8Aj2T/AK7xf+jFoAt0UUUAFFFFABRRRQAVU1H/AI9k/wCu8X/oxat1U1H/AI9k/wCu8X/oxaALdeRfHF44k0SWQqqqLjLHsP3deu1498dLVLmTw8ZCSiG4Pl9mP7rBP0rnxVvYu/8AWpy423sJX20/M4v4VGa8+JOk3L7o4F87yo+hb9y43N/QV9K183/DK7DfE/SraJd5XzjKw6J+5fA+p9K+kKjBX9ntbUzy+/sndW1/yCiiius7gqpqP/Hsn/XeL/0YtW6qaj/x7J/13i/9GLQBbooooAKKKKACiiigAqrqf/IKu/8Ari/8jVqqup/8gq7/AOuL/wAjQB4p+0T/AK7wv/uXf/tCvF9Jilnnljjl8sMW3sOu3Izj36V7R+0T/rvC/wDuXf8A7QrxfSbg280xWNpJGLKiDucj8hxX1Mb/ANgyt2n+hw4q9pW3O28LSQWPi3w9bouN2oW6JGo5/wBYuT9B1Jr6nr5X8F2pi8Y6NPOwkuXv4NzdlHmL8q+gr6or4jA25ZWM8ttyytrruFFFFdx6QVV1P/kFXf8A1xf+Rq1VXU/+QVd/9cX/AJGgCyOgrjviq8kfw21ZoY/Mk/chVzjkzIPyrsR0Fcj8UZEi+HOrSSMFRREST0H71Kzq/wAOXozKv/Cl6M+b4IEs45Li4kDSsMyytwPoPQCvr+vjqON9RkWaZStqpzFEer/7Tf0FfYtcmC3lffT9Thy7ed3rp+pzvj7/AJJ34l/7Bdz/AOimroE/1a/QVz/j7/knfiX/ALBdz/6KaugT/Vr9BXeemOooooAKKKKACiiigArnPDX/ACHvF3/YVT/0jtq6Ouc8Nf8AIe8Xf9hVP/SO2oA6OiiigAooooA5Txf/AMiN40/68Ln/ANJq+Qn/ANdD+P8AKvr3xf8A8iN40/68Ln/0mr5Cf/XQ/j/KvruGPgq/4qf/AKUc9bdfM+6KKKK+ROgKKKKACiiigCpZ/wDHzff9dx/6LSrdVLP/AI+b7/ruP/RaVboAKKKKACiiigAooooAqR/8he4/64R/+hPXxG//AB8xfRv6V9uR/wDIXuP+uEf/AKE9fEb/APHzF9G/pX1/C/8ADrf4qX/pRz1918z7L8F/8iJ4e/7Blt/6KWtysPwX/wAiJ4e/7Blt/wCilrcr5fFfx5+r/M3jsgooorAYUUUUAVI/+Qvcf9cI/wD0J6+Hj/x7XH+81fcMf/IXuP8ArhH/AOhPXw8f+Pa4/wB5q+m4d2r/AOF/lIxrdD6z+D3/ACSrRf8Atv8A+j5K7muG+D3/ACSrRf8Atv8A+j5K7mvGzL/fa3+KX5s0h8KCiiiuIoKKKKAKkn/IXt/+uEn/AKElW6qSf8he3/64Sf8AoSVboAKKKKACucsv+Ska1/2CrH/0bdV0dc5Zf8lI1r/sFWP/AKNuqAOjooooAKKKKACiiigArnfH3/JO/Ev/AGC7n/0U1dFXO+Pv+Sd+Jf8AsF3P/opqAOgT/Vr9BTqan+rX6CnUAFFFFAFTUf8Aj2T/AK7xf+jFr54/aC/5KFpn/YMX/wBGS19D6j/x7J/13i/9GLXzx+0F/wAlC0z/ALBi/wDoyWvZyH/fY+q/9KiZ1fhD9nz/AJKBqn/YOf8A9GQ19JV82/s+f8lA1T/sHP8A+jIa+kqM+/3yXz/9KYUvhCiiivGNAooooAq6n/yCrv8A64v/ACNWR0FVtT/5BV3/ANcX/kasjoKAFooooAKKKKACiiigCrqf/IKu/wDri/8AI14l+0V/r/Cv+7d/+0a9t1P/AJBV3/1xf+RrxL9or/X+Ff8Adu//AGjXpZN/yMKP+JEVPgZw/wAGf+SraX/vz/8ApO9fV9fKHwZ/5Ktpf+/P/wCk719X138R/wC8Q/wv/wBLmTR2YUUUV88ahRRRQAh6GvHPjn/ySbSv+vuH/wBEyV7Gehrxz45/8km0r/r7h/8ARMldmX/7xH5/kyZ7Hmnwh/5K1oH/AG8f+iJK+r6+UPhD/wAla0D/ALeP/RElfV9enxN/yMZei/Iij8AUUUV4BqFFFFACHoaraZ/yCrT/AK4p/IVZPQ1W0z/kFWn/AFxT+QoAZrGoLpGiX+pOgdbO2kuCpbbkIpbGe3TrXldr8dHuYzIfDJjQn5N19yw9SPL4r0rxWA3g7WwQCDYTgg9/3bV8q3FxJLMbS0OJP+WkvURD+p9q4sVVnBpQdjzsbXqU5KNN2PsGmv8A6tvoadTX/wBW30Ndp6Jz/gH/AJJ34a/7Bdt/6KWuirnfAP8AyTvw1/2C7b/0UtdFQAVHNcQ20fmTzRxJ03OwUfmakrjtV0jwpb66ravpcd/c3MNzeNcXyi4WGOIqWAD5CAeYoAUUAdejpIgeNlZGGQynINJLKkELyyHCIpZjjOAOT0rivBKaPPfXE1hoM2gXCRRzNaJIFilhlDeW5jQ7A3yN23AgjNdncXEVpay3M77IYUMjtjOFAyT+VAGTY+LdF1C4kgiuniljiM7JdW8luTGOrjzFXKjIyRkDNP0fxVo2vTvBp14ZJVjEux4XiLRk4DrvUblz/EuR715p4lLeI7zUU0LWH8RvNpF9GojVCLHcFIRWjAUl8bMNluBz1zuXGoWni7xDpx8NyiT7LpN4k7oNogMqxrHEx7NuUnb1G2gDrNN8XaFq9/8AYrG/Es5DNHmJ1WUKcMY3YBZAO+0mtuvL9H1Cz1YeAtL03P2/SiHvoQhDWaJbPE6SD+El2VQD16jivRdRs5760MNvqFzYSEg+fbLGXHt+8Vl/SgDH8Nf8h7xd/wBhVP8A0jtq6OuM8Jafcwap4phk1e8ndNUQNNIsQZ/9Etzk7UA744A4A7811H2Of/oIXP8A3zH/APE0AW6KqfY5/wDoIXP/AHzH/wDE0fY5/wDoIXP/AHzH/wDE0AW6qad/x7P/ANd5f/RjUfY5/wDoIXP/AHzH/wDE1VsLWZrdiL64X99IMAJ/fbn7tAGrXx0qtqjh3BWyU5RDwZT6n/Z9B3r66+xz/wDQQuf++Y//AImvlifWYfPFra6RZNNwXJaXbGvqfn6+grhxivy231/Q83MFflto9de2x9N+Ff8AkUNE/wCvCD/0Wta9c/4ZtZW8KaOyXk8SmxhIjUKQo2DgFgTge5J961fsc/8A0ELn/vmP/wCJrsh8KO+n8CLdFVPsc/8A0ELn/vmP/wCJo+xz/wDQQuf++Y//AImqLLdVLP8A4+b7/ruP/RaUfY5/+ghc/wDfMf8A8TVW1tZjcXgF9cDEwBICc/IvJ+WgDVoqp9jn/wCghc/98x//ABNH2Of/AKCFz/3zH/8AE0AW6KqfY5/+ghc/98x//E0fY5/+ghc/98x//E0AW6KqfY5/+ghc/wDfMf8A8TR9jn/6CFz/AN8x/wDxNAFuqln/AMfN9/13H/otKPsc/wD0ELn/AL5j/wDiaq2trMbi8AvrgYmAJATn5F5Py0AatfLHjGeKx8Va1tTLvqNxsjQcuxkY/wCTX059jn/6CFz/AN8x/wDxNfOHiKS2g8XazLPp1pNOl5OhmdpQSokbk/PgE9TgAe1cWNUeVczPOzFRcY8z6ntHwq87/hW2k/aCvmnzi23oP3z8fh0rsq4n4bN/aPgDTLq2uJLeF/N2xxAbRiVxkbgTzjPJ711f2Of/AKCFz/3zH/8AE11UvgXodtHSnG/ZFuiqn2Of/oIXP/fMf/xNH2Of/oIXP/fMf/xNWaFfxCW/sG6CSSRkgLvicowywHDAgg+4rzjRNWvtD1fTdO1XVbq6W7uxBb3UrMSy5XZHK3djucA98eprvdeheHRp3kvpWXKDa4QAksAOijuRXK2cKz6hao+CPPjIJAO0hgQRnjIIBH0rvw8b0rpa3f5Hymb1nDHqEp2i4x013591o/8Ag9T0evljxLbx2/jTxBcyvuka/uCXb+FfMbAHoBX059jn/wCghc/98x//ABNfNfiS4jufFutw3Wk2skEV/MoaVpQ8zLI2WIVwME9sY+leHjVeKu7I9vMFeCu7I9V+CFx9q8F3koRljOouELfxDy4+f516VXnPwnxeeF7treT7GqXrIY7fBGfLjOTv3HOCO/pXd/Y5/wDoIXP/AHzH/wDE1vQt7NWOnDW9jGxboqp9jn/6CFz/AN8x/wDxNH2Of/oIXP8A3zH/APE1sbluqkf/ACF7j/rhH/6E9H2Of/oIXP8A3zH/APE1VS1m/tOdft1xkQxndhMnl+Pu/wCc0AatfNnxRtXuvibqpnI+zxmEpGP4z5Kct9Owr6I+xz/9BC5/75j/APia+f8A4kaiIfiFqNhHZW93MnlGa4nLgqDEh52MozjgAAVy4tN09NNTix6bpKztrv8AeejfBh1fwjehWBK6g6tjsfLjOP1r0WvNvhFbRv4TufsmbGMXz5jg+YMdiEsS+45/HtXffY5/+ghc/wDfMf8A8TWmHt7KNjbCpKjG2xj2X/JSNa/7BVj/AOjbqujrmNMjaL4i62rzPKf7LsTucDP+tuuOAK2dV0m11m1W1vDMYN4Zo45mjEnBG1tpBK85x0OBmtjcsJd20k7QJcRNKvWNXBYfhU1eV3kvgiLStPu7bwRbPby2X9pSyW8EUMlpbZA8wsCG3c5wpz8p9K9Ns7VbK0itkkmkWNdoaaQyOR7seT9TzQBPRRRQAUUUUAc543/5ANt/2FdO/wDSyGujrnPG/wDyAbb/ALCunf8ApZDXR0AFFFFABVTUf+PZP+u8X/oxat1U1H/j2T/rvF/6MWgC3RRRQAUUUUAFFFFABVTUf+PZP+u8X/oxat1U1H/j2T/rvF/6MWgC3Xjnx4Nw3/CPw242mT7RulPRAPK/M88V7HXj/wAdrmO1i0J3ySTOFVeSx/d8CsMTf2Tsr/8ADnNjL+xdlfb8zkfhXFDZ+PtIhQgbjNjJ5c+S5J9zX0dXzZ8KbaRviRpd3dYM5EwVByIh5T8D39TX0nWWC+B631Mcv/hvW+v+QUUUV2HeFVNR/wCPZP8ArvF/6MWrdVNR/wCPZP8ArvF/6MWgC3RRRQAUUUUAFFFFABVXU/8AkFXf/XF/5GrVVdT/AOQVd/8AXF/5GgDxT9on/XeF/wDcu/8A2hXjugsqXNwzEBVDEk9uRXsX7RP+u8L/AO5d/wDtCvGNHto7q5kSXJQMzFc8Ngjg+3+FfUK39gSv2n+h5+Mtyyudd4R8zUfGmhTHclomo27Rr0MhEi4Y+3oO9fV1fK/hq6I8c6FbQKHk/tC3MnpGvmL19z2FfVFfFYK/K+iFl1+R6WXQKKKK7T0Qqrqf/IKu/wDri/8AI1aqrqf/ACCrv/ri/wDI0AWR0Fch8UYkm+HOqpIoZcwnB9pkIrrx0Fcd8VVlf4bassLiOQ+SAxGcfvkz+OKzq/w5ejMq/wDClrbRnzhcXEksxtLQ4k/5aS9REP6n2r7Br5AJt9LtAACecADlpGP8ya+v648Da0rLQ4MstaVlpp89znfH3/JO/Ev/AGC7n/0U1bj3ENtAsk80cSYA3OwUfmaw/H3/ACTvxL/2C7n/ANFNWdqWkeFLfWY21fS47+5uYLi8a4vlFwsMcWwsAHyEA8xQAor0D1DsUdJEDxsrIwyGU5BokTzI2Tcy7gRuU4I9xXE+CU0ee+uJrDQZtAuEijma0SQLFLDKG8tzGh2BvkbtuBBGa7dgWUqGKkjGR1FAHnMWoXnhrTPiE8N7eXh0rElqb2dpyh+yRydWPTcxOOlWM3fhLWtKVNTv9RjvrC5e5S7uGlDSxIriRM/cz8wIXC8jjitXT/A8NleahPca3quoR6kpF7b3ZgMc/wC7EfOyJT90AcEdKs6R4QtNKvY7t76/v5IIDbW322VXFvEcZVcKM52rktljgc0AcvpUmoafb+DNafV767m1yRI76GacvE3mwPKCiHiPayjG0DjOc1Ba3mojQdK8XnVb5ru81WOKa1M7GDyZLjyfKWL7oKqQdwG7K8nmur0vwTp+lXtpOl3fzwWG/wCw2k8oaK03Ag7AFBOFJUbi2ASBikh8D6dDqEU4ur5rSG6a8h05pV+zxzElt4G3d94lgC20E5AoA29RvJ7G0M1vp9zfyAgeRbNGHPv+8ZV/WuX8Jahcz6p4pmk0i8gd9UQtDI0RZP8ARLcYO1yO2eCeCO/FdnXOeGv+Q94u/wCwqn/pHbUAbH2yf/oH3P8A31H/APFUfbJ/+gfc/wDfUf8A8VVuigCp9sn/AOgfc/8AfUf/AMVR9sn/AOgfc/8AfUf/AMVVuigDj/FMry+DvFsb28kKS2VwHlcqViBt8ZbBJwOvAJx78V8uNpNl50X/ABP9O4zxsn54/wCuVfVHi/8A5Ebxp/14XP8A6TV8hP8A66H8f5V9Vw1FyhVtJrWn2/m80zCtuvmfbv2yf/oH3P8A31H/APFUfbJ/+gfc/wDfUf8A8VVuivlTcqfbJ/8AoH3P/fUf/wAVR9sn/wCgfc/99R//ABVW6KAKn2yf/oH3P/fUf/xVH2yf/oH3P/fUf/xVW6KAMq1uphcXhFjcHMwJAKcfIvB+arX2yf8A6B9z/wB9R/8AxVFn/wAfN9/13H/otKt0AVPtk/8A0D7n/vqP/wCKo+2T/wDQPuf++o//AIqrdFAFT7ZP/wBA+5/76j/+Ko+2T/8AQPuf++o//iqt0UAVPtk//QPuf++o/wD4qj7ZP/0D7n/vqP8A+Kq3RQBlJdTf2nO32G4yYYxtymRy/P3v84r5CfSbLz4z/b+ndG42T89P+mVfY8f/ACF7j/rhH/6E9fEb/wDHzF9G/pX1fDUXKnVtJr3qfb+bzTMK26+Z9ieEriSHwZoUSWk0yJp9uqyxlQrgRr8wyQcHryAfatj7ZP8A9A+5/wC+o/8A4qs7wX/yInh7/sGW3/opa3K+bxP8afq/zNo7IqfbJ/8AoH3P/fUf/wAVR9sn/wCgfc/99R//ABVW6KwGVPtk/wD0D7n/AL6j/wDiqPtk/wD0D7n/AL6j/wDiqt0UAZSXU39pzt9huMmGMbcpkcvz97/OK+PjpNl9nnH/AAkGncludlxx/wCQq+y4/wDkL3H/AFwj/wDQnr4eP/Htcf7zV9Hw/FtVrO3u+XaXcxq9D6w+FbtafDbSYIYmvI187E8GAj/vnPAcq3HTkDpXY/bJ/wDoH3P/AH1H/wDFVyPwe/5JVov/AG3/APR8ldzXkZirYyqn/NL82aQ+FFT7ZP8A9A+5/wC+o/8A4qj7ZP8A9A+5/wC+o/8A4qrdFcZRU+2T/wDQPuf++o//AIqj7ZP/ANA+5/76j/8Aiqt0UAZT3U39pwN9huMiGQbcpk8pz97/ADmrX2yf/oH3P/fUf/xVEn/IXt/+uEn/AKElW6AKn2yf/oH3P/fUf/xVH2yf/oH3P/fUf/xVW6KAKn2yf/oH3P8A31H/APFVh6ZI0vxF1tnheI/2XYja5Gf9bdc8E109cdcaTa6z4+1i1vDMYP7NsGaOOZoxJ+8uxtbaQSvOcdDgZoA6tLu2knaBLiJpV6xq4LD8Kmryu8l8ERaVp93beCLZ7eWy/tKWS3gihktLbIHmFgQ27nOFOflPpXptnarZWkVskk0ixrtDTSGRyPdjyfqeaAJ6KpXur6ZpssMV/qNpayTsFiSedUMhJwAoJ5OfSm3+u6Rpc0cOoarY2csv+rS4uEjZ/oCRmgC/RWfqWu6PoyxNquq2Nis2fKN1cJFvxjONxGcZHT1p7azpaaWNUfUrNdPYBhdmdREQeh35xj8aALtc74+/5J34l/7Bdz/6Kat22ure9to7m0ningkGUlicMrD1BHBrC8ff8k78S/8AYLuf/RTUAdAn+rX6CnU1P9Wv0FOoAKKKKAKmo/8AHsn/AF3i/wDRi188ftBf8lC0z/sGL/6Mlr6H1H/j2T/rvF/6MWvnj9oL/koWmf8AYMX/ANGS17OQ/wC+x9V/6VEzq/CH7Pn/ACUDVP8AsHP/AOjIa+kq+bf2fP8AkoGqf9g5/wD0ZDX0lRn3++S+f/pTCl8IUUUV4xoFFFFAFXU/+QVd/wDXF/5GrI6Cq2p/8gq7/wCuL/yNWR0FAC0UUUAFFFFABRRRQBV1P/kFXf8A1xf+RrxL9or/AF/hX/du/wD2jXtup/8AIKu/+uL/AMjXiX7RX+v8K/7t3/7Rr0sm/wCRhR/xIip8DOH+DP8AyVbS/wDfn/8ASd6+r6+UPgz/AMlW0v8A35//AEnevq+u/iP/AHiH+F/+lzJo7MKKKK+eNQooooAQ9DXjnxz/AOSTaV/19w/+iZK9jPQ1458c/wDkk2lf9fcP/omSuzL/APeI/P8AJkz2PNPhD/yVrQP+3j/0RJX1fXyh8If+StaB/wBvH/oiSvq+vT4m/wCRjL0X5EUfgCiiivANQooooAQ9DVbTP+QVaf8AXFP5CrJ6Gq2mf8gq0/64p/IUAUPFys/gvXVVyjHTrgBgOh8tua+WSbfS7QAAnnAA5aRj/Mmvqbxc/l+C9dcKzbdOuDtXqf3bcCvle2tnMv2u7wZyPlUHiIeg9/U152O3V9jycy3jzPT8z7Bpr/6tvoadTX/1bfQ16J6xz/gH/knfhr/sF23/AKKWuirnfAP/ACTvw1/2C7b/ANFLXRUAFcb45t7XUrnTNMbQv7WvZlmkiQ3rWqJGoUSb3XJKneg2YIbuOK7KuD8U3/hu+voI/ENzrGjTWEsnkSq81uj543rJH8rZA45yAxBAyRQBueHoNQN/qF9qei22nXE6RIGgvzciRU3YGCihAM9s53GugrkPCV1pf2qaLR7nXtSglUF7u9lmkhj25wEaUjJOf4M9BnpXX0AFFFFABRRRQBznhr/kPeLv+wqn/pHbV0dc54a/5D3i7/sKp/6R21dHQAUUUUAFVNO/49n/AOu8v/oxqt1wXxDvbvTvhbrN1Y3U1tcxzjZNBIUdc3IBwRyOCR+NbYai69aFFO3M0vvdhN2Vzva+QALfS7QkknnJJ5aRj/MmqB8beLPs85/4SjWsgtg/b5eP/Hqu29vJLMLu7GJP+WcXURD+p96yz7L5YL2fPK6km9PWx5OYTUlG+2vz2PqjwizP4L0JmQox063JUnofLXitmsjwoQ3g7RCCCDYQEEd/3a1r1EPhR6lP4UFFFFUWFVLP/j5vv+u4/wDRaVbqpZ/8fN9/13H/AKLSgC3RRRQAUUUUAFFFFABVSz/4+b7/AK7j/wBFpVuqln/x833/AF3H/otKALdfKXi1JNR8a66jhks49RuAQeDKRI3/AI7/ADr6tr5W8aXTr4z1m2tgHuWvpzz0QeY3zH/DvXFjb2Vt/wAjzswvyx5d/wAj3v4YgD4d6UAAAPNwB/11euurjfhVCYPhtpMZdpCPOJZupJmcmuyrpo/w4+iOyh/CjbsvyCiiitDUwvGOn2+qeFL6yulLQyhM7Tggh1IIPYggEH1FefeHbyfTNX0zTNZulkuJbrZa3GMeeqlSN3YPyRjvtJr0vxD/AMgO5/4D/wChCuJtbWC71OxW4iWQJdRSqGGdrK4Kke4Ir0cNH902t7v8j47O6qWYRpz1jyx+T591+vf7mvSa+VfGdzI3jTWrS0wZzfTlnPIiHmNyff0FfVVfLHi1rfT/ABTr0hG0NqVwxxyXYyNwPU14GNtaOl2e/mNuWOl3fQ9e+CNslr4Ku40yc6g7MzHJY+XHkmvSa81+CBuG8F3j3ACs2ouQg/gHlx4BPc/416VXTQv7NXOvDX9lG7uFFFFam4VUj/5C9x/1wj/9CerdVI/+Qvcf9cI//QnoAt184/FW4itPH2qyMOWMICqPmdvJTAHqa+jq+cPiZar/AMLO1e6kYu2IQgPSMeSmcfX1rjx1vZq/c8/MeX2S5u/+Z6L8EBcf8IXeNclfMfUXbYvRB5cfGe9elV5t8ErmO68G3rxZKDUZFDY4bEcfI9v8K9Jrehf2audOGv7GN1Y5yy/5KRrX/YKsf/Rt1XR1zll/yUjWv+wVY/8Ao26rV1XUhpVqty9pd3MW8LJ9li81o1wfmKj5iOAPlBPPTGcam555pdhPfaPdTaL4Itv7K1eMc3OuPG8kOSVXbsfy1+YnYpwNx4r1GvKLYeBoENvYeJvErSFiwtLW9vGkLE5P7teQST6deteoWdw11aRTvbzW7SLu8qYAOvscEjP40Acz4k8ZSaH4gtdIig0zdPbNcCbUdT+yJw4XYv7t9zHOfwNTX3ibU49QGm6bosd/fw2aXd4gvPLjiDEhUVyh3sSr4yFGBkkZqfX5roStBD4VOsRywbfM82BVySco4kYHb0OQG69K5nRNC8ReC/JkttPGsvPpVvaTLFcJH5U0JfbzIRmPEmMjJG3pzQBtnxob+PSV0DTvt9zqVob1Y55/IWGEbQS7bWw25goAB5B6AVsaBrMev6NFqEcLwMzPHLDIRuikRijocejKRnvXJad4c1fwkdCu7Sy/taS20trC8hglSNt5dZA6FyAV3bgQSDgg89K6PwhpV1pGg+XfhFvbi5nvJ0jbcqPLK0hUHvjdjPfFAEHjdl/sK2GRn+1dO4z/ANPkNdHkeorifG3hrQltYNUGjaeNQfVrAtdC2TzTm7iBy2M8gkfSut/syw/58rf/AL9CgCzkeooyPUVW/syw/wCfK3/79Cj+zLD/AJ8rf/v0KALOR6iqmokfZk5/5bxf+jFp39mWH/Plb/8AfoVVv9Oskt1K2kCnzohkRgcF1BoA+efiz4o8Rad8Q9ctrDXdUtrePyfLigu5ERcwRk4AOBySfqa7f4Ea1qurjX/7U1O9vfK+z+X9qnaTZnzc43E4zgfkK8/+LOr6lpnxD1y1sNQurW3i8ny4oJmRUzBGTgA4HJJ/Gu2+BFxPrI1/+1JpL3yvs/l/aWMmzPm5xuzjOB+VfY4inbKXLkXwU9evxenXrqc6f7z5s9syPUUZHqKrf2ZYf8+Vv/36FH9mWH/Plb/9+hXxx0FnI9RRkeoqt/Zlh/z5W/8A36FH9mWH/Plb/wDfoUAWcj1FVNRI+zJz/wAt4v8A0YtO/syw/wCfK3/79Cqt/p1klupW0gU+dEMiMDguoNAGnkeoryP43RRvLoEpUF4xchT6Z8rP8q9T/syw/wCfK3/79CvKfjOk9k+hLps7WMTmcz/ZiY2kx5e0ZXHHJ/yawxNvZO7sc2Mt7CV3b/hzjPhbcS3fxL0pofltIzMC5H+sPkuMD2HrX0lkeor57+H+rT3fxC0nTru6nuUmEpaGRy64ETnLA8YyB+Ne9/2ZYf8APlb/APfoVng7ez02uZZfb2XurS5ZyPUUZHqKrf2ZYf8APlb/APfoUf2ZYf8APlb/APfoV1ncWcj1FVNRI+zJz/y3i/8ARi07+zLD/nyt/wDv0Kq3+nWSW6lbSBT50QyIwOC6g0AaeR6ijI9RVb+zLD/nyt/+/Qo/syw/58rf/v0KALOR6ijI9RVb+zLD/nyt/wDv0KP7MsP+fK3/AO/QoAs5HqKMj1FVv7MsP+fK3/79Cj+zLD/nyt/+/QoAs5HqKq6mR/ZV3z/yxf8AkaX+zLD/AJ8rf/v0Kq6jp1lHpt06WkCssTEERgEHFAHj37RHM3hjHPyXfT/thXjGki586VbZQHcsu9uiDI5x3r2z473M+jTeHRpc0lkJluvM+zMY9+PJxnbjOMn8zXk2l+KdWjkne51e/dRuCqbh2JORgAZ619NFz/sOSSVrT/Tpb9ThxVrM6PwhFDp/inQ1LY3ajbgu3V2Mi9fevqXI9RXzF4Rv9XuvFmktf390yTXkKG2MzFAhcZDDOGJ719Kf2ZYf8+Vv/wB+hXxmDtaVncnL7WlZ3d9SzkeooyPUVW/syw/58rf/AL9Cj+zLD/nyt/8Av0K7T0CzkeoqrqZH9lXfP/LF/wCRpf7MsP8Anyt/+/QqrqOnWUem3TpaQKyxMQRGAQcUAaYIwORXHfFSdYPhtq0hDNjycKoySTMgAFdONMsMD/Qrf/v0K5j4h28Fj4F1K5tIo7edPK2yxKFZcyoDgj2JrOrb2cr9mZV7eylfazPnG2tZDL9ruwDOR8qjpEPQe/qa+v8AI9RXySNd1fUZcQ6pex2iH5pFnYGQjspz096+rf7MsP8Anyt/+/Qrlwa1lr2+W5xZetZa66adtzH8fEf8K78S8/8AMLuf/RTVneNre11KXStMbQv7WvZkmkiQ3rWqJGoQSb3XJKneg2YIbuOKseO9Osk+H3iN0tIFZdMuSCIwCD5bVmeJr/w3fXVtH4hudY0aawd/IlV5rdHzxvWSP5WyBxzkBiCBkiu49I3vD0GoG/1C+1PRbbTridIkDQX5uRIqbsDBRQgGe2c7jXQVyHhK60v7VNFo9zr2pQSqC93eyzSQx7c4CNKRknP8Gegz0rr6ACiiigAooooAK5zw1/yHvF3/AGFU/wDSO2ro65zw1/yHvF3/AGFU/wDSO2oA6OiiigAooooA5Txf/wAiN40/68Ln/wBJq+Qn/wBdD+P8q+vfF/8AyI3jT/rwuf8A0mr5Cf8A10P4/wAq+u4Y+Cr/AIqf/pRz1t18z7oooor5E6AooooAKKKKAKln/wAfN9/13H/otKt1Us/+Pm+/67j/ANFpVugAooooAKKKKACiiigCpH/yF7j/AK4R/wDoT18Rv/x8xfRv6V9uR/8AIXuP+uEf/oT18Rv/AMfMX0b+lfX8L/w63+Kl/wClHPX3XzPsvwX/AMiJ4e/7Blt/6KWtysPwX/yInh7/ALBlt/6KWtyvl8V/Hn6v8zeOyCiiisBhRRRQBUj/AOQvcf8AXCP/ANCevh4/8e1x/vNX3DH/AMhe4/64R/8AoT18PH/j2uP95q+m4d2r/wCF/lIxrdD6z+D3/JKtF/7b/wDo+Su5rhvg9/ySrRf+2/8A6Pkrua8bMv8Afa3+KX5s0h8KCiiiuIoKKKKAKkn/ACF7f/rhJ/6ElW6qSf8AIXt/+uEn/oSVboAKKKKACucsv+Ska1/2CrH/ANG3VdHXHXGpDSvH2sXL2l3cxf2bYLJ9li81o18y7+YqPmI4A+UE89MZwAc/pdhPfaPdTaL4Itv7K1eMc3OuPG8kOSVXbsfy1+YnYpwNx4r1GvKLYeBoENvYeJvErSFiwtLW9vGkLE5P7teQST6deteoWdw11aRTvbzW7SLu8qYAOvscEjP40Acr8SI7X/hGPOkSH7Qt7ZBHYDcB9rhzg9cVP4pv7IH+zrOytL7W9SgMUSSKpVYuQZJW7RKSeO5OBya2dT0DRtaaNtV0iwv2iBEZurZJSgPXG4HHQVVm8G+F7hYln8N6PKIU8uIPYxNsTJO0ZXgZJOB6mgDHn8JwxWvh6GLxFJZ3WjWLQRzBYmaVSqKWYSAjHyD8+tYtrq764/ge+1c27WxvbyIyhdsE0yLIkMgB4G4KzL7njtXc3HhrQbu3tre50TTZoLVdsEclqjLEPRQRhRx2q1c6bY3tibG6sraezIC/Z5YlaPA6DaRigDm/A3lef4m+x7f7P/tiT7Ps+5/q4/M29seZv6d81B8R4Ndbwf4hktdR0+PTxpk/mQSWTvKw8tt2JBKAM9vlOPeuwtbW3sraO2tIIoIIxhIokCqo9ABwKwvH3/JO/Ev/AGC7n/0U1AGqkeoeWv8ApNt0H/LBv/i6d5eof8/Nt/34b/4urKf6tfoKdQBU8vUP+fm2/wC/Df8AxdHl6h/z823/AH4b/wCLq3RQBlX8d8Ldd9xbkedH0hI53rj+KvC/jg9lF4505dUt57mc6epV7aYQqF8yTgqyuSc55z+Fe/aj/wAeyf8AXeL/ANGLXzx+0F/yULTP+wYv/oyWvYyOKljIp+X/AKUjOr8JZ+Bz2UvjfUV0u3ntpxYuWe5mEyld8XAVVQg9Oc9jxzx795eof8/Nt/34b/4uvnj9nz/koGqf9g5//RkNfSVGeRUcW0vP/wBKYUvhKnl6h/z823/fhv8A4ujy9Q/5+bb/AL8N/wDF1borxzQqeXqH/Pzbf9+G/wDi6PL1D/n5tv8Avw3/AMXVuigDL1GO+Gm3Re4tyvlNkCEgkY9d1WBHqGB/pNt/34b/AOLp2p/8gq7/AOuL/wAjVkdBQBV8vUP+fm2/78N/8XR5eof8/Nt/34b/AOLq3RQBU8vUP+fm2/78N/8AF0eXqH/Pzbf9+G/+Lq3RQBU8vUP+fm2/78N/8XR5eof8/Nt/34b/AOLq3RQBl6jHfDTbovcW5XymyBCQSMeu6vIvju1vFN4b/tWKS5JF15X2aQQbf9VnO4PnPGOmMHrnj2fU/wDkFXf/AFxf+RrxL9or/X+Ff927/wDaNejlC5sdST/mRFT4Wcr8J5dMk+JWnLYWl3Bcl5tsk9ysqD9w+cqEUnjI6j+lfS3l6h/z823/AH4b/wCLr428M61ceHteXVbSfyJ4HfbJsDYyhU8EEHIJH416p4V+InjPUvEmmx3+q4trm7hiNt9miHyFwDkhc5IPY8VvxLUhRxMIu+sfX7c+7OX6zGl7sj3Xy9Q/5+bb/vw3/wAXR5eof8/Nt/34b/4urdFeOdpU8vUP+fm2/wC/Df8AxdHl6h/z823/AH4b/wCLq3RQBTMeoYP+k23/AH4b/wCLryr4xmOP4Z6a2oq1xam5i2x27eU4PlSYJYhgeM9hXsB6GvHPjn/ySbSv+vuH/wBEyV14BXxEV6/kyZbHA/C6XTJPiboi2Npdw3R8/wAuSa5WRF/cvnKhFJ4z3H49K+l/L1D/AJ+bb/vw3/xdfLfwh/5K1oH/AG8f+iJK+r69LiOCjmEkuy636eZFH4Cp5eof8/Nt/wB+G/8Ai6PL1D/n5tv+/Df/ABdW6K8I1Knl6h/z823/AH4b/wCLo8vUP+fm2/78N/8AF1booApmPUMH/Sbb/vw3/wAXVfTo746balLi3C+UuAYSSBj13VpnoaraZ/yCrT/rin8hQBleJEu18Lau088LwiymLqkRUldhyASxwcd8Gvmn7RpOqB41sr4WoODIt4o8z1A/d9PfIr6c8XRrL4L12NxlX0+4Uj1Bjavli4uPs+y2to1adhhEHAUep9AK8/GNqStueXj5NTjyrX8vM+tfL1D/AJ+bb/vw3/xdNePUPLb/AEm26H/lg3/xdXaa/wDq2+hr0D1Dn/AP/JO/DX/YLtv/AEUtdFXO+Af+Sd+Gv+wXbf8Aopa6KgArN1TX9K0Wa2j1O+is/tJYRPMdqEjGQXPyg8jAJGe2cGtKsHxE+ozy2ulafLpcbXiyeY18jSnau3OyIYD/AHucsAOOuaAN1HWRFdGDKwyGByCKWuC0bwVFoV4V0TX7pb+K4imvLYlUt2iZvmUQKoVMqH2kDORyTzXe0AFFFFABRRRQBznhr/kPeLv+wqn/AKR21dHXOeGv+Q94u/7Cqf8ApHbV0dABRRRQAV538T/+SRa5/wBd1/8ASpa9Erzv4n/8ki1z/ruv/pUtd2V/79R/xx/NEz+Fnyuf+Pa4/wB5q6eSR9RkaGFitqpxLKOr/wCyv9TXMH/j2uP95q62edLOOO3t4w0rDEUS8D6n0Arp4x+LD235X+Z4+L3jZa6/ofU/hJFj8G6GiAKq6fbgAdh5a1sVjeEQ48F6EJCGcadb7iBgE+Wua2a8aHwo9iHwoKKKKooKqWf/AB833/Xcf+i0q3VSz/4+b7/ruP8A0WlAFuiiigAooooAKKKKACqln/x833/Xcf8AotKt1Us/+Pm+/wCu4/8ARaUAW6+WPFYt9P8AFXiCZjtDajcO7HkkmRuP6AV9T18q+J7V5vHWt3F1ghNRuBDGOi/vG+Y+5/SuHHW5Vd6Hm5lbkV3p+Z7x8KpHl+G2kySRmNm847D1A858Z98V2Vch8MHWT4d6WyMGGZhkeomcGuvrqpfw4+iO2h/Cj6IKKKK0NTB8Z2Eep+E760kkliD+WRJE21kYOrKwPqCAfwrg/DN9dQ6rYafrMkI1A3G2F0OBdIhU7wOx+YZX1BxxXo/iD/kB3P8AwH/0IVw0On2t/qmnfaYg5gu4poj3R1cEEH/ORkV6OGj+6bW93+R8dnlVf2hGnP4eWL80+fp+F11PTK+VvE1qz+OtcublgzLqFwIlHRF8xufqfWvqmvlLxe0moeNNdt4iyW6ahcLLIOCx8xsqv9TXg42/Kj6DMb8itp5nsvwUuI7jwffGI7lXUXXd2JEcfT1r0ivOfgvGkXgy5jjUKi3zgAdB+7jr0at8Pb2UbHThbexjYKKKK2OgKqR/8he4/wCuEf8A6E9W6qR/8he4/wCuEf8A6E9AFuvmr4qxzXvxK1a3IaO1Tyd56GX9yhwPb1/KvpWvm74sXZi+IupQQKJLlxFtXso8pPmb0FcmMvyK3f8AzOHML+zXLvf7tHqemfBhVTwddKoAVb5wAO37uOvRa81+CFubfwXeBpGkkbUHZ3Pc+XH+Q4r0qtcP/CjY2wtvYxs7nOWX/JSNa/7BVj/6Nuq6Oucsv+Ska1/2CrH/ANG3VdHWx0GZpHiLR9eRjpmoQXDJ/rI1bEkfsyHDKfqBWnXnN74eHiq2g8QeJNU0+1tIQJY30lNrqoPU3TDfj/cCV2Wh6de6Xb3Ftd6hLfRCcm1knO6VYtq/K7YG4ht/PXGMkmgDUooooAKKKKAOc8b/APIBtv8AsK6d/wClkNdHXOeN/wDkA23/AGFdO/8ASyGujoAKKKKACqmo/wDHsn/XeL/0YtW6qaj/AMeyf9d4v/Ri0AfLXxm/5Kb4g/7Y/wDpPHXf/s7dPEf/AG6/+1a4D4zf8lN8Qf8AbH/0njrv/wBnbp4j/wC3X/2rX3OK/wCRM/8Ar3T/APSmc0f4nzZ7jRRRXwx0hRRRQAVU1H/j2T/rvF/6MWrdVNR/49k/67xf+jFoAt1458eLh4f7Aihj3zyfaAgPQY8rJJ9BmvY68i+OUscEWiSysFRRcEsf+2dc+K/hPS+35nLjf4EtL7fmjjfhRaLbfEHTCzGSZzKZJD1Y+U/5D2r6Pr5q+FSTXXxJ0m7mDRxr53kxdCMwuNze+O3avpWowd+R3et/8jPL7+zd3d3/AEQUUUV1ncFVNR/49k/67xf+jFq3VTUf+PZP+u8X/oxaALdFfNv7Q/8AyOdr/wBguP8A9Gy0vwC/5KFd/wDYKl/9Gw17c8m5cE8Xz7Ri7W/mk1a9+luxn7T3uWx9I0UUV4hoFFFFABVXU/8AkFXf/XF/5GrVYes61bQpd2LJKZTGVyANuSvHf3qowlPSKMK+JpYdJ1ZWTdl69jyb9on/AF3hf/cu/wD2hXjmgor3khZQSpZlz2OQM/rXpfxy8Qwazqmi2sVpdwm0jnJkmRQkofysFCGOcbTkHBHHrXl+kwNczyxCQohLb9vUrkcA9u1fUcrjkM1LTSf6HHXq061JzhK8WtzsfCs8l5440RbZttvHqNv5kv8AfIkX5V9vU19WV8seGJobTxh4eto0+ZtQt1SNB0XzFyfoK+p6+IwPwuy0Ky34HZWQUUUV2nohVXU/+QVd/wDXF/5GrVVdT/5BV3/1xf8AkaALI6CuP+KsC3Pw21aJywVvJztOMjzk4rsB0Fcd8VWlX4basYEDS/uQoY4H+uTk/TrWdW/JK3ZmVa/s5W7M+cbi4+z7La2jVp2GEQcBR6n0Ar7Ar5Aiii0+CSaaTLn5pZm6sf8AD0FfX9ceAt71vLU4Mst71vLXvuc74+/5J34l/wCwXc/+imq9qGv6VorWkep30Vn9pyInmO1CRjILn5QeRgEjPbODVHx9/wAk78S/9gu5/wDRTU7X31Gc2elafLpcbXiSeY18jSnaoXOyIYD/AHucsAOOua9A9Q30dZEV0YMrDIYHIIpa4LRvBUWhXhXRNfulv4riKa8tiVS3aJm+ZRAqhUyofaQM5HJPNd7QAUUUUAFFFFABXOeGv+Q94u/7Cqf+kdtXR1znhr/kPeLv+wqn/pHbUAdHRRRQAUUUUAcp4v8A+RG8af8AXhc/+k1fIT/66H8f5V9e+L/+RG8af9eFz/6TV8hP/rofx/lX13DHwVf8VP8A9KOetuvmesXfxY8YQbY49V8y4k+5H9mh/M/JwK9q+H2o6hq3gfTr7VboXV9L5nmyiNUDYkYDhQAMAAfhXzNBAlnHJcXEgaVhmWVuB9B6AV9G/CqYXHw20mUIyhvOIDDBx5z4P49a+AwdSUptXujiwFWcpuN21bd9zsqKKK9E9UKKKKAKln/x833/AF3H/otKt1Us/wDj5vv+u4/9FpVugAorwDWfiH4ztPFesQJqwhs7e8mht4BbxNhFcgEkpnoPX616V8MPEV94l8O3d1qN2LmeG9aDcEVdoCI2PlAH8R/OsIYiE58i3Oani4VKns43udrRRRW50hRRRQBUj/5C9x/1wj/9CeviN/8Aj5i+jf0r7cj/AOQvcf8AXCP/ANCeviN/+PmL6N/Svr+F/wCHW/xUv/Sjnr7r5n2X4L/5ETw9/wBgy2/9FLW5XxtFLJewx2tuxSNUUTTDtx91ff1PavoL4KxRweC7mKJQqLfOAB/1zjr46tiebFTg1Z3f5mVDF881Tasz0eiiiqO0KKKKAKkf/IXuP+uEf/oT18PH/j2uP95q+4Y/+Qvcf9cI/wD0J6+Hj/x7XH+81fTcO7V/8L/KRjW6H1n8Hv8AklWi/wDbf/0fJXc1w3we/wCSVaL/ANt//R8ldzXjZl/vtb/FL82aQ+FBRRRXEUFFFFAFST/kL2//AFwk/wDQkq3VST/kL2//AFwk/wDQkq3QB5B47+K2t+GvFl3omm2enztHs8sTI5IBRWLMQ44BJ7V0vw48Zan4tTUf7SitEa1EW02yMoJbfnO5m/uivK/igLe1+IWtXL7U3eSXc+0KAV1fwHknm/4SCaVfLjb7P5cZHzAfveT7n07V59OrOVflvpdnl0q1SWJ5b+6m/wBdPkex1zll/wAlI1r/ALBVj/6Nuq6Oucsv+Ska1/2CrH/0bdV6B6hoaR4i0fXkY6ZqEFwyf6yNWxJH7Mhwyn6gVp15ze+Hh4qtoPEHiTVNPtbSECWN9JTa6qD1N0w34/3AldloenXul29xbXeoS30QnJtZJzulWLavyu2BuIbfz1xjJJoA1KKKKACiiigArnfH3/JO/Ev/AGC7n/0U1dFXO+Pv+Sd+Jf8AsF3P/opqAOgT/Vr9BTqan+rX6CnUAFFFFAFTUf8Aj2T/AK7xf+jFr54/aC/5KFpn/YMX/wBGS19D6j/x7J/13i/9GLXzx+0F/wAlC0z/ALBi/wDoyWvZyH/fY+q/9KiZ1fhD9nz/AJKBqn/YOf8A9GQ19JV82/s+f8lA1T/sHP8A+jIa+kqM+/3yXz/9KYUvhCiiivGNAooooAq6n/yCrv8A64v/ACNWR0FVtT/5BV3/ANcX/kasjoKAForlfH/ia98K6FBfWMVvJLJcrCROpK4KsexHPyivO9G+MXiDVvFOnaUllpnkzXcUNzKIpPkVmAIX5/vYP0FYyrwjPke5zyxNOM+R7nt1FFFbHQFFFFAFXU/+QVd/9cX/AJGvEv2iv9f4V/3bv/2jXtup/wDIKu/+uL/yNeJftFf6/wAK/wC7d/8AtGvSyb/kYUf8SIqfAzxrR1DanhgCPMJ5/wB2ux8L3Mlz450SK1IEceo2/my9RxIvyj39fSuK02Jp7xo1kaPc5BZeuNvOPwrufC0kFj4t8PW6LjdqFuiRqOf9YuT9B1JqOLbfX6XV8v8A7fM8avb28er0/wCHPqeiiiuA9wKKKKAEPQ1458c/+STaV/19w/8AomSvYz0NeOfHP/kk2lf9fcP/AKJkrsy//eI/P8mTPY80+EP/ACVrQP8At4/9ESV9X18ofCH/AJK1oH/bx/6Ikr6vr0+Jv+RjL0X5EUfgCiiivANQooooAQ9DVbTP+QVaf9cU/kKsnoaraZ/yCrT/AK4p/IUAUPF2/wD4QvXfL2+Z/Z1xt3dM+W2M18sxRRafBJNNJlz80szdWP8Ah6CvqbxbIsXgzXZHOFXT7hifQCNq+VIopL6Vbm5UrEpzDCe3+03v7dq87Hbq+x5OZbq+i/PyPsSmv/q2+hp1Nf8A1bfQ16J6xz/gH/knfhr/ALBdt/6KWuirnfAP/JO/DX/YLtv/AEUtdFQAVyPjaaLTJdN1tdasNMvLXzIYhfqWinSTaXTAIbOUQgjONvTBrrq47xsbvT7/AEnXrW70S1FkJopJNXuGiQrIE4UgH5js6+2OcmgBPBF5batfarqh1qz1LUJlhjnWziaOKCNd/lqAxJOS0hJPr0GK7KsXQrvWLiW7i1j+yBJFs2pp9w8hXIJ+cMoxxgj15raoAKKKKACiiigDnPDX/Ie8Xf8AYVT/ANI7aujrnPDX/Ie8Xf8AYVT/ANI7aujoAKKKKACvO/if/wAki1z/AK7r/wClS16JXnfxP/5JFrn/AF3X/wBKlruyv/fqP+OP5omfws+Vz/x7XH+81dbBAlnHJcXEgaVhmWVuB9B6AVyR/wCPa4/3mrp4431GRZplK2qnMUR6v/tN/QV08Zb4e+3K/wAzx8Zsruy1v+B9WeEZBL4L0KRc7X063YZGDgxrWzWR4V/5FDRf+vCD/wBFrWvXjQ+FHr0/gQUUUVRYVUs/+Pm+/wCu4/8ARaVbqpZ/8fN9/wBdx/6LSgC3RRXmqfG/w1LcvBHY6sxT77iKPap9M+Z1qJTjD4mROpCHxOx6VRWdoWs2/iDRrfVLRJUgn3bVlADDaxU5wSOoPetGqTTV0VFqSugooopjCqln/wAfN9/13H/otKt1Us/+Pm+/67j/ANFpQBbr5S8YSyXvjXXbW2YpGuoTiaYdv3jfKvv6ntX1bXyx4zuUtPFmsqib5ZNQuPLiXqx8xifw9TXFjdo2Wp52Y/DGyu7nu/wtijg+G+kxRKFRRKAB/wBdXrsK434VLKvw20kTuGl/fFiowP8AXPwPp0rsq6aX8OPojsofwo630QUUUVoamD4zs5L/AMJ31vFdSWsreWUmj6owkUg+4yBkdxkVw3he/updQs7bVIkt9QS4CFVb5ZgpXMid9vzL9Dx2r0TxB/yA7n/gP/oQrgk0u21HWdKlmVhNa3kU0MiHDKQwyM+hHBHcV6OGT9k2u7/I+OzypH+0I057csXfqnz/AJbX/A9Qr5Y8aXQt/F+sxRJ5lxJf3GyMf9dGyT6D3r6nr5Y8Tww2njDxDcyP8zahcM8jnovmNgfQV4GOtyq57+ZW5Y377HrvwQgeDwXeebKZJX1F2du2fLj6DsOK9KrzX4ITtc+C7yUxlEOovs3dSvlx8kdu9elV00L+zVzrw1/ZR5twooorU3Cqkf8AyF7j/rhH/wChPVuqkf8AyF7j/rhH/wChPQBbr5x+KAt7X4ha1cvtTd5Jdz7QoBX0dXzb8T7Vp/ifqks7BoozCYox0z5KfMfU+lceNt7NXfU4Mxt7JXel/wDM9I+CEss/gu8kki8sNqL7FPXb5ceM+/WvSq85+C8qS+Eb4IwbZqLq2Ox8uPj9a9GrbD/wo6HRhf4MdLaHOWX/ACUjWv8AsFWP/o26ro65yy/5KRrX/YKsf/Rt1XR1sbnj8+pWVtpsvhCXxpon9hRg2rMkLvdCAHBi3Bim4D5N2PfGa9grzXQLzxHo2mNo1td+DZU0oLFIBqEoaBSSEEmE4btk4ya9KoAKKa7pFG0kjqiKCzMxwAB1JNUZNe0eHTI9Tl1axTT5MbLprhBE2fR84PQ96ANCiqs2p2Ftp/8AaE99bRWW0N9pklVY9p6HcTjBqS1u7a+to7m0uIri3kGUlhcOrD1BHBoAwvG//IBtv+wrp3/pZDXR1znjf/kA23/YV07/ANLIa6OgAooooAKqaj/x7J/13i/9GLVuqmo/8eyf9d4v/Ri0AfLXxm/5Kb4g/wC2P/pPHXf/ALO3TxH/ANuv/tWuA+M3/JTfEH/bH/0njrv/ANnbp4j/AO3X/wBq19ziv+RM/wDr3T/9KZzR/ifNnuNFFFfDHSFFFFABVTUf+PZP+u8X/oxat1U1H/j2T/rvF/6MWgC3Xj/xzto55fDryZIjNwQvYn91gn6f1r2CvHPjwLiT/hH4YDsD/aN8vdR+66e5rDFX9k7Oxy4y/sJWdv8AhzkfhjdmX4n6VBCu9U87zn7L+5fAHqa+ka+cfhasFn8QNGt0wm7zgi92PkuTX0dWWCt7N27mWXW9k7LS/wDkFFFFdh3hVTUf+PZP+u8X/oxat1U1H/j2T/rvF/6MWgD54/aH/wCRztf+wXH/AOjZaX4Bf8lCu/8AsFS/+jYaT9of/kc7X/sFx/8Ao2Wq/wAENSsdM8e3Et/e29pG+myor3Eqxhm8yI4BJ5OATj2NfbVf+RJL/BT/APS5HNe1T7/yPpqisuLxLoM8yQw63psksjBURLpCzMTgAAHkmtSviE09joUk9mFFFFMYV5vrerW0vjPUtLO6O6hWNwrjHmoUX5k9QCSD6EV6RXnPjDS7XUPEAmmUia1ljlhlQ4ZSFXIz6EcEdxXVhL80rdmeBxD7P2NJVP54/J2Z5V8XP9fon+7cfzirz3SZ3gnl8qIySuWVF7ZyOp7Dius+IWpXV3caXZ6jb+RqFoswl2g+XIpMe10Podp46ggg1zGhSJFcXEkjBUUMST0HIr6fEyTyab8pf+2nNldN0ssjGSvv8/edvvOx8F2ot/F+jSyv5lxJf2++Q/8AXRcAeg9q+p6+UvCCyah400K4lDJbpqFu0UZ4LHzFwzf0FfVtfA4K9pXep6+X35ZXeoUUUV2nohVXU/8AkFXf/XF/5GrVVdT/AOQVd/8AXF/5GgCyOgrkPilLHB8N9WllYKiiIkn/AK6pXXjoK5H4nosnw71RXUMMwnB9RMhFZ1rezlfszKvb2Ur9n+R81RRSX0q3NypWJTmGE9v9pvf27V9iV8eTzyXUzWtq23bxNMP4PYf7X8q+w65MDf3r+Wn3nDl1/ev5adtznfH3/JO/Ev8A2C7n/wBFNVHxnNFph0vW11qw0y8tRJDEL9S0U6SBS6YBDZyiEEZxt6YNXvH3/JO/Ev8A2C7n/wBFNWf4zN3p93o+vWt3olqLJZopJNXuGiQrIE4UgH5js6+2Ocmu89MPBF5batfarqh1qz1LUJlhjnWziaOKCNd/lqAxJOS0hJPr0GK7KsXQrvWLiW7i1j+yBJFs2pp9w8hXIJ+cMoxxgj15raoAoa5Olr4f1K4luJLaOK1ldp4xlogEJLAdyOv4V5p4XsbnRtd8PSzaRBpj3VhMivazeY2oSCMP+/HG1sKW6vzkbvX1eWKOeF4ZUWSN1KujDIYHggj0rG0vwhoejXaXVlZus0SGOIy3EkohQ9VjDsQg4HC4oA4PRrO3s9E8D+IrUn+2dTu4VvrncS90JY3aVX/vAEZAP3dgximC1h/4RVPFuD/wkh10J9o3HzD/AKb5Pkf7nl/Ls6d69AsvCOhafqn9pWtgEuQzsn712SJn++UQnahOTkqBnJo/4RHQhrP9q/YR9r87z/8AWv5fm4x5nl52b/8Aaxn3oA0NRk1CK0LaZbW1zc5GI7mdoUx3O4I5/SuX8JTas2qeKWubKzjuDqieYkd0zqp+yW+MMYwTxg9BySO2T2dc54a/5D3i7/sKp/6R21AGx5mof8+1t/3/AG/+Io8zUP8An2tv+/7f/EVbooAqeZqH/Ptbf9/2/wDiKPM1D/n2tv8Av+3/AMRVuigDj/FLTt4O8WrPHGkLWVwJnRyzIv2fkqCBuOOcEjnjjrXy41voPnRf8TLUc84/0FPT/rrX1R4v/wCRG8af9eFz/wCk1fIT/wCuh/H+VfVcNQcoVbSa1p9v5vNMwrbr5naC10rUWjnkvL4W45SF7NRuPZj+85HoK+gvh40y+BdOWzjjmtx5u15XKMf3r5yoDAc57mvnC4uJJZjaWhxJ/wAtJeoiH9T7V9IfCuBLb4baTFHnavnck5JPnOST+NfB4N3ntbQ8/AO9Ta2mi8ro6bzNQ/59rb/v+3/xFHmah/z7W3/f9v8A4irdFekeuVPM1D/n2tv+/wC3/wARR5mof8+1t/3/AG/+Iq3RQBlWsl99ovNtvbk+cN2ZiMHYvT5ee1WvM1D/AJ9rb/v+3/xFFn/x833/AF3H/otKt0AfMHilrC88Wa3bLe3cM4vZvPeK2V1Rt5yqsXGT74/AV6t8IoVsvCNxDpaLLbi9fLTnym3bEzwN2e3Oe9eQ+MZ4rHxVrW1Mu+o3GyNBy7GRj/k1678EEnXwXeG4cNI+ouxA6L+7j4Febhneq7Ky1+Z5GEd67srLX5nf+ZqH/Ptbf9/2/wDiKPM1D/n2tv8Av+3/AMRVuivSPXKnmah/z7W3/f8Ab/4ijzNQ/wCfa2/7/t/8RVuigDKSS+/tOci3t93kx5HnHGMvjnb9a+Qnt9B8+P8A4mWo5w2P9BT2/wCmtfY8f/IXuP8ArhH/AOhPXxG//HzF9G/pX1fDUHKnVtJr3qfb+bzTMK26+Z2iPotpaWyLdXrNIoCIlom5vU48z8TXtHwgimtvCl4LST7Wr37uzz/uSG8uMbQo3cYA7+teD2FvHb24uZX3SMgJdv4VxwB6AV7z8ELj7V4LvJQjLGdRcIW/iHlx8/zr4m6+uVEl1d38zzsE17Z8q9Wd/wCZqH/Ptbf9/wBv/iKPM1D/AJ9rb/v+3/xFW6K6z2Cp5mof8+1t/wB/2/8AiKPM1D/n2tv+/wC3/wARVuigDKSS+/tOci3t93kx5HnHGMvjnb9a+Pjb6B9nn/4mWo4y2f8AQE/+O19lx/8AIXuP+uEf/oT18PH/AI9rj/eavo+H4uSrWdvd8u0vIxq9DtdOtdCtrM3IvrwBgS0j2qjgf9tOBXtvwgnaTwjcyafGZYGvXIa5/ctnYn8I3cdDnI69PX590+1e6giM5H2ePlIx/Gc9W+nYV9D/AAYdX8I3oVgSuoOrY7Hy4zj9a+Yxllmldbvmlr82edhZJ4lq2uvc7rzNQ/59rb/v+3/xFHmah/z7W3/f9v8A4irdFaHrlTzNQ/59rb/v+3/xFHmah/z7W3/f9v8A4irdFAGU8l9/acBNvb7vJkwPOOMZTPO36Va8zUP+fa2/7/t/8RRJ/wAhe3/64Sf+hJVugD52+I1jaXXxE1CfUbmdHTyiLeKEOit5SfNuLAscY7DHv1rq/g7cQmbXY9LZrkx+QJjOvlBT+8wARuyeuemOPXjiPirLLcfEnVrS2JTHk+bNj7gMKcD3P6V2/wAC4I7aHW4ol2ov2fj/AL+V5tN/7TZrW7/U8ik19btJa3dvx/P/AIJ6n5mof8+1t/3/AG/+IrD0xpm+IutmdERv7LscBHLDHm3XcgV09c5Zf8lI1r/sFWP/AKNuq9I9c4KfUrK202XwhL400T+wowbVmSF3uhADgxbgxTcB8m7HvjNewV5roF54j0bTG0a2u/BsqaUFikA1CUNApJCCTCcN2ycZNelUAFFcz4x1bWdDs4L/AE/7AbVbiCKdbhHZ28yZI/lwwAwHzk56dKTVNX1q48Ry6LoK2CSWtml1cTXqO6kuzKkahWGCdjEtzjjg0AdPRXE23jDUtfj0S30SC0try/spL24a8VpEt1RlQqFUqWJdsA5HCk+1JF4x1PULPS7KztrSHW7u8ubOfztzwQG3LCV8AgsCVG0ZH3xk8UAdvXO+Pv8AknfiX/sF3P8A6KapvDOsXWqRX9vqEUMd/p121rP5GfLc7VdXUHJAKupwScHIyax/iN4i0Sz8HeIdMudYsIdQk0ydUtZLhFlYtGwUBScnPb1oA7JP9Wv0FOqmmp2Hlr/ptv0H/LUU7+07D/n9t/8Av6KALVFVf7TsP+f23/7+ij+07D/n9t/+/ooATUf+PZP+u8X/AKMWvnj9oL/koWmf9gxf/Rkte/X+o2T26hbuBj50RwJAeA6k14T8cdPvdY8dadc6ZaT3sCaeqNJbxmRQ3mSHBI4zgj869jI5RjjIuTtt/wClRM6vwlf9nz/koGqf9g5//RkNfSVfO3wN0+90fxvqNxqdpPZQPYuiyXEZjVm3xHAJ78H8jXv/APadh/z+2/8A39FGeSjLFtxd9/8A0phS+EtUVV/tOw/5/bf/AL+ij+07D/n9t/8Av6K8c0LVFVf7TsP+f23/AO/oo/tOw/5/bf8A7+igA1P/AJBV3/1xf+RqyOgrM1HUbKTTbpEu4GZomAAkBJOKsjU7DA/023/7+igDgPjek8vguzjgkEZbUUDv3VfLkzj3ryLwobfT/FXh+FRtDajboijkkmRef6k1678X7kXnhC3TT1a+nW9RvJth5jY2OM4HQZI56c15V4R0LUrbxbpN/f2c4kW8hZ3aJgkSBwSASOAO5rzcTFuqm9tDyMXGTrpvbT5s+n6Kq/2nYf8AP7b/APf0Uf2nYf8AP7b/APf0V6R65aoqr/adh/z+2/8A39FH9p2H/P7b/wDf0UAGp/8AIKu/+uL/AMjXiX7RX+v8K/7t3/7Rr2PUdRspNNukS7gZmiYACQEk4ryH48W1xrM3hs6XBJeiEXXm/ZlMmzPlYztzjOD+Rr0coko4+k27LmRFT4WeI6bI8N4zxxmRw5CoO5K4ruPBdqYvGOjTzsJLl7+Dc3ZR5i/KvoK57SfDutxajvk0i/Vd5OWt3A+79K6fwzpWqzeMdHurqwu7axt7+CT95EybtsgO5sjhRjP6mo4qftMbTcHpy6tf456Hk14SdVWWml3+h9RUVV/tOw/5/bf/AL+ij+07D/n9t/8Av6K4T2S1RVX+07D/AJ/bf/v6KP7TsP8An9t/+/ooAsnoa8c+Of8AySbSv+vuH/0TJXrJ1Owwf9Nt/wDv6K8p+MkUmq/DLTbPT0a7uUuYmaGAb3UCGQEkDnqQPxrswDSxEW/P8mTPY8x+EP8AyVrQP+3j/wBESV9X18u/C3SNS074naJeXun3VtbRef5k00LIi5hcDJIwMkgfjX0x/adh/wA/tv8A9/RXo8STjPMJOLurL8iKPwFqiqv9p2H/AD+2/wD39FH9p2H/AD+2/wD39FeEalqiqv8Aadh/z+2//f0Uf2nYf8/tv/39FAFk9DVbTP8AkFWn/XFP5CkOp2GD/ptv/wB/RVbTtRso9NtUe7gVliUEGQAg4oAZ4q58H62D/wA+E/8A6LavlOeeS6ma1tW27eJph/B7D/a/lX1H4ou7W78I61bQXkbTTWE8aCOQFixjYDA9c183nRdQsLMLBpF6wXhUSBiSffj9TXn4yLck0rs8rMItzi0rs+sKa/8Aq2+hqv8A2nYf8/tv/wB/RTX1Ow8tv9Nt+h/5aivQPVMnwD/yTvw1/wBgu2/9FLXRVzvgH/knfhr/ALBdt/6KWuioAK4f4iaNd6xFHHp8drd3rWF7bx2U0yxuRKiJ5yZ6lDtB6cSHnJAPcV5544s7HTNah8QX3iXXrVhbzJHaaeiuVQCNpGX5DtQCMMxbjJHI6EA2vC8N6+tapf6nDBZXk8FtGLBLhZZIok8za7kcZZmcDGRhOpwcdTXF+BJtPubvVpLd9elvl8mO5l1mPZJtAYoqjAGBuY9P4s85rtKACiiigAooooA5zw1/yHvF3/YVT/0jtq6Ouc8Nf8h7xd/2FU/9I7aujoAKKKKACvO/if8A8ki1z/ruv/pUteiV538T/wDkkWuf9d1/9Klruyv/AH6j/jj+aJn8LPlc/wDHtcf7zV1dxcSSzG0tDiT/AJaS9REP6n2rlD/x7XH+81daTb6XaAAE84AHLSMf5k10cZW5sPpd8r/M8fGWvHS71t+B9TeEUEXgvQowSQunW65Y5JxGvWtmsbwiXbwXoTSLtc6dbllznB8teK2a8ePwo9iHwq4UUUVRQVUs/wDj5vv+u4/9FpVuqln/AMfN9/13H/otKALdfIDvBplqkcaEk/LHGv3nP+epr6/r4/trZkdrq6ZWuGHJ/hjX0H+Nefj7e7fzPLzO1o822unfY+jvhV53/CttJ+0FfNPnFtvQfvn4/DpXZVx3wrnS4+G+kyxklG87Bx1xM4zXY12Uv4cb9kd9G/so37IKKKK0NQqpZ/8AHzff9dx/6LSrdVLP/j5vv+u4/wDRaUAW6+WPEtvHb+NPEFzK+6Rr+4Jdv4V8xsAegFfU9fKXiyKS/wDG2uCZSlrHqNwBGespEjcn/Z9B3rix3wrWyPOzH4Fd2XU98+FU63Pw20mVAwVvOxuGMjzn5rsa5L4Zf8k80vH/AE1/9GvXW100f4cbdkdlC3so27L8gooorQ1MHxnb3Vz4TvorK6+zXP7to5du4AiRTgjuDjB9ia4jwrqUt/eWq3lsbW9iuVjmhJyNwKklT/EpDKQfevQvEH/IDuf+A/8AoQrgF0qK/wBd0i58ySG4tLuN45Izg7Sw3ofVWAwfwPavRwyfsm13f5Hx2eTg8wjTnp7sXfqvf/J6em66p+pV8p+KoJLzxxrbXK7bePUbjy4v75EjfM3t6CvqyvlTxlcSTeNdbtLQ/vPt8/mS9REPMb8z7V4ONvyq3/DH0GYX5Y2+/sezfBh1fwjehWBK6g6tjsfLjOP1r0WvNvglbx2vgq6ijHH29ySeSx8uPJJ7mvSa3w9vZRsdOFt7GNgooorY6AqpH/yF7j/rhH/6E9W6qR/8he4/64R/+hPQBbr5q+Ksstx8SdWtLYlMeT5s2PuAwpwPc/pX0rXzh8V7pLXx/qhKlpHMQSNernyUrkxnwKyu7/5nBmH8NWV3f9Gej/BSCO28FXMUS7UW/f8A9Fx16RXmvwQSdfBd4bhw0j6i7EDov7uPgV6VWtD+GtbnRhv4Mbu5zll/yUjWv+wVY/8Ao26ro65yy/5KRrX/AGCrH/0bdVs6lZNqFhLapeXNmz4xPasFkTBB4JBHOMdOhNbG55PDoGswaVe2iWumjR7vSIbN9cF8gh8pXldrkjqWKS7vTcCd2Oa9irxKOfw9Y6VHosut+MtT06C3jgkWC3AtpYiTGADsB8tijKDuwcEAmvbaAOU8YtqM8tjYRaNfahpUpaS+Fm0W5wuNsREjr8rHlsZyF2/xHHE+BbiO4uPB39p2j21rHp98lr9q2bXn8yI7lwxH3C4GcHh+Mcn2GqE2h6Rc6cmnT6VYy2KHK2z26NEp9lIwOpoA8z0n7P5/h3zfL/sH/hIdR+ybseT0l8nHbG7ft/DHaut8FeV/aPir7Fs/s7+1j5Gz7u7yYvN2+3mbunfNdJNplhc6f/Z89jbS2W0L9mkiVo8DoNpGMCpLW0trG1jtrO3it7eMYSKFAiKPQAcCgDjfG1vr32eCQ6lpx046tYbYBYv5o/0qLGZPNwcHBPy8jjjrXW+XqH/Pzbf9+G/+LrH8b/8AIBtv+wrp3/pZDXR0AVPL1D/n5tv+/Df/ABdHl6h/z823/fhv/i6t0UAVPL1D/n5tv+/Df/F1Vv474W677i3I86PpCRzvXH8VatVNR/49k/67xf8AoxaAPmf4sS6ZH8QtcW/tLue4HleZJBcrEjfuI8YUoxHGB1Pr7VB4S8XyeHWuotBh1C1+1BPPkNxC+Au7H3oTz8x47/hUPxm/5Kb4g/7Y/wDpPHXO6Zcx2sM7vkk7QqryWPPAr6/MYcmRynG9+Sn1fWfa9jz8ROcU3De57l4Q8f6vrHimw0ua+mP2jeB54hIYrGzchI1P8PYj+leq+XqH/Pzbf9+G/wDi6+d/hTbSN8SNLu7rBnImCoOREPKfge/qa+k6+Hwk3KDbd9TTBTlOm3J3dyp5eof8/Nt/34b/AOLo8vUP+fm2/wC/Df8AxdW6K6TsKnl6h/z823/fhv8A4uqt/HfC3XfcW5HnR9ISOd64/irVqpqP/Hsn/XeL/wBGLQAeXqH/AD823/fhv/i68q+NF3FYx6KdSVrp3M4gjtj5RJ/d5HO7Pb0xzXsFeRfG9I9+gysF3ILnDHsD5Wf5VhimlSbf9anLjGlQk35fmcp8NobNvH+nXEEE8V84kCvNOJUjHlNkABFz37j8a998vUP+fm2/78N/8XXzt8K55b34l6TLGSlonnYOOZT5LjP+7/OvpSowjbg+buRgHJ03zb3+7RaFTy9Q/wCfm2/78N/8XR5eof8APzbf9+G/+Lq3RXUdpU8vUP8An5tv+/Df/F1Vv474W677i3I86PpCRzvXH8VatVNR/wCPZP8ArvF/6MWgDwH46PZReLLYapbz3M39nIQ1tMIVC+ZJxhlfnOec/hXC6Zc6Gt8WFjfJthYlnvUIAyuf+WQrsf2h/wDkc7X/ALBcf/o2WvN9Pto7rUVSXJQRsxXPDYK8H2/wr63GU4rIqkm38EOr/nfTY8/Etcsr+Z3XheXT9S8U6NJFaXsKrqEDQM9ypV2DrhmXYCVBwcZGa+lfL1D/AJ+bb/vw3/xdfMXhq6I8c6FbQKHk/tC3MnpGvmL19z2FfVFfDYNtxelgy+TcHdWXQqeXqH/Pzbf9+G/+Lo8vUP8An5tv+/Df/F1borsPQKnl6h/z823/AH4b/wCLrgtW1GKfxRqWntOrXlt5ZlQIUyGRSGAJORzjPqDXpFea+MNIgvvE63m5obu1dGSaPhiuF3IfVSOMfjXVhU3KVuzPDz6UI0qXP1nHonZ2fR/pqt/J+cfE+Swjn0j7dbXExKz7DDOseP8AV5zlGz29O9cRpQ0C5uXX+zr/AAjFsPeoQSCOo8of5FbPxC1dtSl0qC5gNtqFqJ1uYDyAT5eGU91bBwf8K5HSRcNPKluQrMWBc/wDIyQO5/xr6TEQTyic4t7S6vy6HNlntIZdFSsnr2t8T7abdtz0Hw7f6fJ400e1s7O5M4vYd0jXKlIjvGMjZz9Mj6ivpHy9Q/5+bb/vw3/xdfMfhJbfT/FOgxg7Q2pW6jPJdjIvJ9TX1PXwmCacXZHqZc04Oy0/MqeXqH/Pzbf9+G/+Lo8vUP8An5tv+/Df/F1bortPRKnl6h/z823/AH4b/wCLqtqMd8NNui9xblfKbIEJBIx67q1Kq6n/AMgq7/64v/I0ANEeoYH+k23/AH4b/wCLrlviRFcHwDqYup1aAiIMLdfLf/Wp0YlgPyP4da7QdBXHfFWYwfDbVpAjSEeSAq9STMgFRVvyO3YzrX9nK3ZngD3GiaZbJHHYXhJO2ONbpdzn/vj8zX1N5eof8/Nt/wB+G/8Ai6+Sra2ZHa6umVrhhyf4Y19B/jX2BXHgpX5vkcGXSu59Xpr95ynjuO+Hw+8Rl7i3K/2Zc5AhIJHlt33VQ+IOjXesW0Eenx2t3etp17bx2U0yxuRKiJ5yZ6lDtB6cSHnJAOx4+/5J34l/7Bdz/wCimrnPGtnY6Zq1v4gvvEuvWrC2mSO009FcqgWNpGX5DtQCMMxbjJHI6HvPTNzwvDevrWqX+pwwWV5PBbRiwS4WWSKJPM2u5HGWZnAxkYTqcHHU1xfgSbT7m71aS3fXpb5fJjuZdZj2SbQGKKowBgbmPT+LPOa7SgAooooAKKKKACuc8Nf8h7xd/wBhVP8A0jtq6Ouc8Nf8h7xd/wBhVP8A0jtqAOjooooAKKKo6rqP9mWqzeV5u5wmN23sT6e1VGLk+WO5lXr06FN1ajtFbmF4v/5Ebxp/14XP/pNXyE/+uh/H+VfUPizxFv8ABfieP7Lj7TYXHPmfdzCV9Oema+Xn/wBdD+P8q+v4bpSpwq8y+1T/APSzip42hi9aMr28mt1db+R1JNvpdoAATzgActIx/mTX0b8KjM3w20kzqqyHziVU5A/fPgflXzhbWzmX7Xd4M5HyqDxEPQe/qa+kfhZNHP8ADjSpImDITMAR3xM4r87wX8R9dNzDLv4r6u2rOwooor0z2QooooAqWf8Ax833/Xcf+i0q3VSz/wCPm+/67j/0WlW6APljxLaiPxtr91M++Q39xhjwETzGwB/WvXfgjcrdeDL2RFYR/wBouFY/xDy4+R7f4V454tSTUfGuuo4ZLOPUbgEHgykSN/47/OvaPgztHg+7VcYF+4wO37uOvMw/8d331+R42F/3l82+vyPRaKKK9M9kKKKKAKkf/IXuP+uEf/oT18Rv/wAfMX0b+lfbkf8AyF7j/rhH/wChPXxG/wDx8xfRv6V9fwv/AA63+Kl/6Uc9fdfM3raKS/iiEylLWNQBGespHc/7PoO9fQnwZZT4QvApB26g4IHb93HXz8LmRoILS0wZzEpZzyIhjqff0Fe+/BG2S18FXcaZOdQdmZjksfLjyTXwkv8AfZ37ysvmebg/4+um9l+p6TRRRXYe0FFFFAFSP/kL3H/XCP8A9Cevh4/8e1x/vNX3DH/yF7j/AK4R/wDoT18PH/j2uP8AeavpuHdq/wDhf5SMa3Q37O4lls4rS1OJMHzJMcRgk/mfQV9CfBK3jtfBV1FGOPt7kk8lj5ceST3NeA2dxFaaTFIw5YkBVHzO2TgD1Ne+/BAXH/CF3jXJXzH1F22L0QeXHxnvXyuMv/ale2i55/P3mebhL/WHbRa/NnpVFFFaHsBRRRQBUk/5C9v/ANcJP/Qkq3VST/kL2/8A1wk/9CSrdAHzh8V7pLXx/qhKlpHMQSNernyUrrPgPDKn/CQS3D7ppPs+4D7qgebgD8+tcp8TLaNPiZrF05JciEAseEXyU4Hp611fwIujdHxA6IRAPs4jc/x/63J+nSvMpf7y7d3f8TxqH+9vl7u7+/Q9jrnLL/kpGtf9gqx/9G3VdHXIy2Tah441+1S8ubNn0rT8T2rBZExNdHgkEc4x06E16Z7JxcOgazBpV7aJa6aNHu9Ihs31wXyCHyleV2uSOpYpLu9NwJ3Y5r2KvEo5/D1jpUeiy634y1PToLeOCRYLcC2liJMYAOwHy2KMoO7BwQCa9toA5fxvpeu61pUen6RDpzI00M0kl3cvGVMUySAALG2c7MEkjGe9QT6V4mi1f+3LBNJW/urJbW8tpp5DEpRmaN0cJlsb2BBVc8ciuvooA4m28IaloEeiXGiTWlzeWFlJZXC3jNGlwrsrlgyhipDrkDB4Yj3pIvB2p6fZ6Xe2dzaTa3aXlzeT+duSCc3BYypkAlQCw2nB+4Mjmu3ooAw/DOj3WlxX9xqEkL3+o3bXU/kZ8tDtVFRScEgKijJAyc8CoPHyg/DzxKSBn+y7nnH/AEyaujrnfH3/ACTvxL/2C7n/ANFNQB0CAeWvA6ClwPQUif6tfoKdQAmB6CjA9BS0UAU9RA+zJx/y3i/9GLXzz+0CSPiFpmOP+JYv/oyWvofUf+PZP+u8X/oxa+eP2gv+ShaZ/wBgxf8A0ZLXs5D/AL7H1X/pUTOr8Jw/hHxNf+FtWu77T7kwzvGYeI1cuCVO0BgRnIH5V658O/G/ivWfF9jZ6xqYmguDIWgW3iUKBGxA3KoPUDvXi2hKp1G4LAHaMgntwK9D+FlzJd/EzSmhwLWMzAuR/rD5LjA9h61wcRzl/abjF6df/AmeY6k/bqMXZaX/AMvn/Wh9J4HoKMD0FLRXKeuJgegowPQUtFAFTUwP7Ku+P+WL/wAjVoAYHAqtqf8AyCrv/ri/8jVkdBQB538Zdq+D7RjgYv0OfT93JXi/hKSXUfGuhujMlmmo25B6GUiRf/Hf517H8brZbrwZZRuzCP8AtFCyj+IeXJwfb/CvIvDV0I/G2gWsKb5Df2+VHARPMXJP9K8zEfx1bfT5HjYr/eVy76fI+psD0FGB6Clor0z2RMD0FGB6ClooAqamB/ZV3x/yxf8Aka8T/aK4n8LY44u+n/bGvbdT/wCQVd/9cX/ka8S/aK/1/hX/AHbv/wBo16WT/wDIwo/4kRU+BnjGlxrPfmOUbkMhJBPXC5rt/DV23/CcaFawLvk/tC3MnPCL5i9fc9hXDaaJmvGEDKshcgMwyB8vJ/Ku58IRwaf4p0Nd2N+pW4LMfmdjIvX1NRxdb69S/wAO3/b8zxsRb20b67WR9TYHoKMD0FLRXAe4JgegowPQUtFACEDB4FeOfHLj4T6URwftcP8A6Jkr2M9DXjnxz/5JNpX/AF9w/wDomSuzL/8AeI/P8mTPY8k+H+tW+gfEDR9Tu1mkgg87csQBY7omUYBIHUjvXutz8bfDFrFvkstVOThVWGMsx9AN9fNFtMLfUbaVlZsbsKoySSuAB+NdBbWzmX7Xd4M5HyqDxEPQe/qa24vrzpZnK21o/keXVxM6Nrbfm7n2BgegowPQUtFeaesJgegowPQUtFACEDB4FVdMA/sq04/5Yp/IVaPQ1W0z/kFWn/XFP5CgCh4uJTwXrrqm9l0+4IUdSfLbivlm2t3Rmurpw1ww5OfljX0H+NfVHisgeD9bJIAFhPkn/rm1fKPzaq3dbFT9DMf/AIn+dedjb3XRHk5jfmXRW1f6H2JgegpHA8tuB0NOpr/6tvoa9E9Y5/wD/wAk78Nf9gu2/wDRS10Vc74B/wCSd+Gv+wXbf+ilroqACsfWfDtprkyvcvIB9kuLNlTHzRzBQ4+vyLitisDUvD2oX1/LcweKtWsY3xi3t0tyiYAHG+Jm5xnknrQBQ8LWb6d4k1i0vNSn1HUktLQyTtAsSCHMwjUBSctkSFieuRiupuUlktZkt5hDMyMI5Sm4I2OGx3wecVj6F4abRtQvr+fV77Urq8jiieS7EY2rGXKgBEUf8tG61r3kc8tlPHazi3uHjZYpmj3iNyOGK5G7BwcZGaAOTs9Q1PS/FsumT6xJrFrFp73V20kEaNauGXYMxqo+cbyFIJ+TOcVn6VrevxW/hfW7/UluLXX5USSxECKtsJY2kj8tgNxxgKdxOck8VseFvDOq6BE9td6rY31vLue4ZdPeOaeVurvIZmyT6bfQDAGKi0zwTPZTaVDc6w11pWjuXsLQ24V1O0onmSbjv2KxAwF7E5xQBkReINdOlW3ixtSB0+fU1tjpnkJsW3a48hWD43+ZyGPOOoxXd6jqMGl2hubhLl4wQuLa2knfn/ZjUt+OK5qPwPMksVodXJ0GG++3x2H2cbw/mGUIZd3MYkO4DbngDOK7CgDjPCWsW11qnim4jivAkmqIVElnKjDFpbjlWUEdO46YPQ11H9owf3Ln/wABpP8A4msfw1/yHvF3/YVT/wBI7aujoAqf2jB/cuf/AAGk/wDiaP7Rg/uXP/gNJ/8AE1booAxtR8QR2Xl7LeSTfnO9WjxjHqvPWuC8f6q+o/DzVNNjgjR5nVxJJOqKP36vyWwPbrW18SdNurv+zLzTrjyNQtPNMO4ny5Adm5HHodo56ggEV574w1GO98C6nGcR3cK2/wBot92WhZmRsH169enBr2spoqWIovrzK2/RrzPl8dmNanjHShJuPNBNaacy/wALdn3vvpp18nPh69+zzjztO5Lf8xG3/wDi66O20C8Mv2u7kszORhVF5EViHoPm6+prhj/x7XH+81dOzNqjlEJWyU4dxwZT6D/Z9T3rLi5SToc705Xtp1+Z6OLtZX211+78z6m8M30MfhTR0IlbbYwjdHC7qfkHIYAgj3HBrU/tGD+5c/8AgNJ/8TVLwmqp4O0NVACjT4AAOw8ta2K8iHwqx6sLcqsVP7Rg/uXP/gNJ/wDE0f2jB/cuf/AaT/4mrdFUUVP7Rg/uXP8A4DSf/E1Vtb+Fbi8JS4+aYEYgc/wKOeOK1aqWf/Hzff8AXcf+i0oAP7Rg/uXP/gNJ/wDE18qyaLeahIFaWzFkOflvYT535N93+dfWtfH9zcsjra2qq1ww4H8Ma+p/wrhxj1jprr8tjzcwdnDTXX5bH0d8PJ47HwLpttIrlk8z/UxmRP8AWOeGUEH8DXT/ANowf3Ln/wABpP8A4muY+FUJg+G2kxl2kI84lm6kmZya7Kuqlb2cbdkdtC3so27Iqf2jB/cuf/AaT/4mj+0YP7lz/wCA0n/xNW6K0NSp/aMH9y5/8BpP/iaq2t/CtxeEpcfNMCMQOf4FHPHFWtQ1CLTYFmmV2Vm2gIATnBPc+1Ycfii2gu9q2d7N9su4418pFPl7gqbmyw+UHk4zgc4rRUpuPMlock8dhqdX2M5pS009dEbn9owf3Ln/AMBpP/ia+bfFtpeXPinVxZSWe+S9mYmS6iUxKXJyyFgwPsR9a+na+WPFrW+n+KdekI2htSuGOOS7GRuB6mvOxtrRurmOYcvLG6u76HuPw1MelfD/AEuyfzpHj83c6I0oYmVzncoIPXsa6v8AtGD+5c/+A0n/AMTXMfCppX+G2ktMgjkPnEqDnH758fjiuyrqp/AvQ7aP8ON+yKn9owf3Ln/wGk/+Jo/tGD+5c/8AgNJ/8TVuirNDmPF93c3Hhe8j0tmjvfkaIz27hCQ6kqxI4BAIz2zXA3V/c3Hhm/miJstQjtpAVFwoa3lCZHzg4UjIOcjAIPFepeIP+QHc/wDAf/QhXkHjXTGutAvLuC5e3uLa1mJK8rJGU+dGHfIUYPYgGvTwSlyprv8AofIZ1Oi8fGnUX2Yu/wD2/ts9L/d06388Oq+OPtA/4q2527Tx/wAJAvqP+mtTjT7lIfOmntJLicmR2e/iLTSNySWL8knPOa4Y/wDH0v8AuH+Yro7C1IWO5nYPJsAj9I1x29z3Nd/GNGNOhFyt8b2Vvsr10PWxbjyrmue8fB5p9P8ACV2l/wDNNJfvIFth5yopjjAXcmRnj9fTFeg/2jB/cuf/AAGk/wDia4H4JXMd14NvXiyUGoyKGxw2I4+R7f4V6TXzFD+GtLHp4f8AhR0sVP7Rg/uXP/gNJ/8AE0f2jB/cuf8AwGk/+Jq3RWpsVP7Rg/uXP/gNJ/8AE1VS/hGpzvsuMGGMf6h88F+2PetWqkf/ACF7j/rhH/6E9AB/aMH9y5/8BpP/AImvA/iDpRuviHqupLJD+8EQXz50jZFESAjaxBHIJ5HP0r6Hr5r+KkEt78S9WikBS0TycjPMp8lDj/d/nXJjLez12ucWPt7LXa56X8I7hbTwrdpKC4N87I9v+/Vl8uPndHkDnPBOfzrvv7Rg/uXP/gNJ/wDE1wvwZ2jwfdquMC/cYHb93HXota4e3so2NcLb2MbHMaZMs/xF1tkDgDS7EfOhU/6267EV09c5Zf8AJSNa/wCwVY/+jbqtnUrSW+sJbaC+nsZHxi4twhdMEHjerLzjHIPWtjoOE8S+ELfRvCs88eq3cGn2ek/Y72KOFJJLi1j3MFUkgK4DON3v+Nei1xt/4FvNU0+4sL3xlrstrcRtFLGVthuUjBGRDmuyoAKKKKACiiigDnPG/wDyAbb/ALCunf8ApZDXR1znjf8A5ANt/wBhXTv/AEshro6ACiiigAqpqP8Ax7J/13i/9GLVuqmo/wDHsn/XeL/0YtAHy18Zv+Sm+IP+2P8A6Tx1gaJFG0kkrKC6ABWPbOc/yrf+M3/JTfEH/bH/ANJ465rTbd7oSRGTbAcGUDq3XAz6dc19jmn/ACIJ62/d0v8A0s8zF/BLW39I9B+FlzJd/EzSmhwLWMzAuR/rD5LjA9h619KV84/DOeGH4k6NaqPmYTYVR91RC/J9B2r6Or4LBfw9rammXfwnZWV/8gooorsO8Kqaj/x7J/13i/8ARi1bqpqP/Hsn/XeL/wBGLQBbrxz472puj4fR3IgH2gyIP4/9VgfTrXsdeOfHiaVP+Efit03TSfaNpP3VA8rJP59KwxN/ZOxzYy/sZcu//BOU+GdzGnxM0e1QEuRMSFHCL5L8n09K+jq+cPhRapa+P9LAYtI5lLyN1c+S9fR9ZYG3s3buYZdy+yfL3/yCiiiuw9AKqaj/AMeyf9d4v/Ri1bqpqP8Ax7J/13i/9GLQB88ftD/8jna/9guP/wBGy15tYm4+3BbYL5jxMu9uiDK84716T+0P/wAjna/9guP/ANGy15xp9xHa3plkPHksAByWO5cADua+xxl/7AqWX2Kf/pbPPxN7Oyvudl4Qjg0/xToa7sb9StwWY/M7GRevqa+p6+VPBtvJN410S7ux+8+3weXF1EQ8xfzPvX1XXwGC2lrdiy74Za3d9QoooruPRCvPtbvba48S6lbRTK01s0azIOqExqwz9Qf84r0GvMvGGjJc+LhqVvKba9haNWkQf62LC7o2HcYzj0PNdWEupSt2Z4HEKg6NJTdvfjb1s9/I8w+LaKLrRXCjcUnBbHJAMeP5n868/wBIuUtZp5Hyc7lVVGSxyMAV1/xE1iLVjpH7toLuD7QlzbSffhf91wfUHqD0IrldAVTeSlgDt3EE9uRX0+KcXk1R9LS/9tOXK4OnlkY1Ftf/ANKZ1vgy2kbxpot3d4M5voAqDkRDzF4Hv6mvqqvlLwnLJf8AjbQzCxS1j1G3JkHWUiReB/s+p719W18Dgr8rv/wx7GX35Zc2/bsFFFFdp6IVV1P/AJBV3/1xf+Rq1VXU/wDkFXf/AFxf+RoAsjoK5L4nED4d6qSQAPKyT/11SutHQVx/xUgS4+G+rRSAlG8nIz1xMhxWda3s5X7Myr29lK/Z/kfNfzaq3dbFT9DMf/if519i18f3NyyOtraqrXDDgfwxr6n/AAr7ArkwN7PtocOW3tLotLfic74+/wCSd+Jf+wXc/wDopqs6t4dtNcaN7l5APsdxZsqY+aOYKHH1+RcVW8ff8k78S/8AYLuf/RTUt94e1C+vHuYPFWrWMbhcW9uluUTCgcb4mbnGeSetd56ZS8LWb6d4k1i0vNSn1HUktLQyTtAsSCHMwjUBSctkSFieuRiuurC0Lw02jahfX8+r32pXV5HFE8l2IxtWMuVACIo/5aN1rdoAKKKoW+t6Td6hLp9tqllNexZ8y3juEaRMdcqDkUAX6KpQaxplzqEun2+pWct7DzLbRzq0if7yg5H40f2xpn9qf2X/AGlZ/wBoY3fZPPXzcYznZnPT2oAu1znhr/kPeLv+wqn/AKR21dHXOeGv+Q94u/7Cqf8ApHbUAdHRRRQAVyXxD0+fUNAgFpdta3cN0s0Eo5XcEcYYd1IJBHvXW1h+Kv8AkFxf9dh/6C1bYdXqxTPMzmbhgKso7pHlGq6i914M1iG8jS21FdNnea2D5Kja67h6qSpIPpivCn/10P4/yr3Xxxo8F94c1C83PDd2tpMyTR8ErsO5D6qw4x+NeFP/AK6H8f5V9pkl+Won/NT/APSzxsi9m4TlDS9tO3uLby/H830bM2qOUQlbJTh3HBlPoP8AZ9T3r6X+GCqnw60lVAVQJQAOg/evXzbcXH2fZbW0atOwwiDgKPU+gFfR3wqjeH4baSkkhkcecWc9yZnNfmWC+Psrf5anqZd/E7K2i+a1Oyooor0z2AooooAqWf8Ax833/Xcf+i0q3VSz/wCPm+/67j/0WlW6APlbxpdOvjPWba2Ae5a+nPPRB5jfMf8ADvXr/wAEbZbXwXdoGZ2bUHZ3bqzeXHzXkXisW+n+KvEEzHaG1G4d2PJJMjcf0Ar134IPPL4LvJJ4xGW1Fyid1Xy48Z968zDfxnbbX5njYP8Ajvl21+Z6VRRRXpnshRRRQBUj/wCQvcf9cI//AEJ6+I3/AOPmL6N/SvtyP/kL3H/XCP8A9CeviN/+PmL6N/Svr+F/4db/ABUv/Sjnr7r5nSQNb6fpqSEbQwDHHJdj2Hqa95+CBuG8F3j3ACs2ouQg/gHlx4BPc/414JYWrOIrm5YMyoBEo6IuOv1PrXvvwUuI7jwffGI7lXUXXd2JEcfT1r4R/wC/VOusrv5nm4L/AHh21et2ekUUUV2HtBRRRQBUj/5C9x/1wj/9Cevh4/8AHtcf7zV9wx/8he4/64R/+hPXw8f+Pa4/3mr6bh3av/hf5SMa3Q6TSbVfJS6kYu2CEB6RjPOPr617/wDBK5juvBt68WSg1GRQ2OGxHHyPb/CvnqyjmvbSO3IaO1TO89DLznA9vX8q+ifgwqp4OulUAKt84AHb93HXyuN/5G1e+/PP/wBKZ5mF/wB5d3rr8kei0UUVoeyFFFFAFST/AJC9v/1wk/8AQkq3VST/AJC9v/1wk/8AQkq3QB81/FSCW9+JerRSApaJ5ORnmU+Shx/u/wA67f4IPHv16JSu5BbZUdgfNx/KuK+K906/EbU7a2Ae5YRHnog8pPmP+Heux+BFqlrHrwBLuxty8jdXP7zk15lP/ede7t+Op49L/fNdNXZffqew1zll/wAlI1r/ALBVj/6Nuq6OuRltJb7xzr9tBfT2Mj6Vp+Li3CF0xNdHjerLzjHIPWvTPYMjxL4Qt9G8Kzzx6rdwafZ6T9jvYo4UkkuLWPcwVSSArgM43e/416LXG3/gW81TT7iwvfGWuy2txG0UsZW2G5SMEZEOa7KgAooooAKKKKACud8ff8k78S/9gu5/9FNXRVzvj7/knfiX/sF3P/opqAOgT/Vr9BTqan+rX6CnUAFFFFAHAP43e+1TUdK8mOG4sLoq0UikMVV/kcc8qwAOR9K8a+M+oS6l420+aZUVlsAoCAgY3yHufevUfEelpdazcXsIWPUYHmW3nI4UtuGGH8S5IOPUCvE/H+oT6h4jszd2jWt3DbeTPEeV3BmOVPdSCCD719RlFOMMTHTX3f8A0pHx+X4yviMT8bcbzTT6WSt6r8r2fRvB0q3+1Xk8RdljPLhf4hgcfyr0/wCGc8MPxJ0a1UfMwmwqj7qiF+T6DtXmGlyyxXlwII/Mlf5Vz0HA5PtXp3wotFtviDphZjJM5lMkh6sfKf8AIe1fP8S/8jTXv/7cz1an+8Q5n1VkfR9FFFc57YUUUUAVdT/5BV3/ANcX/kasjoKran/yCrv/AK4v/I1ZHQUAebfG9518F2Yt0DSPqKKCei/u5OTXkXg6CKx8VaLufLvqNvvkc8uxkUf5Fev/ABrnjtvBVtLK21Fv0/8ARcleN+DoJLrxrod3dLt238BhhP8AB+8Xk/7X8q8zE/xtdFp8zx8Z/HV9Fp8z6sooor0z2AooooAq6n/yCrv/AK4v/I14l+0V/r/Cv+7d/wDtGvbdT/5BV3/1xf8Aka8S/aK/1/hX/du//aNelk3/ACMKP+JEVPgZ4tps6W160smdqueAMknbgAfjXa+DbeSbxrol3dj959vg8uLqIh5i/mfeuO0YA6nz/fP/AKDXYeFZ5Lzxxoi2zbbePUbfzJf75Ei/Kvt6mp4tv9ep2/l3/wC35nj17+2VvK7PqyiiivPPbCiiigBD0NeOfHP/AJJNpX/X3D/6Jkr2M9DXjnxz/wCSTaV/19w/+iZK7Mv/AN4j8/yZM9jwfTv+QvaZ/wBv/wBBNa7M2qOUQlbJTh3HBlPoP9n1PesS2gW51G2icsFbdnacZGOldBcXH2fZbW0atOwwiDgKPU+gFHGX/I2dt+WPy0PDxPxrl3t92r1/rY+wKKKK4z3gooooAQ9DVbTP+QVaf9cU/kKsnoaraZ/yCrT/AK4p/IUAUfFqLJ4M11HAZW0+4BB7gxtXyvc3LI62tqqtcMOB/DGvqf8ACvqfxcHPgvXRGQJP7OuNpPQHy2xXyyiQaZavJI5JPzSSN95z/noK83HW5o9fI8jMbc8b69kfX9Nf/Vt9DTqa/wDq2+hr0j1zn/AP/JO/DX/YLtv/AEUtdFXO+Af+Sd+Gv+wXbf8Aopa6KgArzXxl4g1aOXxALTxJFo50lI2gtFhjeW93Rh+C4P3iTGu0feU5z0r0qvOfGGpak9zrGoabaaGg8OKrSXF/bGadv3YlPlcrtwrDHPzNkcdaAOj8OXmppqup6Jql2t9LZJDNHdiIRs6S78K6r8u4GM8jAII4FdHXP+HtT1CfUNQ0vV4bUahaLFK09qrLHPHJu2NtbJU5RwQSenXmugoAKKKKACiiigDnPDX/ACHvF3/YVT/0jtq6Ouc8Nf8AIe8Xf9hVP/SO2ro6ACiiigDmfF3/AC5/8D/9lryT4i6TbS+HrjVBujuoQiFkOPNQuvyv6gEgj0Ir0X4k22ot/Zl9pU3+k2vm/wCjO2I7hDsyp9DwMN2PsTXAeMr2O98Aag6gpIFgMkL/AH4izRttYdjgivocnadaimuv/tyPhcwjKGayqQlvOmn5adfJ/wBanhx/49rj/eausuLj7PstraNWnYYRBwFHqfQCuTP/AB7XH+81dbFFFp8Ek00mXPzSzN1Y/wCHoK5OMrc2Hv8AyvT5nv4y3u3130+4+pvCKsvgvQldt7jTrcM2MZPlrzWzWN4RfzPBehSBWXdp1ucMMEZjXrWzXjx+FHsw+FXCiiiqKCqln/x833/Xcf8AotKt1Us/+Pm+/wCu4/8ARaUAW6+QESDTLV5JHJJ+aSRvvOf89BX1/Xx5BBJdTLdXS7dvMMJ/g9z/ALX8q4MdtG70PLzPaN3pr+h9I/CqR5fhtpMkkZjZvOOw9QPOfGffFdlXIfDB1k+HelsjBhmYZHqJnBrr666X8OPojvofwo+iCiiitDU5P4g6rFo+hW1zcRyG2N2qSyIMiFSrfO3+znAPpnNY+lOr6lZujBlaZCGByCMium8Wor6QiOoZWlAKkZBG1q870sTeHNe0i0trUyaNJPHCAmWe2kaXIJ9YzuC/7OB2r08O2qKb21/I+IzeEamZSjH4rR9GuZfj+frv7FXyt4mtWfx1rlzcsGZdQuBEo6IvmNz9T619U18peL2k1DxprtvEWS3TULhZZBwWPmNlV/qa+fxt+VH02Y35FbTzPffhdKk3w50p42DLmYZHtM4NdhXIfC6NIvhzpMcahUUSgAdB+9euvrpo29nG3ZHZQt7KNuy/IKKKK0NTB8ZvfR+E759Ojjlu18tkjkOA4EikrnsSMgH1Iry7UNVt9Y8EaxcwB0Is545YpBh4nCHKMOxFeueIP+QHc/8AAf8A0IV49400+4fQr67sLgQSR28xnjI+SdGTDbv9oBRtPbGOhr1MDdRTXf8AQ+Nzx05Y9Qlo+WNn/wBv7P8ATseGH/j6X/cP8xW7B5mowRwjcloihZG6GQgcqPb1PesI/wDH0v8AuH+Yro/tRitbaCBRJcvGu1eyjH3m9BXq8a39jG2/O/8A0lHsYq9o8q1/I9/+DCqng66VQAq3zgAdv3cdei15r8ELc2/gu8DSNJI2oOzue58uP8hxXpVfIYf+FGx6WFt7GNncKKKK2OgKqR/8he4/64R/+hPVuqkf/IXuP+uEf/oT0AW6+bfivdOvxG1O2tgHuWER56IPKT5j/h3r6Sr5x+KTQWfxA1m4fCbvJLt3Y+SgFceNt7NaX1ODMbeyWl9f8z0T4I2y2vgu7QMzs2oOzu3Vm8uPmvSq81+CDzy+C7ySeMRltRcondV8uPGfevSq3oX9mrnRhr+yjfc5yy/5KRrX/YKsf/Rt1VnxXqk+i+Grq+tjEsqGNBJKMpEHkVDIwyMqoYseRwtVrL/kpGtf9gqx/wDRt1V3xNqZ0jw/cXS28dw5aOFIpThGaR1jG44OFy4J9s1qbnAtrHiHS7vXb2LxcmtWmkQQ3UkRtoRHKr798QaMArIAmQcn765Hc+qV5fFqXiHwtcavBcW3h2TTdMhivbq10+zaD9zIXBZTuI3r5THaRyAORnj1CgAormfF9zNp9st9/bmpadAqldljp63W5sE5YeW5AwP9ke9Yek6t4k8VyQ2sWqw6XNbaTbXdxJaxRzLNPNvwMtuGwCPJ2nJ3cNxQB6FRXn+neI9X8WnQrS0vf7JkudMa/vJoIkkbeHWMIgcEBd24kkE4AHHWuj8IardavoPmX5Rr23uJ7Od412q7xStGWA7Z25x2zQBD43/5ANt/2FdO/wDSyGujrh/G3iGyNvBpoh1Hz11awy506cRcXUROJdmw8Djnk8Dmut/tGD+5c/8AgNJ/8TQBboqp/aMH9y5/8BpP/iaP7Rg/uXP/AIDSf/E0AW6qaj/x7J/13i/9GLR/aMH9y5/8BpP/AImqt/fwvbqAlx/rozzA46Op9KAPmT4zf8lN8Qf9sf8A0njrmtNuHhEkUMe+eTAQHoMZySfQZrsvixpVxqPxC1y5hktFSTytonu4oXGIIxyrsCOnce/SsXStIntkneafT1XC/N9vhIHX/b4r63MqsHkUoJpvkp6f9vnm4qLcXpfX/I674UWi23xB0wsxkmcymSQ9WPlP+Q9q+j6+c/hvp13F8Q9N1C8aFYYTL5cMNwkrcxONxVCSTz2zgV9A/wBowf3Ln/wGk/8Aia+Iwaag+be5rgIyVN829/0Rboqp/aMH9y5/8BpP/iaP7Rg/uXP/AIDSf/E11HaW6qaj/wAeyf8AXeL/ANGLR/aMH9y5/wDAaT/4mqt/fwvbqAlx/rozzA46Op9KANWvIfjpPHbQ6JLK21F+0c/9+69T/tGD+5c/+A0n/wATXlnxitU1ebQpEABt/PIFw3kjJ8vkB8ZIwenTPvXPilek0/61OXGJOhJPy/M4j4VRS3HxJ0m7uQUx53lQ5+4DC/J9z+lfStfO/wAPIri3+IWlzA20ltH53mvDcRytnynAUIhLE5IJ44Fe+/2jB/cuf/AaT/4mpwakqfvK2pGAUlSfMra7Fuiqn9owf3Ln/wABpP8A4mj+0YP7lz/4DSf/ABNdR2luqmo/8eyf9d4v/Ri0f2jB/cuf/AaT/wCJqrf38L26gJcf66M8wOOjqfSgDwL9of8A5HO1/wCwXH/6NlrzvSUV9UUsoJWJmXPY5UZ/WvTfjpYzat4stprd4EUaciEXNwkDZ8yQ/dkKnHPXp+Vef2nhu9lvAn2qxRDGwfZfwliuRwMPx9a+txlSDyKpDmV+SH/pbODExbjJepu+FZ5Lzxxoi2zbbePUbfzJf75Ei/Kvt6mvqyvmbw3YtYeKNEVTaEJewERR3URbaJFyQobJwOwBJr6O/tGD+5c/+A0n/wATXwuCTUXpZCy9NQelkW6Kqf2jB/cuf/AaT/4mj+0YP7lz/wCA0n/xNdp6Bbrgtenil1++jjkVniZFkUHlSUUgH04IP412X9owf3Ln/wABpP8A4mvNvFOlmbxgdZ02Q21yWjS5V0IW4iAAIZTzuAztb8OhrqwsuWUn5M8PPqSq0qUf78el+j38vM80+LUES3+jzrGolkjmV3A5YAx4BPtk/nXA6Tb/AGqeWIuyxksXC/xDI4/lXonxDQ64dJe2ltEkgE6TxS3kKNG58v5TlsEjHOM449RXH6Zouo28kxibT5JG3BQNQgIGSOTh+lfSYirB5TOMZK9pfocuVUq0MthCSakr7/4mdF4auI7fxp4ftok3SNf24CL/AAr5i5J9AK+p6+Y/CWiyab4m0q4mmtpH+3QPLILmNmc714ADZPoFFfSP9owf3Ln/AMBpP/ia+EwUbRaPVy6PLGSt/wAEt0VU/tGD+5c/+A0n/wATR/aMH9y5/wDAaT/4mu09Et1V1P8A5BV3/wBcX/kaT+0YP7lz/wCA0n/xNVtRv4X026UJcZaJgM27gdPUigDTHQVx3xV87/hW2rfZwvmnyQu7oP3yc/h1rphqMGB8lz/4DSf/ABNcv8RruK48B6lEpaMt5WGnQxJ/rU6s+FH4nrxUVb8krdjOtf2crK+jPnREg0y1eSRySfmkkb7zn/PQV9f18lxaDe3FwLm7ezGw/uoftkRCe5+bk/yr6p/tGD+5c/8AgNJ/8TXJgotOV99Dhy+Li582+n6mR4+/5J34l/7Bdz/6KauV8X+INWjbXRaeJItHOkxxtBaLDG8t7ujD8FwfvEmNdo+8pznpXQ+O7+F/h94jUJcZbTLkDNu4H+rbuRWF4t1LUnl1bUNNtNDQeHERpLi/tjNO37tZT5XK7cKwxz8zZHHWu49I6Xw5eammq6nomqXa30tkkM0d2IhGzpLvwrqvy7gYzyMAgjgV0dc/4e1PUJ9Q1DS9XhtRqFosUrT2qssc8cm7Y21slTlHBBJ6dea6CgDL8TNdp4U1htP3fbRYzG32dfM2Hbj3ziuD8J3Fzpg8K2lpqVpfw6nYO3kR28afZSsQYMpUbtu7CneSSSOc8V6hVKz0bS9OuJrix02ztp5zmWSCBUaQ/wC0QMn8aAPM9H+w/wDCMfDv7H5X9rfbk83bjzd3lyfat3fru3Z74z2pg+y/8INH/qv+Eh/4SX2877T9u59/9Vn/AIB7V6fBo+l22oS6hb6bZxXs3+tuY4FWR/8AeYDJ/Gj+x9L/ALU/tT+zbP8AtDG37X5C+bjGMb8Z6e9ADtRj1CW0K6Zc21tc5GJLmBpkx3G0Oh/WuX8JQ6suqeKVub2zkuBqieY8dqyKx+yW+MKZCRxgdTyCe+B2dc54a/5D3i7/ALCqf+kdtQBseXqH/Pzbf9+G/wDi6PL1D/n5tv8Avw3/AMXVuigCp5eof8/Nt/34b/4uuc8aWuoyaTbyLdKZIbgSJHEPKEp2ONrk7vlOfTOcHtXXVh+Kv+QXF/12H/oLVth1erFHm5xUdPA1ZLouup5dqGox33gzVJbq2lhcWMxuLQuFkUBXUjOD1KthsEHrivGWuNB86L/iW6jnnH+nJ6f9cq9c8caOt1oWoalbzNb3lvZTK0i8iWLaS0bDuDzj0PNeHP8A66H8f5V9hktLmjU5r7w6v+c8jJJxnGUo21tpa1vdWnmux3Cf2JYRSzyW15lvmkle6Uk/+Q/yFe9fDV7i6+H+lzWu22gfzSkU6F3Uea/UgqOevTjOK+cYopL6Vbm5UrEpzDCe3+03v7dq+lvhiwb4eaWVIIzMOP8Ars9fm+Dleo097HpYCV6rT1dv8tDo/L1D/n5tv+/Df/F0eXqH/Pzbf9+G/wDi6t0V6R65U8vUP+fm2/78N/8AF0eXqH/Pzbf9+G/+Lq3RQBlWsd99ovNtxbg+cN2YScnYvT5uO1WvL1D/AJ+bb/vw3/xdFn/x833/AF3H/otKt0AfMfiOLT5fGGqzXtpdPNFfTgBbpQhPmN84XZxn0JOPWvU/hJMt14XvTpkixQpfujrMPNO/y484I2jGCOMdjzXjfjCWS98a67a2zFI11CcTTDt+8b5V9/U9q9m+CsUcHgu5iiUKi3zgAf8AXOOvNw7ftrS8zyMLJ/WLS3107HeeXqH/AD823/fhv/i6PL1D/n5tv+/Df/F1bor0j1yp5eof8/Nt/wB+G/8Ai6rahPqFhYyXPnWz7MfL5LDOSB/e961KwvGOoW+l+Fby8umKwRmPewGdoMijJ9hnJPYZq6aTmlLa5zY2dSGGqSpfEou3rbQ5XV/HGpaOf7R+wR3FuQqXTR5LQoMkOF/iAyc85A5wa+dHuNB8+P8A4luo5w2P9OT2/wCmVfQissih0YMjAEEHIIr5mf8A4+Yvo39K+0yTCwVOo1f4odX/AD+p8/k+ZV8W5RrO7io9usbvp/X59fBc6VfwC3jsdQS3VArSC8UEnuo/d8+54r3H4Sx48J3C6YFtrdbxh5cw8w52J0I28Yxxj8a8CF0Leztook8y4kjGyMfTkn0HvXvXwQgeDwXeebKZJX1F2du2fLj6DsOK/PW39cmtleX5no4OTdbstbf5nf8Al6h/z823/fhv/i6PL1D/AJ+bb/vw3/xdW6K6z2Cp5eof8/Nt/wB+G/8Ai6PL1D/n5tv+/Df/ABdW6w/F8+o23ha8n0kKb2PY0as5UMN67lyOhK5APqaqK5mkZ1qipU5VH0Tf3E6R339pzgXFvu8mPJ8k4xl8cbvrXx8bjQPs8/8AxLdRxls/6en/AMar6E0jxJLq9qby3urpHz5U0cjsskbr1RhngjP65718yn/j2uP95q+oyTDKMarb+y9m1smeVhczWMnKnyOLjy3v/e1OyttR0iK0t4bfT715XztjN4vAyckny+B+Fe3/AAhtzH4UvP7PkMaNfuz/AGn98zPsj5yNoAxgYx2rwPTRb2um/aX2puBLufY4Fe+/BCWWfwXeSSReWG1F9inrt8uPGffrXyOL0zOuo7c8/wA3/X5lYSTdd2Wmvz/r/hzv/L1D/n5tv+/Df/F0eXqH/Pzbf9+G/wDi6t0VoeuVPL1D/n5tv+/Df/F0eXqH/Pzbf9+G/wDi6t0UAZTx339pwA3Fvu8mTB8k4xlM8bvpVry9Q/5+bb/vw3/xdEn/ACF7f/rhJ/6ElW6APnn4jy6bYeN9Wmv4JWnPlGWWKUIHPlIBhSrHpgdTXT/Bh3uV1mWzjezLeRujuWE3H7zBG0JtPXPXt0xXG/E60MvxP1WeZt6p5Pkp2X9ymSfU12PwMuY55fESR5IjNuC3Yn97kD6f1rzab/2lpa6s8ijK+LaWuru/vPVfL1D/AJ+bb/vw3/xdcTrGp3uieIPEt8stuZ00zTVErRkRxK9xcIZGGeQgYseRwteg1wus6mdI8UeI7pbeO4c6XpsKRSnCM0lxcRjccHC5cE+2a9I9cxW1jxDpd3rt7F4uTWrTSIIbqSI20IjlV9++INGAVkATIOT99cjufVK8vi1LxD4WuNXguLbw7JpumQxXt1a6fZtB+5kLgsp3Eb18pjtI5AHIzx6hQAUUVgeL7XQDodxqev6XZ38GnwyTKLmFZMcZIXcDgnAHvxQBv0V5dafDOWTw54cj+z6OJ7RZ7i6tb6z82EzT7WKhAVxt+6PQAcU+Oe21628JaPPp9vaaa9/d213Y2/FvJJbrIAgxjMZZS4HfAz0oA9OrnfH3/JO/Ev8A2C7n/wBFNVTwTGtneeJNKts/2dY6l5dquciJWhido19AGdsDtnFV/iPPrq+D/EMdrp2nyaedMn8yeS9dJVHltuxGIiDjt8wz7UAdmn+rX6CnVSSTUPLX/RrboP8Alu3/AMRTvM1D/n2tv+/7f/EUAW6KqeZqH/Ptbf8Af9v/AIijzNQ/59rb/v8At/8AEUAedSapa6jrGqxQsRNa3kkU0TjDKQxwcehHIPcGvIPiv/yN9h/15D/0N69Z1rSUm8RSaog8nUImlTchyrg5+VxxuUNgjpyO2TXk3ji/0fV/ENvLczajZ3MMJhkt/sasUIZjyTIOxB4yMEc19TldXlrx5v7vR/zI+HyzDWxntKe1531Ts3bs9vy2fnyujSxwXd3LKwVFXJJ/4DXonwqSa6+JOk3cwaONfO8mLoRmFxub3x27VxulWWgS38h+230hQ7wHskABwP8Apqc16B8Op7JviHYR6fNcTzx+bkSwhI8+U/BYOSDjngH04zmvnuIXzZnzR/HT7T7nvyi/rEXHfS+2x9D0VU8zUP8An2tv+/7f/EUeZqH/AD7W3/f9v/iK5z2S3RVTzNQ/59rb/v8At/8AEUeZqH/Ptbf9/wBv/iKAF1P/AJBV3/1xf+RqyOgrM1GS+Om3Qe3twvlNkiYkgY9NtWBJqGB/o1t/3/b/AOIoA4X40RJL4RsS6htmooy57Hy5Of1rxrwvcyXPjnRIrUgRx6jb+bL1HEi/KPf19K9g+MEU134RtoryT7HCb5MyW371z8j8YO3HGecn6dx5d4c/siw8TaFBbT3JlN9AsEP2dQGO8dSHJA9Tg/jXm4iN66e7PIxUb4hNavTQ+nKKqeZqH/Ptbf8Af9v/AIijzNQ/59rb/v8At/8AEV6R65boqp5mof8APtbf9/2/+Io8zUP+fa2/7/t/8RQAup/8gq7/AOuL/wAjXiX7RX+v8K/7t3/7Rr2PUZL46bdB7e3C+U2SJiSBj0215F8d1t5ZvDf9qyyWxAuvK+zRifd/qs53FMY4x1zk9Mc+jlD5cdSb/mRFT4WeIabCLi8aIuyhnIJU4ONvI/HpXc+GJobTxh4eto0+ZtQt1SNB0XzFyfoK5vTotEjvS0N9qMkm8gL9hQckY/569O9df4SsdOtfFOlzJe3M9499D80luqBm8wbVzvO1c+gP41HFbU8bTfTl22+3Pv8A10PIrxvVjd6aaXPpyiqnmah/z7W3/f8Ab/4ijzNQ/wCfa2/7/t/8RXCe0W6KqeZqH/Ptbf8Af9v/AIijzNQ/59rb/v8At/8AEUAWj0NeOfHP/kk2lf8AX3D/AOiZK9YMmoYP+jW3/f8Ab/4ivKvjGI5Phnpq6izW9qLmLbJbr5rk+VJgFSVA4z3NdeAdsRF+v5MmWx8/2zSrqFsYEDS/MFDHA6dT9OtdFFFFp8Ek00mXPzSzN1Y/4egqlbL4ft7+CVtTvwEDH5rJAPu+vm1sraaXeyx3M15fCNeY4XtFGD/eP7zk+npT4wfPmbeytHye3meLioNtX0Vvv1eh9Z0VU8zUP+fa2/7/ALf/ABFHmah/z7W3/f8Ab/4iuM9wt0VU8zUP+fa2/wC/7f8AxFHmah/z7W3/AH/b/wCIoAtHoaraZ/yCrT/rin8hTTJqGD/o1t/3/b/4iq+nSXw021CW9uV8pcEzEEjHptoAi8XSLF4L12Rs7U064Y4GeBG1fKsEEl1Mt1dLt28wwn+D3P8Atfyr6k8SPdt4W1cTQQpEbKYOySlmC7DkgbRk+2RXzXINLvjJbwahfIqHEkq2i491B8zr784rz8Ym5K33nl5hFuStppufWdNf/Vt9DVbzNQ/59rb/AL/t/wDEU15NQ8tv9Gtuh/5bt/8AEV6B6hleAf8Aknfhr/sF23/opa6Kud8A/wDJO/DX/YLtv/RS10VABXmHi1Wutd1bWY/Duj3lr4eVDdvdO4mn2xrOQoX5TtVwRvzznpXp9c7qfgXw1rF9cXt/pUc1xcY85zI434UKMgED7oA/CgDcit7dZ5LqKGNZp1USShcM4GduT3xk4+tTVlaN4b0jw9539lWYt/P2+Zh2bdtzj7xPqa1aACiiigAooooA5zw1/wAh7xd/2FU/9I7aujrnPDX/ACHvF3/YVT/0jtq6OgAooooA5nxd/wAuf/A//Za8h+Iejxf2JeatBI0E22NLhU+7cJvXaGHqpwQeuMjoa9I+JP8AakH9mX2mfvvs/m+dZnjz0OzO09nGOPXJHeuC8aXUV78Pb24iJ2yLC+1hhly6EAjscEcV9Dk9nWop9/8A25HwuYKdPNZVIPRzpp/ds/zX4arTww/8e1x/vNXURRSX0q3NypWJTmGE9v8Aab39u1cuf+Pa4/3mrqZ55LqZrW1bbt4mmH8HsP8Aa/lXLxje+Ht/K9fmfQ4u+lvPXtsfVnhX/kUNE/68IP8A0Wta9Y3hGNYvBehRrnamnW6jJzwI1rZrxofCj1qfwIKKKKosKqWf/Hzff9dx/wCi0q3VSz/4+b7/AK7j/wBFpQBbr47llkvpWtrZisSnE0w7f7K+/v2r7Er5Alli0+COGGPLn5YoV6sf8PU1wY3eNlrr+h5eY7wsrvW34H0f8LYo4PhvpMUShUUSgAf9dXrsK434VLKvw20kTuGl/fFiowP9c/A+nSuyrrpfw4+iO+h/CjrfRBRRRWhqct481S20nR7SW7ZkhlvEiMuPljJVsFj2GQBn1IrF03/kKWn/AF2T+Yro/GMEVzoggnjWSKSUK6OMhgVbIIrzzSJm8N65o2mtHLJpck0cMNyWLtFIZDtR/wDZwVVT7YPWvTw7aoq+2v5HxGb041MykofHaOndcy28/Lr0PY6+WPGl0LfxfrMUSeZcSX9xsjH/AF0bJPoPevqevljxPDDaeMPENzI/zNqFwzyOei+Y2B9BXz2Otyq59LmVuWN++x7r8Kkkj+G2krNJ5kn74s2McmZz+VdlXG/CqYXHw20mUIyhvOIDDBx5z4P49a7KuqlfkjfsdtG/s437IKKKK0NTB8Z3F1a+E76eztftU8flsId2C48xdwB9duce+K8x1TUrXVvA+q3lpJviexnHIwykI2VYdiO4r1nxB/yA7n/gP/oQrxvxhYXVvoWo3WlGKNWgna8gYYEytGFL5/vqFBHryO9epgbqKfn+h8bnipzx6g9Hyxs/+39n+j+/Tbw8/wDH0v8AuH+YrpLOOCxsftDtjcod5GPPTgfQdAK5s/8AH0v+4f5iugs7aS5WGW6AEcajyouo4H3j7+npXqcbfwI3enO//SUexi/hV3oe+/BCWWfwXeSSReWG1F9inrt8uPGffrXpVec/BeVJfCN8EYNs1F1bHY+XHx+tejV8jh/4UdD08L/BjpbQKKKK2NwqpH/yF7j/AK4R/wDoT1bqpH/yF7j/AK4R/wDoT0AW6+bvidaGX4n6rPM29U8nyU7L+5TJPqa+ka+aviq8118SdWtIS0ca+T50vQjMKHavvjv2rkxl/Z6dzhzC/slZ21/zPTvgtPHN4QvvLYNs1F0Yj18uP/GvR684+CsUcHgu5iiUKi3zgAf9c469HrXD29lGxthbexjY5yy/5KRrX/YKsf8A0bdVP4vuktPC94XsYb7zjHbLbTnEcjyyLEobg/LucZ9qgsv+Ska1/wBgqx/9G3Va+qaXZa1p0lhqNus9rKVLxsSASrBhyOeCAfwrY6DkvB+lx2Uur+GtU0bSopPLhupDaF5I7mOQuo3eZlsqYmGCSMYxXc1yn/CtfCAcv/YybiMFvOkyR/317muroAyNVstduLgNpes21lCY9rJNY+ed2T8yneuDyOCCOKwrfwJPo6Qf8I9rb2Mos1s7iSe2E/nKrMyvjK7XBd8HkfNjHArtKKAOUPgtrCPSW0DUfsFzptobJZJ4PPWaE7SQ67l+bcoYEEck9Qa2NA0aPQNHi0+OZ52VnklmkADSyOxd3OPVmJx2rTooA5zxv/yAbb/sK6d/6WQ10dc543/5ANt/2FdO/wDSyGujoAKKKKACqmo/8eyf9d4v/Ri1brz261d7q9vBb38kkcV1JEQspIRkcgjHYgitqNF1b2ex52Y5jHBcjlFvmdtOh4j8Zv8AkpviD/tj/wCk8dc7pFtHPIzyZIjwQvYnnBP0/rWj8SpJJvGmsvK7O58vLMck/uUrL04XEgkhgOwPjfL3Uc9Pc19bm0XHIqkb7Qp/+lnPKt7fDKtHTmSfpezPRPhjdmX4n6VBCu9U87zn7L+5fAHqa+ka+cfhasFn8QNGt0wm7zgi92PkuTX0dXwGCt7N27nVl1vZOy0v/kFFFFdh3hVTUf8Aj2T/AK7xf+jFq3XCSePEudYvtDn09ra8s7jcqvLnz4lk+WROOQccj+EnB96hCU/hMK+JpYdJ1Ha/q/yO7rxz48Rzzf8ACPwxN5cbfaPMkB+YD91wPc+vavVdK1H+07VpvK8ra5TG7d2B9PevK/jvdC2XQAFMk0huBHGOrH93+nqawxkZRhKNtf8AgnPVrxr4X2tHVO1vv8zk/hebe1+IWi2ybU3ecEQe0Lk19HV83fCe0MXxF02edhJcuJdzdlHlP8q+gr6RrDBW9m7O+oZdb2Ts76/5BRRRXYd4VU1H/j2T/rvF/wCjFq3VTUf+PZP+u8X/AKMWgD54/aH/AORztf8AsFx/+jZa82sZ3gvh5URkleJlRe2cr1PYcV6T+0P/AMjna/8AYLj/APRsted6VIkV+0kjBUWBySeg5WvsMb/yIKn+Cn/6Wzz8T8MtL7nX+C7UW/i/RpZX8y4kv7ffIf8ArouAPQe1fU9fKXhBZNQ8aaFcShkt01C3aKM8Fj5i4Zv6Cvq2vgsFe0rvUWX35ZXeoUUUV2nohXCeIHVtcuwrAlSoYA9DsU8/gRXd15Z4r0q5g8bTarpkgVpmiS+gc/JMm1RvHo6j8wMV1YRtSlbszwOIYRnRpKTt78betnp5f5/eeYfFeytodU0u7jhVZ7iOZZXHVwvl7c/TJ/yK4jRJY4JrmWVgqKGJJ+ors/iVqVrqsOg3dpJviZbkHIwVYGLKsOxHcVxeiQRzXj+YobYzOoPrkf419PiuX+xqna0v/bTlytSWWRVW91deeknodb4PikvfGuhXVypSNdQgMMJ7fvF+Zvf0Havq2vlXwxdPN460S3tcEJqNuZpD0X94vyj3P6V9VV8Dgr8ruexl1+R308gooortPRCqup/8gq7/AOuL/wAjVqqup/8AIKu/+uL/AMjQBZHQVyXxOUN8PNUDAEZhPP8A12SutHQVx3xViaf4batGsjR7vJBZeuPOTOPwrOr/AA5ejMq/8KXoz5tllkvpWtrZisSnE0w7f7K+/v2r7Er5Alli0+COGGPLn5YoV6sf8PU19f1yYHaVlocGW7SstNP1Od8ff8k78S/9gu5/9FNXIeKla61nVNZj8O6PeWvh5IzdvdO4mn2xrOQoX5TtVwRvzznpXX+Pv+Sd+Jf+wXc/+impt/4F8NaxdzXt/pUc1xcBfOcyON+FCjIBA+6APwrvPUN6K3t1nkuooY1mnVRJKFwzgZ25PfGTj61NWVo3hvSPD3nf2VZi38/b5mHZt23OPvE+prVoAKKKKACiiigArnPDX/Ie8Xf9hVP/AEjtq6Ouc8Nf8h7xd/2FU/8ASO2oA6OiiigArkviGupf2BBLpTRm4hulkMMnCzrscFM/wk5yD6gds11tYfir/kFxf9dh/wCgtW2HV6sUeZnM+TAVZWvp1PLdW1CPU/AWrXUaSRb7C43RSrtdGCMpBHqCCPwrwV/9dD+P8q9w8b6VNJo2o6nY3Hk3EdjLFOjZKTQ7WJUjswyxU+px0NeHv/rofx/lX2mSX5aif81P/wBLPGyJQ5Jyg9HbTt7i08/U6WeeS6ma1tW27eJph/B7D/a/lX0l8LIY7f4baRFEu1FE2B/22evnF3g0y1SONCSfljjX7zn/AD1NfRvwq87/AIVtpP2gr5p84tt6D98/H4dK/MsF8bttb7z1Mu/iO21vv21Oyooor0z2AooooAqWf/Hzff8AXcf+i0q3VSz/AOPm+/67j/0WlW6APljxncpaeLNZVE3yyahceXEvVj5jE/h6mvXfghFLF4LvDPJ5kr6i7NjoP3cfA9q8i8S28dv408QXMr7pGv7gl2/hXzGwB6AV678ELj7V4LvJQjLGdRcIW/iHlx8/zrzMN/GdvPU8bB/7w+Xzuz0qiiivTPZCsvxGivoF0jqGVgoKkZBG4VqVi+LL220/w1dXN3MsMKtGpdugLSKoz6ckVpR/iRv3RxZkm8FWUd+WX5M8pZo/B0MarHK+jNKxd87vsQO3aAOvl53f7uR2rwh/+PmL6N/SvpllWRWR1DIwwQRkEV8zP/x8xfRv6V9zkkbUqnbmh/6WfM5BV9pOo2ve5YXff3X+P5+t79JZQw2lp9pkf5mQM8jnouOB9BXvPwQna58F3kpjKIdRfZu6lfLj5I7d68BtYJLxIWuV228ajy4v75H8Te3oK+g/gw6v4RvQrAldQdWx2PlxnH61+bP/AH6pfV3l+Z7OD/3jXV6/I9FooorsPaCszxB/yA7n/gP/AKEK06wfGdxdWvhO+ns7X7VPH5bCHdguPMXcAfXbnHvitKLtUi/NHHmMXLB1YrrGX5M841iyvlZL/R3VbuElnt24S6BABVj2bCrhu2PQ188H/j2uP95q+lNN1K11ayS8tJN8T8cjDKR1Vh2I7ivms/8AHtcf7zV9hlSXLVa6qX5M+Z4flPnqU5qziqfrts/Q6HTbVp4YZZ2DRR5MUY6Zz94+p9K+hfgvKkvhG+CMG2ai6tjsfLj4/WvnezlluLSO0tiUwD5s2PuAk8D3I/Kvob4KQR23gq5iiXai37/+i46+Hxv/ACNa9/55/wDpTPawv+8+9vrZHpFFFFaHsBRRRQBUk/5C9v8A9cJP/Qkq3VST/kL2/wD1wk/9CSrdAHzV8VXmuviTq1pCWjjXyfOl6EZhQ7V98d+1dx8DYo4ItbiiUKii3AUf9tK434sXa23xB1MKpkmcxCOMdWPlJ+Q966z4D27w/wBvyzSb55Ps5cjoMebgAegzXmU/957K7+e549H/AHvsrv576/1/mex1wHiO6S01/wATF7GG+87S9NtltpziOR5bm4iUNwfl3OM+1d/XIT6XZa1431+w1G3We1l0vTy8bEgErPcsORzwQD+FemewVfB+lx2Uur+GtU0bSopPLhupDaF5I7mOQuo3eZlsqYmGCSMYxXc1yn/CtfCAcv8A2Mm4jBbzpMkf99e5rq6ACqmpaZZ6vafZL+HzoPMSQxliAWRgy5wRkZAODwcc1booAzNW8P6frTxPercbogVVoLuWA4OMg+Wy5HA4NRzeF9Fn0WDSGsESxt2DQRxM0ZiYZwyspDK3J5BzyfWteigClpek2Oi2Qs9PgEMIZnI3FmZiclmZiSxJ6kkmsrx9/wAk78S/9gu5/wDRTV0Vc74+/wCSd+Jf+wXc/wDopqAOgT/Vr9BTqan+rX6CnUAFFFFAHmc2oWt/qeo/ZpQ5gvJYZR3R1cggj/ORg1458VwB4vsSAObME+/zPXquv6T5XiW91mwBF6plWSFSFW7xu2K3oQ2MN2GR0rxz4g6rb6x4hsLmAOhW18uWKQYeJwz5Rh2Ir6zKpf7RFPf3f/SkfB5VSX1z2lPWN6l/J2Wj/R/qc/paTy3lxHBIIy3Dv3VcDOPevT/hasFn8QNGt0wm7zgi92PkuTXmOlXK2t3cOVZ2b5URerNxxXpXwotXX4jaZc3JD3LCUcdEHlP8o/x7183xL/yNNdr/APtzPop/7xG+1182fSVFFFc57QUUUUAVdT/5BV3/ANcX/kasjoKran/yCrv/AK4v/I1ZHQUAebfG+4Nv4LsysbSSNqCKiDufLk/IcV5D4LtTF4x0aedhJcvfwbm7KPMX5V9BXsfxnZU8HWrMQFW+Qknt+7krxbwj5mo+NNCmO5LRNRt2jXoZCJFwx9vQd68zE/xu2x4+L/3jstLv9D6uooor0z2AooooAq6n/wAgq7/64v8AyNeJftFf6/wr/u3f/tGvVda1zyXutP8As27KbPM34+8vpj3rxb456u2q3fh0G3ESxLc4PmbixPlZ4wMdB+ftz7GUUKixtGbWl1+J5n9qYSpUeHjP37tWs9479LaHlmkyJFqDSSMFRWYknoPlrsfCCyah400K4lDJbpqFu0UZ4LHzFwzf0FcdpUSTagUkUMvmE4PsuRXa+Gbpn8daHbWyhmXULcyseiL5i8fU+lc3Fv8Av9O2/L/7fM5638dcu+mvZH1TRRRXAe2FFFFACHoa8c+Of/JJtK/6+4f/AETJXsZ6GvHPjn/ySbSv+vuH/wBEyV2Zf/vEfn+TJnseC2KLJq1orqGHzHB9QuRW3PPJdTNa2rbdvE0w/g9h/tfyrBto3l1C2jjkMbNuG8dQMc498V0TvBplqkcaEk/LHGv3nP8AnqaOM/8Akau2r5Y/keHivjjbV20Xzev9fM+v6KKK4z3gooooAQ9DVbTP+QVaf9cU/kKsnoaraZ/yCrT/AK4p/IUAUPFyeZ4L12Msy7tOuBlTgjMbdK+WZZYtPgjhhjy5+WKFerH/AA9TX1N4uZl8F66yLvcadcFVzjJ8tuK+WLe3+z77m5kVp2GXc8BR6D0ArzcdbmV/uPIzK3NHm27dz7Apr/6tvoadTX/1bfQ16R65z/gH/knfhr/sF23/AKKWuirnfAP/ACTvw1/2C7b/ANFLXRUAFFFFABRRRQAUUUUAFFFFAHOeGv8AkPeLv+wqn/pHbV0dc54a/wCQ94u/7Cqf+kdtXR0AFFFFAHM+Lv8Alz/4H/7LXj3xB0hotGv9UtLgxCURreQnlZgHUKw9GBwM9xx6V6X8SbnUbD+zL6zh+020Pm/arZV/eMh2fMnqVwfl7gnviuE8bXEV38Pby5gffDKkMiN6qZEIP5GvocntKtRT6P8A9uR8LmCqUs1lUi9JTpp/ds/zX3rVaeFH/j2uP95q613g0y1SONCSfljjX7zn/PU1yR/49rj/AHmrrLa2ZHa6umVrhhyf4Y19B/jXJxla+Hv/ACv8z38bay5ttdO+x9T+ES58F6EZABJ/Z1vuA6A+Wua2ax/CTrJ4M0J0IZW0+3II7gxrWxXjw+FHsw+FBRRRVFBVSz/4+b7/AK7j/wBFpVuqln/x833/AF3H/otKALdfH9vb/Z99zcyK07DLueAo9B6AV9gV8dKrao4dwVslOUQ8GU+p/wBn0HeuDHbLtqeZmV7R1stb/gfSnwqnW5+G2kyoGCt52Nwxkec/NdjXJfDL/knml4/6a/8Ao1662uuj/DjbsjuoW9lG3ZfkFFFFaGpzPjbULWw0yz+1SiIT3iwxluhco5Az2zg/jgd6wdOAOqWgIB/foef94V0HjeyttR8P/ZLuFZoJZQro3Qja1cFot4dB13R9IvpJpoJZUjt76U53SeYcROf723aAT94g969PDytRV9tfyPh83pKpmUuT4ko6d1zLVenVfPvb2GvlPxVBJeeONba5Xbbx6jceXF/fIkb5m9vQV9WV8qeMriSbxrrdpaH959vn8yXqIh5jfmfavn8bflVv+GPp8wvyxt9/Y9++GRB+Hml4/wCm3/o1662uO+FcCW3w20mKPO1fO5JySfOckn8a7Gumjb2cbdkdlC3so27L8gooorQ1MHxneSaf4TvruO1kujF5ZMUX3ivmLuIHcgZOO+MV5rrN7baj4J1O7tJlmgl0+ZkdehGxq9V8Qf8AIDuf+A/+hCvGPFdlc6XoOpS6RbxG2nina9g6E70A8xT2K4yR3ye9epgW1FPpf9D43PIwnj1DaXLHXp8ez/R+evl4kf8Aj6X/AHD/ADFb8c8l1DFaWrbdsaiaYfwcdB/tfyrAP/H0v+4f5iukSeKx06DamXdRsjQcuxGf8mvU42/gxsrvnf8A6Sj2MVtGyu+h738FII7bwVcxRLtRb9//AEXHXpFea/BBJ18F3huHDSPqLsQOi/u4+BXpVfI0P4a1uenhv4Mbu4UUUVsbhVSP/kL3H/XCP/0J6t1Uj/5C9x/1wj/9CegC3Xzh8WLtbb4g6mFUyTOYhHGOrHyk/Ie9fR9fOPxMghh+JOs3TH5mEOWY/dUQpwPQd648bb2av3PPzHl9kr9/8z0T4IRSxeC7wzyeZK+ouzY6D93HwPavSq81+CFx9q8F3koRljOouELfxDy4+f516VW9C/s1c6cNf2Ub7nOWX/JSNa/7BVj/AOjbqujrnLL/AJKRrX/YKsf/AEbdV0dam4UUUUAFFFFABRRRQBznjf8A5ANt/wBhXTv/AEshro65zxv/AMgG2/7Cunf+lkNdHQAUUUUAFeQ63pbWHifUNZ07cC7ym7tEHFyQG2kej5wM9x1r16vOb+SOXUrxo3VwLiRSVOeQ5BH1BBFduDSfN6HzXEVSVN0GtnKz8/6/4KPnjxrqFvqniLU721YtDKI8bhggiJAQR2IIII9RUOmXSWsUxILu20JGvVzzwKv/ABERU8YawFUKPkOAMcmJCf1qroiR7ppWC7kUYY9gc5/lX1Gdf8iSpzfyU/8A0s1ouH1Cm0tOWOnyR3nwotXX4jaZc3JD3LCUcdEHlP8AKP8AHvX0lXzX8K55b34l6TLGSlonnYOOZT5LjP8Au/zr6Ur8/wAHfkd+56WX39m+be/3aLQKKKK6zuCvMPEWnR3upXMgxHdwyzfZ7jbloWYMuR69enTgV6fXlb6xBfa/q1ntaG7tbqRXhk4YrvO1x6qw5z+FduDt7yfY+a4jVRewnDpLX56fd0On+Hlzf3GgTrqVsILuC6aJynKS4RCHT/ZIP4HI7VyHxv2L/Ycr7RtFx8x7D93n+VegeFf+QXL/ANdj/wCgrXnPx2tRdN4eEjHyVNwWj7Of3WM+w54rgzNWU02dGElGeUwdrKy29ehxnwqkmvfiVpNwC0dqnnbB0Mv7lxk+3p+dfStfOHwzul/4WdpFrGpdsTFyOkY8l8Z+vpX0fXNgv4e1tTvy+/snpbX/ACCiiius7gqpqP8Ax7J/13i/9GLVuvO9e8TatYeMp9JuV26fKUeynRAQGVA7I5xwchmB6EcdquFNzdkc2KxUMNFSkm7u2lv1aPMf2h/+Rztf+wXH/wCjZa84023juNSQSjcqxs23sSCvX1rsfjPeXF94kgluJN7iwRQcAceZJ6fWuMsRcNfBLchWaJgXP8AyuSB3P+NfYZhBwyKpFvVQp/8ApbOCOJjisOq9PRSu9TsvDN0z+OtDtrZQzLqFuZWPRF8xePqfSvqmvljwktvp/inQYwdobUrdRnkuxkXk+pr6nr8+wNuV22NsttyPlWn5hRRRXcekFcL4h/5Ddz/wH/0EV3VeVeKrG/svG8+o6exlguniS9tXbgfIqiVPQgAZHcD1FdWEdpS9GeBxDBTo0k3b342+56eR5d8U9NtbTVdOvII9kt0sxmwflYr5fzY9eeT3wPSuI0lJ5Z5Y4JBGWLB37quRnHvXd/E+8t9Qj8P3dpMssEsdwyOp4PMVcLpFytrNM5VnZiyoi9WbI4r6jE/8iefL2l/7ac2Uuo8thzfErrXyk1+B2vhQ2+n+KvD8KjaG1G3RFHJJMi8/1Jr6nr5W8F2rr4z0a5uSHuWvoBx0QeYvyj/HvX1TX5/gbcstbnrZdbllrd3Ciiiu49IKq6n/AMgq7/64v/I1aqrqf/IKu/8Ari/8jQBZHQVx3xVkeH4bas8cZkceSFQdyZkFdiOgrkvieyp8OtWZiFUCIknoP3qVnV/hy9GZV/4UvRnzbb2/2ffc3MitOwy7ngKPQegFfYFfHSq2qOHcFbJTlEPBlPqf9n0HevsWuTBbyvvp+pw5de87vXT5bnO+Pv8AknfiX/sF3P8A6KaugT/Vr9BXP+Pv+Sd+Jf8AsF3P/opq6BP9Wv0Fd56Y6iiigAoorNl1/S4dfg0J7tRqc0RmSAKxOwdSSBgdD1IzjigDSorEsPF2hanqf9n2l+JLhi4T906pKU+8I3ICvjvtJxQvi7Qn1j+ylvwbvzTAP3T+WZQMmMSY2F/9nOfagDbrnPDX/Ie8Xf8AYVT/ANI7aujrnPDX/Ie8Xf8AYVT/ANI7agDo6KKKACuS+Ic2o2+gQXGmwrcPFdK8sB4aWPY+VU9m6EfTHeutrD8Vf8guL/rsP/QWrbDq9WKPMzmXLgKsmr6bM8v1i/t9U8Bate2rFoZdPnI3DBBCMCCOxBBBHqK8Df8A10P4/wAq9u8a6feR6NqWoabMFH2GWK6tnOEkjKsSw9HG5jnv0NeIv/rofx/lX2mSN8tRP+an/wClnjZFGChOUHo7adV7i0f+fX8DqLa2ZHa6umVrhhyf4Y19B/jX0f8ACudLj4b6TLGSUbzsHHXEzjNfNfzaq3dbFT9DMf8A4n+dfS/wxAHw70oAAAebgD/rq9fmWD/iu+9vuPUy/wDjPm3t922h11FFFemewFZXiVrxPD14bC8azu9oEVwsauUO4c7WBB/z061cuL6C2mjhkcebIrMiAjcQuASB6Dcv5j1rG1LWbDU9BuGsriOdCwTfE6su4MMjIPUY6Vzxx+FjiY4ec1zNpW9dvvObHupTwdWrDRqMmn6JnMeHPFOpy6nbabqdzDHqkpWSeKMDbIu/y968dCFBx1GRmvSa8vj0u11HWdKlmUia1vIpYZUOGUhhkZ9COCO4r1CvTxUFBpJd/wAzychxMsRCc5Sbfu6N3t7qenk/6ufKXiyKS/8AG2uCZSlrHqNwBGespEjcn/Z9B3r2j4Msp8IXgUg7dQcEDt+7jrxrxncyN401q0tMGc305ZzyIh5jcn39BXsPwRtktfBV3GmTnUHZmY5LHy48k14OH/ja+dkb4T/eNdN7L9T0miiivTPYCsjxPBFc+HLyCeNZIpFVXRxkMCwyCK16yPE88Vv4fuJJpFjTdGu5jgZLqAPxJA/GtKP8SN+6OLMr/Uq3Lvyy/Jnk8UyeEo7e0upZpdNklZIrmQ5FqDt2Rueu3O4Bj04B9a8Hf/j5i+jf0r6XngiuYZIJ41kikUq6OMhgeoIr5of/AI+Yvo39K+5ySNqVRdOaH/pZ8zkFRVJ1JNe9ywu+/uvX17/53OgW4kmhhtLQ/vPLXzJeoiGP1PtXv3wSt47XwVdRRjj7e5JPJY+XHkk9zXgsUkGn6bE23G8AhVHzOx9PU17z8EBcf8IXeNclfMfUXbYvRB5cfGe9fmz/AN9qW2vL56ns4L+NpotfmelUUUV2HtBWZ4g/5Adz/wAB/wDQhWnWD4zvJNP8J313HayXRi8smKL7xXzF3EDuQMnHfGK0ou1SL80ceYxc8HVit3GX5M811S2vbBxqGjRI5V2kurMAD7UCFBIPZwFGPXkd6+ez/wAe1x/vNX0xZXttqNpFd2kyzQSruR16EV8zn/j2uP8AeavsMqS5arXVS/JnzPD85OVSE1rFU157bP0+/p0R0lpdJa6TCSpaRyQka9XOTXv3wQSdfBd4bhw0j6i7EDov7uPgV4FpNtGlst05JcggFjwi56D09a99+CNyt14MvZEVhH/aLhWP8Q8uPke3+FfD4v8A5GuIt/PP/wBKZ7ODt9YfKu93+h6VRRRWh7IUUUUAVJP+Qvb/APXCT/0JKt1Uk/5C9v8A9cJP/Qkq3QB84/EyCGH4k6zdMfmYQ5Zj91RCnA9B3rq/gPcPdf8ACQSiPbAfs4iJ6t/rcnHp0xXHfFO2ku/iZqqzYFrGYSEB/wBYfJQ5PsPSu3+CEsbS6/ErAugtiyjtnzcfyrzKf+9d3d/I8aj/AL4+ru/ktT12ucsv+Ska1/2CrH/0bdV0dc5Zf8lI1r/sFWP/AKNuq9M9k6OiiigAooooAKKKKACud8ff8k78S/8AYLuf/RTV0Vc74+/5J34l/wCwXc/+imoA6BP9Wv0FOpqf6tfoKdQAUUUUAebXd1Bd6jfNbyrIEupYmKnO1lchgfcEV4v8VY44/GFoyIqmS0DOQMbjuYZPqcAD8K9T1vS2sPE+oazp24F3lN3aIOLkgNtI9HzgZ7jrXkfxF1K11bxDpt5Zyb4nsgORhlId8qw7EdxX1mVS/wBoinv7v/pSPg8qpJYznpu8b1Pk7LR/dp3+9LC0LaNQuWbGAucnt0r0P4Vzy3vxL0mWMlLRPOwccynyXGf93+deb6VbLdXs8bswj6so/iHHB9v8K9O+GdzGnxM0e1QEuRMSFHCL5L8n09K+b4k/5Gumr/8AtmfQyt9ZjbV6fJH0dRRRXOe2FFFZx8QaMLB786vYCzjbY9x9pTy1bOMFs4Bzxj1qZTjH4nYCfU/+QVd/9cX/AJGrI6CsnVdWsVtLq2+0AymJlACkgkrxzjHeptO1zT9Uu7m0s5mea1VGlUxOoAfO0gsAGztbpnGOavlfKpW0ZhDE0ZzdOM05K+l1fTfTy6nD/G22juvBtkkuSg1GNiueGxHJwfb/AAryDw1dEeOdCtoFDyf2hbmT0jXzF6+57CvXvjebj/hC7NbYL5j6ii726IPLk5x3ryLwhHBp/inQ13Y36lbgsx+Z2Mi9fU15eJ/jq+u1kebjP94V9drI+p6KKK9M9kKKKKAPK/FOo3umeOLiO8TzNMvHiS3mjXmCQoq7H9mPIb1OD2rzf4u/8fGhfS4/9p17F4iAOt3OQD9z/wBBFeD/ABE0660m50mza48/T1ExtN5JkjB2ZQnuBxg9cHHavpcrusRR7Xj+Z8LhnCpml9pKdX56W+/v33335HTVle8ZYXEblyAxGcfLz+OK7nwktvp/inQYwdobUrdRnkuxkXk+prhtNmFvetKys2HOFUZJJXAA/Gu28GW0jeNNFu7vBnN9AFQciIeYvA9/U15PF3++0r7cv/t8z38R/FjfbT5s+qqKKK4D2wooooA878fS65Ya1b6lo13cuI7cLPp4lKpMm5jlR0Eg9e/Q9q85+K2pfbvA8aR3bTRRX3lld5IRlSRSMdiORXrXiv8A5Ckf/XEf+hNXivxV0eC20g6lbs8RuJ1WeFfuSNsbDkf3gARnvn2r3sBBJxaXR/kfEvEynmkqc5NWmreej0f6P5PS1vOLaYwahbSBGkI3AKvUkjAroba2ZHa6umVrhhyf4Y19B/jWFp5A1a0JIAAfJP8Aumtj5tVbutip+hmP/wAT/OvN4z/5Gkui5Y3fyPYxW66K2r+b0PsWiiiuM94KwJta1SPxTJpo0of2atsJVvzKMGTOPL2denOa364/xNE+p3M+lWOv/wBn6jmO4xFsaVYgQD8h52kgjPqfwrwuIcTVw+FjKlLlbklfXRWeuhrSinLU1/Deqalq2lSXGqaWdNuFmeMQeaJMoDw2R61f0z/kFWn/AFxT+Qqvot7a39g81ncw3EQkZC8MgcBhwRkdwasaZ/yCrT/rin8hXflladbCU6lTdrX+nqRNJSaRR8WMqeDtcZiAo0+cknsPLavlJVbVHDuCtkpyiHgyn1P+z6DvX1b4sVX8G64jAFW0+cEHuPLavla5uXMv2S0wZyPmYjiIep9/QVGN+NW3/I8fML88eXe2/Y+waa/+rb6GnU1/9W30Neiesc/4B/5J34a/7Bdt/wCilroq53wD/wAk78Nf9gu2/wDRS10VABRRRQAUUUjMFUsxAUDJJPAFAC0VTsNW07VUkfTtQtbxYm2SNbzLIEbrg7ScH2pLHWNM1R5k0/UrO7eE7ZVt51kMZ9GwTj8aALtFUrbWNMvL6aytdSs57uD/AF0EU6tJH2+ZQcj8au0Ac54a/wCQ94u/7Cqf+kdtXR1znhr/AJD3i7/sKp/6R21dHQAUUUUAcz4u/wCXP/gf/steO+P9MurbRtQvbO4xaXHlrd2z8jKsoV09DwqkdCOeor0z4kaldaT/AGZeLb+fp6eaLzYCZIx8mHA7gc5HXBz2rhvHM0dx4BvZoXV4pFidHU5DAyIQRX0OT2lWors//bkfC5gqlLNZTW0p01+H57NfJnhB/wCPa4/3mrp/m1Vu62Kn6GY//E/zrmD/AMe1x/vNXWXNyyOtraqrXDDgfwxr6n/CuXjG/Nh7b8r+Wp9Bi73jy76/LY+qfCgA8H6IAAALCDAH/XNa16xvCKsngvQlZy7Lp1uCx6k+WvNbNeND4UevT+FBRRRVFhVSz/4+b7/ruP8A0WlYPj5dUOhQS6NfNaXsNysifMQkuFYGN8c7Tn8CAe1Y/g3W7nU7+2NwbiCdwzT2ssmWUgMvPPIyhwe4FbwoOUOa/f8AA8vEZpCjiFQ5bv3flzNJafM9Br4+ublzL9ktMGcj5mI4iHqff0FfYNfIAFvpdoSSTzkk8tIx/mTXkY6149Xr+gZla8NLvWy+4+jfhVCLf4baTErM2POyzHJJMzkk/jXZVxvwqaV/htpLTII5D5xKg5x++fH44rsq7KV+SN+yO+jf2cb9kFFFFaGpzvjG6gttOtFmlWMz3SxRhjjc2xzge+Afyrm7GOOXUrRZEVwLiNgGGeQwIP1BANb3j3TbXVvDos7yPfE8yng4ZSA2GU9iOxridB1BtM13SdG1S4aW4kdfJu3Xas5Dn5T/ALYUKT65OK9PDytRV9tfyPh84pKeZScH7yUbry5lqvTr9/e3r1fLHi+SDT/FOuNtxv1K4IVR8zsZG6epr6nr5X8S2pHjnXbmdg8n9oXAj9I18xunue5r57HW5Vc+mzK3JHm2v957t8KjM3w20kzqqyHziVU5A/fPgflXZVx/wsmjn+HGlSRMGQmYAjviZxXYV1Uv4cfRHbQ/hRuraIKKKK0NTB8Z38el+E729ljlkii8suIl3MF8xQWx6AEk+wNeca/PFc+DtVngkWSKTT5mR0OQwMZwQa9S8Q/8gO5/4D/6EK8U8S2kvh/w5qKaZZmTT7iK4+0RK3MBdAAyDoEBBLDtuJHTFepgW1FPpf8AQ+NzyEJ49R2lyx9Gufb17d72PFj/AMfS/wC4f5iuksLURxLdTPvkKDDHgImOAP61zZ/4+l/3D/MVvQJJqMMSOGSzjUAg8GUj/wBl/nXqcbfwI62XO/8A0lHsYu/KtbLqe/8AwRuVuvBl7IisI/7RcKx/iHlx8j2/wr0qvOvgztHg+7VcYF+4wO37uOvRa+Rw9vZRselhbexjYKKKK2Ogw/F7ainha8fSZ1gvl2NE752kh1JU45AIyuR0zXD6P4ju9Vt3nMl3bXUbeTcQySHdG687c9x82QRwQc969B8Qf8gO5/4D/wChCvL9a0y6ujDeabceRqFrlot3+rlBxuRx3B2jnqMAivRwkfc5rX1/Q+M4irP6y6XNy+4mnro+fr5fl96PRv8AhN/Ce3P/AAlGi49ft8X/AMVXgPxHlh1z4g6lcQXMFxpmYjG8EgdJiIkycjjAIIx6g15cf+PN/wDeP/oVdBa3MjWcVpa4M5BLOeREMnk+/oKefZTHCYSFWErt8u/TmU/y5fxPoMbUlKCS779vM+h/gyynwheBSDt1BwQO37uOvRa82+CNslr4Ku40yc6g7MzHJY+XHkmvSa8fD29lGx14W3sY2Ocsv+Ska1/2CrH/ANG3VdHXOWX/ACUjWv8AsFWP/o26ro62OgKKKKAMfVtek0qfyk0XVb8CPzXks4kKoMnjLOuTx91cnpxzVe58YafHZ6XPZQ3WpPqkZmtILNAXkjChi/zlQoAZc5I5IHWs3xprl7BdQaJa22qRQ3UZe61K00+a48mPJGyPy0b96cHk8KOeTgVXlii0PV/D2s2Gl376NDpkun+TDaSNNbgtE0ZMWN+P3ZU8ZHGaANhvGmmnRrPUIIbu4e8nNtBZxRDz2mXdvQqxAUrsbOSANp5rQ0TW7bXbSWaCOeGSCZoJ7e4ULJDIuMqwBI6EHIJBBBBrhLTTtS03+yfEc+m3ZQavfXk9nFGXnhhuA4Rti5JI+UlRkjcfSum8IQXL3WvavPaz2kep34lghnQo4jSKOMMynlSxQnB5xjNAEnjf/kA23/YV07/0shro64fxt4eshbwakJtR89tWsModRnMXN1EDiLfsHB444PI5rrf7Og/v3P8A4Eyf/FUAW6Kqf2dB/fuf/AmT/wCKo/s6D+/c/wDgTJ/8VQBbrx7V9Ol0bxNqWqWLMbOWWaW9s1XcWcbiHjH98kAEdDnPUV6t/Z0H9+5/8CZP/iq4S/VV1C6VSSFmdclsnhiOtdmEV+a3Y+dz+ooOhzPRyta17/j9z6Hz345vbbUfEup3dpMstvKsbI69CPKSqumWput6O5EA2mRB/H1wPp1re8b6nLpvifVba1ttPWJCrANYQuctGrEklCTkknmqNj4h1Ah4obexM0mNpFjCqqO5OF+nFfTZu6v9j1E0l7lPW/8Af9P10NaHL9Sp+zbtyq197WW523wzuY0+Jmj2qAlyJiQo4RfJfk+npX0dXz38N5nm8b6bbzC3zL5nmSRW8cLsRE5zuQAjp2PSvef7Og/v3P8A4Eyf/FV8DguX2b5e53Zdy+yfL3/yLdFVP7Og/v3P/gTJ/wDFUf2dB/fuf/AmT/4quw7y3XlniPS0utZuL2ELHqMDzLbzkcKW3DDD+JckHHqBXpH9nQf37n/wJk/+Krzg6laX2q6pbwO4ls7uSGWOTO9SGIBOeSCOQe4NdmE+0vI+d4gunQndq0uivvprqtHsdL8PNQn1DQJzd2jWt3DdNDPEeV3BEOVPdSCCD71xPx4knH/CPw2y/vJPtH7wj5YwPKyT788Cu/8ADVpHPp0jO0wIlI+SZlHQdga4X4zXSaJDo8ikMH84YnXzySPLwFD5wee3X8K4swT9++p0YRwllcHBaWWnz9f1OP8AhVbxWnj7So1PLGYlmPzO3kvkn1NfR1fOvwzuLvUfHem/b47dN5lKJDbxxtEPKfo6gMCe+D7V7/8A2dB/fuf/AAJk/wDiq5cHbket9TswFvZvW+v+Rboqp/Z0H9+5/wDAmT/4qj+zoP79z/4Eyf8AxVdZ3FuuB8VW8V3qV9bTpvhlQRuvqpQAj8jXZ/2dB/fuf/AmT/4qvOdb1L7L43udIuYJI1kCtZTly4mAjUupJ6MDuOD2rqwrtKXoeHn1PnpUmna009PJPzXr+J4j8RLK70/U0tbq7N0kdqot5X+/5W5sBz3YHIz3AHesSwuUtb3zHycxMqqoyWOVwBXcfFDVLiw1qKOGO0YGzVszWkUpzvfu6k446Vz2l63cy6iA8On4WJmBFhACDlR1Ce5r6nNOdZPVUl7vJDrr8b8v1MsDOM8BCT2t2t+Bs+DLaRvGmi3d3gzm+gCoOREPMXge/qa+qq+X/C+sXeqeMNHjiW2Sz+3Qq8iWsatJ84GFIXIH+0OfT1r6V/s6D+/c/wDgTJ/8VXwGD2f9WPSwC92Wv/ALdFVP7Og/v3P/AIEyf/FUf2dB/fuf/AmT/wCKrsO8t1w3iH/kN3P/AAH/ANBFdd/Z0H9+5/8AAmT/AOKrzbxQmpaZ4waS333emztHFLCeZIGIUCQN1Zf7wJJA5HAxXVhZNSk0uh4WfUo1KVJSlb34283Z6dDyn4naTbadqlhcW25FuxM7wg/IHHl5YDsWyM+uBXJaBtF3OzYwAxye3Ir0P4k6uYRok1mbSaKeOZg8kEcwI/d4Klgcde3X8K4zSdYu7u4kjkisAgLblGnQDcMjg/J/nFfR4nm/siorJK0uvp0t+pzZa1LLY80n11a10k/M2vCTyaj410J0LJZx6jbkEcGUiRf/AB3+dfVtfMega3K/jDRLBIbZmlvYFcR20aGNDIoJ3BcqcdMc5r6R/s6D+/c/+BMn/wAVXw2Dtyu2x6+X25HbYt0VU/s6D+/c/wDgTJ/8VR/Z0H9+5/8AAmT/AOKrsO8t1y3iXVJoL42MNwoVrcNJFgE4YsM+oB2kfga3v7Og/v3P/gTJ/wDFVxHjHSQutWtxZy+TcLGm+V1EjSRByWjLNkgHnGCMHmt8Oryel9GeXm8+ShF87j70dV67PyZ0vhzULq+Fz9pl37Nm35QMZz6D2rM+KcMc/wAONVjlUMhMJIPfEyGqPw/v7bXoL7es9vd2zIlxbGVkeJ/m4O0jIPUHoRVj4lWz2nw/1OazdvPXygpndpUGZUBJViQeCcZHXFZ42158umn6GeWe0eWr2km3aWr33fm/lrsfOlzcuZfslpgzkfMxHEQ9T7+gr7Br5QfWGsLcyPHZ5J5IsoQ0jfQLyTX1J/Z0H9+5/wDAmT/4qvNwPLZ8prlvLaXLtoZHj7/knfiX/sF3P/opq6BP9Wv0Fct47sIU+H3iNg9xldMuSM3Dkf6tuxNdSn+rX6Cu89MdRRRQA2QuI2MYBfB2hjgE9s15KLHxPZ+LvD8d7p2njUbv7a893HqDMZGZEDNjyhtCKFCrk8ADI6n1yigDynRr21v9K8BaDZAjV9Knia+twpD2gigdJTJ/dyxwM/e3cZqKG5hbwtYeE1J/4SOLXEd7fafMTbeec05/2DGC27od2Otet0UAVNRs5760MNvqFzYSEg+fbLGXHt+8Vl/SuX8Jafcwap4phk1e8ndNUQNNIsQZ/wDRLc5O1AO+OAOAO/NdnXOeGv8AkPeLv+wqn/pHbUAbH2Of/oIXP/fMf/xNH2Of/oIXP/fMf/xNW64vxB8TtE8N6tc6dfW98ZLcKXeNEKYKhupcdj6VM5xgryZvh8LWxMnGjG7Sv8i7d6lfW/iZdIUakYmtPtP23yk8kHeV8vdt+9xnHpXK6z4k1e58NjUf7L1DbBfGOa0uo1SVolDAyRgD5uxA7jOOxq6PFEvj3w/Jd+FbmTS7hZRGr30CsSoILEIGPBDYBPP061LrMd/JqMVyl9E2lCIxtbBAW8/d9/d6BQRj1/T5XD5hXnncaCqWi5Wtd9F6W16enQ4c5j7DL6spxu0tmcvq9/a3ngvUr+3Md1avYTSKCTtkGw8HBBHoeQfpXibatZedF/xINO5zzvn44/6616v4xtL6w0PUrnTAr2b2U0VzZ8KAGDkyp/tAsSR3HuBXib/66H8f5V+xZLTUo1Oa+jh1f8/qfO5K04ylFqzt0V17q0dkv8ux21xrEEci2tro9k85HQtLtRfU/P09q99+HFs0ngLTXiuJLZG80+VFgqp8184Lhm5OTyT1r51RINMtXkkckn5pJG+85/z0FfRvwqkeX4baTJJGY2bzjsPUDznxn3xX5vg3ebttb7z0svleo7bW37vQ6f7HP/0ELn/vmP8A+Jo+xz/9BC5/75j/APiat141458c+I9G8ZX9hYaj5NrF5exPIjbGY1J5Kk9Sa7a1aNKPNI+ny3LauYVXSpNJpX1v3S6J9zt/FryaPb2+qLbahqdzGTCiW0UbSqrsu7Hyjj5VJ/3RXN6hb/2SZdC0fTZoI3hN4l0IALVZd4G1iuDuPoD09RkVR8BeLda8S6pfnUtWjmtbGNUeMwon7yQ/LhlA6BGBH+0K6OGHVLbQ5oNY1GC8vDKzho4hH+73fKMe3HP/AOuvjamK588px0s50/XXl8umr3+193LnWHng8LXptpuMZbarZvrv2ehj+HL+S8vbOC7UWmpBkaWBWDFBvKhl9VJUkH6Zr0r7HP8A9BC5/wC+Y/8A4mvNk0eC+8QaTebnhu7W6jZJo+CV3Dch9VYcY/GvVK/QsWmmk/P8z5fh6pGpCco6fDpa1vdX3rt16HzJ4ovbDS/EetF9NtnP2+fc7GTfK5kPOAwGT7AD6CvUPg/9ovvCNzMcWGb5x5Fv8wA2JyS+47voccdPXyHxNas/jrXLm5YMy6hcCJR0RfMbn6n1r2H4KXEdx4PvjEdyrqLru7EiOPp614WHles1v5nXhJXxDW+92d79jn/6CFz/AN8x/wDxNH2Of/oIXP8A3zH/APE1brD1nxhoPh+8S01S++zzvGJFXyXfKkkZyqkdQa9GUlFXk7Ht0qNStLkpRcn2Su/wFvZbu1vre2S4vGWWKSQzbI9iFSgCk7ep3kj/AHTXLzX0vinwlcLqlhfw287mGS0vokUkK3DHAyBwCCO+PrVzUtfTxZZeV4S1uGK6glRppJbViAhPIwwHUA8j9M5qHVU1E3z3i6lb/wBjfZxEbbyxuM/mABt/6Y9a+Rq5hW/tqFCNT3HOCtd7aXW1vev36dDPM6VShgq3NFxmoyeq12bWjOWF+NFnt7G/cLDPIYrSYbioAC7UkZiTvOWwc87fXivE31ay8+Mf2Bp3Rud8/HT/AKa179e2VtqNpLaXcKzQSrtdG6EV82P/AMfMX0b+lftGTUU6dS7fxQ6v+f1Pj8irqrKbt73LC+i19166L+vmdpZ3Fq0cVzNpFh5gTCbXmwi9usnXHevaPhBOmq+FLya0drSJb949sAyrkJHlgX3HvjrjivAIPM1GCOEbktEULI3QyEDlR7ep719C/BhVTwddKoAVb5wAO37uOvzuTtjZp73fy1PYwkn7e0t9fkd19jn/AOghc/8AfMf/AMTR9jn/AOghc/8AfMf/AMTVuqN7rWladMIb7U7O1lZdwSedUYjpnBPTg/lXU2lue1CEpu0VdmV4kv73QdPhuYF1PUGkuEhMVtFGzKG6sRt6DvWPqmsXrajLpEkGoPB9mE5uzEnkE7wNm4DO7viugm13SL5BFaarY3EgIJWK4RyB0zgH1IH41yN7c6loXg+SXXL9NQuYH8yd7a32kxF8AhB2UEEn0U9etfL4nMatPOKVGM7R5oJq71u1+Xr1M8woTWBrLl97lla68n3Ofv0m0GJrvSrBJbdpmmvYIwfMbIALxjOMjGSuOfr18SOrWX2ec/8ACP6dwW433HP/AJFr6GgniuYUngkWSKRQyOhyGB6EGvmM/wDHtcf7zV+tZXRi41Xd7S6vsz5PIcROrKoppXShrazenX0/4B2NleQ3tsIpNDsUtAOnmTfOc54/edPr1r3X4TqLrwtctbt9iRb1l8q3wVz5cfPz7jnkd8cCvnq1unWxgtrYB7lgTz0QZPzH/DvX0D8EbZbXwXdoGZ2bUHZ3bqzeXHzXxWMus0rJ7c87fe9f63PYwsm8RrpvZfqd/wDY5/8AoIXP/fMf/wATR9jn/wCghc/98x//ABNW6K0PWM27iubeEOt/cE5xgrH/APE1zOn+JNSvdKsb57HWYHubtLdrWSBBLEGk2eYw28KB8xPp7c1t+KrfVbnT7ZdIvorOZbqNpXli8wNEM7lA7E+v8utZ1smonxOl5/aVudGaFY1thGN3nb/vb/pxj1r47Nswr0MxVOFSyfLpr81t9q/4dDopwThexsvazf2nAv264yYZDuwmRynH3f8AOKtfY5/+ghc/98x//E0Sf8he3/64Sf8AoSVbr7E5z50+JWpLb/EHULCKyt7y5XyjJPOXG1TGhy2xlGewAA6V13wbhikXWltI1scGFnMBLGQnzOWMhbpj9a474qSw2fj7V5nAG4w5wOXPkoAPc11fwHFw3/CQTXB2mT7PtiHRAPN/M8815tKTeI00V38zyKMm8U0tFd/N6/1/w56x9jn/AOghc/8AfMf/AMTWHpkbRfEXW1eZ5T/ZdidzgZ/1t1xwBXT1zll/yUjWv+wVY/8Ao26r0j1zo6KKKACuZ8W+LG8MzaZCkNixvpHj82+vvssUe1N3L7G69Bx1rpqyNbuLm3NuYPD8mrA7g3lyQq0XTH+sZQQeeh7dKAM+48T36DS7O20y1u9Wv4pJxDDfZt0iQjLmby8kHegGE5LegzUI8bGfTLBrPTHk1a8u5bIWEkwTy5Yt3m73wcKuwnIBzlcDmsTSPDmueG7mw1mDS0uH/wBNjl0u2nQG2inlWVFjZyqnaUwRkD5jjpU1v4b1rTodM1tbNLjUotTu765sI5lHyXAYFEdsKWUFOpAOG56UAdV4f1xtagu1ntDZ3tlcG2urcybwjgBgVbA3KVZSDgdelVPHzAfDzxKCRn+y7njP/TJqXwrp19by6xqmpW4trrVLzz/swcOYUWNI0ViOC2EycEjnGeKzfiN4d0S88HeIdTudHsJtQj0ydkupLdGlUrGxUhiMjHb0oA7JCPLXkdBS5HqKqJplh5a/6Fb9B/yyFO/syw/58rf/AL9CgCzkeooyPUVW/syw/wCfK3/79CuUltrk67FeJc6eujJAyTWxtULNLu4bfjgDpj/I8zMc1oZfy+2v717W8rab9b6FwpuexnX8scupXjRurgXEikqc8hiCPwIIrxH4oWkNv4xt3ghVDNbCSQqMbnywyffAH5V6lqdte6brVxqUVxJNabX+12mC3KgkNCv8JJAG0cHPqK838f8AiS6OuabLo+rXCWc9kJB9nmZVY7nGSAevGPXivusoqyqVYSilryPV/wB5eR8JldKEMXzU5NpufTrpo9fLTvucbpZuEvJxbx7pH+UFui8Dk16d8KbVLTx/pYyWdzKXkbq58p64XS/E+rJc3L3OsXxjReA1w59Ogz1rvPhnd6lqnj7TjqV1cSW8glC2kkpZMeU5BYE4JyAfavA4iu8y97TX7/efofQTS9vHW2q+f4n0XkeooyPUVW/syw/58rf/AL9Cqeqw2GmaRe3/APZ1vJ9lgkm2bAN21ScZxxnFczdldntRi5yUY7s1cj1FeePp+kLef8Ir/wAI0W0u4ia7klEA+zb9/wB0n+/kA/l+HLf8LksHvPs8Pg63k2/61/tIAT2/1fJ9q6U6Nrv/AAjs9n/a2n/228peG6+xrtWPeONnf5eM+/418jxJVoz9jepy79+trS6bfqehPA4jC/xY2vdbp7b7X7/p0KEWu2+q6nfW4t5rS5tpCj21wmxwo4VwO6sBkEcV2HhHA+2f8A/9mrl9bsFub2Mw3MkDW8qPm3bar4xuVl6EHkYPT61f+Ht7DrS6jBqFikWoWZjWeCRQwUndhlJ6q2OD7e1fa4OX/CZSSWnJC3pZfj8z87wtKlLN3Upt3VSpdWWjtr12+Xk+l63xsuI7bwVayOeBfoABySfLk4A9a8e8G20svjXRLu7XEgv4PLj7RDzF/X1Ney/FhF03wtazWKi1lN6il4PkJGx+CR24H5V5H4a1rU9U8ZaPbJf3LWQv4FnZpCRKPMXKAHqOx/KvHr29t22PbxNvrHba7PqDI9RRkeoqt/Zlh/z5W/8A36FH9mWH/Plb/wDfoV6R65ZyPUUZHqKrf2ZYf8+Vv/36FUn/ALHj3lrS32qxUt5a4yDjr9eK5sTjKGFSlWlypjUXLY4TxLq81j45uLO/iVbO6aNbK5T7u/y1zG/oxOSD0OcdRXmvxdBNxoWBni4/9p167rAhGqT+TGI4/lwoGMfKPSvF/HF34h0G506y/tO4Nt+9MNykxWSVfk+WTHVl/vdw3rmvqcpqOdWjOGqlyNP8V0PiMPGhPM3JO0ozqXVt9LO2vp672RxejAjU+Qfvt/6DXX+FJJb7xtoZhLJaR6jATIOspEi8D/Z9T3rn9O17Wrq9MMmtajsLnpdOOAM4612Og67ev4v0Oye7ubjz76BXiMpI2GRQxbJ6Yz9a83iq7x1PmWvL6/bn6HuVlH26tvp/X9bH01keooyPUVW/syw/58rf/v0KP7MsP+fK3/79CuE9os5HqKMj1FVv7MsP+fK3/wC/QrLlNrGzxLpdi06scIWABXdjP3MjjtjrxnvXHjMfh8HFSxEuVPbRv8ioxctjkviE+paf4gt9Vs991aLarHdWS8ttDufMj/2hnkfxADuBXn/xXdJfBsRjYOBeBSVOeQkgI/AjFeoa21u94ptooo0EeCI8YyCc9O/+FeVfEsajpOnDU9P1a8t0mkWOSFJWADBWIZTnKjAOQODweor6TKqyrU4VaOsZRdt1080fES9jLNZRk7SU1030dlv6628vTzC1t1uNStYpVJRt2R68ZxXQXNw6MtraoGuGHAx8sa+p/wAKoQeIvEL3tukWr3rM24Ye5fb06nnnHWt4a1qFhZlp9XvWC8s7zsST7c/oK4uMNczftN7R0WvT5Hs4rl5o3d+y+bPq/I9RRkeoqt/Zlh/z5W//AH6FH9mWH/Plb/8AfoVyHuFnI9RXGeJpLXR9Qn16HQZ77Uf3dqWtIg0zRkg/98gnn6enNcf/AMLZsP8AoUbf/wACB/8AG63NEuZ9duItfb7Fa6NPbmNbDy1ZkmWQru8zAzkDGMdT+J+Y4hxGHqYWKctOZaa66PTpuevWynG4Ne0rwsnpunr8mzsdA02w0nTZLfT7WG1hMrSFIlCgscEmrmmEf2Vac/8ALFP5CvPrX+0dMDWeo3ljeXeTKWjtEXbGzMEBGD2UjPt361ueHAl3eNDcQQSRrCSAYVzkEDrjJr38qw0v7PpzU+ZW3111Pk551Q+uPC8r5lJR2VrtN99tOxr+LgzeC9dWNwrnT7gK2M4Pltg18shYNLtCTuPOSTy0jH+ZNfT/AIotLOz8I61dRWkaSQ2E8itHGAwIjYgjHfivm211XW3c3Fzqd4rMMLCLhtqD355PvXPjbXXM9PzDMeW65np+Z9Y5HqKRyPLbkdDVf+zLD/nyt/8Av0Ka+mWHlt/oVv0P/LIV6B6pk+Af+Sd+Gv8AsF23/opa6Kud8A/8k78Nf9gu2/8ARS10VABRRRQAUjKrIyuAVIwQRwRS0jKrqVYAqRggjgigDzK5/dWHxPh0nYkwUeQkGAf+PGL7oHfr071Ym+w/8JB4a/4RjyPM/sa6x9mx/qNkfl7sdt+3Ge+feuwsPCvh3SrpbrTtB0uzuVBAmt7OONwD1GVANWbHR9L0t5n0/TbO0eY7pWt4FjMh9WwBn8aAPONI/s7+yfhp/Zfk/b/MXzPLx5mz7NJ9o39/v43Z/ix3r0nUY9QltCumXNtbXORiS5gaZMdxtDof1ptto+l2d9NfWum2cF3P/rp4oFWSTv8AMwGT+NXaAOM8JQ6suqeKVub2zkuBqieY8dqyKx+yW+MKZCRxgdTyCe+B1Hl6h/z823/fhv8A4usfw1/yHvF3/YVT/wBI7aujoAqeXqH/AD823/fhv/i6PL1D/n5tv+/Df/F1booA5PxQtwPsvnyxPnfjZGVx931JryzxlbDTvD963kz3GnTmJZoUuFjFuFKhTGCh4JVQR+Q6mvRPiNq7aM+lTzQFtOYyrczryYD8m1iP7vXJ7cVw/j1lfwJqDowZWERBByCPMSvfymMZ1qKv17v+ZHxGYVKtLM3ouWU6a2T6d97rdddujPHDcaB9nn/4luo4y2f9PT/41XSq2h6bbySNbXnJ3PI90pZz/wB+/wBK4Q/8e1x/vNXUwQSXUy3V0u3bzDCf4Pc/7X8q5eL4qDoa6cr8+vme/i5WSvt8vI+ovC/2yXwloskUkUUb2MDJHJCWZAY1wCQwyR3OBWt5eof8/Nt/34b/AOLqn4V58H6IR/z4Qf8Aota168iHwo9aHwoqeXqH/Pzbf9+G/wDi6PL1D/n5tv8Avw3/AMXVuiqKOb8SpdLp0ZmmhdfNGAkRU5we+41zOkaTHP4usNSicxXsKyRhxnDoUb5XGRuGTkeh59c7vxDXUv7Agl0pozcQ3SyGGThZ12OCmf4Sc5B9QO2ax/BeoR6nfWV1GkkW/fuilXa6MAykEeoII/Cu+kouhZ+f5M+Rx0qlPNlKDVnyJ6K+so6PS+q2/wA0d15eof8APzbf9+G/+Lr5ZiXS5pUu7iwvVlA+WM3isI//ACH1r6xr46kkfUZGhhYraqcSyjq/+yv9TXhY1tctvPU9zMHJctvPX7vzPpH4cvJc+A9Nl0+aJLUmUIsiGRhiVwcsCoPIPaup8vUP+fm2/wC/Df8Axdc38Lo0i+HOkxxqFRRKAB0H7166+uql/DjbsjtoNOlG3ZFTy9Q/5+bb/vw3/wAXR5eof8/Nt/34b/4urdFaGpzPidp4rCAXNzbkSThUVYyhZtrHAyxzwCce1cnK1nF5d3f+WLezlS6LuhcRmMh9+BycYzxzXT/EDSrfWPD0dtOXQrcLJFLGcPE4VsOp7EV5nqWoyW/h+/0jVZ0Optps7rIq7UnADjK/7WApK9t3pXrYGCqKMJ7N2Pi83lJY+Uqe6Ubqyv8AEtb9u/b8ux/4XD4RCM//AAlFttU4J/sy5/wrx7WdR0jxBrmpzJb3slpLdSP9ojuBEJ8uTwjRlgp9zntXnTf8ek3+83866j7UYrW2ggUSXLxrtXsox95vQVhxDl1PB0qcqV25WettL38vI+gxlWTSstb/AHeZ9I/DuOX/AIQPTBYvFBbASBI5Iy7L+8buCoPOewrqPL1D/n5tv+/Df/F1zHwqjeH4baSkkhkcecWc9yZnNdlXmUv4cfRHfR/hR9EVPL1D/n5tv+/Df/F0eXqH/Pzbf9+G/wDi6t1Vu7qS2ZNsSuGVuS+MEYwOh468+3eoxOJpYak61Z2it3+HQ2ScnZGJ4svZNK8M3d7f3MX2WMx+YUgbKguoz944AJyTjoDXCa88TeGNTkfMsBspWPlsAWXYehwQMjvg122pX97e+HGjvtPtoZZTtniS4MqqueMEou7PGQQOp6458p8QRHwx4Xv7W2gmn0yeGdODuNoXQBFA/wCee7d9MjtXoZPjKGLp+0oy5oqVtL72/wCDufJZ4v8AblBL3uWL1S1XP3fXy6+u/lpuNB+0r/xLdRzsP/L8nqP+mVbq6hpSx29vBYXjytGp2/a1+RcdSfL/AKc1xp/4+l/3D/MV0lqLfT9OEzHaGUO7HkkkdP6AV7nGUI06MbXfvvdt/ZXc9PFSso6Xfoe8fCC28rwndjTnMUbX7tJ9p/fOz7I8nI2jGMDGO1egeXqH/Pzbf9+G/wDi64D4IPPL4LvJJ4xGW1Fyid1Xy48Z969Kr5Wi26auenh23SjzblTy9Q/5+bb/AL8N/wDF0eXqH/Pzbf8Afhv/AIurdFamxznik6rD4avJYfs9zIgUrCFMRc7hxuJYD8vy61w+k6rBrFl9pgDoQxjlikXDxOOqMOxFekeIP+QHc/8AAf8A0IV5brFlfKyX+juq3cJLPbtwl0CACrHs2FXDdsehr0cInyc3n+h8XxDUj9ZdNpJ8is2l/Ps7p6flu/Lw43GgfZX/AOJbqONx4+3p6/8AXKt+1u9CtNME/wBhvEViePtSlmOcAf6vk8VxR/483/3j/wChV0ml2gaOO5lbeVyIlPROeT9T616fFMIwy+nK7/5d9W+lTv8A0j3sXJKF33PfvhCZ5/CNzJaqLVGvWzFOfOYHZH/Eu3tjjB5zzXf+XqH/AD823/fhv/i64L4KXEdx4PvjEdyrqLru7EiOPp616RXy1C/s1dWO/DX9lG6scxpizL8RdbE7o7f2XY4KIVGPNuuxJrp65yy/5KRrX/YKsf8A0bdV0dam4UUUUAFFFFABRRRQBznjf/kA23/YV07/ANLIa6Ouc8b/APIBtv8AsK6d/wClkNdHQAUUUUAFeOapa3GgeJdTvYZC+jzTTz3cLkk27/MxdO5DEcr6nI717HXnmp/8hO7/AOu7/wDoRrswkb83ofNcRVXB0FunLVf11XRnz34/niufFWqTwSLJFIsTI6HIYGFMEGq2kzx20FzLK21FC8/nU3jqyttP8UavbWkKwwqVYIvQFo1Y49OSag0e3jmlaRxuMWCoPTJzzj1/xr6nOv8AkSVOb+Sn/wClmtLk+oU7X5eWPrsjvPhVFLcfEnSbu5BTHneVDn7gML8n3P6V9K182/DC6af4n6XFAoaKMzCWQ9M+S/yj1PrX0lX5/g7+zd+56WX39k79/wDIKKKK6zuCvKPEWlLJ4gudUtAE1KEzJGSSFlB3YSTHVQ2D7Yr1evM5tQtb/U9R+zShzBeSwyjujq5BBH+cjBrtwaT5k+x81xFKcHQnH+bX59H6nQfDzVBq3h+eUwSW88V00VxBIPmikCqSM9xgggjqCK4344QRyTeHpXXLx/adpPbPlf4V6D4UAGmSkAczkn3+Va85+PEMtz/wj8Svshb7R5pH3iP3XA+vPNcOZJ++mzowbjLKYOPuqy+Wpx/wuunuvibpQgA+zxmYPIf4z5L8L9O5r6Tr5x+GMkFv8RtFtVwpYTBEUdAIX5+lfR1cmC/h6LS53Zdb2TsrK/8AkFFFFdh3hXn/AIstYr3Ur23lB2yKE3KcMuYwCQexwTzXaf2jFux5cmMdcDH86881fXYp/Gd5ps0MltMQr2xkxi4QIu4qR3BzkdcYPfiMrzLCYmrKnSqKT5X+h4XEVKr7GlKK2qRf4M8P+IkOo2+ppb6lMtw8VqqRTjhpY9zYZh2bqD9M96w7G3+1X4iLssZjYuF/iGV4/lXWfF3/AJD8P/Xiv/ob1ydjLLFfAQR+ZK8TKueg5Xk+1fdZomslqpfyU/8A0tmWXzlPL4SVk2vRf8A7Tw1cR2/jTw/bRJuka/twEX+FfMXJPoBX1PXyx4MtktPFmjM775ZNQt/Mlbqx8xQPw9BX1PX51gbcrsehlvLyS5e+4UUUV3HpGFH4qsZfEM+iiC8FxDbrcNIYcRFScYDZ5Pt/ga5F9bt/ETNqlpFcRQTEhUuI9jjb8pyvblT+FXB/wl//AAjlnn+yP7a84faf9Z5Hl7jnb33bcdfesLXbjUdM8WySOGutLvHjj+VfmtJCqqPqjHGfQn0rweGc5r4vFVKVazSi9u6aTfo76Hj8S4fmoUuV6+0jv10enr/W55d8SNHi0i/0/wCyyMtpOJ3S1/ghfMe4r6Bsg46Ag461x+kvOs8ot0DSOWUE9F5HJr0H4ssry6E6MGVkuCCDkEfuq4HRp47aa4llbaihv5iv0/EpLJppLpL/ANtPPyqpOplkJS1ev/pT/rzOz8HQRWPirRdz5d9Rt98jnl2Mij/Ir6nr5T8HQSXXjXQ7u6Xbtv4DDCf4P3i8n/a/lX1ZXwOC2ld3Z6+XfDK7u76hRRRXaeiFcd4rI/tSMZGRADj/AIE1djXnXjrSppPFNjqllcGG4SFIp0bJSaHexKkdmGSVPqcdDXRhm1N27M8bPIxlh4qTt70fzM6bx3ongCR7nUrO7llv1Ch7SNGYiMnhtzL/AM9OOvU1heMfjR4c1/wzeaRa2eqx3FwEKNLDGF+V1bHDk5OMDjrXD/E3VrbWNM0qe33KytMksMgw8Tgx5Vh2IrjtOAOtW2f7r/yr38XluGnl1XFNPmUL7+cl+SRyZO5wyyMKi2Uk/vZt29vJLMLu7GJP+WcXURD+p96+wa+OpJH1GRoYWK2qnEso6v8A7K/1NfYtfE4K/vX8tO256OXX96/lp23Od8ff8k78S/8AYLuf/RTV0Cf6tfoK5/x9/wAk78S/9gu5/wDRTV0Cf6tfoK7z0x1FFFABRRRQAUUUUAFc54a/5D3i7/sKp/6R21dHXOeGv+Q94u/7Cqf+kdtQB0dfNnxStpLv4mar5+PssZhKxj/lofJQ5b2HpX0nXzx8TiB8QdVJIAHlZJ/65JXFjpONNW7/AOZ9NwrSjVxslPblfz1jv5Gj4I/sfQdDuvFd3ZXEt5HN9i326tI/ltsIGwHH3jnOM/yrY1y90rwTHHpOm6TdeTJI2oXTRhnWOMkqz5JJJDFcqOi5Pbmj8I7nVbq2upIltRoXmuAzbvOebCcjts2/jkV1n/E4/sdv7c+x/aftTeX9k3bfK5253d8da+Ry9yWeQjKWvMvteWmn93W/r0PD4xqU5UsVO14/nt1/J/mcx4iniufBOrzwSLJFJp8zI6HIYGM4INfPz/66H8f5V7R4sgu9F8PagNOtlk0mSyniltoxhoGYOfNX1XLfMOwAI6GvF3/10P4/yr91yR3jUv8AzU//AEs+JyKmowm4u6drd/gW/ZnSwQSXUy3V0u3bzDCf4Pc/7X8q+lPhg6yfDvS2RgwzMMj1Ezg181SyyX0rW1sxWJTiaYdv9lff37V9KfC2KOD4b6TFEoVFEoAH/XV6/MsH/E17bHqZf/Fd97bdldHYV81/FWeWb4k6raWpKsPJ82XHEYMKcD1Y19KV88fEwAfEPVSAOfKz7/uUrbHNKmn5/wCZ97wtTlUxkop2XK797XWi7ev3a6jvhzpGjanDqHh/ULOSeCURXIHzBcxseWYEckuPrz6V12oLZ+I9On8TaNaywazCpsoZbyJ0BVJQzKVzja2CN2Mjd68VzPw+m1V7PW4tAayOoI9qWF3u2BCZM/d5zgGvQ9X/ALZ/tE7Psf8AYv2b587vP87eMY7bcfj1r4yEpPOqS5re/D7X+G+n97T1scPF7hB4pwSsoPpppDb5HN2niH7Ppb6vLZtHc2cTXMtlI4VwULcZ54JRgGxyOayP+Gjv3cjf8Ip9wnj+0euP+2VO8Y6Ot1pV5qVvM1veW9pKrSLyJYtpLRsO4POPQ814Of8AUXP1b+Vft+CwFDE0pSrRu1zWd32b6eZ+fZBKKjOVN78unb3V951+p6pJ4o1a8vIo2tre6meaXDZILMWManAzjOCcCvdvgvGkXgy5jjUKi3zgAdB+7jrwBLoW9haxRJ5lxJGuyMfTkn0HvXvfwQgeDwXeebKZJX1F2du2fLj6DsOK+Apq2Jklok3Y9HB3de+y1t5+Z6VXg/xvu1tfFln8peV7FBHGvVj5kn6e9e8V4X8ZII/+E3tJ9o8z+zkTd6DzJDW2Mt7LU+44aVR49Km7Oz17f8EyvhtcWmgDVNd1OK4uLsmC1Bto2fYsjH5Qo/hyq89ePfFdnf6X4ctLObwVb6fcxRSQm+BUOUUmQDIkJ4YHkenFY3wn+1fb9S2eV9k8pPNznfvydmO2Mb8/8B967OH+2/8AhHn/ALb+w/bPNO77Ju2bN3y43c56V8TGalnVNSf26el/S2lumv3nNxfD2P1r2eloPXrfkve/e5yen3k+mPb6ZrN0slxK7pa3GMeeqhSN3YPyRjvtJrwB/wDj5i+jf0r6P1LTbXVrKSzvI98T4PBwykdGU9iOxr5wf/j5i+jf0r99yRNUqi6c0P8A0s/NsgnCc6klpJxhft8L1X+X+dl0f2oxWttBAokuXjXavZRj7zegr3r4IW5t/Bd4GkaSRtQdnc9z5cf5DivBrOOCxsftDtjcod5GPPTgfQdAK95+CEss/gu8kki8sNqL7FPXb5ceM+/Wvzb/AJjaltry/M9nA/xvd21+Z6VXh3xndY/Fls7sFVdPQknoB5kle414L8bLQ3Xjex81gbdNPjPlf3m8yTr7DjiqxiTpan3PDUpxx65Fd2f9PyML4c6Va+KPEUy6nbeZYR23mwxsWUs6yIQ5wQceg755r0qFtF12P/hKraxuo72WM2IknjdGCK+SCucAZB5/D2rz/wAC/wBs/wBtyf2H9j+0+SPM+17tvleYm7G3vXpPiTUNR0uS5vLprRfDsdum9gGM6zGVRk9tgByT25r451H/AGzQ96y5oddldXVvPT7jPjOjJRrw1lJ03824vb9Ecpcr/wAInGJ7K1Z9JaV5LuNMlrcNt+ZF/uAhiVH94kdMV4Ef+Pa4/wB5q+nlZZFDowZGAIIOQRXzCf8Aj2uP95q/b8qjaNW21pfkz8y4fq+0lU5l71qd3306+Z0untBZ6ULh8JuyXbuxzgV778EHnl8F3kk8YjLai5RO6r5ceM+9fP8ApdoZYop5m3qmfJTsvPJPqa+g/gtPHN4QvvLYNs1F0Yj18uP/ABr4fGW/tavbX35/+lM9nCW+su2r11/Q9Hooryf41arrOn/2HDpF/dWXn+f50sEzJgDy8dDyeTj05p1JqEXJn0WEw0sTWjRju/8AL+v10O78V6zbaJp1vNdQ3MqT3SW6i3iMhDPkAkDoPeuTs7Lw1pd5b+FYNMuUh08JqsYAcxqyy7hhyeW3c4PFcx8NNW1W91ya2vNUvruJLNmVbq5eUbt6DPzE88nn3rq7l/F0fg1pJItLm1pWLSxxs6xPEGOQpPIYrxk8Zr4PMq8auZxcXbWH2ra9Ha3TX7zrzLA1MvUqUmnJRv5beZ0MniWzN7FOIbgqkTqRtXJJKkd/Y1lH4weCYnEN1qslrcjiS3ktZS0TD7ykqpXIPBwSPQmud0nVrbWLT7Rb7lZSUlhkGHicdVYdiK8G8S/8jjqX/X1P/wCh1+yYDKMPinLmbSTjs+7S7PufB5RmuLr1HTxCV1G+1tbtfodt40vtP8ReOr/XLC6+12cvli2YoyBdsaq3DAHO5SMkV3vwLukuZPEIjBKIbceZ2Y/vcgfSvELATXlmlsm6OBS3mydC3zE7V/qa9z+ByRxJrcUYVVUW+FHYfvK+Nq01SzCdPe0pJeiud1F3xd5b3fy3PXa5yy/5KRrX/YKsf/Rt1XR1zll/yUjWv+wVY/8Ao26rtPaOjooooAKKKKACiiigArnfH3/JO/Ev/YLuf/RTV0Vc74+/5J34l/7Bdz/6KagDoE/1a/QVl+Jtb/4Rzw9dar9n+0eRs/db9m7c4Xrg4656VqJ/q1+grlPicQPh5qpJAA8rJP8A11Ss6rcYSa3sdWBpwq4qlTmrpySfo2rnJH42gAk+HwAOpN7/APa6uy6L4XjaTwS2l3BttQV76RV8zyid4JzJnIOQOM9h68+D/Nqrd1sVP0Mx/wDif519DH/hL/8AhHLzH9kf215x+zf6zyPL3DG7vu256e1fEZ/Wqt0uadnd9bWelnp238j6HOcHhcPySwtO0XfW7d7W7t6a6Pr6WbpymMyv5Qwm4hQRjAz0rxL4l6fa2Hi+D7LEIhPB50gXoXLMCcds4H45PevULq1utA1q9vUkD6VM8095CSSbeTDMzx9yrEHK+pyO9eafFCeK58T6bPBIskUlirI6HIYFnwQa/Ychd3SvvaH5o/Gcrg4Y68HeLdT9NH5r/gnM6JEkuozF1DbPmXPY4HP616P8MLpp/ifpcUChoozMJZD0z5L/ACj1PrXmmlxSz3lxHHL5Yb77DrtwM49+len/AAvNva/ELRbZNqbvOCIPaFya8HiS39q93/8AbM+gnb6zHq9PkfR1Y3i5S/gvXUVyhbT7gBh1H7tua2ayfFP/ACKGtf8AXhP/AOi2rln8LPocMr1oJ91+Z8u29vHbQiKJcKPzJ9T717TJrHh54ZPHLabqBuLRWsN3kOJdnmYIEecEbjnP1+leHXV1I0v2S0wZyMs55EQ9T7+gr6Rf+2f+Eij2fY/7F+zHfnd5/nbuMdtuPx618Bnj5fZuXW/W11pdbdT7TiacH7KnTWkbry6aL06nNoumWt7eabppVBbSb5YcncjSjzTnPPJcn9O1dZ4QRQ964UbiIwWxyQN2P5n864fUtGvLnV4tSupYbbVoZiryWoOyW338RsD1+TH0bkVFp3xa0TwzayNqlnfrdOSktrCiM8DJ1DbmXg7gVIyCK/TMuhVq5dSpr3pOnDzvZXb+7U/DsNTj/bHtKeyqVb+Tt+T6fc/Pa+N8DXPguziEhRDqKb9vUr5cnAPbtXkXhiaG08YeHraNPmbULdUjQdF8xcn6Cum8f/FfR/F+hW+m6TYaiLsXKzL9ojRUwFYclXP94Hp2Ncz4LtRb+L9GllfzLiS/t98h/wCui4A9B7V42YUKlDEqFZWemh7uLaddNvTSyPqemSyxwQvNNIscUalndzhVA5JJPQU+snxT/wAihrX/AF4T/wDotq7ZOybPeow9pUjB9WkH/CU+Hv8AoPaX/wCBkf8AjXG31l4Y1O9ufCr2M1xb6hv1V3QuYZC0u4sJAepbnA4xXh11dR2sW98kk4VV5LH0Ar2rRD4rb4c2LWy6WurGKMwLKXMQh4wGxzu2dccZr4zP8VOpSp68vvaa216P5H0eaZPRy+yhNyb3Vtl/wTLPiqG98QS281tLawzuUsZZl2+cU+R1IP3W3KxAPVcH1rhvi7/x8aF9Lj/2nXq2uW0N1estxEkgR45F3DO11wQR7givE/iH/akFzpNjqX777OJvJvBx56HZjcOzjHPrkHvX6Zwy/wB1hLbONO3ltp/wT8goxhPNnKOjVSrdd9LXX6r5rTbkdNaVbxjAgaXeQoY4H3ep+nWu58GWyWnizRmd98smoW/mSt1Y+YoH4egrh9LljgvmllYKisxJP+7XZeD4pL3xroV1cqUjXUIDDCe37xfmb39B2rn4uv8AXafbl/8Ab5nu4i/tVfRafPy/r/I+ragvby306wuL27kEVtbxNNLIQTtRRknj0ANT1keK1D+DtbVgCp0+cEHv+7avOk7Js9+lDnqRh3aRjRfFLwbPEssesEowyCbWYZ/NKxLnWPDYabx3HZXssnzWCzRwuXePzcDCdNpPOcZx+VeLEhQSSAB1Jr3Hwy+ryW+juhsm0JtIhII3eeZio/Dbt/HNfE8QYuVSlDm0V3s7XXVddz6jNsloZdTg6cm5Pe9vvSt/mc5rViPBV8s+mWpOiSKXvIE3M8LlmJmXJJI5AK9gAR3rm/i0QfB0WCD/AKWv/oD133/E5+b+3Psf2nc3l/ZN23ytx253d8da8s+J2lTafozzQXBOn3N15r275JjmKuSyHsrZYkevI6mv0XhnnWCoOUua8Xre/wCJ+OVXCpnE0/daqL56P8fz9d/PrWaO31G2llbaih8n/gNbsEEl1Mt1dLt28wwn+D3P+1/KsXT1DavaBgCPmPP+7WzLLJfStbWzFYlOJph2/wBlff37VPGX/I1lb+WOvyPZxXxK2mmr8rs+xKKKK4z3j4+uLiS4mNpaNhh/rZu0Y9B/tfyr1fwdaaDq/hWx8JXthcTARNfMSrrG2J2A+cEfNntXmNvbx20IiiXCj8yfU+9exeGf7b/4VxY/2J9h+2ea237Xu2bPNbdnbznrXw2cztRiou3vKzvazs9Wz9E4joyWEjUq6ycl6JWei/V9fuSoawyeJ5Yte0Tz7PUbUNAhuojGJlVzmN17oT0PUHnrkU2b4kWvhaKe9hsjezRXBsprZ5fJaMnLBvunIITI45B68YrrNaI+2qMjIjBx+Jryv4qafa/2VZ6iIgLr7QITIOCUKucH15HHpz61+j8J0KVfCYWDj7klqr9L91Y/BKta+bzjU3VRWfylo/L8jTvPj3/bWnXmmf8ACNeT9qje28z7du27127seWM4z0zXm0kj6jI0MLFbVTiWUdX/ANlf6msCyjEtwY2ztebacHBwcV0s86WccdvbxhpWGIol4H1PoBU8UYKhhZ0fYRs2n1fR76nuYyTc11fTy8z6/pr/AOrb6GnU1/8AVt9DXGe2c/4B/wCSd+Gv+wXbf+ilroq53wD/AMk78Nf9gu2/9FLXRUAFFFFABRRRQAUUUUAFFFFAHOeGv+Q94u/7Cqf+kdtXR1znhr/kPeLv+wqn/pHbV0dABXKeJdQsPD2px6zqGqXlvFLHHZLCJHMO9nJDeWvG89N3oMV4n4k8SeJJfGWsQw63qtrY21/OipHdyJu2yMMDB4UYx713Xw51PXNVjuU1FWu9PRtyXlxcGSQSjb+72kk4Aw2fU181n2MthHFXWqvZ2du1+571TJalDD/WnJOOltN79fT8/S19O4jtbRRof2+8v5YEMsv26Zp32Skhcs3UfIwx6DmvPfHEF/pnh+8t4EEujzJCiIODZlCgA90IX6gn3rs9T1+/srTS5/Eelpp73EksUskUokjhIYeXubsGBPPQHrjPGN4//wCRH1H/ALZ/+jFr7DgyUqmGwrnK8lJ3d739/v1TPyrNOelnEm17sp0//Sfwa/rR6+Cn/j2uP95q6iWWS+la2tmKxKcTTDt/sr7+/auXP/Htcf7zV1sssWnwRwwx5c/LFCvVj/h6muvjH4sPZa8r/M93F7xsrvW34H1N4SjWLwZoUaDCrp9uoHoBGtbNY3hHf/wheheZt8z+zrfdt6Z8tc4rZrx4/Cj2IfCgrOk13TYtabSHucX62wujFsb/AFRYqGzjHUEYzmopPFPh6K5ltpNd0tLiFtssTXcYZD6MM5B+tY+u6rPcRwXfhqKx1aQzRwzstyoVI8ksdwzkgEHHv+fnZrjpYPDupTs5XSV3pr32OmFCb96Sdu9ht74i0rxL4at7/SLsXNq8+Fk8tkzt3A8MAetY2iaWH8b6fqcU8kUiI8UyKcrNHscgEeoY5B+o71W8XXfiOzuETTNJtpNKgVZmYSgSTN8waNV7HB3A9CRjvxf8HX9vql9ZXtqxaGUORuGCCFYEEdiCCCPUV6WS42WOy72s0ldyslrpZ2+ffb0PicypzpZ0pxej5E//AAKOj9en4ao9Dr5AnnSzjjt7eMNKwxFEvA+p9AK+v6+QIIEs45Li4kDSsMyytwPoPQCuDHW92/noe3mVvcv56d9j6N+FSSR/DbSVmk8yT98WbGOTM5/KuyrjfhVMLj4baTKEZQ3nEBhg4858H8etdlXZSvyRv2O+jf2cb9kFZOu+I9M8Nw2suqTmFLq4W2iIQtukboOOnQ89K1qytXEjTW6iBJIgrtuY9HBXaMY7/Nz2x71xZripYTBzrw3VvzS6nRCPNKxgeIvE+lXV8NAjuD/aUarctCUI/d8jOenU9M5rivF2n2t/4Y1D7TEHMEEk0R7o6qSCD/nIyK2NW0/UNf8AClrJq9uulayk/mI1tKJDC67wpz0YEHlemGIrndQ1KRvDWpafqRhj1YabNJJFGfldcOu9c9jtzjqMjNevwrjJ4vD05Vt+Zro07drfhv6nw2e0uXMpVKb1SjddV7y19O/Y8Gb/AI9Jv95v511NnHBY2P2h2xuUO8jHnpwPoOgFcs3/AB6Tf7zfzrpbO2kuVhlugBHGo8qLqOB94+/p6V7HF/8Au9G70tH/ANuPdxnwq70ufSvwqlaf4baTI0bR7vOIVuuPOfGfwrsq5H4YsG+HmllSCMzDj/rs9ddXztH+HH0R6lD+FH0Rzup+OfDmj6jLYX+o+TdRY3p5EjYyARyFI6EVjalqnhrxx9mitdUuGOnTLenyPMhPy9N2QMrzyK8z+JxA+IOqkkADysk/9ckqT4ZalqzLqEmj6bFdRNc2scjSy+XiI+ZvkHrjjA78189nWJqywtWEbKzWt7faXV6H2NfJsJQy+GKUpc8oxdtLa2v0vbXvvY6641Pw1JanxlDqk3kaiiWUbSM6wkiQ/wABHynKnk8cH15p+Jf+RV1j/rxm/wDQGrodUW9nmvtNuNKtv7CNsuybeCXkLAMhTsMd/wDHjz7XWPhjwrfafK1xcWM8E8UEzfN9mzGBHGx6kElgGPT5QfWvW4Jn/sTf2ed21TsuWNk7eR+T8R0o1Mxio/HyR07rn6ef59Nd/GT/AMfS/wC4f5iuhsrV5hDcXWCEUCGMdF4+8fc/pXPH/j6X/cP8xW9FLJewx2tuxSNUUTTDtx91ff1PavuONb+wjb+d/wDpKPTxV+VW08z6C+C08c3hC+8tg2zUXRiPXy4/8a9Hrzj4KxRweC7mKJQqLfOAB/1zjr0evkMPb2UbHo4W3sY2CiiitjoMHxncXVr4Tvp7O1+1Tx+Wwh3YLjzF3AH125x74rhdN1K11ayS8tJN8T8cjDKR1Vh2I7ivRfEH/IDuf+A/+hCvKtUtr2wcaho0SOVdpLqzAA+1AhQSD2cBRj15HevTwbahfpf9D4jiSMKmKdN6S5FZ9Pj2f6P79Nvns/8AHm/+8f8A0Kt+zE15apbJujgXPmydC3Odq/1NYB/483/3j/6FXR2135GnQRxr5lxJu2R/ieT6CvV4rv8A2dTtv+7/ACqH0GLvyqy1ufQfwXjSLwZcxxqFRb5wAOg/dx16NXmvwQgeDwXeebKZJX1F2du2fLj6DsOK9Kr5HD/wkd+F/gx1uc5Zf8lI1r/sFWP/AKNuq6Oucsv+Ska1/wBgqx/9G3VdHWx0BRRRQAUUUUAFFFFAHOeN/wDkA23/AGFdO/8ASyGujrnPG/8AyAbb/sK6d/6WQ10dABVe+njttPuZ5m2xRRM7t6AAkmuS+J2t6poPh20u9KvDazG9VHYRo+5Cjnb8wIHIByOeK870f4h+Kb7W7C0uNU3wT3McUifZ4huVmAIyFz0NcGNxVOnTnCSez/I9vA5FicXQeJptKKvu3fT0TOp/sbw99n/4QT+0tR+0bPt+PPfzdnmZz5mMY3cY69/esV5bjS9XubtJzc6DeNLdGWQ/NaEgyE89Yzzx1BPpXUfbvFH/AAjf23+wLP8AtzzNn2T7UNvl7+u//d5x/wDqqG+RXubhGUMpdgVIyCM9K8bgvmlWr80ru38yet9Xp0elvTc+I4oqciw6aunL/hvmv60PA/iG6v4u1Z0YMrCIhgcgjyUrO06OeYSQxN5cbY8yQH5gOeB7n17VY8bafb6X4j1SztVKwR7dik52gxqcD2GcAdhioNNuhbJKApkmk2iOMdWPP6epr9eznm/sWpbfkp/+lkUF/sNP2evuxtf0R6N8Lzb2vxC0W2Tam7zgiD2hcmvo6vm74T2hi+IumzzsJLlxLubso8p/lX0FfSNfnuCt7N2d9T0Mut7J2d9f8gqC9jWWwuI3LBXiZSVOCAQehHSuV+Komb4basIGVZD5IDMMgfvkyfyrwbwzb/Ytb01bZPMl+1xN87YMj7x1Puazx+J9lTlG2rTPrMryWWOoyrKVlG/S+yT7/wDDeZ64uueFhjx2NVuPsk0YsA58zyv9Z/zzxnO4dcdKyr/QlsNTfUdM8z7VBE0TxF+LwKpCCQn+IHHzdevrXYq2of2+1kdMtxootxItz5g3Gbd93Z6Y5zWBFeC+EkpMfnLKyTpG+4RyqcOmfY5FeNwU4yrVkv5VbVPS+i0S1Wt/XZHwvFM50/q8o7c1n217nFah8Z9T0G6gs9GtLF4ZIjJOl7E/mwy7irIQHGMYHbvnODXM698TNX8aCFNQtLJZ7ZnW3S1R13bsbi25m4G0enWovinHHH4ytWRFUyWQZyBjcd7DJ9TgAfhXO6C8cS3sshVVVhlj2Ffpeb4SjHKZ1nFOV1r/AOAf5mODnF5bDlWllp8z0P4T2nkfEPTZJG8y4k83fJ/2yfgegr6Qr5q+FRmvPiTpNy+6OBfO8qPoW/cuNzf0FfStfJYO/I773/yPVy+/s3d63/RGdrus2/h/RrjVLtJXgg27liALHcwUYyQOpHeuHufjb4ZtYt8lnqpycKqxRlmPoBv61sfFSdbf4batKys2PJwqjJJMyAAfjXzha2sjS/a7vBnIwqDkRD0Hv6moxNedKemx9tkmVYfHYd8yfPe176JWWr/Gy6+iPcY9H8PPDH4GXUtQNxaKt/t89xLs8zIJkxgjccY+n1qveXOneKbdr2wnLwyb1guUUq8bYMbMu4ZBHzDNawvfE/8AwjsF5/YNp/bbyhJrX7SNqx7zzv7/AC849/wrPvdTtG8TX2khTDcwhJFRl2iVGUEunqMkg+4r53g6V8fUU3d8kvtJ680eZ6d9LPye/T4LieM/q9GUFtUi/lZniPxEbUv7TSLVVjNxDarGJo+FnXcxD4/hJzgj1B7YrH0yWOC+aWVgqLAxJP8AvLXUfF3/AJD8P/Xiv/ob1y2mQRzamnmKG2Rs6g+uV/xr9mzVJZLVT/kp/wDpbOHASU8uhJq110Or8HxSXvjXQrq5UpGuoQGGE9v3i/M3v6DtX1bXyr4Yunm8daJb2uCE1G3M0h6L+8X5R7n9K+qq/PMFfldz0suvyO+nkZHitQ/g7W1YAqdPnBB7/u2r5iJCgkkADqTX074qIHg/WySABYT5J/65tXyj82qt3WxU/QzH/wCJ/nWOPjeSb2P0nhSt7OhUUVeTasvl17JdX+rSPeIta8LxtH42XVLg22oKljGzeZ5ZO8gYjxkHIPOOx9eWRaRBoUX9nW0k8kMRJV55N7ncdxy3fljW9E2onXZbN9Mt10ZIFeG5EgLNLu5XZ2A65/x44ZtY1+11cHxHYR28V9II4xbt5gtZPuqjEdQ+AQ3Ytg44rwuDKn+21LPTkf2k9Lrl2tsrpvz2R+ZcT0nUw9FR39pH56O9vz+R538RNIbR7vTYIbgtp7CdreBuTAcx7lB/u9MDtzXK6FEkt5IXUNsLMuexyOf1rvvi5/r9E/3Lj+cVee6TFLPPLHHL5YYtvYdduRnHv0r9hxKSyaolppL/ANtPMyupKplkZTervr/28/68zsvC9zJc+OdEitSBHHqNv5svUcSL8o9/X0r6rr5Y8LSQWPi3w9bouN2oW6JGo5/1i5P0HUmvqevgMD8LstD18t+B2WgUUUV3HohXH+K/+QnH/wBcB/6E1dU13ArFS+CDg8GvPfGttdyeKLLU9NucjyUgureQnY8e9juHo67iffpSwWNw9Ss4U5qUrPRNN/ceRnlLmw0VJ296O/qeR/F6ytoZbC7jhVZ7hXWVx1cKU25+mT/kVwdrCLjVIIi7KGVgSpwcdx+PSu5+KOpWuq6Vo13aSb4m84HIwVYGPKsOxHcVw1q8keqQNDH5km1gq5xyePyr7nEf8ias4/yL/wBKmcGTKosugpfEuZa+Tf5HQzzpZxx29vGGlYYiiXgfU+gFfX9fIEECWcclxcSBpWGZZW4H0HoBX1/X5vgbe9by1PSy23v28te+5zvj7/knfiX/ALBdz/6KaugT/Vr9BXP+Pv8AknfiX/sF3P8A6KaugT/Vr9BXoHqDqKKKACiormYW1rNOY5JBEjPsiXc7YGcKO59BWPpviiK+1Qabc6bqGm3bwtPFHeog81FIDFSjMOCy5BIPI4oA3aK5nTfG+nane2kMdpfQ298zrY3s0QWG6KgkhCGJGQpI3BcgcZoTxxp0mopbi1vhaSXZsU1ExL9necErsB3bvvAru27SeM0AdNXOeGv+Q94u/wCwqn/pHbV0dc54a/5D3i7/ALCqf+kdtQB0dfNfxTglvfiVq0UgKWieTkZ5lPkocf7v86+lK+efib/yULVP+2X/AKKSuLHS5aaa7/5n0vCtJVcZKMtuV3XfWOj8vz22L/ghdG13QrrwndXlxDdvN9tEdszRt5a7ACHAx94Yx1/nW3rOt6HOIvFdrcXVxBFI2mTum4RQDJYuyEdmCjcOzegrN8AX1+PA19daDp8N/epqBiVZZBGrLtj3EMew5/LvXXa2b37cloLCD+yHhLvPuGTMWxsKehUk5/yfkctb/tynGLt7z3a7e9pa+ulvR79PE4ynTdPFS3j5fozm/Ezq/g7WXRgytp85DA5BHlmvnt/9dD+P8q9m8Tibw54avrS2tTJo0ljNCAmWe2kYOQT6xncF/wBnA7V4y/8Arofx/lX7rkjvGpf+an/6WfE5FT5ITcXdO1v/AABb9n5fodTLLFp8EcMMeXPyxQr1Y/4epr6N+FSyr8NtJE7hpf3xYqMD/XPwPp0r5xt7f7PvubmRWnYZdzwFHoPQCvo/4VTrc/DbSZUDBW87G4YyPOfmvzLBfxHbXTc9PLv4rtrpq/M7Gvmz4rXMjfEfVLS0wZyISznkRDyk5Pv6CvpOvnf4loq/ETVmVQCxhLEdz5KCtsc0qab7/wCZ99wtCc8ZKMXb3Xfva628/P8AUd8N5tH8MRalq+o3UkEcQigMh3MHaVjywAOTlBg9hmuv1BrPw3p0/hzR7mW41hlOoxW95K7eYhlG8b8YGfmAB78n1rD+FMksmo6nbCCKS18qN5nZhlHDHyxt75+c57bR6120M2qXOhzT6xp0FneCVkCxyiT93u+U59+OP/1V8ZGV86pqTfx0/tLuraWvprf1W3Xh4vUKbxXIlZQenTSGxyOoahHqfgnUrqNJIt9lPuilXa6MFZSCPUEEfhXz+f8AUXP1b+Ve7eMdKmk0291OxuPJuI7OSKdGyUmhwxKkdmGWKn1OOhrwk/6i5+rfyr97ym/sJJ/3v/SWfnmQqHLOUHo+XTt7q08/U6fT4YbSxW5kf5mjDPI56LjgfQV718EJ2ufBd5KYyiHUX2bupXy4+SO3evALOCS8hga5Xbbxqvlxf3yB95vb0FfQnwYdX8I3oVgSuoOrY7Hy4zj9a/NY/wC+Tvq7v8z0sH/vDvq9fkei14T8bbqO18VWjvkk2KBVXksfMk4Ar3avCvjLbRt45s7hgTIunIq56L+8kzj3P9K1xlvZan3PDXtPr6VPez36efn6GV8NtMt9aGqabql3cRXE5guo4raUptWJjkbh7yLn1zx047PUbTQfGdlNrtjqV63mRfYo3hleNVZJQ+4KQPmDLnPQ471zngCfVLay1WXR7CG9uvNtlMcsojAQl9xz7Dt/PpXfanLqcd+9rHp8A0c23mNdCUBhN5g+XZ6Y5zXxUJOWdUlf7cOq292+m+ulu9nv05uL4+x+tcr1UG79b8l7/ecvpd9dQmPT9ZkhGoFnWF0OBdIgU7wOx+YZX1BxxXz4/wDx8xfRv6V9GatpNtrFp9nuNyspDxTRnDxOOjKexFfOb/8AHzF9G/pX75kiapVE/wCaH/pZ+bZBKE51Jx0bjC66fC9v8uh0FnbSXKwy3QAjjUeVF1HA+8ff09K+gfgvKkvhG+CMG2ai6tjsfLj4/Wvn2OeS6hitLVtu2NRNMP4OOg/2v5V9AfBSCO28FXMUS7UW/f8A9Fx1+bS/36d+8tPmezg/4/vedkekV4f8ZSB4utSSABYJkn/rpJXuFeCfG22ku/GtlG7AWo09CyjrIfMk4Pt/OqxiTpan3PDU5Rx6cFd2f9Py/rcxPh14kstM8Rz3t/MLfT3tzbxSFGYySNImMAA4HB5r0hItD0aE+Eoby5mu0ia98m5d5GaNnKnLEYIyx4/H3rkPhbGjeJbhSilRZsQCOBh0xXbzaneweFjqHiKytdOuPNEU22YOsaGTCHdjuSv0znjpXxnPD+2KPRc9O+q76O1ru2t/VbGfGdOoo14t80nTf/pL0X6fqzlWaPwdDGqxyvozSsXfO77EDt2gDr5ed3+7kdq8DP8Ax7XH+81fTzKsisjqGRhggjIIr5hP/Htcf7zV+45VG0ava0vyZ+Z8P1faTqNr3rU7vvp+f5+t771k811aR2kJaONc+dL0Iyc7V98d+1fQ/wAFYo4PBdzFEoVFvnAA/wCucdfP1rdrbaXAFUyTPkRxjqxyfyHvXv3wQili8F3hnk8yV9Rdmx0H7uPge1fD4y/9q1+i55/P3mezhL/WH0Wvz8z0qvJvjZ/zA/8At4/9p16zXjnx4knH9gQ2y/vJPtH7wj5YwPKyT6nngVni1ei1/W59jw/UVPMacmr77f4Wch4F06y13xRJYXE1yht7cXWbeUoQVkTAYjsc9PbPpXoa6l4cvAPGFtqVxJHeRDTIeXETMZMAbCODu4z0x+ded/DsalpmssNFsY72d48T+dNsOwyJvfPcj0/wxXq2p3OqW9xfxR6PFLpMOnvPHJHIPMknBJEYTt659a+ExkrZhBX0vH7SWl1fTfXS3o9+nTxSqkqtTntdx+7R21/NnMapY3UJk1DRo4RqBZGmRxgXSIGGwnsfmOG9QM8V4Trc5ufEt5OYpITLPM5jkGGTL5wR6ivoLTdStdWso7yzk3xPkcjDKR1Vh2I7ivA/Ev8AyOOpf9fU/wD6HX73kyXPNrvD/wBKR+S8Pylz+zqLVR+fxS0fp07Fmzu/I0yCONfMuJC+yP8A4EeT6CvaPgPam3GvvI5knk+zmR/X/WYA9AK8a0mOC3083TYUsWLux6AMePpXsvwHmluf+EglZNkLfZ/KB+8R+95P144r8+xP/Iyq2/nl+bPew3+8+7td3899P69T2Oucsv8AkpGtf9gqx/8ARt1XR1zll/yUjWv+wVY/+jbquk9o6OiiigAooooAKKKKACud8ff8k78S/wDYLuf/AEU1dFXO+Pv+Sd+Jf+wXc/8AopqAOgT/AFa/QVyHxTgS4+G+rRSAlG8nIz1xMhxXXp/q1+grlPib/wAk91T/ALZf+jUrOs7U5NdmduXRUsZRjJXTlH80fPAAUAAAAdAK9nl1rwvI0njZtUuBbaer2MjL5nlg7wDmPGSckc47j048Id21NzFExWzU4kkHWQ/3V9vU19JStqI12KzTTLdtGeBnmuTIAyy7uF2dweuf8n4LPLQdPm396+qWml1qnq+n5M+t4mrKr7JxXurms++23ku/X88ebYZX2Esm47STkkZ968N+Iul22k+KreK0Vkhlg80RZ+WMlmyFHYZBOPUmvVJxfaHrl3LM/m6RcSS3ErO+TZP8ztz3jOD9D7GvN/iq6v4s090YMrWQIYHII3PX7PkLUnSvulD80fhWVxlTx1oyvGTqfpv5r+tGclpdwbe8uCsbSSN8qIO54/IcV6Z8J7QxfEXTZ52Ely4l3N2UeU/yr6CvOdDZUvrpmICqpJJ7fdr0L4VSTXvxK0m4BaO1Tztg6GX9y4yfb0/OvB4kv/ajt3/9ueh9DK/1iNtNrv8AQ+laxvFwdvBeurG21zp9wFbGcHy25rZrJ8U/8ihrX/XhP/6LauWfws+gwyvWgvNfmfLlrax2sWxMkk5Zm5LH1Jr2qTR/DyQyeBm1LUBcXatf7fPcy7PMySJMYA3DGPr9a8Qu7tkdbe3UPcuMgHog/vN7fzr303vif/hHZ7z+wbT+20lKQ2v2kbWj3jnf2+XnHt+FfBZ06i9nLmtdvqlrpZ69F/TR9pxPKkvZUqa0jzLy6aepR/tbT9XnuZdOuVnjhkMDkZyrp8pBzz1H49a8v+L8ESjT51jUSyRzK7gcsBtwCfbJ/OvRdd0Rh4mXVdPdLW6LIt2gGUuI+Mhh/eGSVb8Dwa8w+JmrW2saZpk9vuVlFwksMgw8TjZlWHYiv1rhiSeHoK1v3St6cjPwylTtm/PTd17Spfydtn5aaf5nJaPIkVy0kjBUWAkk9BytdT4QWTUPGmhXEoZLdNQt2ijPBY+YuGb+grk9Kt47i8QSjcqxltvYkEdfWuw8M3TP460O2tlDMuoW5lY9EXzF4+p9K87iv/kbu29o/LRHuVP465d/yPqmsbxc/l+C9dcKzbdPuDtXqf3bcCtmsnxT/wAihrX/AF4T/wDotq45/Cz6PDJutC3dfmfKtrayNL9ru8GcjCoOREPQe/qa9k0nUvDlnodj4wudSuI47OyTTJuXMSsGAI2AcndxkcY/OvI7i4jtoTLK2FH5k+g969x8NS6lJZaLbHSoBo76TDK87SDes5AOzZ345z618Jncv3cZS2v3S06pXvr/AFqfc8Sxp06VOlF63bfV+r/r00RjpcWmla9c+H/9IRstPbSXD7/tKv8AO+1u5VmIwecAHmuC+Lv/AB8aF9Lj/wBp16Pe2suqssmtWEUN1Dc+bGiPu2FG/dsGHqoUn6kH0ryL4h3Wotc6TY6pD/pNqJsXKDEdwh2YYeh4OV7H2Ir9X4bclDCKbu2qev3f1c/B6MITzZzp6WqVbr5Wuv1XRvttymkIsmpbXUMPMJwfULkV2fhi6ebx1olva4ITUbczSHov7xflHuf0ridNjeW8aOOQxszkbx1A28498V3PhQ2+n+KvD8KjaG1G3RFHJJMi8/1Jrk4tt9fpdXy/+3zPdr29vHq9NP1PqesjxUQPB+tkkACwnyT/ANc2rXrH8Wosng3XEcBlbT7gEHuDG1edP4WfRYa/toW7r8z5S+bVW7rYqfoZj/8AE/zr2jSNP0C98O2Hg57+9S6mtI9TaOKV1dVLBvlcDAXccBfT868oACgAAADoBXsuj3mvL4AsLuy0e1n1ERxxwRNcBRJBkBXLdsphsf8A6q+GzqcuSHK7a6apWfRu/wCP6H3PElFQowcneTbu/lsuyXRfq2zJ1jxhBLqCalaSC60ED7LcTJGwa2mV2yzAjlDkDPbGehrm/i3/AMifD/19r/6A9ema1FH9oEflpsaP5lxwck5yPevHfibZX1ho0gE/naZcXXnKshy8EpVyVHqhyT7Yx3r9H4XssBQ5E+Vwfm1+X5H4VV5KmcT2UlUXz0f4/n67+e20TT6hbRrI0e7cCy9cY5x+FdFLLFp8EcMMeXPyxQr1Y/4eprnbaR4dQtnjjMjjcFQdyRiuht7f7PvubmRWnYZdzwFHoPQCjjT/AJGjvtaOnyPYxe8eba23d3f9fkfYFFFFcZ7x8f3V1I0v2S0wZyMs55EQ9T7+gr1bwamh+F/Ctj4j1DULqMrE1i+93ePLTswOwA/MSeteYWtrHaxbEySTlmbksfUmvY/AEupyaRYWsmnQHRxbPIt0ZQWM3nt8uz0xzmvhs6mlh0l8N9dUm1Z97/JH6JxHSn9VjVq/E5L0Ss9P8319LGdrHhOTQbmO80C5uJLuNWaSK7nLrcozsxjJP3SCSVPYk5zk1y/xIv7a/wDC8f2aUOYNS8mUd0dUkBBH+cjmvQxcarcqJNYsYrK5BZRFFL5gKBjtbPuP8jpXnHxR0u1j0+31SNSlzJcLFLtOFkGxyCw7kYIB9CRX6dwgpqlhXJ3b31v13ufgdapGebTjPdTVn8no/Lt29NvLrMuLgmMBnE3ygnAJ4xXSwQJZxyXFxIGlYZllbgfQegFc3YusdzvchVWYEk9hxW9HG+oyLNMpW1U5iiPV/wDab+gp8ZfFQvtaX/pTPcxl766Lr/kfYtNf/Vt9DTqa/wDq2+hryT3Dn/AP/JO/DX/YLtv/AEUtdFXO+Af+Sd+Gv+wXbf8Aopa6KgAooooAKKKKACiiigAooooA5zw1/wAh7xd/2FU/9I7aujrnPDX/ACHvF3/YVT/0jtq6OgD5i8Vf8jfrX/X/AD/+jGrqPh7JaeIfDtxpNrrdxY3kN+Lo/ZZNsjxqEB+qE5U+4/Ph/Fxk1HxprsCbktU1C4WV+hkIkbKj29TXf+AmOkeFZL/TtCF/eNfC1Pk7UkWEhP4iPuqTnHqe3Jr43OY8tF2+K6tto79b6H6Hm1WVXLYuPwLl17+nku/Xppv0V82na6rX9tfrqGn3cX2cxBw8I2FtxA9TuwfXaK8+8bG90rw7d6d5Bl0qVIY7WVOWtyhT5H9QQpIb1OD2rutb1Ky0HVrLRxpgsLCVSYLmNFSBpmY5jwPutxnnrn88Dx//AMiPqP8A2z/9GrX3fBHK8JhOXo32vbn0vby/q5+DZrKdPOJ8yvGU6f5brzT/AMtmeCn/AI9rj/eaust7f7PvubmRWnYZdzwFHoPQCuTP/Htcf7zV06q2qOHcFbJTlEPBlPqf9n0Heu7jLfD9uV/me5jL2Wtlrf8AA+rPCMiy+C9CkQ5V9Pt2B9QY1rZrI8K/8ihon/XhB/6LWtevGh8KPXp/Aj5e8SQRw+Ltd8tQN+o3DsfUmRq7P4dSWmladc6tf6y9tbzXAsktpZQsPmEKwYA/xnOPoK4XxpdsnjLWbe3UPcvfTkA9EHmN8ze3867f4VWwl0u70y80n7XapcfbPts4V1afCjaFI4YAAgjoD27/AB2dL/Z5SltfXa9r+Z+jZvUj/ZsaVNaLlv2Ttt6/l1OnQW2kWUXh6TW5tR1GLNw32uUPOYyxwT7AkD8qTQtNlXxvYX9tcmKPbJHc2+MpIu12BA7MGbr3BNU9W1C9bQLbxFJ4Y+zaiJfKuoG2vci3G/7rAfNztbb3574NY/iHxPcad4LuPEHh+9VJlWNoLhUVwAzqp4YEdCRyOPrX1HCy58s5H8XNK+2/W1tLeh+H5oqlPOlUXwvkX/k0d/PqvvWx7fXx1HG+oyLNMpW1U5iiPV/9pv6CthvjH49E6L/b3BUk/wChwe3+xWXcXEksxtLQ4k/5aS9REP6n2ruz3LK+AlBVGm22rq+llFvov5kevjp83Ly+evY+lPhkQfh5peP+m3/o1662uO+FcCW3w20mKPO1fO5JySfOckn8a7GsKNvZxt2R6NC3so27L8jxfxv438TaL421OystVMdohi8qH7PEQgMSE8lSTkknk96Xw1rGr+NVmt9T8Q3NvJZzQ3UZttkTOilt6ttAyh+XOfaub+KlxHbePNWllbCjyfqT5ScD3qb4Z3upWUeo3kekyX8k89rB5EbKpt4m8zc5J69BkfT0zXzOczrOhUtLrprp8S76H6BisPhKeUQcKa53GLbSV1e2re+u3/ATO7nS21S5XxFp+tz3djPGIEt45Q1uGUnLgf3uMZ+tc74x0u11Hw7eyzKRNawSSwyocMpCHIz6EcEdxWp4ls7limiaTpraVbWYW7tL+DasBm+YGIxjqCGYn/HBrIv9Re68J6pDeRpbaiunzPNbB8lRh13D1UlSQfTFfT8Fu+BpRe3M7bbdL26/ifiGfxlHM5VactUo37r3l+D/AOA+l/Am/wCPSb/eb+ddJHPJdQxWlq23bGommH8HHQf7X8q5tv8Aj0m/3m/nXUpPFY6dBtTLuo2RoOXYjP8Ak19Fxf8AwKNld2j/AO3HuYvZWV3d2PpL4WQx2/w20iKJdqKJsD/ts9djXG/Crzv+FbaT9oK+afOLbeg/fPx+HSuyr5yl/Djfsj06N/ZRv2R81/FOCW9+JWrRSApaJ5ORnmU+Shx/u/zrc+G17Y6d/aD3l+tmkzQ2sQZwoeR9+0DP8XynH1NUfib/AMlC1T/tl/6KSrXwpa21SXV0k05LuC3MMsUsiqyiVd+Nue/Jw3sa+Vzt3oVebZPp/iXc/SMTGnSySN370ow/Dl09F/Wr168tY6PpcWiXHiSa6vrHbNKbqcGWVZHKKH9RudQPcLWV4nAPhXWAQD/oMx5/3DWtcwx674bF3qnhlbW61Bfs93HLsaSKMFiu5wASMquAOhYHtXGa1cP4f8LX2maldSTpPb3EVpdOvOPL+SORv75ywB77fU17/BUmsHLm/wCfjvtvyq+2lr7H4hxHSU8xjyP3uSOnlz9PTqeLn/j6X/cP8xXSLcpaWFuqJvlkQeXEvVjjJ/D1Nc2f+Ppf9w/zFdJYW8dvbi5lfdIyAl2/hXHAHoBX2/G9vYRv/O//AElHo4vl5Y3+7ue8/BCKWLwXeGeTzJX1F2bHQfu4+B7V6VXmvwQuPtXgu8lCMsZ1Fwhb+IeXHz/OvSq+SoX9mrnqYa/so33CiisnXtWvNIhsns9Kl1Az3aQSrHIE8lGzmQ5HIGBx71VSpClBzm7JHQlfRFfxneSaf4TvruO1kujF5ZMUX3ivmLuIHcgZOO+MVxNle22o2kV3aTLNBKu5HXoRXSarrt5c3N/pj6PLFZpDHIl+ZQUkYsMoFxnI/wA9s8Jfw3Ggk32lWgltWlea+tYx877goLx/7Q252/xZPeu3KcZSxNH2tGXNG/6J/k9T4jialGeKdN6S9mrPo/f2/wAn9/dfPx/483/3j/6FXTaZHBb2JumwpYEu7HoAen0rmT/x5v8A7x/9CrobC1e6hiM5H2eMkpGP4znq307Cvd4s/wCRdTu9P3f5VD38Zbk1dlc+gfghO1z4LvJTGUQ6i+zd1K+XHyR2716VXnXwYdX8I3oVgSuoOrY7Hy4zj9a9Fr5LD/wonfhf4MdLaHOWX/JSNa/7BVj/AOjbqujrnLL/AJKRrX/YKsf/AEbdV0dbHQFFFFAHH/EKCaLR4dUt9Qv7aa3u7RFS3uWjRw9zErbguN3ysRzxzTdQgn8Q+OLzSZNSv7OzsdOhmRbK4aFnlleQbyV5IURjAPGScg1qeJvDC+J7aO2m1bUbKBHV2jtDEA7K6upO9GPDKCMY981Dd+D47p4J/wC2tWhv47c20l7DJGss8RO7a/ybeCTgqoIycHmgDmNG1LUPFzeHNPvtQu4I30ua7upLOZoHuZElSJTuQgheWYgEZJHauo8E3t1d6FNFeXD3M1jfXNl9of70qxSsis3vtAz7g0648Hae1rpkVhPdaZJpkRgtZ7N1DpGQAyHerBgdqk5B5APWtPR9JtdD0uHT7MP5Me47pG3M7MSzMx7sWJJPqaAOV8batem3gszoGoiBdWsMXpeDymxdREYHmb+TwPl6nnA5rrftk/8A0D7n/vqP/wCKrH8b/wDIBtv+wrp3/pZDXR0AedfFZjd+F7ZJlNmovVbzJ8FSdj8fJuOfwxxXj+k2aahrumiz1u3WJbuPLwLKJGYOMBCyBevfOK9b+N1ubrwXZxeYyIdRTft6svlycZ7dq8j0Em21zTDBBvMdzEUiTA3YYYUdhnpXjZjJRcna7sfd5HRq1ctkuZxh721tfwul377Hrf8AbOmfa/8AhLP7cm/sryfsnlfaY/su/f8Ae6/fzxn09qxokvdG1C6iv743Ng8jvDPcZ82I8syuQNu0YJDEjHTniun+y2/9p/8ACPf8IzB/YvkfafP8uPyPN3/c8vH3v4s//rrOulF6ky3VvtEwIlgkw2M9VPY9cVxcHShUq1uSPLaK630vonq9d7/I/KeJ6qpqhGcVJOX3ea2PGvHmn2tx4q1SSTWLK3ZvLzHKkxZf3SddqEe/BPWquk6bYxCaU61p7bVGWCTDaOc9Yx6fpWd4zsI9L8Q6nZRSSyRRbAhlbcwXy1IXPoAQB7AVDpdqLouJGPkrtLR9nPOM+w54r9XziDWTVHKTtyU9NP5/S5FJw+o07fDyrvtZef6npPw4g3fEDSr2DUILiBBKY4IFkV5SYnGTvVRgZz1/oK+gPtk//QPuf++o/wD4qvnv4Z3S/wDCztItY1LtiYuR0jHkvjP19K+j6+DwbvT2tqehl7vS2tqcb8QpXuPA2oxSwSWyN5WZZSpVf3qddpJ9uB3rxPSfsdr4k00DVbNpEuYpCgEgO0OMnJTA9skD3r234qmYfDbVvs6q0v7kLuPA/fJyfp1rwbwrZpB4h0xW/fPJeQmVmHMh3jr7e1cWZuKu5K+n+Z+h8PKtPAVI05NK7u9LfCtrrd/ct/X1hbEHTU8JjxHq51SPF20/2lPtRj8zPJz93nb+Xbis6409F12TXNLmCRXO57mFfmS4GCUcYzhs45Gcj14rcGp3w0ZPEH/CHSDWnYW7W2+PzxFvxzJj7v8AFj/9dRymHzpVtzH5SStGBHjC7WII46YIxj2rj4Ql7StWvFJpdGnrfXq9NrdN7H5fxNWdJULK6cra32/r8dTx/wAdvpmu6/ZXsGtWcSfY9gSVJd2Q7ZyFQ454wcH2rE0nQrKWSYtrllKiybjGqTYJ7ZzGM4rS+J9rBbeM4GhiWMzWglkKjG5txGT74A/Kua0g3DG5htxtMj/NKeiAfzPPFfpmbRmsmm3Lqu1vseV/xMcFKDy+Dpqyst+mp6n8PPIi+IWnC2vbe7li8zfDEJA2DE/QsoXPfBI4zXvf2yf/AKB9z/31H/8AFV8+fCuKGz8faRChA3GbGTy58lyT7mvo6vjME06b5V1PSy9xdJ8qsr/5HG/EKV7jwNqMUsElsjeVmWUqVX96h52kn24HevCJoLK3iMkur2aqOM7Jf/iK94+Kk6W3w21aWQkKvk5wMn/XJxXzfb28lxMLu7XDD/VQ9ox6n/a/lXPjUvaJyWlj9I4ZlUeElToyak5PtZKy1d19y6/e17umsaat5/wlX9uTtpdxELSOI3Ef2bfv+8Ofv5BH5/hl3OgGGBYJbu5nv7fzTb390Q80bSBuc9DgNjHTAHpXRR21udTOgHwzAmjQwrcRT+XH5Hm7/uiPHDD72f8AJwbXX/7ZvbqK5s5NP1GBh51lMwLqv8LA9CCMHI78dq8bhCcZ4ypGMVFcj6q9rrl6vW17/I/MuJHKFClNK9qke+mjT2+7XTU8s8fWr3t/D/aupafZ3kdoscq7JyrHcx3LiM8HPvg5HasS00iJrvbb+INPDNGwYqk+4LlckZjxnp+dbPxd/wCQ/D/14r/6G9cnYXK2t9vKs7NEyoi9WbK8V+wZnTmsnqvmb9yGmn878jiy+angISjFK626HoHhm0sNM8SaGkeo2rH7dCI4UWTdI28HAyoGT6kgepFfSH2yf/oH3P8A31H/APFV8w+C7V18Z6Nc3JD3LX0A46IPMX5R/j3r6pr8+wbTTsejl7i4yt31Of8AE8r3PhPWYJrKZIpLGdHdyhVQYyCThicfQE188iwtlAA1SzAHQBZf/iK+kPFX/Ioa1/14T/8Aotq+UXdtTcxRMVs1OJJB1kP91fb1NZY1Xkr7H6JwvLlo1OVvmbSSVtdPNPRdX09T3OOyVrC38LL4i1ZtTs2W6lmFyn2l495OH5+6cgfTH4ySajaawTe2UqT20h+SRGDKdvBwRx1BqdNSvV0m214eEHXWLl1t57cOnnRxbyMs+OVHDY9+3WsW/vE0LxM+lSWUFpptwyiwlt0CxhyoLRsBwrFtzA9Dn16+LwlVjLHVE4pPllqmnrePN1ejdrfgfm/ElNyoUuVX9+Ojv2e22qPOvGuhSWc2n2txrNtHYRiY2YuRK0iqdm5MqrZVcLgnnBxziuc0mxs7a4kK65YSO5ZUVY5+uc8/uvaut+Ln+v0T/duP5xVwegsqXNwzEBVDEk9uRX6ziabjk89W1aWmnl5XPOy2t7XLY1JRWt9F/if57s7rwjpMVr4r0q6k1O1ubs3sJIRZAThxhEyoA/Ej3r6S+2T/APQPuf8AvqP/AOKr5c8I+ZqPjTQpjuS0TUbdo16GQiRcMfb0Hevq6vhsG7p33PWwDupX3M661U2VpNdXFlcpBBG0kjZQ7VUZJwGz0Fcz/wALW8L/APPe4/78muh8U/8AIoa1/wBeE/8A6Lavle7u2R1t7dQ9y4yAeiD+83t/OjE1505KMEtT7LJcpwuMozq4iTXK0la2t/k9T3f+19PXUX8TtrN1/Z2oBbWCCWdBAsm4j5QTw+QQfoc9OK0NhJpdpFZTX15fSRA7p7yQPKcsWwSPQEU7wyn2nTNN0i80BJLG20+2uo72RUMcs5UE4THDZJbPqT+OXeXWvXl9YawdOkshMogvNMnkViiiRgJlYd8HJHcfQV83w5W5szlaKWju01e1ny6X7Xvp66nyXEVKKoKD6TVr+vddfwOE+Juhaf59vdi8trCS53mXzRIVkI2/MAitzzgnjPHpXJWen2MGpwzPr+nYRHJGyccY948V0/xXvLfUNM0W7tJllglWZkdTweY64SyiSbV7ZJFDLhjg+3Ir9jxELZRWfM7ci00/mn5Hi5TNyy6LmrfEra9G11dzqv7Kgv5Uml1ezNqMNHHsmG4+rZjH4Cvqn7ZP/wBA+5/76j/+Kr5JuLiSWY2locSf8tJeoiH9T7V9g1+fYJ3T0tsellzbUtLbafecp47upm+H3iNTY3Cg6ZcgsWTA/dtzw1dSn+rX6Cuf8ff8k78S/wDYLuf/AEU1dAn+rX6Cu49IdRRRQBDeXIs7Ke6MU0ohjaQxwoXd8DOFUcknHA7muG8OXLeI9UudR1S11S11O4tZILaCbTriKKyhOCV8x0CtIxCljnsAOBk9/RQB5ppMOoXlh4N8PvpN9bXGhzRPfTywMsKiGFoxskPyvvJGNpPBOcVFDZ6ifD1n4NOl3wu4dWSR7swN9nECXXn+aJfuklQBtzu3HGO9eoUUAVNR06DVLQ21w9ykZIbNtcyQPx/tRsG/DNcv4S0e2tdU8U28ct4Uj1RApkvJXY5tLc8szEnr3PTA6CuzrnPDX/Ie8Xf9hVP/AEjtqANj+zoP79z/AOBMn/xVfP8A8Rr28j+IepWMEcK2kPlb3nt0laTMSHblwSRz1P0FfRdfPPxM/wCShap/2y/9FJXHjZuNNNdz6PhjDwr4yUJ7crfrqv6/A3PA1zb2ehT6vqerJY6dFMbf7OqxwQhiEw+VAOecdcY+la+s6nYeGkgsdT1qa6u7ifeDNgGKJshSwUABN2F3EdW6+mD8MrlNVsrzR7jRVvNMEzSvdyhXiEwEeI9pHJHDZrp51XXNMku9V8PrZXPmyWm2cJI7w5P8QH3WxnHt34NfKYCpVedQjOT+Luu2mm/e/wArnjcXOlTp4lw+FdtPuMjxHIYfC+rzIFLJZTMA6hlJCE8g8Eex4rw1vEN750Q8nTuc/wDMOg9P9yvUPEkzeG/DF7prRyyaXJYTQw3JYu0UhD7Uf/ZwVVT7YPWvGn/10P4/yr9tyWnTnGpzRV04f+lnxmS+0UZNybTtZ/8Abq+7zR2cWsXmoOZGhsxZfwo9jCTL7nK8D0r6D+Hlul54F02eQyK7ebkRSNGoxK44VSAOnYV84XNy5l+yWmDOR8zEcRD1Pv6Cvo/4VQi3+G2kxKzNjzssxySTM5JP41+b4OUnPV9NvuPSwEpSqavpovu1On/s6D+/c/8AgTJ/8VXgHxM1afT/AB5qGn2UcEs2IivnQpIVBjQ7mZgTjnufYV9FV87fEqGNPiNrEiqA8hhLHucQoBW2Nly00/M+54Zo+2xcoafC/PqtvP8AI0Ph4smopqNiNUFjqDiKUTWsEUckqqSHyoXBHzKOQcZHrz1WrXX2nS59a0HUn1KCEeT9gjlVklcSDeQxG7eF3YGcHArkfAN5Pp1rq17ZaQ2p3iNbxrFGyq6o7NuIY9B8oJHfaPTI7u9dtPuzpNloIh054TcNeQ7UjWUvypUD7x659/rXx8KtaWcU48z1nDqv7t9Hrta3zscfFsKeHeJ9nHSMXpr/ACf1d7nNXupQ33g++1GzIaNrOZlEiZwQrZDKfQggg+hrxH/hIb3ybg+Tp3Bb/mHW/p/uV6/4v0+8j06+1DTZgo+ySRXVs5wkkZDEsPRxuY579DXhR/1Fz9W/lX7nldKEqMuaKv73T+6z4DJJuUZyUrp8u71XurR/59fwOyj8QXs8MFtax2Ql8tTJJ9ii2xDHptxn0Fe4/CS3ju/ClzJINjC9cH7P+4B+RDkrHgE89cZrwO3kg0/SoW243qCFUfM7EdvU1718EBcf8IXeNclfMfUXbYvRB5cfGe9fnUJN4mSW13+Z6WDnJ1t9Nfmd/wD2dB/fuf8AwJk/+Krxr4vX66L4itwPLMf2JGzNGszEl3GAXBPbpXuFeEfGe1STx1Y3DksU09Ainop8yTJ+taYt2pXZ9pw7BzxqjFJuz32Xn/wPy3Ivhxq2xdS1HXb+DT7UGGJIFVIV3OW27mUAluDxnAyfrXYahCkOnz6I3iWaTWmjNxG8vlmQJvwD5eNpUH2zx1rlfhjDFe3OpWV1p0d1assczSSqrIjox2jae53Eg9thrs4pX1PTG1W+0D+z9Ry1vmXY0qxB8j5xztJAOPU/jXxsa05ZzTi27c8NLrra3n3v8vI5uLKaw31lU94wb+fJf03+Rg6Rf3M0YttUiS31BGZCqt8swXbmRO+35l+h47V4c/iC9E8Y8nTuQ3/MOg9v9ivc9Z0eLV4U/eNb3cDb7a6j+/C/qPUHoR0Ir53f/j5i+jf0r91yajB0qnNFO0of+ln55kdb2s6kuZ3tC61svde3k/66HZjXpLSwhYQWZkkUbY47KEF2IzwNte0/B+Oa/wDCN1Nfvib7c42237lFGyPjCYB69Tz+leD2FqI4lupn3yFBhjwETHAH9a95+CNyt14MvZEVhH/aLhWP8Q8uPke3+Ffnd39cqJbXf5nr4KbdZpO/dnf/ANnQf37n/wACZP8A4qvHvitO+n+KLaKERspslYmeNZmzvcdXBOOOnSvbK8D+N0M1140s4M7Lb+z0MjA8v+8k+Ueg9TTxf8Lex9rw7b66k482j0/rb1KXw/u73xD4juLe2u/sMEVuXNza28StIRImUHy/dwTk+uPSvQZxp+s2kmoWus/bdLmjNuLTcskMjhvmOSMk4BGM474rznwHe3Wk6y76dpMl+xgERhhcJsQyIC3PYen8utekahcx6RM+lxaLHZ6SsKzLeoUjiEzyhfLCgfeJbOe+a+RdWo83oxT05odVtdXvfW+1vnYz4wpSoxr8vxcjeitryu1rf8Oc3Je/8I5JFFfOz6fNMUjuBGqJajChI22gDaTuAbtwD614mfEN79nnPk6dwW/5h1v/APEV9DTwRXMMkE8ayRSKVdHGQwPUEV8xn/j2uP8Aeav2nK6MHGrdJ6S/Jn5xkOJlWlNybvaF+234Pv39bnb6dqsos1uZI7ANg5b7DCu1QenCdO9e0/B6Ya14Su7qVHiAv3SPyiYQ6iOM7tqYHUnk84xXz9YW0l3bRLNgWsfIQH/WHOcn2HpX0R8GWU+ELwKQduoOCB2/dx18Vi9M0rx/vT9Ers9fCyf1hpu71+R3X9nQf37n/wACZP8A4qvMvi6x03+xvIw/mefnzwJsY8vpvzjr2r1ivHPjxcSRf2BFBHvnl+0bc/dUDysk+wyKzxV3Sdv61PrsicFmFN1Fda6b/ZdtPU57wP4jsYPEkkGqXlpaCS2IQqiQksXQAZUDrk8e2e1d+0UcUR0ZvEk8+rQp9qk3lPMkhDdCgGAp+7kAHvmvOvhXpFnJ4guEu7eK8b7MZi08YbMgdMMM9CO3pXfXOq3KeG38Rz+Epo9UZTBNAux7hIN5ydwGWAHzbf8A9dfD4qtJZhCMJPePVWvfTR623v8AK/Q6eJqclVqe6otx2XTT8zH1OG50+J73SLSGSYyCS4gChWnUAg4OPv8AIxn+7jvXjmq+JbibXrmSGCz8mSWVk83T4S+C3G4lM5x1zzXudle22o2kV3aTLNBKu5HXoRXz/wCJf+Rx1L/r6n/9Dr90yijTlObaTV4f+lI/KsgxFWcuSrfmUerd/ikrP0+/p6bOm6nfXUAaeLT/ALOCQsYsIcMdx5PycY9vrXr3weuU1WbXYpGUPb/Z8i3Ahxu8zrsxnp36fjXhtjcSy2UdpanEmW8yTHEYLH8z6CvcPgVbx2sOuRxjj9wSTyWP7zJJ7mvg8S2syqRf80rL5s92hKX1pKT72X36nqn9nQf37n/wJk/+KrD0yFYPiLraoXIOl2J+dyx/1t13Jrp65yy/5KRrX/YKsf8A0bdV0HsHR0UUUAFc94utvDp09L3xFZx3cVuSsMLoZDI74AVI+jOSABxn6c10NZGteGNK8QT2c2oxXDS2ZZrd4LuWBoywAJBjZewxz7+poA5Q+CdR1TwLpWl3ZtElt783n2a+Q3UccW6QpAwyN+1XVev8PXpWdNOqeHZPDosLLTUh1+206/GmL5UMschjclccruDKrDOeSM13UnhbS5dNisJPtzQwyGRGOo3Hmhjn/lrv39zxnFOj8L6LFok2jrp8ZsJ2LSxsSxkYkEszE7i2QDuJzwOeKAMXw5Z2+i+Odb0fTIlh0xbK1uvs8fEcMzNKrbR0XcqKSB6Z71H8R59dXwf4hjtdO0+TTzpk/mTyXrpKo8tt2IxEQcdvmGfauk0jQtO0KOZNPgZDM++WSSV5ZJCBgFncljgDAyeKzvH3/JO/Ev8A2C7n/wBFNQBqpJqHlr/o1t0H/Ldv/iK5b4lRTXfw/wBTgvlWC2fyvMeCQu4HmocAELnPQ8jgmu0T/Vr9BXKfEz/knuqf9sv/AEalZ1XanJ+TOvL4KeLpQezlFfijwVLfSY0VEurpVUYAFquAP++69Xk06RLC48LN4mu11O8ZrqKY3v8ApKR7wcIdv3Rgj6Z/DwyaaS+la2tmKxKcTTDt/sr7+/avfX1K9bSbnXj4QdtYtna3gty6edJFvAyr44U8tj279a+Jzibh7P3U7vq+unLu9u/4n1XEjUvZqLbS5lfS3S9rJbf8NsyG4USNIrlZVYkEk7gw/rmvGvGui6PpWv29vLf30SeTvggS3WVYkLN8oJdSBncQMHGa9LefUNJ1+5hvN0umXMss0U7EZtDy7RuemwAHa3bGPSvNviv/AMjdYf8AXkP/AEN6/Xcjjzuk7tO0O3deR+KZbJ08byJLlk5vS/S3d79H/k9cXTdP0G5vJV/tDUHAO5kazRQcY4P705HSvQ/h7PYJ8RNNgsZrie6AlOx4QiKPKf7zBjjjOOD/AFryjSzcfbLhbYL5j/LvbogwOcd69P8AhVbxWnj7So1PLGYlmPzO3kvkn1NeHxF7uZ2k7/8A7T7HuzkvrEbrtb/M+g/M1D/n2tv+/wC3/wARWV4ma9bwprCyRQRobGYM6yFyo2HJC7Rn6ZGfUV0FZPin/kUNa/68J/8A0W1c0/hZ7+HV60F5r8z5otdP0m1Rv9NvHlc5kka1XLH/AL+fpXsb6nZNef8ACVf8JBGul28RtJIhef6Nv3/eI2/fyQPy/Hw27u/I2xxr5lxJ9yP+p9BX0BJbW41MaAPDMD6NNC1xLP5cfkebv+6Y8csfvZ/yPhc5qRXJKcL3v16aXtrv2Pr+I4Rp+ypQk3y37abdlv1fXZ9TLW3e0aaB7x7txIztJJJvYbzvC59AGAHsBXm/xP07R1ltbu6ea2mnjkV3t7cSGQKFxuy68jPvn8BXZXlnqEmvtrVrbtYzTTeTfWUz5WWJW2LICOA+wBhjqDj3rz/4oala6rpWkXdpJviZbgHIwVYbMqw7EdxX6vw5zTo0eZ2fs+lv5HtufitK0c1vTV06lRN63Tts9ba29H5Pbn9PttJaYpbanfrI0RG42KfKMjn/AFv+c11XhiHR9N8RaKkF1cmRr+ARrJAB5khkXGTvJ5PU4OK4HTblLWfzHycxFVVRkscrgCuw8GW0jeNNFu7vBnN9AFQciIeYvA9/U153FS5c0ak7q0fV6LtY9qq17Rcy00+bPp/zNQ/59rb/AL/t/wDEVk+KJrpPCWsvcQRLAtjOZGjlLsF8tskLtGTjtkZroayfFP8AyKGtf9eE/wD6LauOfws+hw6brQSdndfmfMkdjpc9wt3PeXpIH7qJrRR5f/kQ5PvXqunWQuPDFt4ah8R3UV9cwLfRSLdbLlISwICjBwg+7jJ446V5LNNHBE0srBUUZJNewaJqNyngew16Hwo82qRW8dtFFlFmkhyAGDkZCkfNt/8A118Vm9V8kGop66a216btad/xPteI6MaNOEOdtttu9r+ui+77lsN/4SPT9V1u7s4JlaaIAgg5WVR8pZD/ABAMCp9CD7E8L8UY7CSfRvt1zcwkCfZ5MCybv9XnOXXHb1/CvQNb0PT5r+IrbJA1rMJ4TCAhRj8zdOzZO4d8mvH/AIh6ldXdzpNnqNv5GoWgmEu0Hy5FOza6H0O08dQQQa/TuHNaeFSdk407emn5H4hR5J5o5U4rSdW+9723Wuz66aXsYtguhW92ZEvtSlYORsFimSSMf89a7DwpYafH4v0u6F5cz3ZvYfLElsqKPnGFyHOBnqea8/0cgakSSAA7ZJ/3a6/wk8mo+NdCdCyWceo25BHBlIkX/wAd/nXNxUnHG003f3d3/jnppb+vI9us/wB6tO13+h9ReZqH/Ptbf9/2/wDiKzPEj3Z8L6uJoIUiNlNvZJSzBdhyQNoyfbI+tb1Y3i6NZfBeuxvyr6fcKeexjavPn8LPfw9/bQtvdfmfMjppWpq0cWoXy26th2W0XEnqAfM6epxXrmjXNjYadp/iD+3RHpVvYR6f5Elzst1dSBkrg4kyMdePXFeRIixoqIoVVGAB0Ar2jQY4riw0zRZfDsUmkyabFdtdMqGFpjglSmOWz8271/Ovic4rQVOKcLq/fp1679j7XiLDSp0oTnNyk3rt+Gm3/D7mXfSSeE544tVvry7t7qQlbu4bzBAzMcKz8YXoB8uAe/IA5/4nJZv4ViF9PNDF9pXDQwiRs7H7Fl9+9djPcz63BKNU0d7IEvCbedlfzEDEBuOMH0/n1rzD4mx6naaNJBO/2nTprrz4ZmPzwsVfMR9RySp7AEHtX6Nw77R4Oi5O14va1l+eh+IzlSnm00opSVRb310e2trr8fU5Szi0GPUrd/7Sv8qHPzWSAY2nOT5vFav2fSdUCSNe3wtQciNrNR5noT+86e2BXK2kMc+p2scqhkO4kHvgZreublzL9ktMGcj5mI4iHqff0FTxenHNGt3yx1fp5WPXxMrTXKtbb9ldn1t5mof8+1t/3/b/AOIo8zUP+fa2/wC/7f8AxFW6K4z3D5Rnl0lZlto7y8M7jIxaKdg/vH94OK9H8M28V/4OsvDll4huIb0brvfHOIrjYJjn5QDhS2R1PX8K8rtLRbVG+YvK5zJI3Vj/AIe1eveGJX0zwNY6rY6B/aGo5a3zFsWVojMxPznnaCSceo/Gvi83qxjSioxTfMrX72dt3sff8Q0KqwkataTb5ttNFZ9lq/P5ITVbpdR1JNf0m/8AtMUUJgntrVhMs4VmOFyVCuCTz3B78VzPxBn0298NwmW7kWGO/wDLLW8YkIkVXBUgsuMc9/516HqFla2Eyw2dtDbxFS5SGMICxJJOB3Jryr4m6PBbWMWpW7PEbi5VZ4V+5I2xsOR/eABGe+fav0bhGKdHCuldRa+7XzufhlatCea1I1Iq6mrPXXR76/c/lttw9lbaCbkAahqDZmHDWKYPTj/W1uytpc0r2lvf3qygfNILNWEf/kTrXGWas9wVVyjGbAYDoeOa6Um30u0AAJ5wAOWkY/zJquL1yzoX952dr/4vKx7OKa51pd9D608zUP8An2tv+/7f/EU15NQ8tv8ARrbof+W7f/EVdpr/AOrb6GvLPbOf8A/8k78Nf9gu2/8ARS10Vc74B/5J34a/7Bdt/wCilroqACiiigAooooAKKKKACiiigDnPDX/ACHvF3/YVT/0jtq6Ouc8Nf8AIe8Xf9hVP/SO2ro6APmLxTx4v1r/AK/5/wD0Y1dh8LZDHZ3uoS6zHHponNp9kdVVfPwh3hyeSQQu32rgPF8sl741121tmKRrqE4mmHb943yr7+p7V3Hw4ttM1LSZvD15o8k1tBML1JnizAGG1Qu7P3+M49DXxmdRSw8ubvrs7K/n1P0PN6zqZbHk+Fcuvd9l6dX8u50l5pLtoiaPruoprMzBzM7xLGSjN8uVB4xg4PqvHSuC8bXdzpvhy70i5ikktZI4Vs7vJYsUKbkkPZvlZgeh+ortZte029msL6TT7rTL3UhJAq3sPlu/ktwp5xn52I9efSsXx/8A8iPqP/bP/wBGLX3vBSbw2FvpJSd9t/aO600t2sfguaTlDOJxmrxc6Vv/AAG1192vfY8FP/Htcf7zV1dzcuZfslpgzkfMxHEQ9T7+grlD/wAe1x/vNXWgW+l2hJJPOSTy0jH+ZNdnGVubD9Xyv8z3cZb3dLvWy+4+pvCKeX4L0JCzNt063G5up/drya2axvCLM/gvQmZCjHTrclSeh8teK2a8ePwo9iHwq58u+I7aODxjr7IDvk1G4ZmPJP7xv0Fdv4EhutQ8LvZ6brK6fdxaiLiUKiyM8IVQVKk8BiMZ9q4Txpd+R4v1iONfMuJL+fZH/wBtG5PoK674dLbaB4dm1iXTbrUdRur8WcktrFvdUYIemeEB/pXx+cxk6Dl1vps7/fpY/Rc3nBZbGlTWi5b9l/wXv+L3V+z1CO4ur9dVt9aS40l4hClnGisglDHMgkB54BXFec/EiwurbwxeT2UqJYMqJc2pXABMwcSJjoxZsH1B9q67XdTs/CEcOi6b4evE06AC5muIIv3MaMWDEHqzAkEr/dye1YPxBniufhzqE8EiyRSLCyOhyGBlTBBr6rhKzyyC6KTtsnbpe34n4dmvtKedKdtHyLur80fxW6PE2/4+Y/8Adb+ldQTb6XaAAE84AHLSMf5k1y7f8fMf+639K6a2tnMv2u7wZyPlUHiIeg9/U19Px1bnp325pf8ApNM9LGWtHmenbufR/wAKjM3w20kzqqyHziVU5A/fPgflXZVx/wALJo5/hxpUkTBkJmAI74mcV2FfOUv4cfRHr0P4Ubq2iPm/4m2m/wCJ+q3Ezbwnk+UnZP3KZP1re+F8qW8upyS3sdvEwiiCyFQHkYttwT34IA759qyPilNHB491aWVgqKIiSf8ArklTfC6zt9bbU01XTvOgR4Lq2R0z5bRl8En+8d/A9Aa+Vztc1Cq5bJ/+3LY/SMU6dLJI04r3pRg3/wCS6v8AJfctFp36x3Fho0GmalrKanqcbGSSQosbspLYOwHgDpn2rk/GWjwX2iXd5ueG7tbaVkmj4JXadyH1Vhxj8a09VtR4g0m38UaVYT6VrZbYBfRbHkRSw8qRc/dbrkc/dPaqF/qH9oeDdTklga2ufsMxltpCN8Z2uv4jKtg9wK+r4Ls8HTjJa87vokr31tbTR7H4RnynDM5VYPpFefxLfya/yZ8/t/x6Tf7zfzrqbC1EcS3Uz75Cgwx4CJjgD+tcs3/HpN/vN/OujgSTUYYkcMlnGoBB4MpH/sv86+i4v/3ejrZWj/7ce5jL8u9ld3Ppj4VzpcfDfSZYySjedg464mcZrsa5H4YgD4d6UAAAPNwB/wBdXrrq+co29nG3ZHp0LeyjbsvyPmv4qJNe/EnVrYBo7ZfJ8x+hk/codo9vU/hWx8OrC8uYruLTdT/s3yLi2lk2wq/mxL5m6PB6A5HPaqvxM/5KFqn/AGy/9FJTvh1rNtaS6kRpl3fmSe3si1tD5gj8zzNxb0UbRuP0r5bOXOVGooLZ+T+0u+h+j4mEKeSRlJ+9KMP0dl5L/gs9Cu/NkuZ9VXXoptJuIUhgtFVCnm7+WEgPzE4Ix/hXO+KY45fCesLIiuBZysAwzyEJB+oIBrR1HTNFks5/CCaFcwWNpCtzDOsZWFXZ8fI+c7wWJ/OuW1a8n0zwvqOmazdLJcS2tylrcYx56rHkbuwfkjHfaTXvcEu2Ca6c7tstOWNr262t8z8R4jp8+YxcH7yhHTy5916a3+/vbxQ/8fS/7h/mK3raKS/iiEylLWNQBGespHc/7PoO9YJ/4+l/3D/MV0IuZGggtLTBnMSlnPIiGOp9/QV9xxrf2Mbfzv5e6j08Ve0eXfv2PoH4Msp8IXgUg7dQcEDt+7jr0WvNvgjbJa+CruNMnOoOzMxyWPlx5Jr0mvkMPb2UbHo4W3sY2PIPit468QeG/E1rpmh3gjaazWXyzCjBSXcF2LKSBwOPaqvgrxprerai9hrmuI6tbkRPJFFHmYsoXGFGTycLVf4yKv8AwmNq2BuOnoCe+PMk/wAaxfAFjp2oeJXS/tlumtbZruGIjLB0dMMB684/GvAzmq3Rqwbdj9Co4ChHJ/rM4x5nHR2Wmv4t9/kvPvdRuLjQfCkceo622o3lgVlvmjhXzJYmYqCUByqruDZHURn1NNgniuYUngkWSKRQyOhyGB6EGpY5dPvrKLxEmh3dpf6mBbyNPDtljRSxHmDPCnZwe+Vrm7lf+ETjE9las+ktK8l3GmS1uG2/Mi/3AQxKj+8SOmK9XgxyjgZuX/Px30S15VfbS17/ACPxPiqnGri3CPx+zVuz9/b17d72PAj/AMeb/wC8f/Qq37S4lltI7S1OJMHzJMcRgk/mfQVgH/jzf/eP/oVdLaXEVppUcjD5mJAVR8ztk4A9TX2/Fn/Iup6X/h/lUPbxfwrS7ue/fBK3jtfBV1FGOPt7kk8lj5ceST3Nek15r8EBcf8ACF3jXJXzH1F22L0QeXHxnvXpVfJUL+zV2ehhr+yjd3Ocsv8AkpGtf9gqx/8ARt1XR1zll/yUjWv+wVY/+jbqujrY3CiiigAooooAKKKKAOc8b/8AIBtv+wrp3/pZDXR1znjf/kA23/YV07/0shro6APPPjJ/yKFp/wBf6f8AouSvE/D908/i/SY7dgsMN9CZpj04cEqP6ntXsvxuiln8F2cccvlhtQTew67fLkzj36V5F4dtLf8AtvSrQxKbdrqJDGRwVLgEH614eZ8qcm+36H3+QqpUytwWkVzXfV+S7eb+S7r2L+zdY/sL+xf+EuH9t7vP+2fZ4/M8rf8A88s9MfLn/wDVWA2oXtn4kuLHUP31rdTyyWV4g+UDJYxP6EDOD0IHrWv/AGvYfYP+Ey/4RjVP7Qx9j8r7L/pXl+Zj7uemec02/sbaSO4sDCv2Vg0PlDgbOVxx044rj4MjP21dvR27Ja395adNrdF06n5JxROMVh1JXTl812a/rX8V4X8Rv+Rx1j/tn/6JSs3TpJwJIbZf3kmP3hHyxgZyT788Cp/GdnJp/iHU7SS6kujFsAll+8V8tdoJ7kDAz3xmmaXcR2sFxJIePlAA5LHnAA7mv13Ob/2LU0+xT/8ASzOgksDTUfe92NvPRHofwqt4rTx9pUanljMSzH5nbyXyT6mvo6vmv4U28svxJ0q7uhiTE3lx54jBhf8AM+pr6Ur8/wAF8D1vqejl/wDDet3f9Ecl8TP+Se6p/wBsv/RqV4FpNxs8S6RbxuVuJryJUKgEp84+fB7DrXvPxUeSP4bas0MfmSfuQq5xyZkH5V4H4YtxZ+INPuJQ1xObqJpCq5LYcfKo/kK4c0S1b7f5n6Rw7Oo8uq06a6tt9EuVfe3+G76J+6LKf7XOtHxDAdFaAQLbfJ5fnb/v+Znk/wAO31rjp9KudB1S41C3uGngcSPqEAj5mkCk+bGo6OxHK9Dn1FdEulaCbgeDv+Eck/s6OIXquYf9G3b/ALobP38nOPSo2uBdE3AjePzDu2SDDJnsw7EdCK8/gqEXWrW/lVtEtL6bdXrf9T8q4pqyp/V+zlZr+vw7HivxJvbbUfEmm3dpMs0EunhkdehHmNXP6Ncx2sd475JMgCqvJY88Ct74lafa2HjGL7LEIhPbedIF6FyxBOO2cD8cnvWJ4fijaW5lZQXR8Kx7Z6/yr9Tzj/kST5u6/wDbDnwfs/7Nhy35bL13PQPhTbSN8SNLu7rBnImCoOREPKfge/qa+k6+a/hZcyXfxM0pocC1jMwLkf6w+S4wPYetfSlfFYO/s3fuetl/N7N83f7tFocl8TQD8PNUBAP+p6/9dkr52mmjgiaWVgqKMkmvob4pSxwfDjVpZWCooiJJ/wCuqV82QwyX0q3NypWJTmGE9v8Aab39u1cuOjeom9rf5n6ZwtWccFKnTV5uT+StHV+X59Otvf107VzokGjf8JaDrUTieW7FunmPFvJwY88DHy59qztes7XVNQOpWMsLXkKOltdI25QSpUhsfeUN1HqtWU1awWyi8YL4Y1RdQudtm0f2X/SVj8zHzLnhcgHP0qFYtKsLy60nS1ihSycB7eP/AJZlwJOnod2fTr6V4nBy/wBuqqe/JLpFa80ebbs7W6b2sflfE8pxw9GUOlSP3WktfJ3szxL4iahPqGpobu0a1u4bVYZ4jyu4Mxyp7qQQQfesnSNo1Lc2MCFzk9uVrpvi7/yH4f8ArxX/ANDeuTsLZbq/WN2YR+WxZR/EMrwfb/Cv2bNV/wAItVN/Yp/+ls4sA4yy6DSsrM67wk8mo+NdCdCyWceo25BHBlIkX/x3+dfVtfLHhq6EfjbQLWFN8hv7fKjgInmLkn+lfU9fnmC+F6WR6WXX5HpZdDG8XRrL4L12N+VfT7hTz2MbV8xoixoqIoVVGAB0Ar6f8U/8ihrX/XhP/wCi2r5SmmkvpWtrZisSnE0w7f7K+/v2rHHpykl0P0nhSpClQqSteTaS7vTb+tEfRcUhGrvrDeIYH0aeFYYLb5PLEu77wkzyT0xWKun3VrALTVb7+07mNt7XLwhN53blO0cDb8o/DNW49M0KS5HhL/hHZV0+yRbyJ2h/0ffvJwrZ5bJJx9awI/Fv9o6yY73TbrTFuz/oX2tNjSbRtZWH8L5BIHdSDXhcF6Y2pbbkfRLS65durV7+dr3dj8x4opynh6PLuqkX+Dv935XZ5p8QrbUbC40uyvJftNtEsxtblj+8ZCY/lf1K4HzdwR3zXKaPbR3VzIkuSgZmK54bBHB9v8K9B+Ln+v0T/duP5xV57pJuPPlW2C+Y5Zd7dEGRzjvX7DiVbJppPpL/ANtPOyqpKplsZ6Ju/l9p6/r+R2vhq6I8c6FbQKHk/tC3MnpGvmL19z2FfVFfLHhCODT/ABToa7sb9StwWY/M7GRevqa+p6+AwNuV2PVy23JLl2v95jeLt/8Awheu+VtEn9n3G3d0z5bYzXy7aWi2qN8xeVzmSRurH/D2r6l8U/8AIoa1/wBeE/8A6Lavlm7u/I2xxr5lxJ9yP+p9BWWP5nJRR+lcJ+zhRqVqnRq3zXRd3t36Ht+lWt/d+EtHsLTxGtvfxLDcyssSM5gOSIymeBghd3fb7mrmo3EN1Ms9vcx3ELp8jxsGXgkEAjryDWRodxZaZ4a0jXjoN5PqV1DBp0729vmQqvy7yM8R/LkHuCtQanYS+G9Vs7fRrFBopVYZbWNcGF2dj5yn+Jcthh2xkdDXznDFo5q2+0+i/wC3ttdHa3lfY/PuKYOpRaWnvrf129TzP4q6TbadLa3FtuRbtpHeEH5A4KZYDsWyM+uBXFWqyvqkCwuI5CrAMRnHr+OK9A+Lk8VzYaNPBIskUiysjqchgfL5Brz+1mFvqkErKzYVsKoySTwAPxr9uxCtk9bl/kX/AKVM8LJpTllsHLV+9v5No6Em30u0AAJ5wAOWkY/zJr6/r4+trZzL9ru8Gcj5VB4iHoPf1NfYNfm+BteXV6fqelltrz1u9Lv7znfH3/JO/Ev/AGC7n/0U1dAn+rX6Cuf8ff8AJO/Ev/YLuf8A0U1dAn+rX6CvQPUHUUUUAFFFFABRRRQAVznhr/kPeLv+wqn/AKR21dHXOeGv+Q94u/7Cqf8ApHbUAdHXzX8VXmuviTq1pCWjjXyfOm6EZhQ7V98d+1fSlfPPxM/5KFqn/bL/ANFJXFjpctNPz/zPpeFqTqYyUb2XK7+autPI1/AVrLc+CbnSNH1iPSr8XfmoyosjrGBHk7CeQemfWuk8QXscd/aagdcjOmysbFbVVVkNzktuLg8HCldp7n1rlfA02naT4dvfEa6TcahqEN19jJs4vMmCERnaBnoC2TXSarp+j2yv4Xh0N0srpHvJZFi/cMxbaV3Z+/yDjsAMV8jlql/blNx35nul297Xftb52PE4y9kqeKT+Hy/Tp8jM8VAHwhrYIB/0Gc8/9czXz2/+uh/H+Vez+Ibw6D4ZvdIvpJpYJdPnjt76U53SbXxE5/vbdoBP3iD3rxh/9dD+P8q/dckleNT/ABU//Sz4jIqTpxn1T5bPv7iOpAt9LtCSSecknlpGP8ya+jfhU0r/AA20lpkEch84lQc4/fPj8cV84W9vJLMLu7GJP+WcXURD+p96+kfhdKk3w50p42DLmYZHtM4NfmWC/iPq7bnqZf8Axn1dtX92h2FfN/xXu/I+IWpRxr5lxJ5WyP8A7ZJyfQV9IV86fEq3jT4k6xMF/eSeTuY+ghTj6VtjrKmm+/8AmffcLKpLGSjTdrxevZXW3n/w+uzu/CSA6ddapf3eppHEUjScSYVZJGY7CGPTbhgB3312d9Pe+H/DN1Ffak2tagjm48tESOVoDIAdqA87Qc++MVxvw7s9P1eTUtI1LTjd28qxz5ZMxo0bHAY9id/A7hWrtY2sNcgfxA2i3NpqEe6zV7uHZKIw+emfuk5wfc18ZH3s6pt/z0+i7rl8+9/ReRwcXwhReKilooPTXX3Nfv7mDq15b6h4M1G7tJVlglsZmR16EbDXz0f9Rc/Vv5V7l4rtL6w0u9udMCvZvayxXNnwoAbcTKn+0CxJHce4FeGn/UXP1b+VfveUtuhK/wDe/wDSWfnuQwjGM5Qd0+X1XurR+f4HTabakRRXM7B5PLAj9I1x29z3Ne+fBK5juvBt68WSg1GRQ2OGxHHyPb/Cvn228zUbaGEbktERVkboZCByo9vU19DfBhVTwddKoAVb5wAO37uOvzWP++Svvd/LU9PCf7x72+vyPRa8M+NM0cHiq2llYKi6ehJP/XSSvc68G+NNoJ/HNjLKxaOPT0KR9t3mSfMfXtitcZb2Wp9xw05rHr2au7P09WU/hrDqmq2mrx2eqf2TM8ltJF+6WRzGpfdlT65H049a7rxDZ6lqsdxfaR4kSO0+ziKO3jiSRPPWUNuLg5xgbSvpmuL8A30Ojx6lqjaZdX06NBbILSLzJFWRm3cf3cqpP0Fdu66dosx8O6dok9vAITeLcRw/6OrF8Fd2fv8AJ49K+KgnLOqVl9uHRbe7fXfTS3zsc3F6dL61rdqD378l9tvlt0MnR9Slv7dlvLY2t7ExjmhJyNwAJKn+JSGUg+9fOz/8fMX0b+lfQ2taQ2pLFPa3BttQtSWtpxyAT1Vh3U4GR/hXzy//AB8xfRv6V++ZJf2VRP8Amh/6Wfm2Qezc6k4aXjC67e6/w7dfze9AkmowxI4ZLONQCDwZSP8A2X+dfQnwZ2jwfdquMC/cYHb93HXz/wDanW3t7a2Ae5aJTz0QY+8f8O9e9/BG2W18F3aBmdm1B2d26s3lx81+bP8A32d9NZWXzPZwf8fXTey/U9Krw/4yf8jfaf8AXgn/AKMkr3CvA/jcLifxpZ20W6OM6ehkmHXHmSfKvv79qrGK9I+54aqezx6aV3Z6L+vxKfwu1S2Txddq8sccK2jIZpHCr5hkjAQE9TXfz6YzeGpdC1zWI9WuXBkmEkaRtJEX4+QHIAJHzDuK89+HOh6ZqWtSWd5ZRT20Nt5qRuMhWV0wfr/jXoEc2natZjxI2jXNjfyj7HvvIvLlVA/AIzwCRx7kCvjLQecUbbc9O+i3vprvrre3luZ8Z+1hGu5P3vZt6dPde3p33OftLlvDxttO1O7eeOaVo7S6kHQALsSRv75ywB77fWvn4/8AHtcf7zV9MXtlbajaS2l3Cs0Eq7XRuhFfM5/49rj/AHmr9xylNRqrpaX5M/M8gqRqTqSt71qd+22/+Z0FpcyNZQ2lrgzkEs55EQyeT7+gr6D+CNslr4Ku40yc6g7MzHJY+XHkmvAbGWGz0lJnAG4nOBy5zgD3Ne+/BA3DeC7x7gBWbUXIQfwDy48Anuf8a+Hxn/I1r2255/P3mezhL/WHbRa/NnpVeS/Gz/mBf9vH/tOvWq8d+O90bcaAkaGSeT7QI09f9Xkn0ArPFpui0v61PseH6kaeY05y21/9JZyXgW1vb7xGbfTtWOnXCw+c7LEJDJGsibkwegORzXqUzPJfTasmvwvo8lqbeO0UIUMxbG4SZ5J+7t9a8m+Hd2NA12W6lsrzUZ7qIQSfZYt7LukTkjsgr0e7i0LSYLjQRoM8On6fanVFnWAmBHRi3ytnJcHnHpXwmMVswh2vHpHa65t9dNLfPY6eKXUnVqcys3Hb5O3z7/ruYd3bN4eNzqOmWjzxzSrJd2sZ6ABt7xr/AHzlSR32+teI65cRXnia9uYH3wzTzSRtjGVL5B/I19EwTxXMMc8EiyRSKGR0OQwPQg189eJAF8X6kAAALqcAD/fr97yZWnO214f+lI/JeH6jnK017yhv/wBvPR+hcsLiK00hJGHLOwCqPmdtxwB6mvZvgPHOP+EgmuW/eSfZ/wB2D8sYHm4A9+eTXjGj2q+Qt1IxdssEB6Rjcc4+vrXtHwJuhdN4hManyVNuFk7Of3ucew45r8+xP/Izq2/mlf72e9hv9693u7v79P6/I9irnLL/AJKRrX/YKsf/AEbdV0dc5Zf8lI1r/sFWP/o26rpPaOjooooAKKKKACiiigArnfH3/JO/Ev8A2C7n/wBFNXRVzvj7/knfiX/sF3P/AKKagDoE/wBWv0Fch8VYmn+G2rRrI0e7yQWXqB5yZx+Fden+rX6CuU+Jn/JPdU/7Zf8Ao1KzrO1OT8mdmXRUsZSi9nKP5o+doYY4IliiUKijAAr36WQnV01hfEMCaNBC0M9t8nlmXd94yZ4I6Yr52uLiS4mNpaNhh/rZu0Y9B/tfyr3qXTNCjuT4S/4R2VtPvUa8ldYf9H37wcM2eGyAcfSvgs8ir03Ld83RPTS7169v0PruJ6kZeyjTWkeZeV9NF6denToyK+hSc3EE4WZHLJIGAw4PByPevDPH+mPpPiOztPtMk9uttm3EnLRR7mwme+DnBPbA7V60t9eWHiCbT7+MtaXMsj2VwqbQg5byXH8JUA4PQgeorzX4r/8AI32H/XkP/Q3r9nyG0nSfVKH5o/CsrU6WNcL3jJ1H5dNf079Dk9JuI7W7upZDxjAA5LH5cADua9H+FNvLL8SdKu7oYkxN5ceeIwYX/M+przvQ0V9SnLKCV+Zc9jgDP616L8Lrp7r4m6UIAPs8ZmDyH+M+S/C/Tua8HiP/AJGrt/XvM+hlf6zHl8rv9PmfSdY3i4uPBeumMBnGn3G0E4BPltitmsnxT/yKGtf9eE//AKLauWfws+gwyvWgvNfmfLNpaeRukkbzLiT78n9B6CveG07Vxok+jf8ACWga1K5niuzbp5iRbwcCPPIx8ufevCLu7W1RflLyucRxr1Y/4e9e3vq1g1lL4wbwxqjahbbrNY/sv+ktH5mPlXPK5JOfrXwWdKo/ZyS6u2ieullr079O59pxOqUPZUodOa/ztv59e/XqT30sc13K0cySgHaXQgjcBgjjuCCDXj3xZ021tJra8gj2S3SymbB+VioX5sevPJ74HpXoN/osuh+ImutEi22N1KpvLFmwFLYzKmehGeV6Ee4rgvireW+oaXo93aTLLBLHOyOp4P3K/WuGHF4egl0pK3/gDPwyjCUM35oO6dSpf1tez+a077+nGaKqm9BYA7YiQT25FdR4Tlkv/G2hmFilrHqNuTIOspEi8D/Z9T3rkdOt/tVyIi7LGYyXC/xDI4/lXaeGriO38aeH7aJN0jX9uAi/wr5i5J9AK87iz/kbu2rtH5aI9ur/AB1bV/kfU9Y/i2RYvBmuyOcImn3DMfQCNq2KyPFXPhDWwf8Anwn/APRbVxz+Fn0mGv7aFu6/M+U4YZL6Vbm5UrEpzDCe3+03v7dq950FnjstK1Z9fhTR49Mit5LRggQTDA3GTPBH3dvrXijusaM7sFVRkk9AK9d0K10S/wBE0zw3LoM8tleafFqUk7Qn7O0jEEgtnO8nnHpXwmdvmpxb2v2Tsuu/Xt1PueJacaVGnG95Ntvu9Py/BBFc7NTvtKutRN5qFq++V3jEZKP86YA4ICsFyO6mvO/i7/x86F9Lj/2nXf6hbW/iC9g1UW91YXVtOVjMibJNittZWHdGC5x6EGvK/iJq7alNpEFzAbbULXz1uYDyAT5eGU91bBwf8K/V+G3JQwinvan+nyPwejSjLNnOlsqlW/lpv6P8L2fRvkNMgS4vmikBKNIcjPXC5xXc+GroR+NtAtYU3yG/t8qOAieYuSf6Vw2m+d9sb7OF80uQu7oPl6/h1rufB0EVj4q0Xc+XfUbffI55djIo/wAiuTi6316lf+Xb/t+Z7uIt7aN9drI+p6yfFP8AyKGtf9eE/wD6LatasbxcnmeC9djLMu7T7gZU4IzG3SvOn8LPosNf20Ld1+Z8qzTSX0rW1sxWJTiaYdv9lff37V7houn6g3gXT9Hs/Eq2upGCOeGQQozxW+QVTYTyAMJuPp+FeOQwxwRLFEoVFGABXruk31hZ+F7HxR/wj1/NqENtHp/7m33TvGGC5UZ5QkbgfSvhs6bcIKC66aJ69L36fgfccS0nGlCdR3k2/RK2y/rX8pdf8R2sPiC2t3KGzuIxHFeI4aPzwzAxMR91umM9TkdRXFfFv/kT4f8Ar7X/ANAeu71Tw5o9tby6bDp8MdlcAySwqOGZiST9en0wMdK8u+Jsupw6NJZXsfnWr3Xn210gwAu1/wB049Ru4PcD1Br9H4XtHAUOXWPI7d/mfhdWMKmcTcdJKor+ej1Xn3XzXl57bCZtQthAyrIdwDMMgccn8q6IC30u0JJJ5ySeWkY/zJrnrWdLbUbaWTO1Q3AGSTtwAPxrft7eSWYXd2MSf8s4uoiH9T70caf8jR325Y/PQ9jF7rm2t9+r/ryPsGiiiuM94+Q7u78jbHGvmXEn3I/6n0FevfD2C8sPD2n6jf6+g077PJCbSSNUQTGdiH3k56HaFryG0tPI3SSN5lxJ9+T+g9BXrXhBdO1rw/ZeHdR0Se4g8lrxriSH/R2YTMAu7P3+Bx6V8NnVvq6itr6uybtZ7X/4c/ROI41JYWNWpo+ZWXbR793+C2XVuLWLTxF4fuo7+bVJdcjCkXMHkrGwj3sVaMD+JQTkfxD0wK574oSJL4WtWjdXAvgpKnPISQEfgQRXeDV/7aUXX2C8stpaPyruLY52sRux6GvMviTo62Nit7azNHb3V2GntuqmXY37wehIyD68Gv07hBTjSwvMteu2mvS2h+B1pwqZtNS0amrPvo9H+j+TPNLN/LuC4Vm2zZ2r1PTgV0dtbOZftd3gzkfKoPEQ9B7+prntP/4/F/67j+YrdZm1RyiErZKcO44Mp9B/s+p70+Mr81DppLX/ALeZ7mLvzdl1Z9i01/8AVt9DTqa/+rb6GvJPcOf8A/8AJO/DX/YLtv8A0UtdFXO+Af8Aknfhr/sF23/opa6KgAooooAKKKKACiiigAorj7nxxNBNdXS6QX0OzvfsVxffaAHVw4RmEW3lFc4J3A8EgHFdeSAMk4oA53w1/wAh7xd/2FU/9I7aujrmvDciDXvF2XX/AJCqd/8Apztq6PzI/wC+v50AfMfihVXxdrYUAD+0Lg8epkau08BjU7rwdPHod5awXMeqDzWnQuNgSMsuB3I/yOo8+8Y3Elx401u1tGwft8/mzDpGPMbgerV2Pw9XQfC2iy69cxzLcS3I04PGGclW2sMqP9oklvw9q+NziD9g9LyurK1769T9Dzetz5bGMPhXLd+fZenV/Le9ux8VaWdWd7e/MUunSRr5KKMSRygnc+71+5gjpg155401KSz8N3mi34kLNHD9lu25FztZN+fR8hjjuOa7U/2B4cubbwtpzNBIsb3KRSMzBg7HOGbqcg8VhfEAI/gm/wAhWZTGV7kHzFHH4E193wTFLCYTl6N9LXXPpdea13PwbNJtZxOM1eLnTt5Pl3XzVn39bW8HP/Htcf7zV1dvbySzC7uxiT/lnF1EQ/qfeuVIP2a44PVq6eR31GRoIWK2ynEso6v/ALK/1Nd3GN28Pb+V6/M93F3srab6/d+Z9W+FCG8HaIQQQbCAgjv+7WtesXwmYovBuhxqVVV0+BQuegEa1seZH/fX868aHwo9an8CPl3xHapD401+XJeWTULgl2648xsAewr0D4Vx6kLO8lNxANMLlUhK/vBPhctn+7t2jHr6d/PvGd2tt4r1khTJI9/OI416sfMb9Peup+HVtpetaLPoWs+bNdQXi6oAhZETAVVAYehU8Hr1+nx2dRcsPJy2v2u7X3SP0bN504ZbGjTW3K35evm/+CzvFi1WHw9BFrd1bXN+JSXkt0KIRltvB9sV5j8QrG60zwndR6fHCNIdUWWAfKYXM2/evqCTtK9uMd663UtW8PTwW3je3guibg/YJZ2DL5UQZjuZD23qOcd/rWP8RZEk+H+pNG6uGERBU5yPNSvq+E4r+zop6SUpXVrWfVW7H4fmrqQzpSteMuT0+KP4q/8ASZ4i3/HzH/ut/SuiZm1RyiErZKcO44Mp9B/s+p71zzA/aY+D91v6V09xcfZwltbRhp2GEQcBR6n0Ar6fjh/vKdt+af8A6TTPSxV/d5Vrr8j6R+GCqnw60lVAVQJQAOg/evXXVxnwrHkfDbSY5Z/MkHnFmY4JJmc12PmR/wB9fzr5yl/Dj6I9ah/Cj6I+cPifaNP8TtUlnYNFGYTFGOmfJT5j6n0rX+HsOrzQ340e6treRbm1aczxlw0I8zcox0J4/wDrdao/E6RF8farIzAIBES2eP8AVJR8NtcstPOoahqMUyQ3EtvZWpRGZiZC+SQOgO0c+3vXy+cqc6NTlV7Pa1/tdj9HxTpUskjBfFKMH/6Tv5LZfJHo+rRat/apma6tm0cxKscAQ+aJsnLFumMdv8njfGOjrdaVealbzNb3lvaSq0i8iWLaS0bDuDzj0PNaOqG10Gyg8LeFgyXWn4vvs8wZo5omLhk8w9CS2R7gds1W1DUYtT8FaldRq8ZeynzFKNrowVgVI9QQR+FfU8FpfUqUGtOZ20tddH6/M/Cc+VSnmcq0H0in/wCBLR+T+4+fm/49Jv8Aeb+ddP8AanW3t7a2Ae5aJTz0QY+8f8O9cywP2Sbg/eb+ddTarb2GniZvl3KHdjySSOn9AK+h4vt7Cj10j/7ce3jLWWl3c+kPhVCYPhtpMZdpCPOJZupJmcmuyrjPhXOZPhtpLyqInPnHYx5A858Z98YrsfMj/vr+dfPUr8kb9j1aN/Zxv2R82/FV5rr4k6taQlo418nzpuhGYUO1ffHftXSfCSFoF1WO3MccKxxKFK5+b59p69OufXNZHxLIPxB1Qggj91yP+uSVJ8PbPR9am1C11BXkaxmt72PYWAV0345XqRu+7718pnfvUKsXtfor/aR+jYmEYZJGcneUowS9Pddl+vff09FWHWovDlvHqt5aT3yPm7eGMqrqS20KOxzs59j61y3i61gu/CeqrcRLIEtZJVDDO1lUlSPcEVcvbbw54n0x/EFsbyG41aNbSOcF0dfLcuDt6KQ0ec98D15wdRv7mLwrqmn6xLCL82dysTocC6VY87wOx+YZX1BxxXv8FXjg5RkrfvHfS1nyq6t5PRH4jxHTbzCM4PVQjp1tz7r9e2/p4if+Ppf9w/zFdJA1vp+mpIRtDAMccl2PYeprnCD9qXg/cP8AMV0NjaswiubkhmVAIlHRFx1+pr7fja3sI3enO/8A0lHpYu3KrvT8z3v4IG4bwXePcAKzai5CD+AeXHgE9z/jXpVea/Ba6hm8IXxRxhdRdcngE+XH09a9I8yP++v518jQ/hq6senhr+xjdWPCPjfd+R4vso418y4ksE2R/wDbSTk+grD+G+n6qviUSadd26XRQPeSToW3wB13Ig7Hpiui+MSRnxnayqFLnT0UsPQSSHH61h+B9YsNJ8ReXfmTbfRfZEEaliWd1645A9+1fP5s5ezqxpq79L3+R+kU6V8kVSo9o6Lt5+r79Fout/Steu77S/7R1K/vLf8AsFYYljjSImSNzIAzsf7vP4D6c1lZZFDowZGAIIOQRUaQeHbGAeE7KGUHSoxcxpJvZAJCyn5jw3EjcH19uMAyReD4o0RZJNHeVi7bt32IHbtAHXy87v8AdyO1erwX7mAl2530tpyxs7a7rV/rufhvFdJVcW4x+P2a9H7+3r27+u/gh/483/3j/wChV0ulWq+Ul1IxdsEID0jGecfX1rmyD9jfg/eP/oVb1nHNeWyW7Bo7VM7z0MvOcD29fyr7jizXLqev/Pv8qh7WLvyb21PoT4JXMd14NvXiyUGoyKGxw2I4+R7f4V6TXnPwaMcXg66QFVAvnAXpgeXHXonmR/31/OvksPb2UbHfhbexjY56y/5KRrX/AGCrH/0bdV0dc3YsG+I+tEEH/iVWPT/rrdV0lbHQFFFFABRRRQAUVkeINbOiWlu0Vq13d3dwlra24cJ5kjAnljnaAqsScHgdDTNB12XVZb+zvbL7FqNhIsdxAsvmphlDKyvgZUg9wDkEYoAreN/+QDbf9hXTv/SyGujrmvG7KNCthuGf7V07v/0+Q10fmR/31/OgDz74yf8AIoWn/X+n/ouSvEtHubibxVplrpxQTrdw7pXGUjO8YBHc+1eyfG3zZfBlnHbSqrNqCBnzkqvlyZI9/wDGvIvDgg03WdMYAiGG6jdsAsThwSfUmvEzKycnu7bH32ROpPK3COkVzXffyX6v5LXVe8+Xq3/CRef9rtv7G+zbfI2HzPO3fe3dMY4riodUv7bXptJ1tYzcSyO9rcwqRHOASSuP4WUdu4GfWtL+xfCXlf8ACBfZ7jyfL+3+Xvk248zP+sz13ds0X62uqwzAlvJuA21vuuoYEZHdTgn3FcPBULVqzjf4VvG11fR7vV6/duz8l4olFfV1NXTl80/66dfLRnh/xG/5HHWP+2f/AKJSqWiwRySvK65eMDaT2zn/AAp3jK3urbxBqcN3c/apk2KZ9uC48tdpPvjGffNQ6dBNcCSJX8uFseaR94jngfX1r9ezl3ySprb3Kf8A6WZ0Y2wFOKf2Vr8keg/C66e6+JulCAD7PGZg8h/jPkvwv07mvpOvnH4ZSwWvxE0W2GE3CYKoHQCF/wAhX0Z5kf8AfX86/PsF/D0XU9HLv4TsrK/+RynxM/5J7qn/AGy/9GpXg2h3KQeKNFRj88l9CqKBkk7xzj0HU17n8U7gRfDfVnjXzXHkhUU8kmZBXgfhmwVvEWnyXpEks1zEshBICqXHyr3A/WuLNIrVy/l/zP0fh2rP+zqlOnvdtvolyr72+i+b8/bxa+LP+Eajg/tTTv7cEoZ7jyD5Rj39Nvrt4/zmuYvbW40DXb+9hkL6PNJNPdQsSTbv8zF07kMRyvqcjvWquueFgi+PAl3vmjGn7/Lk3bfMxjy/94dcf4VK8MFoTbQ4EMJ8tAWzhRwOT14rg4MpyVau5Rs7fy21vqvRaaefQ/K+KKrh9XW6ctV/XXszxn4nzxXPinT54JFkik09WR0OQwLtgg1zOkW73RuYjJtgL5lA6t6DPp1zW78Q9LtdL8WQxWSlYZbYyiMHKxku2Qo7DIzj1JrC0i4kh+0xwxl55XwgPQY6kn0Ga/U83cv7Enbe6/8AbDDApLL4ey7K1/X9D0v4Zzww/EnRrVR8zCbCqPuqIX5PoO1fR1fN/wAKbZbX4gaazvvlcymSVurHyn/Ie1fR3mR/31/OviMFb2bt3PUy63snbv8A5HJ/E9Fk+HeqK6hhmE4PqJkIr54d1jRndgqqMknoBX0L8Tpol+Heqs0igAREnP8A01SvmtEbU3EsqlbNTmOMjBkP95vb0Fc2Ojeom9rf5n6bwtW5MFKMFebk7fdHV+S/4C1PpRI9WHiGSd7u2OjG3CxwBD5gm3csW6Yxxj/J4y80XUVuRqN5Nby+IIElTzoQY4plIby0cddoyh9QR19dGPRvCbIngRYLjyrRFv1QvIFH7zI/eZ5O49M/y4bDr+n+IDLe2EpaMSGNlddrqy8EFTyOmeexFeJwZTtjammnI9XFLS8eV3u9Wrt+m7Pyziec4UKLj/z8jf0s738jxT4i6oNW1OOUwSW88VqsVxBIPmikDsSM9xgggjqCKw7F51vgLdA0jxMoJ6LyvJrq/i2AdfiKgc2S5x/vvXL6bMltetLKdqLC3/oS1+z5pf8AsWqt3yU//S2cOXtPL4OEem252Pg6CKx8VaLufLvqNvvkc8uxkUf5FfU9fKfg+GS58aaHd3a7Qt/AYoT/AAfvF5P+1/KvqrzI/wC+v51+d4LaV3qell3wyu7u+pkeLk8zwXrsZZl3afcDKnBGY26V8xQwxwRLFEoVFGABX094pkQ+EdaAdc/YJ+//AEzavla4nlnmNpaHDD/Wzdox6D1b+VY49OUkuh+k8KTp0qFSbV5XSXd6bL+vN7H0ELXxX/wjtpAdT0/+2VmVrmfyT5bx7jkBex24GfY9OtQa5bQXd86zRpKqOki7hnay4II9wRVSLWvC8Yi8cIl2H1AJYB/LcsRvIAMfbkdcfz5zbdtM0DV5fDFrA9pFCPMtPMkLCdWG9yrHuGZgQecYPSvC4Ojy4+pzqz5JfZS15o8y36OyS8+nX8x4njOWHoun0qRfys9TzH4hf2pBcaXY6l+++zrN5N4OPPQmPG4dnGOfXIPeuV0e4jtZriWQ8fMAByWORgAdzXoHxbO6fRMc/LcdPrFXB6DGrXkhdQSpZlyOhyBn9a/YMVZZNUT7S/8AbTzcsmp5ZGTVt9v8T/P/AIY6zwbbyTeNdEu7sfvPt8HlxdREPMX8z719V18p+Fp5Lvxvoi27bLeLUYDJL/fIkX5R7epr6q8yP++v518Fgr8rv/wx7GX83K+b7uxkeLi48F66YwGcafcbQTgE+W2K+XLS08jdJI3mXEn35P6D0FfUnimRD4R1oB1z9gn7/wDTNq+XLq6W2QfKXlc4jjXqx/w96xx/M5KK6n6RwmqUaNStUfwv9O3fp36Lc958MRauttZTS3dsdJbTLdYIRGfMWXaMkt3Ht/LvVEWrQWsEet3Nvc34U75LdCiEbm24B9sVnaFbeH9W0PSvDN5DMbiyt7fVHVTIqCRvnJD55+Zm49/biC88T/2hqFlqdjDJNo18ogZjGyywzB2Tcyn+A/KPbGe5r57hiLhmkm46WevLbo+XX+8rt+nU/PuKIOrStHfnT/8AJtvU81+J+jxaR9k+yyMtpO0rpa/wQvlNxX0DZBx0BBx1rkdO/wCQ1bZ/uv8AyrvvjA6y2ukNGwdSJSCpyCP3defWtuLjVIIn3BGVt2DjI9Pxr9rxCismrL+4v/SpnhZROVTLYyqPW0vzZtMzao5RCVslOHccGU+g/wBn1PevsWvkC4uPs4S2tow07DCIOAo9T6AV9e+ZH/fX86/OcDez7aHp5be0tLLS34nP+Pv+Sd+Jf+wXc/8Aopq6BP8AVr9BXO+PZEPw78SgOuf7Lue//TJq6JP9Wv0Fd56Y6iiigAooooAKKK5TV/GF3ZX2qR6forX9vpEayX8v2gRsuV37Y12newTDYJXqBnNAHV1znhr/AJD3i7/sKp/6R21btvcw3VpDdQuGhmRZEb1UjIP5VgeG5EGveLsuv/IVTv8A9OdtQB0tfNfxVnlm+JOq2lqSrDyfNlxxGDCnA9WNfSXmR/31/Ovnr4l7T8QtVK458rkd/wB0lceOdqadup9LwtB1MZKKdlyu/e11ou3r92upufCWz1G1s5jFcW66KHdTAUJlM+E+fd6bePrXSzy39hpUUXiC/tJbq4vmS3aFNgKkMVTB6tgH/wCv1PGeCDoXiHRrvwlqaSyO832xlXcq7V8sD5x0OR09K3tUtPDfjW3fVxDM8qF9OLybo2UK27Kg9CGAIYc/yr5HL4zeeQlJfaX2fL3df72t/RbnicYxpKnio7R206bdPLt+RV8Wxxy+D9aWRFcCymYBhnkISD9QQDXz4/8Arofx/lXtWuai2m+GtQ0bU7hpriTTbjybtlws5CvhT/t7dpPrk4rxZwfOh4Pf+VfumSSTjU/xU/8A0s+IyKnKnGae3u2fR+4tUdFJI+oyNDCxW1U4llHV/wDZX+pr6W+F0aRfDnSY41CoolAA6D969fN8862cccFvEGlYYiiXgfU+gFfRnwr3RfDbSUnmV5f3xZunJmc/lX5lgvj00Vv6Z6uXX9pporafetTs6+cfivdra+P9T+UvK5iEca9WPlJ+nvX0Z5kf99fzr50+JNvEPiXrFyDvkcQgEnO0CFOB/Ot8db2av3PveFvaPGSVPRuL17arXzZa+GtlrbadrbaZe20OpyyWpZ50LxqgL5UD6E8/y6jvfFN3qem+dqZmjfQobdRPbxwlpvM8wAuCP4VU5I9jwe3B+A9Q0vQhqOuais26ERW0bRIzkCVjn5R15Refb3rtF/sHw6zeGLBJo5pUa/AO905fDfOcjOe3+PPxkIzlnVKSX24fZX92+v8AdVrdrvbrwcXQhS+tR3Sg+ur9z83qZWtzxXPhHU54JFkiksZWR0OQwMZwQa+dz/qLn6t/KvbvEsVzoujXi6bAkmkyWssUttEMNAz7z5q+q5b5h2ABHQ14kQfIueD1b+VfvOUyvQlf+9/6Sz89yGmoxm4u6fLbv8K37M6VboxWVrBAokuXiXavZRj7zegr3v4IW5t/Bd4GkaSRtQdnc9z5cf5DivBbGOCx09Z3bBZA7u3J6cD6DoBXvHwSuHl8GXkkyCLdqDlFY/Nt8uPBPv1r82h/vU7bXf5np4L+O+XbX5npleHfGd1j8WWzuwVV09CSegHmSV7f5kf99fzrwb41W32zxtZGSQNbJp6Hyx/E3mSdfYccVrjEnS1PuOG5Tjj1yK7s/wCn5Dvg5Ne3N9qtwDHHp3lxqEdT5juSdrewxu475Fdje2/iZPB9xHPqFhLq4l3rIkJEbIHBCEdRkcE9s9zzXDeAtP0rXP7Q0fVI5HV/JukCsyDMTHqw93HHfn0rso5NB18nxVZpP9r8trBXlDp8qyZI2HjqDz+HWviYwUs6puzS56f2fS2t+ut/Tr05uLuan9au+ZqD36+527eXYpaPqg1W0aVoJLeeJzFPBIPmikABIz3GCCCOoIr50f8A4+Yvo39K+g9a0+4ujDeabcrBqFrlotx/dyg43I47g7Rz1GARXz64P2iLg9G/pX77kjfsqif80P8A0s/N8hjDnqThpeMNO3uv8O39N9Hai30/ThMx2hlDux5JJHT+gFe8/BB55fBd5JPGIy2ouUTuq+XHjPvXgdlayTCGe6wRGoEMY6Lx94+5/SvffgvcwyeEb4LIp2ai6nnv5cdfmz/36p1d5fmexgv94fV63Z6TXh/xk/5G+0/68E/9GSV7d5kf99fzrwX42yzTeM7O2tTtLaehebsg8yTp6mqxkealY+54bqqnj1Jq+j0XX+v+HMjwHLql14mntdCubeG5jt900s8ZdAnmR7k4/iI/l2zmvTvEml32qtdw3NxbtoMtqqGBVImE4kBDhx0xgY9xXmfw+1TTvC+rPLciVYXh8hfLjLsXeRACcfzr0KJfD+gAeFNOjmjkhiN8gYuyAM+0/Oepyx4r4/kbzihaOnND7N7q6u2/LTva/wB+fGcqsY15Sfvezb06e67W/wAzG0+8n0x7fTNZulkuJXdLW4xjz1UKRu7B+SMd9pNfPZ/49rj/AHmr6T1LT7PVrKSzvFDxPg5BwykdGU9iOxr5tIP2a44PVq/bsquo1V0tL8mfmeQSjOdSSVpNU79tun+X+dl0WlWgaKK5lbeVBESnonPJ+p9a+gfgpcR3Hg++MR3Kuouu7sSI4+nrXzzZia7tI7VQ0UC582ToWyc7V/qa+h/gwIoPBtzGu1FW+cBemB5cdfD43/kbV7788/8A0pns4X/eXzb6/JHo9eS/GwDOhHAyPtHP/fuvWPMj/vr+deP/AB1vEgTQto82VjcBI0PLH93/AJzWeLTdFpf1qfY8P1I08xpzm7JX/wDSWYnwtcDxRcruUMbJ8A/78f8AiK737N4kXwzHDd6hYyaksoa4lSIhHg35ZVHZinGcdfzryf4d+G7HWPEEra0pmkjhFwpV2QIyyIVAwen869Cl1nws1m/jr/SEaeH+zvOdHGF8zHKHgDdzu9K+ExVNf2jBx11h9lNXvor32et/TqdPFMp1KtRyVrx0XXb8zGlhTwlHcXdrFNLpskqvLbRjItQd2+RB1252kqOnJHpXi+vzR3Hiq/nhdZIpLiZ0dTkMpfIIr6IWWORVZXVlYZBByCK+ePEESReK7+OJAkaXM6qqjAAD8Ae1fveTLlnO214f+lI/JeH6ntJ3mve5N+/vPfz8+vXUnsI5r2zS3IaO1Rm3noZfmJwPb1/Kvc/ghsX+3Ik2jaLf5R2H7zH8q8Ps7potOhggTfcuX2qeijcfmb0Fe0/Am3S0XXi8m+aQ25kkbgsf3n6e1fn2K/5GVS/88rfe9T3sPf60r6auy+/U9jrnLL/kpGtf9gqx/wDRt1XQ+ZH/AH1/OudsWDfEfWiCD/xKrHp/11uq6T2jpKKKKACiiigAoorN17WIdA0W41KaN5RFtCxR43SOzBUUZ7lmA/GgDSrnfH3/ACTvxL/2C7n/ANFNT9H8QXd3q9xpGq6Yun6hHAtyix3HnxyRMSuQ21eQRggjuME5qPx8yj4eeJQSM/2Xc8Z/6ZNQB0Kf6tfoK5D4qJJJ8NtWSKTy3byRvxnA85M/jjNdakkflr869B3rlPiW6H4faoAyk/uuh/6apWdZ2pyfkzsy6KljKUX1lH80fO1vbx20IiiXCj8yfU+9e8m18V/8I7dwDU9P/tlpma2n8k+Wke4YBXuduRn3HXrXz/dXMjS/ZbTBnIyzkZWIep9/QV7dLrXheQS+OHS7L6eHsC/luGA3gECPvyeuP5cfCZ1Co/ZvlvdvpfXSy9H+PY+t4nqU37KnT2jzLy6aL0JNStkuxdW10qyJLvjlAyAwOQfp1NeG+P7K70/xHZ2t1dm6SO2xbyv9/wArc2A57sDkZ7gDvXrUWrSwa/Ppd+gVZZXewnUHbLHkkIc9HUdQeoGfWvNfit83i6xI5H2MdP8Aeev2TIbN0n5Q/NH4ZlaqUsa6b2bqP8tV+T+57HI6XA1zeXEQkKIfv7epXA4B7dq9P+GMkFv8RtFtVwpYTBEUdAIX5+leY6XNJBd3BjiaSR/lRe2cDqew4r0v4UWotviFpssrh5383zJDx/yyfgegrwuJP+Rprtf/ANuZ9BU/3iPNtdWPpGsbxczJ4L11kTew0+4IXOMny24rX8yP++v51k+KZEPhHWgHXP2Cfv8A9M2rln8LPoMMr1oLzX5nyzaWjI7XFwwe5cYJHRB/dX2/nX0c8erHxDHOl3bDRhblZICh8wzbuGDdMY4x/kfO1zcpaxb3ySThVUZLH0Ar2eTRvCao/gRoLjyrtGv2QPIVP7zJ/eZ4O4dM/wA+fgM8jzum5X69L2Wl3utun5o+04mVOn7KnB6rmb111tv6kzpfRySrqM0U1z5jkvEu1dhYlBj1C7QfcGvIfippNtp0lvcW25FuxM7wg/IHAXLAdi2Rn1wK9Bur64OvvqemtNd6Tdzi3mt5Bh7d0PleYgPOzKcj/gXrXE/FqeK6sdImgkWWN452V0OQQQmDX67w1rQoqas1TX/pDPwyjGVPN7xd4yqVPy2fo/8ANHB6dLLFcAQR+ZK8ZVc9ByOT7V2ngy2S08WaMzvvlk1C38yVurHzFA/D0FchpMiQXDSynaiwkkn6rXU+EI5Lzxpod1cqUiTUIGhhPb94vzN7+3avN4s1zV9rR+eiPcq39qui0+fkfVtY/ixlTwbrjuQqrp85JPYeW1a3mR/31/OsjxW0T+D9bQsjBrCcEE5z+7auOfws+jw1/bQt3X5nyoiNqbiWVStmpzHGesh/vN7egr3fSLfxI3w/tIrTULGPU2RGt5XiJRIMgqrDuwTjOOv514wSACSQAO9eqaNqvhm38PWHjWRbkzWtlHpjSIjk4DAEBBwRu/ir4bOlOcIcsb2eitfXovn1/I+44kpxp0YXd5Nu776fkui6epr317bXGs31tFOjz2xRZkHVCUDDj3B/zivKvi6ii70Nwo3FZwWxyQPLx/M/nXeX/hewstVhn0qRrSaCUsWDFvNjdt7xvnqCWYjPQ4xXmfxE1iLWDo2I3guoDcJc2z/eif8Ad8H1B6g9CK/U+GWlSwkf7tO34fifhNKlfNnUp7e0q38nb8n0fyfnx2mTR2968srbUV2yf+A12fg6CS68a6Hd3S7dt/AYYT/B+8Xk/wC1/KuP0dM6lhlyPMJ5H+zXY+F7mS48caJFbECKLUbczSnpxIvyj39T2rm4t/36nb+Xf/t+Z7ta/tly+WvkfVdZPin/AJFDWv8Arwn/APRbVqeZH/fX86xvFpWTwZrqLKFZtPuAGUjIPltzXnT+Fn0OGdq0Gu6/M+Wbi4kuJjaWjYYf62btGPQf7X8q988MW+qxWujOt3b/ANippEEYgKEy+cAPm3emOPrXhlvbx20IiiXCj8yfU+9etaTp/hm/0Gx8HXMNwxuLOPVJFDOFJZgxO8Hg7j0r4XO0pU4xS0vrpfTq91t0/M+44kpyVKFSo7yb+S02X6vr6WSWfUtQ0/Wo9L8Q3EMl1chntbiGMpE672xFz/GAAfcHvgmuT+Lf/Inw/wDX2v8A6A9djqV5o/jOylVVke2VmhPmIY3WRGPzLnkEHkEV5x8TL+9/saTTb6DP+ledbXEQ+R4trjafR13Ae/X1r9K4ac44Kiqis+V9LW8rH4XVpxnm85U91UV/ueq/VfPbbgtPAOr2mf8Aa/8AQTWvJI+oyNDCxW1U4llHV/8AZX+prEtoPtGoW0RZ0VtwJXg4xyPx6V0M862cccFvEGlYYiiXgfU+gFTxl/yNXbflj+R7GJ+ONt7fdq9T6/opvmR/31/OjzI/76/nXGe8fI13draovyl5XOI416sf8PevYPCMOvS/DLTo9NvbODUTKzb5YiyBPObcuO/GRn+XWvHLS0ZHa4uGD3LjBI6IP7q+3869W8LvoPh/w3Z+KbyOf7X5ZsGeMO/ytOSBsHHUjnHtXw+cxToxjFXfMraXu7PS3Y/Q+I/aTwsak9FzKy7Kz1fn+W3c0vGV9f6TrEOoqPtOk+QEuYkXLwEM370f3hzhh2ABHeuP+KZB8L2mCD/pq/8AoEldz/Y2m6Av2PTkMcDFpSrSF/mZiTySa8x+I2mTWFgsttc7rC5vPNe2Y5McxVyWQ9lbLEj15HU1+l8GpRoYTkd1brp1+f5n4LXcambVL6SU189H+Pn19d/NrKNZbjy3GVebaR6g4rpLi4+z7La2jVp2GEQcBR6n0ArnLMSfaD5YHmed8u7pnjGa6SGGKwgkmmk3Ofmllbqx/wAPQVfGVueh10lp/wBvHtYy3Mr6+R9f01/9W30NHmR/31/OmvJH5bfOvQ968k90wfAP/JO/DX/YLtv/AEUtdFXO+Af+Sd+Gv+wXbf8Aopa6KgAooooAKKKKACiiigDzm78P662m6p4Wi00PY6hqL3C6l56BIoZJvNcFM7y4yyjAweDkV3eo6ZYavaG11Kyt7y3JDGK4iWRCR0OCMVbooA53/hAfB3/Qq6L/AOAEX/xNH/CA+Dv+hV0T/wAAIv8A4muiooA53/hAfB3/AEKuif8AgBF/8TR/wgPg7/oVdE/8AIv/AImuirgtP8XX1/4lvrB/EHhuyFvqTWiWE0LG5lRSOQfPHJyQDsIyOhoA2/8AhAfB3/Qq6J/4ARf/ABNZmgfDjw7a6dLHqPhrRpJzeXMis1nG+ImndoxnHZCox2xjtVjwz4sudX1G4S9ightLiFrzTHQEGW3WRkJbJOTjy34wMSj0qLR9Z8U+JNMj1vTY9Jt9PuMva2t0kjSyx5wrNIrAIWAzgK2MjrQBof8ACA+Dv+hV0T/wAi/+Jo/4QHwd/wBCron/AIARf/E1g6h4yvIvFesaW3iPwzo8Ni8SxLqURMkoeJXLZ89BgFiOBXewlmhjLOjsVBLIMKxx1HJ4/E0AYH/CA+Dv+hV0T/wAi/8AiaP+EB8Hf9Cron/gBF/8TXRUUAc7/wAID4O/6FXRP/ACL/4mj/hAfB3/AEKuif8AgBF/8TXRVi+I9XuNIGlG3SJvtepQ2knmAnCOTkjBHPH/ANagCv8A8ID4O/6FXRP/AAAi/wDiazNL+HHh2DUdaku/DWjPBPeLJaKbONtkXkRKQBj5fnWQ498960te12/g1uw0HRobd9Ru4pLhpbrd5VvChUFiq4LElgAAR3yRWZceK72y8O+I7r+1PD+pX2lWkkyrYs3yuqtlZYt7FRlQPvc89MUAan/CA+Dv+hV0T/wAi/8AiaP+EB8Hf9Cron/gBF/8TWVaeNL240vRWkt7eLUZdVTTNSgIYiJ9jMSnPQgKyk5+Vh1rt6AOd/4QHwd/0Kuif+AEX/xNH/CA+Dv+hV0T/wAAIv8A4muiooA53/hAfB3/AEKuif8AgBF/8TR/wgPg7/oVdE/8AIv/AImuiqnq93JYaLf3sQVpLe3klQOMglVJGfbigDJ/4QHwd/0Kuif+AEX/AMTWZpfw48OwajrUl34a0Z4J7xZLRTZxtsi8iJSAMfL86yHHvnvUeu6/4ls/BcXiWxuNJSMWEVxJbT2UjlnYAnDCVcL8wwME8dasanqHirTbjRtPN9o0l3qV48In/s+UJGiwvJ9zz8kkpjO4delAF/8A4QHwd/0Kuif+AEX/AMTR/wAID4O/6FXRP/ACL/4mo9M1vVIfE58Pa5HaNcSWpu7a6swyJKqsFdSjElWBZT94gg9sV01AHO/8ID4O/wChV0T/AMAIv/iaP+EB8Hf9Cron/gBF/wDE10VFAHO/8ID4O/6FXRP/AAAi/wDiaP8AhAfB3/Qq6J/4ARf/ABNdFRQBzv8AwgPg7/oVdE/8AIv/AImsyD4ceHV8UX91J4a0Y6fJZ28cMf2OMhZVeYyHbjjIaPnvj2rb8O6vcaudXFwkS/Y9SltI/LBGUQLgnJPPP/1qoaLqeveI/Buk6pZ3Gm2d5cx+ZN51o80eOeFUSqR+JNAE/wDwgPg7/oVdE/8AACL/AOJo/wCEB8Hf9Cron/gBF/8AE1W8E6l4h1zSLXV9UudMNvcxMRBa2ckbqwbA+dpWBHB42jr1456ugDnf+EB8Hf8AQq6J/wCAEX/xNH/CA+Dv+hV0T/wAi/8Aia6KigDnf+EB8Hf9Cron/gBF/wDE0f8ACA+Dv+hV0T/wAi/+Jroq5bXfFj+F9VcatEDplxDmxlgQl2nUcwMMnLNwUxjOCO2SAT/8ID4O/wChV0T/AMAIv/iazIPhx4dXxRf3UnhrRjp8lnbxwx/Y4yFlV5jIduOMho+e+PaotE13xf4gku4YI9HsmsJfIupJopJQZiocxoodfuBlUuTyc4AFS6x4n1XTtT07Sbi50XS7i4tmmkvL0u8DuGC+XGNyZbB3HLZA7HrQBp/8ID4O/wChV0T/AMAIv/iaP+EB8Hf9Cron/gBF/wDE1l+IfE2qaJHoEM+p6FZSX8kqz31zGxt1CoWUqDImM4A5Y9e9afg7X7nxBZXsk7Wk62100EV5ZZEF0oVTvTJPALFTyRlTg0AL/wAID4O/6FXRP/ACL/4mj/hAfB3/AEKuif8AgBF/8TXRUUAZul+H9G0MynSdJsbAzYEn2W3WPfjOM7QM4yfzrSoooAKKKKACiiigDnvFmm3t3HpV9p0IuLrTL5bsW5cJ5y7HjZQTwDtkJGeMjqKZ4asNQ/tbWtb1G0NlJqLxLFatIrvHHGmAWKkruJLHAJwMc10lFAGHeeDPC+oXUl1eeHdKuLiVt0kstnGzufUkjJqH/hAfB3/Qq6J/4ARf/E10VFAHO/8ACA+Dv+hV0T/wAi/+Jo/4QHwd/wBCron/AIARf/E10VYXjLWbjw94S1DVbXyPPt0Ur54JQZYDLAEHGD6igCL/AIQHwd/0Kuif+AEX/wATWZr/AMOPDt1p0UeneGtGjnF5bSMy2caZiWdGkGcd0DDHfOO9RDxVqB05/sWveHNav7m5htLMWELBI5GJLGTEzkgIrNgFThD+FqfxnP8A8Ivo93a2ccmrapOtlHbO5VIrj5vM3kZO1Cj5xyduO9AF7/hAfB3/AEKuif8AgBF/8TR/wgPg7/oVdE/8AIv/AImoby98T6NomrahfyaRci1sJriI28MkWJUUsFZS7blODkhlPHTnit4U8R3GtXMIl8UeGr8vB5r2enxETIcDqfPfgE4Py/lQBf8A+EB8Hf8AQq6J/wCAEX/xNH/CA+Dv+hV0T/wAi/8Aia6KigDnf+EB8Hf9Cron/gBF/wDE0f8ACA+Dv+hV0T/wAi/+JroqKAOd/wCEB8Hf9Cron/gBF/8AE1ma/wDDjw7dadFHp3hrRo5xeW0jMtnGmYlnRpBnHdAwx3zjvWvoeuyX8OtTXgijj0+/mt1ZAR+7QA5OSeeT0/KsCHxZrVxott4hnvvDuj6begPZ2+pOyvIhGV3S7wqsV5wFbHvQBt/8ID4O/wChV0T/AMAIv/iaP+EB8Hf9Cron/gBF/wDE1mX3jO6sPiFBpEsNudFltoN10ud8c8zSCPJzjYfL29PvMvNbfhvV7jWItSe4SJTa6lcWieWCMpG+ATknn1/lQBX/AOEB8Hf9Cron/gBF/wDE0f8ACA+Dv+hV0T/wAi/+JroqKAOd/wCEB8Hf9Cron/gBF/8AE0f8ID4O/wChV0T/AMAIv/ia6KigDnf+EB8Hf9Cron/gBF/8TWZr/wAOPDt1p0UeneGtGjnF5bSMy2caZiWdGkGcd0DDHfOO9a1zq1+3i2TQ7U20YOltdRyyxs+2XzNgyAwyvtwfcVk6bf8Ai+78T6lpUuo6H5eni3d3TTZQZRIGJA/0g7SNvXnr0oA0/wDhAfB3/Qq6J/4ARf8AxNH/AAgPg7/oVdE/8AIv/iaxrLXfF99ol3rduNGngguLpFsfs8scjpDK6YEvmMNxCf3MZNddo+pwa1otlqltuEF5Ak8YbqAwBAPvzQBlf8ID4O/6FXRP/ACL/wCJo/4QHwd/0Kuif+AEX/xNdFRQBzv/AAgPg7/oVdE/8AIv/iaP+EB8Hf8AQq6J/wCAEX/xNdFRQBzv/CA+Dv8AoVdE/wDACL/4ms3xF8OfDl54Z1W20zwzo0WoTWkqW0i2caFZChCkMF45xz2ra8R6vcaQNKNukTfa9ShtJPMBOEcnJGCOeP8A61GoavcWvizRdKjSIwX0NzJKzA7gYxHtwc4/jOcg9qAKy+AfB4UA+FdEzjn/AECL/wCJpf8AhAfB3/Qq6J/4ARf/ABNZmp3/AIvtPE2m6XFqOhmPUPPZHfTZSYhGAQD/AKR8xO7GeOnSuwtlnW1iW6kjkuAgEjxIURmxyQpJIHtk/WgDC/4QHwd/0Kuif+AEX/xNH/CA+Dv+hV0T/wAAIv8A4muiooA53/hAfB3/AEKuif8AgBF/8TR/wgPg7/oVdE/8AIv/AImuipkwlMEggZFmKnYzqWUNjgkAjIz2yKAMD/hAfB3/AEKuif8AgBF/8TWb4i+HPhy88M6rbaZ4Z0aLUJrSVLaRbONCshQhSGC8c457Vm3/AMSbiy01lexRNV00NJrMJViluif3ORkykr5fPRiT90iuk01vF7vb3GoDRkhkIMtpEkgkhU+kpYhyP9xQfWgBF8A+DwoB8K6JnHP+gRf/ABNL/wAID4O/6FXRP/ACL/4msrw94o1XxDe7o7/QoAtw6TaU6ubyFFcg7jv4bAzjZjnr3rI1L4halZXWuFNT8PiTTrxre30iSN/td2AFICkS/eYsQMRkZFAHWf8ACA+Dv+hV0T/wAi/+Jo/4QHwd/wBCron/AIARf/E10KksikqVJGSD2paAOd/4QHwcf+ZV0T/wAi/+JrogAAABgCiigAooooAKKKKACuF1TTdfsb7xLFpeli9h11VaKfz0RbaXyRC3mBjkrhVb5Qx6jAruqKAMmPw9pz+HbPRdQtLe/tbaGOLZcxK6sUUAHacjPFU/+EB8Hf8AQq6L/wCAEX/xNdFRQBzv/CA+Dv8AoVdE/wDACL/4mj/hAfB3/Qq6J/4ARf8AxNdFRQBzv/CA+Dv+hV0T/wAAIv8A4mj/AIQHwd/0Kuif+AEX/wATWLqXi69i8X6lpA8QeHNIitVg8ldSiZpJi65OP36dDxwO9X9P8VXdz4teyligGkyyzWlpOoId7iFVMgPOMH96BgZ/ct60AV9L+HHh2DUdaku/DWjPBPeLJaKbONtkXkRKQBj5fnWQ498960/+EB8Hf9Cron/gBF/8TVKz1rxD4iur+XRP7MtdOtLqS0R7yKSV7h4ztcjayhF3ZAPzE4JxVLWvFuo6f4mh0mfWPDuij+zY7qR9QVpA8rO6sqEyx5A2+maANr/hAfB3/Qq6J/4ARf8AxNH/AAgPg7/oVdE/8AIv/ia19Lna50u2ne7tbxpEDfaLRcRSZ7oNzcf8CNW6AOd/4QHwd/0Kuif+AEX/AMTR/wAID4O/6FXRP/ACL/4muiooA53/AIQHwd/0Kuif+AEX/wATR/wgPg7/AKFXRP8AwAi/+Jqx4j1e40gaUbdIm+16lDaSeYCcI5OSMEc8f/Wqtr2u38Gt2Gg6NDbvqN3FJcNLdbvKt4UKgsVXBYksAACO+SKAM3S/hx4dg1HWpLvw1ozwT3iyWimzjbZF5ESkAY+X51kOPfPetP8A4QHwd/0Kuif+AEX/AMTWXceK72y8O+I7r+1PD+pX2lWkkyrYs3yuqtlZYt7FRlQPvc89MUlp40vbjS9FaS3t4tRl1VNM1KAhiIn2MxKc9CArKTn5WHWgDV/4QHwd/wBCron/AIARf/E0f8ID4O/6FXRP/ACL/wCJroqKAOd/4QHwd/0Kuif+AEX/AMTR/wAID4O/6FXRP/ACL/4muiooA53/AIQHwd/0Kuif+AEX/wATR/wgPg7/AKFXRP8AwAi/+Jroq4u21zxFqvgqDXbK40u2lWKeSeOazklV9jMFC4lXbwvOc9e1ACQfDjw6vii/upPDWjHT5LO3jhj+xxkLKrzGQ7ccZDR898e1af8AwgPg7/oVdE/8AIv/AImsNvEHiqDwhp2sS3WjPNqclikKJYSqsPnuikt++JfAftt6VqR61rWk+IdN0vXRYXEOpl47e7so3i2SqpfY6MzcFQ2CG6jGOaALH/CA+Dv+hV0T/wAAIv8A4mj/AIQHwd/0Kuif+AEX/wATXRUUAc7/AMID4O/6FXRP/ACL/wCJo/4QHwd/0Kuif+AEX/xNdFRQBzv/AAgPg7/oVdE/8AIv/iaP+EB8Hf8AQq6J/wCAEX/xNdFWLpur3F54o1zTJEiENgLcxMoO4+YhY7ucdRxgCgDEg+HHh1fFF/dSeGtGOnyWdvHDH9jjIWVXmMh244yGj5749q0/+EB8Hf8AQq6J/wCAEX/xNM0vVNX1zTNTa1lsbW7ttTuLSN5bd5U8uOQqMqHUliB1yBntVXwrqPifVrq7kv73SPstnfTWckcFhKjybOAwYzMFycHG0/1oAu/8ID4O/wChV0T/AMAIv/iaP+EB8Hf9Cron/gBF/wDE10VFAHO/8ID4O/6FXRP/AAAi/wDiaP8AhAfB3/Qq6J/4ARf/ABNdFRQBzv8AwgPg7/oVdE/8AIv/AImj/hAfB3/Qq6J/4ARf/E0viDxBL4bvbS7vhCugSAxXFxtO62lP3GY5x5Z+704JXnB4wtL8VeJ/EOpz2FhaafZGONLp5LyJ3MMMhPkoyBhukYKXPKhQQOTmgCzP8OPDreKLC6j8NaMNPjs7iOaP7HGA0rPCYztxzgLJz2z71p/8ID4O/wChV0T/AMAIv/iaz9c8R6zoNvplvfS6Paz3lw8TajNvFrEqruUlSQQzdApfHB5PSma34k1bRfC9rfS6hobS3F/Fbi+Eb/Zlic4LkeYOnP8AHjjrQBp/8ID4O/6FXRP/AAAi/wDiaP8AhAfB3/Qq6J/4ARf/ABNVvCXiW51vUdTs5bvTdSgtFiZNR0wEQuz7sx4LP8y7QThjww6V1dAHO/8ACA+Dv+hV0T/wAi/+JrQ0vw/o2hmU6TpNjYGbAk+y26x78ZxnaBnGT+daVFABRRRQAUUUUAFYfi/SbnWvDc9rZbPtaSQ3EAkOFZ4pFkCk9gSmM+9blFAHLaPaapqHi2bX9R01tNjjsRZQW8kySSOS+93JQlQOFA5z1JxWlqPhTw7rF0brUtC028uCoUy3FqjvgdBkjNa9FAHO/wDCA+Dv+hV0T/wAi/8AiaP+EB8Hf9Cron/gBF/8TXRUUAc7/wAID4O/6FXRP/ACL/4mj/hAfB3/AEKuif8AgBF/8TUvjLWbjw94S1DVbXyPPt0Ur54JQZYDLAEHGD6isIeKtQOnP9i17w5rV/c3MNpZiwhYJHIxJYyYmckBFZsAqcIfwAJdf+HHh2606KPTvDWjRzi8tpGZbONMxLOjSDOO6BhjvnHetP8A4QHwd/0Kuif+AEX/AMTVGfxnP/wi+j3drZxyatqk62Uds7lUiuPm8zeRk7UKPnHJ2471YvL3xPo2iatqF/JpFyLWwmuIjbwyRYlRSwVlLtuU4OSGU8dOeACb/hAfB3/Qq6J/4ARf/E0f8ID4O/6FXRP/AAAi/wDiaoeFPEdxrVzCJfFHhq/Lwea9np8REyHA6nz34BOD8v5V2NAHO/8ACA+Dv+hV0T/wAi/+Jo/4QHwd/wBCron/AIARf/E10VFAHO/8ID4O/wChV0T/AMAIv/iaP+EB8Hf9Cron/gBF/wDE10VYum6vcXnijXNMkSIQ2AtzEyg7j5iFju5x1HGAKAMXxF8OfDl54Z1W20zwzo0WoTWkqW0i2caFZChCkMF45xz2rRXwD4PCgHwromcc/wCgRf8AxNZS+KdW1G2vNXtrzRNJ0O3uZLaK41MMxnKOULZDosalgQM7icfhUeu+OrzR7/w66R2Fzpl3ayXOoz27mQRxq0SeZE4IBQGXcSRyoPSgDa/4QHwd/wBCron/AIARf/E0f8ID4O/6FXRP/ACL/wCJqfSdYnv/ABFr2nyLEINPkgWFkB3MHiDncc4PJ4xjitugDnf+EB8Hf9Cron/gBF/8TR/wgPg7/oVdE/8AACL/AOJroqKAOd/4QHwd/wBCron/AIARf/E0f8ID4O/6FXRP/ACL/wCJroqxNU1e5svEuh6bEkRi1D7QJGcEsuyPcMc+vXOaAMbxF8OfDl54Z1W20zwzo0WoTWkqW0i2caFZChCkMF45xz2rRXwD4PCgHwromcc/6BF/8TWW1/4zXxXHof8AaegZexa887+y5uMOqbcfaP8AaznPapLXU/FmqalrcdhcaKkWm3YtUintJd0p8qOQkuJflyXI+6cY70AaP/CA+Dv+hV0T/wAAIv8A4mj/AIQHwd/0Kuif+AEX/wATVvwxrq+I9Ag1L7O1tIzPHNAzbjFIjlHXPfDKcHuMVr0Ac7/wgPg7/oVdE/8AACL/AOJo/wCEB8Hf9Cron/gBF/8AE10VFAHO/wDCA+Dv+hV0T/wAi/8AiaP+EB8Hf9Cron/gBF/8TXRVi+LdXuNB8L3up2qRPNAEKrKCVOXVecEHofWgCs3gHweVIHhXRM44/wBAi/8AiazvDvw58OWfhnSrbU/DOjS6hDaRJcyNZxuWkCAMSxXnnPPetrxBq9xpVxokcCRML7UktJfMBOEMcjErgjnKDrnvxWT4m1HxTpV9Y/Yr3R/s1/fx2kaTWErPEGVjuLCYBvu+g60AXv8AhAfB3/Qq6J/4ARf/ABNH/CA+Dv8AoVdE/wDACL/4mtmwS+js0XUZ7ee6Gd8lvC0SHnjCszEcY7mrNAHO/wDCA+Dv+hV0T/wAi/8AiaP+EB8Hf9Cron/gBF/8TXRUUAc7/wAID4O/6FXRP/ACL/4mj/hAfB3/AEKuif8AgBF/8TW/MJTBIIGRZip2M6llDY4JAIyM9sivPL/4k3FlprK9iiarpoaTWYSrFLdE/ucjJlJXy+ejEn7pFAHRt4B8HlSB4V0TOOP9Ai/+JrO8O/Dnw5Z+GdKttT8M6NLqENpElzI1nG5aQIAxLFeec8960tNbxe729xqA0ZIZCDLaRJIJIVPpKWIcj/cUH1rK8PeKNV8Q3u6O/wBCgC3DpNpTq5vIUVyDuO/hsDONmOevegDV/wCEB8Hf9Cron/gBF/8AE0f8ID4O/wChV0T/AMAIv/ia5PUviFqVlda4U1Pw+JNOvGt7fSJI3+13YAUgKRL95ixAxGRkV6apLIpKlSRkg9qAOe/4QHwd/wBCron/AIARf/E0f8ID4O/6FXRP/ACL/wCJroqKAIra2gs7WK2toY4YIUCRxRqFVFAwAAOgFS0UUAFFFFABRRRQAUUUUAFFFFABRRRQAVxz+F9Tj0DxJaWs1pHe6pezSwTkt+6jk2qTnbneF3EAcZxzXY0UAcWfAMOm3uj3ejXN3usZRG0V9fzTRm1ZSkiKrFgpxtIwBygHAp2j6N4p8N6bHomnSaTcafb5S1urp5FlijzlVaNVIcqDjIZc4HSuyooA446T4isPE+t6hYWGjXltqMkMifar2SJ02RKhBAhcdVJ6110RkMKGVVWTaN6o2VB7gHAyPwFPooAKKKKACuf8XaTqOq2ennSxatc2d/DdhLqRo0cJnI3KrEdfSugooA4u40fxTd6vaa+I9HtNUs0e3WFbmWWG5gfBZXYxqUIZVIIDd8ioL7wnresweJLi8Om2t5qekf2bDBbyO8akGQh3cop5MnZeg713dFAHEav4LvbnxXour2FxbxQwyxSajDIWHmmJWWN0wPvAOynOMjb6V29FFABRRRQAVT1e0kv9Fv7KIqslxbyRIXOACykDPtzVyigDgLjQfF+oeC28NXNrocMf2NLdbiO+lckqFAJUwjg49a3PE+lape32h3+kpZyzabdvO0V3O0SurQvHgMqOc/Pnp2ro6KAOZ0zRNUm8TnxDrklotxHam0trWzLOkSMwZ2LsAWYlVH3QAB3zXTUUUAFFFFABRRRQBxum6b4r0XUNUW0tNGuLO81GS7WSW+ljkVXxwVEJGRj1o8H6b4r0DS9N0e8tNGaytU8t7iG+lMhHPIQwgZ9t1dlRQBi+EtIuNB8LWGl3TxPPboyu0RJU5YnjIB7+lbVFFABRRRQAVi+JNHuNYi01Ld4lNrqVvdv5hIykb5IGAefT+dbVFAHJrouu6HrWp3Whf2dc2epzC5ltr2V4jFNtCsysqtkMFU4IHPfmrV/B4kmtYYjZ6DqCvH/pEVy8kS78n7vyvlcYHIB498DoqKAPPrfwXrOk2fh82I0y6m066uriS3lleCBRMHxHHhHIVd+BkdB2rd8LaFfaXe6xqF+bSKbUp0l+y2ZYww7UCZBIBZmxknA7V0lFABRRRQAUUUUAFFFFABRRRQAUUUUAFFFFABWL4t0e41/wve6ZavEk04QK0pIUYdWOcAnoPStqigDl9Y8JnXPElnc3M0kGnWVu/krZ3MkExuHIBYsmDgICBzzvbislvAN5bi4TTr9Y1ttRj1TTJLmSSd1mKFZklLclHyTncTlyewz31FAHL3ll4n1rQ9W0+/j0i2F1YTW8Qt5pJcyOu0MzFF2qMnICseevHM2gQ+ILUW1tqGmaPDbxQiMzWt9JJISBgfKYVHOP73510VFABRRRQAUUUUAcVZ6R4n0251i3hstFutP1C+luC019LHIEkABUqISM4H96qjeFvE8XhCfwjFJpFzprWr2UF9O8izxQspUZjCFWZVOMhlzjpXoFFAHJTeDRe6jqovXR7C90q3sBsJEivG0p39MDG9SDnOR7VP4G0PVdA0Se31m5t7m+mvJrmSW3ztbec55AwfUV01FABRRRQAUUUUAcrq2l6/H4wj1vR4NMuE+wG0eO8upISD5m/I2xvn9KsaDpOp22vatq2praRvfxWy+VbStIEaMODyyrkfMMcetdFRQBwlloXi+y0S70O3OjQQT3F06332iWSREmld8iLy1G4B/7+Miuu0jTINF0ay0u23eRZwJBGW6kKAAT78VdooAKKKKACiiigDn/ABdpOo6rZ6edLFq1zZ38N2EupGjRwmcjcqsR19KyLzT/ABnd67pWr/YNAWWwS4j8n+0ZiriQJzu8jgjZ0x3rt6KAOaGlazf67oWq6hHYW8liLlZored5ARIqhdpKLnpzkDHvXS0UUAFFFFABRRRQByd/4O/te78UpeyoLLWrWCBDGT5kZRXBYgjHBYEcnpVrTV8Xo9vb6j/YzwxkCW7ieQyTKPSIqAhP++wHpXRUUAcRqnhzXtfu7Maha6FB9mu4rgajbtI1wBG4bailBsLAbSd54J4NVL3wp4hltvEmmxWuhyWes3Msq3NxPIZIVdFX/ViLBI25HzjmvQqKAK9jbGz0+2tTK8xhiWMyP958ADJ9zjNWKKKACiiigAooooAKKKKACiiigAooooAKKKKAOcTQ7621rxHqcP2R5b6KEWayk4V442X5/l4G4jpnisIfDc2Wg2A0/ULxtZsZIrmNrjUJzbNOGDSEx5KgPmQHC/xmvQKKAOQs9F8Q+Hbq/i0X+zLrTru6ku0S8lkie3eQ7nUbUYOu7JA+UjOM0l3o/iOLxSms2tto98z6ZFaTLcXEluBIruzMoEcnyndwCc12FFAFeyNybKI3kMENxj544JDIin0DFVJH4CrFFFABRRRQBz/i7SdR1Wz086WLVrmzv4bsJdSNGjhM5G5VYjr6Vl3Gj+KbvV7TXxHo9pqlmj26wrcyyw3MD4LK7GNShDKpBAbvkV2lFAHCX3hPW9Zg8SXF4dNtbzU9I/s2GC3kd41IMhDu5RTyZOy9B3qTV/Bd7c+K9F1ewuLeKGGWKTUYZCw80xKyxumB94B2U5xkbfSu3ooAKKKKACiiigArg9H0Txdpvhz+wHtdEe1KTR/aVvpd+HLEHZ5OM/N03V3lFAHI6h4a1OTwLo2k2rWj3+nNYyHzZWSJzAyMw3BSQDsODt79Kkj0XWtW8Q6bqmumwt4dMLyW9pZSPLvldSm93ZV4ClsAL1Oc8V1VFABRRRQAUUUUAFchJpvibT/Fer6npVrpFzbagsGBdXkkLoY1KnhYmBzn1rr6KAOL0LTvF+iy3cX2LQ5ba61Ca7Z/t8odVkfcQF8nBIz68+1bXhzSLjR01Rbh4mN3qU92nlknCO2QDkDn1/nW1RQAUUUUAFFFFAGL4u0e41/wpqGlWrxJPcx7EaUkKDkHnAJ7elUb7RNXsvE8+vaC1lI95BHBeWl47Rq/lltjq6qxUgMQRtIIx0rqKKAMC4XxQ+nx5t9EuJnZvOtpJJFj2cbQH2sSeuSU5z0GOeb/AOEH1aHSZTbJpSXUmtQ6oLGN3jtYggUFFYITltuSdoySeK9DooA5bQ9C1OLxTe69qSWFo89pHai0sJGkVtrM293ZUy3zYHy8DvXU0UUAFFFFABRRRQAUUUUAFFFFABRRRQAUUUUAYvi3R7jX/C97plq8STThArSkhRh1Y5wCeg9Ko6x4TOueJLO5uZpINOsrd/JWzuZIJjcOQCxZMHAQEDnne3FdRRQBwLeAby3FwmnX6xrbajHqmmSXMkk7rMUKzJKW5KPknO4nLk9hnWvLLxPrWh6tp9/HpFsLqwmt4hbzSS5kddoZmKLtUZOQFY89eOeoooA53QIfEFqLa21DTNHht4oRGZrW+kkkJAwPlMKjnH97866KiigAooooAK5CTTfE2n+K9X1PSrXSLm21BYMC6vJIXQxqVPCxMDnPrXX0UAcVpmieJvD0E9lpsej3dhNM9xHHdTSI1s0jF3QEIwkUMWIJ2nB5pdJ8ES6c3h6Cea3urPTdIn064DAgymQxdF5G3CNnJ7iu0ooA5DwP4V1HwxPq4vryK6hnljW0dWYuIY02IJMgfMFAGRnOM119FFABRRRQAVzXiXStYudZ0TVNHjsZZNPabfFeTvEGEibeCqP0+ldLRQBzGnaXrUviuLXNVi0+DZp8loYrW4eXkyK4OWReMKc/hVWDTPFWlarrsmmwaNJBqV59qjmubqUPH+6jjwY1jweY8/fHWuxooAyPDGhL4c0CDTftDXEis8k07LtMsjsXdsdssxwOwxWvRRQAUUUUAFYfjDSLrXvCl9plk0K3M6r5ZmYqmQwbkgEjp6GtyigDiNX0/wAZ6udNkew0CKTT75LtFGozMJMI6lSfIGPvjselXbzTPEGtJpbajBplrLZapFdFbe6klDRqrA8tGvzZbpjHvXVUUAFFFFABRRRQAVyd/wCDv7Xu/FKXsqCy1q1ggQxk+ZGUVwWIIxwWBHJ6V1lFAHO6avi9Ht7fUf7GeGMgS3cTyGSZR6RFQEJ/32A9KytU8Oa9r93ZjULXQoPs13FcDUbdpGuAI3DbUUoNhYDaTvPBPBrt6KAPPb3wp4hltvEmmxWuhyWes3Msq3NxPIZIVdFX/ViLBI25Hzjmu6sbY2en21qZXmMMSxmR/vPgAZPucZqxRQAUUUUAFFFFABRRRQAUUUUAFFFFABRRRQAUUUUAFFFFABRRRQAUUUUAFFFFABRRRQAUUUUAFFFVrjULW1urS1ml2z3bskKBSSxClj06AAdTx0HUigCzRRVa1v7W9kuo7eXe9rL5MylSCj4DYIPswIPQgigCzRWbqPiLRNIuEt9T1nT7KaRdyR3N0kbMM4yAxBIzWhHIksayRurowDKynIIPQg0AOooooAKKq2+pWl1f3llDLuuLMoJ02kbCy7l5Iwcj0ov9SsNKtvtOo3ttZwZx5txKsa59MsQKALVFQWl5a39slzZ3MNzbvyksLh1b6EcGkv7630zTrm/vJPLtbWJ5pn2k7UUEscDk4APSgCxRTYpEmiSWM5R1DKcdQelOoAKKKKACiiigAooooAKKKKACiiigAooooAKKKKACiiigAooooAKKKKACiiigAooooAKKKKACiiigAooooAKKKKACiiigAooooAKKKzL3xDpenLqLXV1sXToFuLsiNmESHJBOAcnCk4GTjHHIyAadFNLgIX5IAzwCT+VQ2N9balYQX1nKJbadBJG4BG5T04PI+h5oAsUVlnxLoI1M6Ydb00X4bYbX7WnmhvTZnOfbFalABRRRQAUVV03UrTV7FL2xl823dmVX2lclWKnggHqCKkivLadZmhuIZFhcxylHB8th1VsdCO4NAE1FR29xDd20VxbTRzQSqHjljYMrqRkEEcEEd6koAKKKKACiiigAooooAKKKKACiiigAooooAKKKKACiiigAooooAKKKKACiiigAooooAKKKKACiiigAooooAKKKKACiiigAooooAKKKKACiimSyxwxPLK6pGilmZjgKB1JoAfRUFndw39lBeWzM0E8ayRsyFSVIyDggEceoprX9qmpR6c0uLqSJpkjKn5kUgMQehwWXI68j1oAs0VFJdW8M8MEs8STTkiGNnAaQgZO0dTgcnHao01CylluYo7y3eS1wLhFlBMORkbxn5eOee1AFmio4J4bq3iuLeWOaCVA8ckbBldSMggjggjvUFvqdnc/Zgk2yS5jMsUMymKVkGMny2AYY3LnI4yM9aALdFFR3FxBaW0tzczRwwRKXklkYKqKOSSTwAPWgCSioZbu2gEJmuIoxM4ji3uB5jHkKuepODwKmoAKKKKACiiigAooooAKKKKACiiigAooooAKKKKACiiigAooooAKKKKACiiigAooooAKKKKACiiigAooooAKKKKACiiigAooooAKKKKACiiigAooqtYaha6nai6s5fNgLugcKQCVYqcZ6jIPI4PUZFAFmisxvEOlILpmusLaXSWc7GNsRyvs2qTjp+8Tnpz161eubm3sraS5up4oLeJS0ksrhVQDqSTwBQBLRUEl9aQ3Vvay3UCXFzu8iJpAHl2jLbR1bA5OOlLFdW88s0UM8UkkDBJkRwTGxAIDAdDgg4PYigCaiqkmp2cBuPtE3kLAyLJJOpjjy+NoDsArZJA4J5OOtW6ACiis++17R9Lnjg1DVrG0ml/1cdxcJGz/QEgmgDQooBBAIOQe9VbzUrTT5bOO6l8t7ycW8A2k75NrNjgcfKjHJ44oAtUUUUAFFFFABRRRQAUUUUAFFFFABRRRQAUUUUAFFFFABRRRQAUUUUAFFFFABRRRQAUUUUAFFFFABRRRQAUUUUAFFFFABRRRQAUUUUAFFFFABXLy5b4p2ol+4ujSm3z/eMyeZj3wI/wA66iqlzpttd31leyBhcWbOYnU44ZdrKfUHg49VB7UAeXt4iu/7d0jVrCS5is7/AFr7HtudYaQzIZGRh9l2lUAIyCCCMDPXFdlpuR8StfWH/UnT7JpvTzt0w/PYF/IVrjw9oi3r3g0fTxdPIJXnFsm9nByGLYySDzmp7PTbaxnvJ4VYzXk3nTOxyWbaFA+gVQAKAOK1221i6+JE0ejTadHOdCGRf27So375sD5WXHPfn6VztjcXsOj+EfDunzyG3+y3K3Alv2092uYnVWh8yNWZSpZ/kGMgA5IHPrv2W3+1m78iL7SY/LM2wb9mc7d3XGecVVuND0i7t5re50uxmgnl86WOS3Rlkk6b2BGC3A5PNAHCS3epwaLpujajM93qF1ezrbG11p4gIkBYLLcqoYlQccLk4BPeqGna9qGoeHbCxu9Ulhtn8Qy6bcXsF4XcQqruiCfCk5YKm/AJHuc16RJ4f0WbTk06XR9Pexjbcls1shiU+oXGAaedF0o2M1idMszZzHdLb+QvlyHjllxgngdfQUAcP4Xa6s/EPjKPRpF1d4rq1jQ3l6V48kZUy7XLFTxyCeME5FWpGD/FWwbXooImOjZsY3ffEtx5h84IzAZfb5fOAdvbrXY2Ol6fpisthY2torBQwghWPIAwM4HYcClv9MsNVtvs2o2VteQZz5VxEsi59cMCKAPLNYuHtZPHkvh66e1tA1gvnWjbVS7LgSlCOM7THu9+ver3iWObSYvF2kJf31zZzeF57vbeXDTFJQJFJUtyAQRwOOOAK9DXSdNTThp66faLYjGLYQqIxg5Hy4x1AP1p8+nWN08r3FnbzNLCbeQyRKxeI9UORypyeOlAHA6zrt94VkDxSyzLrGmRxadE7FlS+XCKqjsHEikgf882Nd5pdm+n6TaWclxLcyQQpG08zlnkIGCzE8kk81nX3h99R13TLue5i/s/TW86CySDB87ayB2fd0AY4UKOecmtygAooooAKKKKACiiigAooooAKKKKACiiigAooooAKKKKACiiigAooooAKKKKACiiigAooooAKKKKACiiigAooooAKKKKACiiigAry/Vst4B+Jby/8fBuroSZ67RDGI/w2bK9QrPbRNPkur+aW3SUahGkd1DIA0coUEAlTwTg4PqAPSgDk9Hm+xeLtHt7DW7vU4NR06W4u1nuTMqlTHslUdIwSzLgYU9hxWn4DyNI1FV/49k1e+W39Nnnv09t24Cty10fTbCS4lsbC1tJbk5mkt4VRpD6sQOTz3p+m6dbaTptvYWaFLeBAiAnJ+pPcnqT3JoA8k1jTdVv9H8ZeXcWiaQmtPJeAWjPdJGoiZ3jbftyFGQNueDg5xWnq15reueKdbt7G6WOKzjhNk41p7MKjxB/O2LGwlBYsMsSPlxjqT6XHZ2sKzrHbQoJ3LzBUA8xiMEt6kgAZPpVK48N6FdxW0VzounTR2qhLdJbVGESjoFBHyj2FAHBeJdVvp0liE8i6hp2kxXN3cw609nbo7BjvjVVPm8qfvDGNoqza6lN4j1DRE1XVrrT7eXw/DqI+zXJtvNnf75LAjIQbTt6fPyDXc3Wh6RezwT3elWM80C7YZJbdHaMeikjgfSkuNC0i7tra2udKsZre1wLeKS3RlhwMDYCMLgADj0oA4/4eXWrDwFoh0+1tb+GSSczXE10YWA89/mVRGwbIycZWq+jw+IXXxY2m3+lw2v9q3WUubKSV87Vz8yyqP0r0O2tbeygWC1gighUkiOJAqgkkngcckk/jSRWdtAsyw28MazOZJQiAeYx6s2OpPcmgDySwu9VudN8G6NbHbat4dguFQao9gZpAFU4kRGZtowdox97Jz21p7zU/wCy9D0a/na81aZbqQS2utPaxGOJwBvnRQzuAyggLyQxIru7nQtIvNPhsLrSrGeygAEVvLbo0cYAwAqkYGBxxST6Bo11ZwWdxpFhLawHMMElsjJGfVVIwPwoA4DRvEOof8Il4f8AEd3fvJBZ6lNZXzCcvHJbtK0KSMcAPtIiO8gcbjxk1Zi1DUo/Ddp40kvLr7O+pG9lt2lbYthJ+6Ubc4wseyX6hvU13Z0rTjYS2B0+1NnMWMlv5K+W5Y5bK4wckkn1Jqlr+iTatoL6PZXcWn20yeRNtt958gqVZE+YBDjgHBx6UAVPBlxc6nptzrdxNK6ancvPaxuxKxW4wsQUdBuVQ5x3c10lR28EVrbRW8CCOGJAiIvRVAwB+VSUAFFFFABRRRQAUUUUAFFFFABRRRQAUUUUAFFFFABRRRQAUUUUAFFFFABRRRQAUUUUAFFFFABRRRQAUUUUAFFFFABRRRQAVzHxFZ1+H+s7SQpgxKR/zyLASf8Ajm6unqO4t4ru2ltriNZIZUMciMMhlIwQfwoA5HXGN7410/RLnUbmw0xrCS4jW1uGtzcSh1XbvUhsKpztBGd2TwKdrMaQaz4JW0ne4kW9kjEryeYzw/Zpd5Zu/ITn1xW8+gaXcaTbaZfWUN/a26KiLexrN90YBO4HJx3p6aNYx39teRwhHtYGt7dFGEiRipO1RwM7VH0GKAMLx8RZ6Zp2uZx/ZGowXLt3ETHypfw2SMfwrz+9uZ7DSJr+ElbnxraSxRHv5slwBB+IhuD+Edez3NtBeW0ltdQRz28qlJIpUDK6nqCDwRUMml6fKlqkljautmyvbK0KkQMowCnHykDgYoA5DQ9LaTxtrVs2o6gtjpP2NLOzjuXSJMQgnKgjcDgfKeOvFc1oFout33gG71O/1Fp7jQJy0q6hNG0jq0J5KsCSdxz64Gc7Rj1qO1t4Z5p44IkmnIMsioA0mBgbj1OBwM1Tn8P6Lc2VvZXGkWEtrbY8iCS2Rkix02qRhfwoA82a68T6tqGs3lrdwW11ZalJDEZ9aeGOGNHwqvbCMowZADkkk7sgjjHTeN59WfwX4sjutPtYbFdMufJnju2kkf5DjchjAXjJ+8a6O60DRr6+S+u9JsLi8TGy4ltkeRcdMMRkVduLeC7tpba5hjmglUpJFIoZXU8EEHgg+lAHnusw+IUk8Jtqd/pc9r/a1vhLaykifOx8fM0rDHXtWXbXXifVrq81GC7gt7q31SSH9/rTxxxIkxURta+WUO5AOScnduBHAHqktpbTiETW8UghcSRb0B8thwGXPQjJ5FVZ9A0a61BdQuNJsJr1MbbmS2RpFx0wxGaAPNPFniK7t7rU9Y0yS5hGnahHas82sOiu4ZAyLahSrKQTySD1INa3iPWNR0fVda0KG7m+1a0sLaQzOSYnkIhlCk9AmBLgcDca7O48PaJd3kl3c6Pp81zIoV5pLZGdgOxYjJHAq1NYWdzd291PaQS3NsWMEzxhni3DDbSRlcjg460AcF4i1PUfDOo3ulW13cyya1axR6Q00rOY7kFYXAJPYNHL+Dn1rv7S3+yWUFt5ssvkxrH5krlnfAxlieST3NZV1oMt94nstVu7uN7awDtaWqwYKysu0uzlju4LAAAY3d626ACiiigAooooAKKKKACiiigAooooAKKKKACiiigAooooAKKKKACiiigAooooAKKKKACiiigAooooAKKKKACiiigAooooAKKKKAKOttcJoOotaZ+0raymHHXftO39cVw4lQ6D4B0qG+msdJvoEWWa2mMLPtt90cYkBBXccnggnbjPNejVlxeHdKj0caRJZQ3OnhmZbe5QSouWLYAYYwCeB2GBQB53ZLa/8IP8TEa+e8t47q6VbiR97HbaxAfN3IIAz1JHrXojWLav4WNhqI+e7svJuAR3dMN/M0TeHdJlsGsUsoYLV5Y5ZIrdBGshQrt3ADkfIo9wAOlalAHi+nahLqtjaeI7g/vvCsNpbTMf4ZRIVvPp+7Cmr2lx3WpN4cnS/vLOLxDql/fXAtpmjaSIxt5Skj/YSPnqO2DzXpyaTpsdvd26afaLBeM73MawqFnZxhy4xhiw6k9e9PTTrGMWgSzt1Fmu22CxKPIG3bhOPlG3jjtxQB5d4rhaTTvFmnzXt89pYXOlLCHvJMov7sMS27JzksST1+bqM1o6+NQg8S6b4c0+ad7AWL3Cefrk1tJPJ5mD+/2u77QR8uQMN3AAHoD6dYy/avMsrd/tYAuN0SnzgBgB+Pm4457VVfw3oUmmRaa+i6c1hES0dq1qhiQkkkhMYBySenegDI0CbxPDo+mw3EOnai290uLsaiSVQSELjEWJGCYBPy5YHpWV4T/svzvF39t/Zft/9qT/AGz7Xtz9n48nO7/ln5e3Hbr713Vta29lbpb2sEUEEYwkUSBVUewHAqpf6Do+qTxz6hpNjdzR/wCrkuLdJGT6EgkUAeZeHI728sfBWnHUNRtdPuDqJRYZ3ieW2VswAkHIGwrg9QOhGauw3FxI2hWlxczXIsfF81rFLO5eQxrBOVDMeWIBxk88V6U9pbSTwzvbxNNAGEUhQFoweDtPUZwM49KjGmaeGVhY2wZZzcg+UuRKQQZOn3iCRu64JoA4G21HUX1u38Em9ujd22pPczXHmt5j2C4lTL5ycs6RHnkK1ekViaZoMtrr2oa1fXcd1eXSJBGY4PKWGBCzKgG5iTliS2eeOBitugAooooAKKKKACiiigAooooAKKKKACiiigAooooAKKKKACiiigAooooAKKKKACiiigAooooAKKKKACiiigAooooAKKKKACiiigAooooAKKKKACiiigAooooAKKKKACiiigAooooAKKKKACiiigAooooAKKKKACiiigAooooAKKKKACiiigAooooAKKKKACiiigAooooAKKKKACiiigAooooAKKKKACiiigAooooAKKKKACiiigAooooAKKKKACiiigAooooAKKKKACiiigAooooAKKKKACiiigAooooAKKKKACiiigAooooAKKKKACiiigAooooAKKKKACiiigAooooAKKKKACiiigAooooAKKKKACiiigAooooAKKKKACiiigAooooAKKKKACiiigAooooAKKKKACiiigAooooAKKKKACiiigAooooAKKKKACiiigAooooAKKKKACiiigAooooAKKKKACiiigAooooAKKKKACiiigAooooAKKKKACiiigAooooAKKKKACiiigAooooAKKKKACiiigAooooAKKKKACiiigAooooAKKKKACiiigAooooAKKKKAP/Z;" vertex="1" parent="1">
          <mxGeometry x="180" y="132" width="1625" height="438" as="geometry" />
        </mxCell>
      </root>
    </mxGraphModel>
  </diagram>
</mxfile>
